<?xml version="1.0" encoding="UTF-8" standalone="no"?>
<!-- Created with Inkscape (http://www.inkscape.org/) -->

<svg
   width="400"
   height="400"
   viewBox="0 0 105.83333 105.83333"
   version="1.1"
   id="svg5"
   inkscape:version="1.2 (dc2aedaf03, 2022-05-15)"
   sodipodi:docname="background.svg"
   xmlns:inkscape="http://www.inkscape.org/namespaces/inkscape"
   xmlns:sodipodi="http://sodipodi.sourceforge.net/DTD/sodipodi-0.dtd"
   xmlns:xlink="http://www.w3.org/1999/xlink"
   xmlns="http://www.w3.org/2000/svg"
   xmlns:svg="http://www.w3.org/2000/svg">
  <sodipodi:namedview
     id="namedview7"
     pagecolor="#505050"
     bordercolor="#eeeeee"
     borderopacity="1"
     inkscape:showpageshadow="0"
     inkscape:pageopacity="0"
     inkscape:pagecheckerboard="0"
     inkscape:deskcolor="#505050"
     inkscape:document-units="px"
     showgrid="false"
     inkscape:zoom="1"
     inkscape:cx="369.5"
     inkscape:cy="164.5"
     inkscape:window-width="1366"
     inkscape:window-height="699"
     inkscape:window-x="0"
     inkscape:window-y="0"
     inkscape:window-maximized="1"
     inkscape:current-layer="layer1" />
  <defs
     id="defs2">
    <linearGradient
       id="linear-gradient"
       x1="104.12"
       y1="230.53999"
       x2="151.94"
       y2="193.21001"
       gradientUnits="userSpaceOnUse">
      <stop
         offset="0"
         stop-color="#fff"
         stop-opacity="0"
         id="stop6669" />
      <stop
         offset="0.98"
         stop-color="#0800bf"
         id="stop6671" />
    </linearGradient>
    <linearGradient
       id="linear-gradient-2"
       x1="83.230003"
       y1="179.7"
       x2="129.78999"
       y2="132.33"
       xlink:href="#linear-gradient" />
    <linearGradient
       id="linear-gradient-3"
       x1="175.78"
       y1="221.98"
       x2="199.13"
       y2="151.92"
       xlink:href="#linear-gradient" />
    <linearGradient
       id="linear-gradient-4"
       x1="253.03"
       y1="255.50999"
       x2="276.60001"
       y2="236.50999"
       xlink:href="#linear-gradient" />
    <linearGradient
       id="linear-gradient-36"
       x1="183.83"
       y1="264.73001"
       x2="185.89999"
       y2="304.51999"
       gradientUnits="userSpaceOnUse">
      <stop
         offset="0.01"
         id="stop18633" />
      <stop
         offset="0.08"
         stop-opacity="0.69"
         id="stop18635" />
      <stop
         offset="0.21"
         stop-opacity="0.32"
         id="stop18637" />
      <stop
         offset="1"
         stop-opacity="0"
         id="stop18639" />
    </linearGradient>
    <linearGradient
       id="linear-gradient-2-7"
       x1="198.78999"
       y1="115.83"
       x2="207.47"
       y2="258.13"
       xlink:href="#linear-gradient-36" />
    <linearGradient
       id="linear-gradient-3-5"
       x1="2316.74"
       y1="-609.72998"
       x2="2301.1799"
       y2="-592.25"
       gradientTransform="matrix(-0.82,0.58,0.58,0.82,2373.07,-750.08)"
       xlink:href="#linear-gradient-36" />
    <linearGradient
       id="linear-gradient-4-3"
       x1="4330.77"
       y1="2142.8401"
       x2="4507.3301"
       y2="2228.49"
       gradientTransform="rotate(-142.1,1925.8456,1863.0268)"
       gradientUnits="userSpaceOnUse">
      <stop
         offset="0.01"
         id="stop18644" />
      <stop
         offset="0.08"
         stop-opacity="0.69"
         id="stop18646" />
      <stop
         offset="0.21"
         stop-opacity="0.32"
         id="stop18648" />
      <stop
         offset="1"
         stop-opacity="0"
         id="stop18650" />
    </linearGradient>
    <linearGradient
       id="linear-gradient-5"
       x1="151.05"
       y1="89.309998"
       x2="160.05"
       y2="133.45"
       xlink:href="#linear-gradient-4-3" />
    <linearGradient
       id="linear-gradient-6"
       x1="2290.73"
       y1="-591.78003"
       x2="2325.28"
       y2="-589.91998"
       gradientTransform="matrix(-0.82,0.58,0.58,0.82,2373.07,-750.08)"
       xlink:href="#linear-gradient-36" />
    <linearGradient
       id="linear-gradient-7"
       x1="169.8"
       y1="127.82"
       x2="168.28999"
       y2="306.51999"
       xlink:href="#linear-gradient-4-3" />
    <linearGradient
       id="linear-gradient-8"
       x1="163.48"
       y1="158.08"
       x2="90.669998"
       y2="199.84"
       xlink:href="#linear-gradient-4-3" />
    <linearGradient
       id="linear-gradient-9"
       x1="130.94"
       y1="144.46001"
       x2="3.3"
       y2="217.66"
       xlink:href="#linear-gradient-4-3" />
    <linearGradient
       id="linear-gradient-10"
       x1="287.37"
       y1="96.879997"
       x2="352.62"
       y2="250.07001"
       xlink:href="#linear-gradient-4-3" />
    <linearGradient
       id="linear-gradient-11"
       x1="169.38"
       y1="134.78"
       x2="406.73001"
       y2="301.17999"
       xlink:href="#linear-gradient-4-3" />
    <linearGradient
       id="linear-gradient-12"
       x1="199.17"
       y1="253.11"
       x2="243.94"
       y2="12.38"
       xlink:href="#linear-gradient-4-3" />
    <linearGradient
       id="linear-gradient-13"
       x1="171.77"
       y1="88.489998"
       x2="165.00999"
       y2="385.82001"
       xlink:href="#linear-gradient-4-3" />
    <linearGradient
       id="linear-gradient-14"
       x1="144.75999"
       y1="213.89"
       x2="232.33"
       y2="309.06"
       xlink:href="#linear-gradient-4-3" />
    <linearGradient
       id="linear-gradient-15"
       x1="163.53"
       y1="235.49001"
       x2="213.67"
       y2="305.67999"
       xlink:href="#linear-gradient-36" />
    <linearGradient
       id="linear-gradient-56"
       x1="401.64999"
       y1="531.53998"
       x2="412.84"
       y2="766.45001"
       gradientUnits="userSpaceOnUse">
      <stop
         offset="0"
         stop-opacity="0"
         id="stop25096" />
      <stop
         offset="0.97"
         id="stop25098" />
    </linearGradient>
    <linearGradient
       id="linear-gradient-2-2"
       x1="343.73001"
       y1="-19.889999"
       x2="352.92999"
       y2="557.12"
       gradientUnits="userSpaceOnUse">
      <stop
         offset="0"
         stop-color="#fff"
         id="stop25101" />
      <stop
         offset="1"
         stop-color="#fff"
         stop-opacity="0"
         id="stop25103" />
    </linearGradient>
    <linearGradient
       id="linear-gradient-3-9"
       x1="347.72"
       y1="229.94"
       x2="317.85001"
       y2="238.37"
       gradientUnits="userSpaceOnUse">
      <stop
         offset="0"
         stop-color="#ecc4d7"
         id="stop25106" />
      <stop
         offset="0.42"
         stop-color="#efd4d1"
         id="stop25108" />
      <stop
         offset="1"
         stop-color="#f2eac9"
         id="stop25110" />
    </linearGradient>
    <linearGradient
       id="linear-gradient-4-1"
       x1="187.08"
       y1="72.580002"
       x2="175.47"
       y2="306.81"
       xlink:href="#linear-gradient-2-2" />
    <linearGradient
       id="linear-gradient-5-2"
       x1="254.98"
       y1="145.35001"
       x2="260.59"
       y2="145.35001"
       xlink:href="#linear-gradient-3-9" />
    <linearGradient
       id="linear-gradient-6-7"
       x1="211.53"
       y1="146.59"
       x2="219.07001"
       y2="146.59"
       xlink:href="#linear-gradient-3-9" />
    <linearGradient
       id="linear-gradient-7-0"
       x1="215.55"
       y1="147.28999"
       x2="214.69"
       y2="151.2"
       xlink:href="#linear-gradient-3-9" />
    <linearGradient
       id="linear-gradient-8-9"
       x1="1035.91"
       y1="145.99001"
       x2="1035.0601"
       y2="149.89999"
       gradientTransform="matrix(-1,0,0,1,1292.73,0)"
       xlink:href="#linear-gradient-3-9" />
    <linearGradient
       id="linear-gradient-9-3"
       x1="344.60999"
       y1="225.28999"
       x2="482.94"
       y2="225.28999"
       xlink:href="#linear-gradient-3-9" />
    <linearGradient
       id="linear-gradient-10-6"
       x1="410.39999"
       y1="309.41"
       x2="407.64001"
       y2="637.46997"
       xlink:href="#linear-gradient-56" />
    <linearGradient
       id="linear-gradient-11-0"
       x1="543.37"
       y1="340.22"
       x2="513.15002"
       y2="518.27002"
       xlink:href="#linear-gradient-56" />
    <linearGradient
       id="linear-gradient-12-6"
       x1="532.19"
       y1="250.07001"
       x2="645.19"
       y2="250.07001"
       xlink:href="#linear-gradient-3-9" />
    <linearGradient
       id="linear-gradient-13-2"
       x1="234"
       y1="169.8"
       x2="237.72"
       y2="186.95"
       xlink:href="#linear-gradient-3-9" />
    <linearGradient
       id="linear-gradient-14-6"
       x1="225.86"
       y1="118.14"
       x2="245.00999"
       y2="153.58"
       xlink:href="#linear-gradient-3-9" />
    <linearGradient
       id="linear-gradient-15-1"
       x1="485.39001"
       y1="284.89001"
       x2="396.04999"
       y2="582.01001"
       gradientUnits="userSpaceOnUse">
      <stop
         offset="0"
         stop-color="#fff"
         id="stop25124" />
      <stop
         offset="0.89"
         stop-color="#fff"
         stop-opacity="0"
         id="stop25126" />
    </linearGradient>
    <linearGradient
       id="linear-gradient-16"
       x1="344.73999"
       y1="399.82001"
       x2="343.79999"
       y2="636.59003"
       xlink:href="#linear-gradient-56" />
    <linearGradient
       id="linear-gradient-17"
       x1="349.95001"
       y1="295.39999"
       x2="344.35999"
       y2="551.75"
       gradientUnits="userSpaceOnUse">
      <stop
         offset="0"
         stop-color="#fff"
         id="stop25130" />
      <stop
         offset="0.6"
         stop-color="#fff"
         stop-opacity="0.48"
         id="stop25132" />
      <stop
         offset="0.87"
         stop-color="#fff"
         stop-opacity="0.13"
         id="stop25134" />
      <stop
         offset="1"
         stop-color="#fff"
         stop-opacity="0"
         id="stop25136" />
    </linearGradient>
    <linearGradient
       id="linear-gradient-18"
       x1="348.28"
       y1="399.82999"
       x2="347.35001"
       y2="636.60999"
       xlink:href="#linear-gradient-56" />
    <linearGradient
       id="linear-gradient-19"
       x1="353.64999"
       y1="306.57001"
       x2="348.04999"
       y2="562.92999"
       xlink:href="#linear-gradient-2-2" />
    <linearGradient
       id="linear-gradient-20"
       x1="359.04999"
       y1="455.76001"
       x2="348.79001"
       y2="798.79999"
       xlink:href="#linear-gradient-56" />
    <linearGradient
       id="linear-gradient-21"
       x1="1368"
       y1="235.8"
       x2="1338.13"
       y2="244.23"
       gradientTransform="matrix(-1,0,0,1,1841.96,0)"
       xlink:href="#linear-gradient-3-9" />
    <linearGradient
       id="linear-gradient-22"
       x1="394.51999"
       y1="313.84"
       x2="371.37"
       y2="464.32999"
       xlink:href="#linear-gradient-3-9" />
    <linearGradient
       id="linear-gradient-23"
       x1="593.46002"
       y1="245.74001"
       x2="660.04999"
       y2="341.20999"
       xlink:href="#linear-gradient-3-9" />
    <linearGradient
       id="linear-gradient-87"
       x1="637.47998"
       y1="453.45001"
       x2="466.5"
       y2="775.17999"
       gradientTransform="translate(0,-170)"
       gradientUnits="userSpaceOnUse">
      <stop
         offset="0"
         stop-opacity="0"
         id="stop36003" />
      <stop
         offset="0.91"
         stop-opacity="0.8"
         id="stop36005" />
      <stop
         offset="1"
         id="stop36007" />
    </linearGradient>
    <linearGradient
       id="linear-gradient-2-9"
       x1="405.79999"
       y1="100.59"
       x2="386.76001"
       y2="362.03"
       xlink:href="#linear-gradient-87" />
    <linearGradient
       id="linear-gradient-3-2"
       x1="357.57999"
       y1="579.03998"
       x2="362.09"
       y2="509.22"
       gradientTransform="matrix(1,0,0,-1,0,600)"
       gradientUnits="userSpaceOnUse">
      <stop
         offset="0.01"
         id="stop36011" />
      <stop
         offset="0.1"
         stop-opacity="0.77"
         id="stop36013" />
      <stop
         offset="0.99"
         stop-opacity="0"
         id="stop36015" />
    </linearGradient>
    <linearGradient
       id="linear-gradient-4-0"
       x1="307.07001"
       y1="511.95999"
       x2="-264.01001"
       y2="513.64001"
       xlink:href="#linear-gradient-87" />
    <linearGradient
       id="linear-gradient-5-23"
       x1="710.53003"
       y1="296.10001"
       x2="254.39999"
       y2="367.06"
       xlink:href="#linear-gradient-87" />
    <linearGradient
       id="linear-gradient-6-75"
       x1="432.31"
       y1="295.53"
       x2="434.19"
       y2="324.06"
       gradientTransform="translate(0,-170)"
       gradientUnits="userSpaceOnUse">
      <stop
         offset="0"
         stop-color="#183866"
         id="stop36020" />
      <stop
         offset="1"
         stop-color="#1a7fc1"
         id="stop36022" />
    </linearGradient>
    <linearGradient
       id="linear-gradient-7-9"
       x1="432.31"
       y1="369.39999"
       x2="434.19"
       y2="397.94"
       xlink:href="#linear-gradient-6-75" />
    <linearGradient
       id="linear-gradient-8-2"
       x1="446.06"
       y1="369.39999"
       x2="447.92999"
       y2="397.94"
       xlink:href="#linear-gradient-6-75" />
    <linearGradient
       id="linear-gradient-9-2"
       x1="459.89001"
       y1="369.39999"
       x2="461.76001"
       y2="397.94"
       xlink:href="#linear-gradient-6-75" />
    <linearGradient
       id="linear-gradient-10-8"
       x1="432.29999"
       y1="518.16998"
       x2="434.17999"
       y2="546.71002"
       xlink:href="#linear-gradient-6-75" />
    <linearGradient
       id="linear-gradient-11-9"
       x1="446.06"
       y1="518.16998"
       x2="447.92999"
       y2="546.71002"
       xlink:href="#linear-gradient-6-75" />
    <linearGradient
       id="linear-gradient-12-7"
       x1="459.89001"
       y1="518.16998"
       x2="461.76001"
       y2="546.71002"
       xlink:href="#linear-gradient-6-75" />
    <linearGradient
       id="linear-gradient-13-3"
       x1="703.15997"
       y1="402.81"
       x2="610.33002"
       y2="366.60999"
       gradientTransform="translate(0,-170)"
       gradientUnits="userSpaceOnUse">
      <stop
         offset="0"
         stop-color="#ecc4d7"
         id="stop36031" />
      <stop
         offset="0.16"
         stop-color="#edcbd5"
         id="stop36033" />
      <stop
         offset="0.42"
         stop-color="#efd4d1"
         id="stop36035" />
      <stop
         offset="0.7"
         stop-color="#f2eac9"
         id="stop36037" />
    </linearGradient>
    <linearGradient
       id="linear-gradient-14-61"
       x1="584"
       y1="430.92001"
       x2="600.92999"
       y2="430.92001"
       gradientTransform="translate(0,-170)"
       gradientUnits="userSpaceOnUse">
      <stop
         offset="0"
         stop-color="#ecc4d7"
         id="stop36040" />
      <stop
         offset="0.42"
         stop-color="#efd4d1"
         id="stop36042" />
      <stop
         offset="1"
         stop-color="#f2eac9"
         id="stop36044" />
    </linearGradient>
    <linearGradient
       id="linear-gradient-15-2"
       x1="590.35999"
       y1="488.73999"
       x2="604.48999"
       y2="488.73999"
       xlink:href="#linear-gradient-14-61" />
    <linearGradient
       id="linear-gradient-16-9"
       x1="638.95001"
       y1="418.78"
       x2="600.41998"
       y2="464.03"
       xlink:href="#linear-gradient-14-61" />
    <linearGradient
       id="linear-gradient-17-3"
       x1="140.39999"
       y1="49.02"
       x2="146.60001"
       y2="102.52"
       gradientTransform="matrix(1,0,0,-1,0,600)"
       gradientUnits="userSpaceOnUse">
      <stop
         offset="0.1"
         stop-opacity="0.77"
         id="stop36049" />
      <stop
         offset="0.99"
         stop-opacity="0"
         id="stop36051" />
    </linearGradient>
    <linearGradient
       id="linear-gradient-18-1"
       x1="163.84"
       y1="130.91"
       x2="132.02"
       y2="134.00999"
       xlink:href="#linear-gradient-17-3" />
    <linearGradient
       id="linear-gradient-19-9"
       x1="123.02"
       y1="129.86"
       x2="121.92"
       y2="58.459999"
       gradientTransform="matrix(1,0,0,-1,0,600)"
       gradientUnits="userSpaceOnUse">
      <stop
         offset="0.36"
         stop-opacity="0.77"
         id="stop36055" />
      <stop
         offset="0.99"
         stop-opacity="0"
         id="stop36057" />
    </linearGradient>
    <linearGradient
       id="linear-gradient-20-4"
       x1="120.08"
       y1="69.760002"
       x2="121.21"
       y2="31.84"
       xlink:href="#linear-gradient-3-2" />
    <linearGradient
       id="linear-gradient-21-7"
       x1="158.89"
       y1="64.269997"
       x2="134.39"
       y2="18.379999"
       xlink:href="#linear-gradient-3-2" />
    <linearGradient
       id="linear-gradient-22-8"
       x1="160.25999"
       y1="97.540001"
       x2="145.91"
       y2="47.98"
       xlink:href="#linear-gradient-17-3" />
  </defs>
  <g
     inkscape:label="Layer 1"
     inkscape:groupmode="layer"
     id="layer1">
    <rect
       style="fill:#97aaf2;fill-opacity:1;stroke:#000000;stroke-width:0"
       id="rect3528"
       width="105.83333"
       height="105.83333"
       x="4.2485604e-07"
       y="4.2485604e-07" />
    <path
       fill="#000"
       d="m 15.352798,77.982454 a 1.7406798,1.7406798 0 1 1 0,0.696272 H 5.0000001e-7 v -0.696272 z m 55.701753,16.710529 a 1.7406798,1.7406798 0 1 1 0,0.69627 H 28.547148 v -0.69627 z m 20.12226,-16.014257 a 1.7406798,1.7406798 0 1 1 0,-0.696271 h 14.656519 v 0.696271 z m 0,5.570176 a 1.7406798,1.7406798 0 1 1 0,-0.696272 h 14.656519 v 0.696272 z m 2.15844,-39.6875 a 1.7406798,1.7406798 0 1 1 0,0.696272 h -30.00932 a 1.7406798,1.7406798 0 1 1 0,-0.696272 z M 4.2124455,27.850876 a 1.7406798,1.7406798 0 1 1 0,0.696273 H 5.0000001e-7 V 27.850876 Z M 68.89611,39.687498 a 1.7406798,1.7406798 0 1 1 0,-0.696272 h 30.00932 a 1.7406798,1.7406798 0 1 1 0,0.696272 z M 89.81908,4.2124455 a 1.7406798,1.7406798 0 1 1 -0.69627,0 V 5e-7 h 0.69627 z M 67.53838,76.624723 a 1.7406798,1.7406798 0 1 1 -0.69627,0 V 57.755754 a 1.7406798,1.7406798 0 1 1 0.69627,0 z M 84.2489,7.6241775 V 27.850876 h 21.58443 v 0.696273 H 83.55263 V 7.6241775 a 1.7406798,1.7406798 0 1 1 0.69627,0 z m 5.57018,5.5701745 V 22.2807 h 16.01425 v 0.696272 H 89.12281 v -9.78262 a 1.7406798,1.7406798 0 1 1 0.69627,0 z m -44.5614,33.421052 v 25.796875 h 5.570171 v 4.212444 a 1.7406798,1.7406798 0 1 1 -0.69627,0 v -3.516172 h -5.57018 V 46.615404 a 1.7406798,1.7406798 0 1 1 0.696279,0 z m -2.05401,-7.624178 a 1.7406798,1.7406798 0 1 1 0,0.696273 h -3.516171 v 16.710524 h -9.78262 a 1.7406798,1.7406798 0 1 1 0,-0.696269 h 9.08635 V 38.991226 Z m -2.158442,45.257675 a 1.7406798,1.7406798 0 1 1 0,-0.696272 H 61.271931 V 57.755754 a 1.7406798,1.7406798 0 1 1 0.69627,0 v 26.493147 z m -5.57017,-22.2807 a 1.7406798,1.7406798 0 1 1 0,-0.696272 h 4.21244 v 16.710526 h 3.516172 a 1.7406798,1.7406798 0 1 1 0,0.696271 H 38.991228 V 61.968201 Z m -12.49808,36.937222 a 1.7406798,1.7406798 0 1 1 -0.69628,0 v -3.51617 h -4.8739 v 10.444077 h -0.69627 V 94.692983 h 6.26645 z M 82.1949,61.271929 a 1.7406798,1.7406798 0 1 1 0,0.696272 h -3.51617 v 32.724782 h 16.710531 v 11.140347 h -0.69628 V 95.389253 H 77.982461 V 61.271929 Z m 8.98191,-10.44408 a 1.7406798,1.7406798 0 1 1 0,-0.696273 h 4.21245 v 15.352797 a 1.7406798,1.7406798 0 1 1 -0.69628,0 V 50.827849 Z m -22.2807,33.421052 a 1.7406798,1.7406798 0 1 1 0,-0.696272 h 3.51617 V 55.701754 h 5.57018 V 50.827849 H 63.32593 a 1.7406798,1.7406798 0 1 1 0,-0.696273 h 15.3528 v 6.266447 h -5.57018 v 27.850878 z m 30.00932,-73.10855 a 1.7406798,1.7406798 0 1 1 0,0.696272 H 94.692981 V 5e-7 h 0.69628 V 11.14035 Z M 34.117329,35.475054 v 15.352795 h -15.3528 a 1.7406798,1.7406798 0 1 1 0,-0.696273 h 14.65652 V 35.475054 a 1.7406798,1.7406798 0 1 1 0.69628,0 z m -15.3528,-23.638432 a 1.7406798,1.7406798 0 1 1 0,-0.696272 h 9.086349 V 5e-7 h 0.69627 V 11.836622 Z m 20.92297,1.35773 v 9.78262 H 28.547148 v 22.280701 h -4.21244 a 1.7406798,1.7406798 0 1 1 0,-0.696272 h 3.51617 V 22.2807 h 11.14035 v -9.086347 a 1.7406798,1.7406798 0 1 1 0.696271,-10e-7 z m -4.21244,15.352797 a 1.7406798,1.7406798 0 1 1 0,-0.696273 h 9.086342 V 13.194352 a 1.7406798,1.7406798 0 1 1 0.69628,0 v 15.352797 z m 5.57017,-22.2807015 a 1.7406798,1.7406798 0 1 1 0,-0.696272 h 9.782622 V 20.92297 a 1.7406798,1.7406798 0 1 1 -0.69627,0 V 6.2664475 Z M 76.62473,100.26316 a 1.7406798,1.7406798 0 1 1 0,0.69627 H 34.117329 v 4.8739 h -0.69628 v -5.57017 z M 84.2489,52.185579 v 3.516175 h 5.57018 V 67.538376 H 84.2489 v 21.584427 h 16.71053 v 16.710527 h -0.69627 V 89.819073 H 83.55263 V 66.842104 h 5.57018 V 56.398023 h -5.57018 v -4.212444 a 1.7406798,1.7406798 0 1 1 0.69627,0 z M 18.764529,6.2664475 a 1.7406798,1.7406798 0 1 1 0,-0.696272 h 3.51617 v -4.873904 h -5.57017 V 5e-7 h 6.26645 v 6.266447 z M 57.75576,17.406798 a 1.7406798,1.7406798 0 1 1 0,-0.696272 h 9.08635 V 5e-7 H 84.2489 v 0.696271 H 67.538381 V 17.406798 Z M 41.045228,0.6962715 A 1.7410283,1.7410283 0 0 1 37.633498,5e-7 h 0.72064 a 1.0444079,1.0444079 0 1 0 1.97045,0 H 61.968201 V 11.836622 H 55.70176 V 7.6241775 a 1.7406798,1.7406798 0 1 1 0.69627,0 V 11.14035 h 4.873901 V 0.6962715 Z m 0,33.4210525 a 1.7406798,1.7406798 0 1 1 0,-0.696273 H 47.69463 L 58.83498,22.2807 h 13.5773 V 7.6241775 a 1.7406798,1.7406798 0 1 1 0.69627,0 V 22.976972 H 59.12393 L 47.98358,34.117324 Z m 9.782623,31.367049 a 1.7406798,1.7406798 0 1 1 -0.69627,0 V 38.848492 L 61.12919,27.850876 H 77.982461 V 7.6241775 a 1.7406798,1.7406798 0 1 1 0.696269,0 V 28.547149 H 61.414671 l -10.58682,10.586812 z m 5.570179,11.14035 a 1.7406798,1.7406798 0 1 1 -0.69627,0 V 41.981714 l 8.56066,-8.560663 h 40.21318 a 1.7406798,1.7406798 0 0 1 1.35773,-1.35773 v 0.720641 a 1.0444079,1.0444079 0 0 0 0,1.97045 v 0.720642 A 1.7406798,1.7406798 0 0 1 104.4756,34.117325 H 64.54789 l -8.14986,8.149862 z M 6.2664485,54.344023 a 1.7406798,1.7406798 0 1 1 -0.69627,0 V 53.122066 L 22.280699,36.411539 V 16.710526 h 11.14035 V 5e-7 h 0.69628 V 17.406798 H 22.976979 V 36.697011 L 6.2664485,53.407536 Z M 17.406798,18.764528 V 33.911922 L 0.6962725,50.62245 v 21.789829 h 9.086346 a 1.7406798,1.7406798 0 1 1 0,0.696272 H 5.0000001e-7 V 50.336978 L 16.710529,33.626453 V 18.764528 a 1.7406798,1.7406798 0 1 1 0.696269,0 z m -5.570179,5.570175 v 6.792133 L 5.0000001e-7,42.963459 V 41.981714 L 11.140349,30.841364 v -6.506661 a 1.7406798,1.7406798 0 1 1 0.69627,0 z M 4.2124455,11.140351 a 1.7406798,1.7406798 0 1 1 0,0.696272 H 3.2759595 L 5.0000001e-7,15.112581 V 14.13432 L 2.9904885,11.140351 Z m 92.5345355,6.266447 a 1.7406798,1.7406798 0 1 1 0,-0.696272 h 6.506669 l 2.57968,-2.579688 v 0.981744 l -2.29421,2.294216 z m -5.57017,55.701753 a 1.7406798,1.7406798 0 1 1 0,-0.696272 h 9.086349 V 47.55189 l 5.57017,-5.570176 v 0.981745 l -4.8739,4.873902 v 25.27119 z m -72.412282,11.14035 a 1.7406798,1.7406798 0 1 1 0,-0.696272 h 3.51617 v -7.864391 l -8.14986,-8.149862 H 7.6241785 a 1.7406798,1.7406798 0 1 1 0,-0.696271 H 14.41631 l 8.56067,8.560661 v 8.846135 z m 52.290022,4.873902 a 1.7406798,1.7406798 0 1 1 0,0.69627 H 33.42105 V 70.114581 L 19.704499,56.398023 h -6.51015 a 1.7406798,1.7406798 0 1 1 0,-0.696269 h 6.78866 l 14.13432,14.134319 v 19.28673 z m -52.290021,0.69627 a 1.7406798,1.7406798 0 1 1 0,-0.69627 h 9.08635 V 72.90315 L 16.915928,61.968201 H 7.6241785 a 1.7406798,1.7406798 0 1 1 0,-0.696272 H 17.201399 L 28.547148,72.61768 V 89.819073 Z M 11.836619,13.855811 V 14.41631 L 3.2759595,22.976972 H 5.0000001e-7 V 22.2807 H 2.9904885 L 11.140349,14.130838 V 5e-7 h 0.69627 z M 0.6962725,104.4756 a 1.7406798,1.7406798 0 0 1 1.35773,1.35773 H 1.3333615 A 1.0444079,1.0444079 0 0 0 5.0000001e-7,105.19624 V 89.122803 H 6.2664485 v 16.710527 h -0.69627 V 89.819073 H 0.6962725 Z M 11.836619,83.900765 v 21.932565 h -0.69627 V 84.248901 H 5.0000001e-7 V 83.552629 H 11.836619 Z M 5.9183085,6.2664475 H 5.0000001e-7 V 5.5701755 H 5.5701785 V 5e-7 h 0.69627 v 6.266447 z M 100.95943,5.5701755 h 4.8739 v 0.696272 h -5.57017 V 5e-7 h 0.69627 z M 89.81908,100.61129 v 5.22204 h -0.69627 v -4.8739 H 84.2489 v 4.8739 h -0.69627 v -5.57017 h 6.26645 z M 5.0000001e-7,32.063321 A 1.7476425,1.7476425 0 0 1 2.0888165,33.769187 1.7406798,1.7406798 0 0 1 5.0000001e-7,35.475054 v -0.720643 a 1.0444079,1.0444079 0 1 0 0,-1.97045 z M 27.850878,94.692983 h 0.69627 v 11.140347 h -0.69627 z m 13.194351,11.140347 h -0.72064 a 1.0444079,1.0444079 0 0 0 -1.97045,0 h -0.72064 a 1.7406798,1.7406798 0 0 1 3.41173,0 z M 2.0540025,5e-7 A 1.7476425,1.7476425 0 0 1 5.0000001e-7,2.0540025 V 1.3333605 A 1.0444079,1.0444079 0 0 0 1.3333615,5e-7 Z m 102.4215975,0 h 0.72065 a 1.0444079,1.0444079 0 0 0 0.63708,1.33336 v 0.720642 A 1.7406798,1.7406798 0 0 1 104.4756,5e-7 Z M 105.83333,104.4756 v 0.72064 a 1.0444079,1.0444079 0 0 0 -0.63708,0.63709 h -0.72065 a 1.7406798,1.7406798 0 0 1 1.35773,-1.35773 z M 33.769189,34.813596 a 1.0444085,1.0444085 0 1 0 0,-2.088817 1.0444085,1.0444085 0 0 0 0,2.088817 z m 0,-5.570175 a 1.0444085,1.0444085 0 1 0 0,-2.088817 1.0444085,1.0444085 0 0 0 0,2.088817 z m 5.570179,5.570175 a 1.0444085,1.0444085 0 1 0 0,-2.088817 1.0444085,1.0444085 0 0 0 0,2.088817 z m 5.570172,5.570175 a 1.0444085,1.0444085 0 1 0 0,-2.088817 1.0444085,1.0444085 0 0 0 0,2.088817 z m 0,5.570175 a 1.0444085,1.0444085 0 1 0 0,-2.088817 1.0444085,1.0444085 0 0 0 0,2.088817 z m -16.710522,11.14035 a 1.0444079,1.0444079 0 1 0 0,-2.088814 1.0444079,1.0444079 0 0 0 0,2.088814 z m 5.570171,5.570177 a 1.0444083,1.0444083 0 1 0 0,-2.088816 1.0444083,1.0444083 0 0 0 0,2.088816 z M 44.90954,79.374998 a 1.0444085,1.0444085 0 1 0 0,-2.088817 1.0444085,1.0444085 0 0 0 0,2.088817 z m -5.570172,5.570175 a 1.0444085,1.0444085 0 1 0 0,-2.088817 1.0444085,1.0444085 0 0 0 0,2.088817 z M 50.47972,79.374998 a 1.0444085,1.0444085 0 1 0 0,-2.088817 1.0444085,1.0444085 0 0 0 0,2.088817 z m 0,-11.14035 a 1.0444085,1.0444085 0 1 0 0,-2.088817 1.0444085,1.0444085 0 0 0 0,2.088817 z m 5.57017,11.14035 a 1.0444085,1.0444085 0 1 0 0,-2.088817 1.0444085,1.0444085 0 0 0 0,2.088817 z m 11.14035,5.570175 a 1.0444085,1.0444085 0 1 0 0,-2.088817 1.0444085,1.0444085 0 0 0 0,2.088817 z m 0,-5.570175 a 1.0444085,1.0444085 0 1 0 0,-2.088817 1.0444085,1.0444085 0 0 0 0,2.088817 z M 61.62007,57.094296 a 1.0444079,1.0444079 0 1 0 0,-2.088814 1.0444079,1.0444079 0 0 0 0,2.088814 z m 5.57017,0 a 1.0444079,1.0444079 0 1 0 0,-2.088814 1.0444079,1.0444079 0 0 0 0,2.088814 z m 5.57018,33.421057 a 1.04441,1.04441 0 1 0 0,-2.08882 1.04441,1.04441 0 0 0 0,2.08882 z m 0,5.57017 a 1.0444079,1.0444079 0 1 0 0,-2.08881 1.0444079,1.0444079 0 0 0 0,2.08881 z m 5.57017,5.570177 a 1.04441,1.04441 0 1 0 0,-2.088817 1.04441,1.04441 0 0 0 0,2.088817 z m 5.57018,-50.131578 a 1.0444079,1.0444079 0 1 0 0,-2.088814 1.0444079,1.0444079 0 0 0 0,2.088814 z m 0,11.140351 a 1.0444083,1.0444083 0 1 0 0,-2.088816 1.0444083,1.0444083 0 0 0 0,2.088816 z m 5.57017,-11.140351 a 1.0444079,1.0444079 0 1 0 0,-2.088814 1.0444079,1.0444079 0 0 0 0,2.088814 z m 5.57018,-5.570176 a 1.0444085,1.0444085 0 1 0 0,-2.088816 1.0444085,1.0444085 0 0 0 0,2.088816 z m -33.42105,0 a 1.0444085,1.0444085 0 1 0 0,-2.088816 1.0444085,1.0444085 0 0 0 0,2.088816 z m 0,5.570176 a 1.0444079,1.0444079 0 1 0 0,-2.088814 1.0444079,1.0444079 0 0 0 0,2.088814 z m 5.57017,-11.14035 a 1.044409,1.044409 0 1 0 0,-2.088818 1.044409,1.044409 0 0 0 0,2.088818 z m 33.42106,0 a 1.044409,1.044409 0 1 0 0,-2.088818 1.044409,1.044409 0 0 0 0,2.088818 z M 95.04112,18.103069 a 1.0444079,1.0444079 0 1 0 0,-2.088815 1.0444079,1.0444079 0 0 0 0,2.088815 z m 5.57018,-5.570174 a 1.044408,1.044408 0 1 0 0,-2.088816 1.044408,1.044408 0 0 0 0,2.088816 z m -11.14036,0 a 1.044408,1.044408 0 1 0 0,-2.088816 1.044408,1.044408 0 0 0 0,2.088816 z m 0,-5.5701755 a 1.044408,1.044408 0 1 0 0,-2.088816 1.044408,1.044408 0 0 0 0,2.088816 z m -5.57017,0 a 1.044408,1.044408 0 1 0 0,-2.088816 1.044408,1.044408 0 0 0 0,2.088816 z m -5.57018,0 a 1.044408,1.044408 0 1 0 0,-2.088816 1.044408,1.044408 0 0 0 0,2.088816 z m -5.57017,0 a 1.044408,1.044408 0 1 0 0,-2.088816 1.044408,1.044408 0 0 0 0,2.088816 z M 17.058659,12.532895 a 1.044408,1.044408 0 1 0 0,-2.088816 1.044408,1.044408 0 0 0 0,2.088816 z m -11.1403505,0 a 1.044408,1.044408 0 1 0 0,-2.088816 1.044408,1.044408 0 0 0 0,2.088816 z m 11.1403495,5.570174 a 1.0444079,1.0444079 0 1 0 0,-2.088815 1.0444079,1.0444079 0 0 0 0,2.088815 z m -5.57017,5.570175 a 1.044408,1.044408 0 1 0 0,-2.088816 1.044408,1.044408 0 0 0 0,2.088816 z m 5.57017,-16.7105245 a 1.044408,1.044408 0 1 0 0,-2.088816 1.044408,1.044408 0 0 0 0,2.088816 z m 0,83.5526335 a 1.04441,1.04441 0 1 0 0,-2.08882 1.04441,1.04441 0 0 0 0,2.08882 z m 5.57018,11.140347 a 1.04441,1.04441 0 1 0 0,-2.088817 1.04441,1.04441 0 0 0 0,2.088817 z m -5.57018,-22.280702 a 1.0444085,1.0444085 0 1 0 0,-2.088817 1.0444085,1.0444085 0 0 0 0,2.088817 z m 0,5.570175 a 1.0444085,1.0444085 0 1 0 0,-2.088817 1.0444085,1.0444085 0 0 0 0,2.088817 z m -5.57017,-11.14035 a 1.0444085,1.0444085 0 1 0 0,-2.088817 1.0444085,1.0444085 0 0 0 0,2.088817 z m 27.85088,-61.271928 a 1.044408,1.044408 0 1 0 0,-2.088816 1.044408,1.044408 0 0 0 0,2.088816 z m 5.570172,0 a 1.044408,1.044408 0 1 0 0,-2.088816 1.044408,1.044408 0 0 0 0,2.088816 z M 39.339368,6.9627195 a 1.044408,1.044408 0 1 0 0,-2.088816 1.044408,1.044408 0 0 0 0,2.088816 z M 50.47972,23.673244 a 1.044408,1.044408 0 1 0 0,-2.088816 1.044408,1.044408 0 0 0 0,2.088816 z m 5.57017,-5.570175 a 1.0444079,1.0444079 0 1 0 0,-2.088815 1.0444079,1.0444079 0 0 0 0,2.088815 z m 0,-11.1403495 a 1.044408,1.044408 0 1 0 0,-2.088816 1.044408,1.044408 0 0 0 0,2.088816 z M 95.04112,68.234648 a 1.0444085,1.0444085 0 1 0 0,-2.088817 1.0444085,1.0444085 0 0 0 0,2.088817 z m -5.57018,5.570175 a 1.0444085,1.0444085 0 1 0 0,-2.088817 1.0444085,1.0444085 0 0 0 0,2.088817 z m 0,5.570176 a 1.0444085,1.0444085 0 1 0 0,-2.088818 1.0444085,1.0444085 0 0 0 0,2.088818 z m 0,5.570175 a 1.0444085,1.0444085 0 1 0 0,-2.088817 1.0444085,1.0444085 0 0 0 0,2.088817 z M 5.9183085,62.664473 a 1.0444083,1.0444083 0 1 0 0,-2.088816 1.0444083,1.0444083 0 0 0 0,2.088816 z m 0,5.570175 a 1.0444085,1.0444085 0 1 0 0,-2.088817 1.0444085,1.0444085 0 0 0 0,2.088817 z m 0,-11.140352 a 1.0444079,1.0444079 0 1 0 0,-2.088814 1.0444079,1.0444079 0 0 0 0,2.088814 z m 5.5701795,0 a 1.0444079,1.0444079 0 1 0 0,-2.088814 1.0444079,1.0444079 0 0 0 0,2.088814 z M 5.9183085,29.243421 a 1.0444085,1.0444085 0 1 0 0,-2.088817 1.0444085,1.0444085 0 0 0 0,2.088817 z m 11.1403495,22.2807 a 1.0444079,1.0444079 0 1 0 0,-2.088814 1.0444079,1.0444079 0 0 0 0,2.088814 z m 5.57018,-5.570175 a 1.0444085,1.0444085 0 1 0 0,-2.088817 1.0444085,1.0444085 0 0 0 0,2.088817 z"
       id="path3329"
       style="fill:#6e87dc;fill-opacity:0.69999999;stroke:#51c096;stroke-width:0;stroke-dasharray:none;stroke-opacity:0.5" />
  </g>
</svg>
