<?xml version="1.0" encoding="UTF-8" standalone="no"?>
<!-- Created with Inkscape (http://www.inkscape.org/) -->

<svg
   width="186"
   height="160"
   viewBox="0 0 49.212498 42.333333"
   version="1.1"
   id="svg5"
   inkscape:version="1.2 (dc2aedaf03, 2022-05-15)"
   sodipodi:docname="bgnd-project.svg"
   xmlns:inkscape="http://www.inkscape.org/namespaces/inkscape"
   xmlns:sodipodi="http://sodipodi.sourceforge.net/DTD/sodipodi-0.dtd"
   xmlns:xlink="http://www.w3.org/1999/xlink"
   xmlns="http://www.w3.org/2000/svg"
   xmlns:svg="http://www.w3.org/2000/svg">
  <sodipodi:namedview
     id="namedview7"
     pagecolor="#505050"
     bordercolor="#eeeeee"
     borderopacity="1"
     inkscape:showpageshadow="0"
     inkscape:pageopacity="0"
     inkscape:pagecheckerboard="0"
     inkscape:deskcolor="#505050"
     inkscape:document-units="px"
     showgrid="false"
     inkscape:zoom="2.8284271"
     inkscape:cx="98.818173"
     inkscape:cy="86.090251"
     inkscape:window-width="1366"
     inkscape:window-height="699"
     inkscape:window-x="0"
     inkscape:window-y="0"
     inkscape:window-maximized="1"
     inkscape:current-layer="layer1" />
  <defs
     id="defs2">
    <linearGradient
       id="linear-gradient"
       x1="104.12"
       y1="230.53999"
       x2="151.94"
       y2="193.21001"
       gradientUnits="userSpaceOnUse">
      <stop
         offset="0"
         stop-color="#fff"
         stop-opacity="0"
         id="stop6669" />
      <stop
         offset="0.98"
         stop-color="#0800bf"
         id="stop6671" />
    </linearGradient>
    <linearGradient
       id="linear-gradient-2"
       x1="83.230003"
       y1="179.7"
       x2="129.78999"
       y2="132.33"
       xlink:href="#linear-gradient" />
    <linearGradient
       id="linear-gradient-3"
       x1="175.78"
       y1="221.98"
       x2="199.13"
       y2="151.92"
       xlink:href="#linear-gradient" />
    <linearGradient
       id="linear-gradient-4"
       x1="253.03"
       y1="255.50999"
       x2="276.60001"
       y2="236.50999"
       xlink:href="#linear-gradient" />
    <linearGradient
       id="linear-gradient-36"
       x1="183.83"
       y1="264.73001"
       x2="185.89999"
       y2="304.51999"
       gradientUnits="userSpaceOnUse">
      <stop
         offset="0.01"
         id="stop18633" />
      <stop
         offset="0.08"
         stop-opacity="0.69"
         id="stop18635" />
      <stop
         offset="0.21"
         stop-opacity="0.32"
         id="stop18637" />
      <stop
         offset="1"
         stop-opacity="0"
         id="stop18639" />
    </linearGradient>
    <linearGradient
       id="linear-gradient-2-7"
       x1="198.78999"
       y1="115.83"
       x2="207.47"
       y2="258.13"
       xlink:href="#linear-gradient-36"
       gradientTransform="matrix(0.13970233,0,0,0.14073213,-4.8889434,-3.3272586)" />
    <linearGradient
       id="linear-gradient-3-5"
       x1="2316.74"
       y1="-609.72998"
       x2="2301.1799"
       y2="-592.25"
       gradientTransform="matrix(-0.11455591,0.08162464,0.08102735,0.11540035,326.63446,-108.88761)"
       xlink:href="#linear-gradient-36" />
    <linearGradient
       id="linear-gradient-4-3"
       x1="4330.77"
       y1="2142.8401"
       x2="4507.3301"
       y2="2228.49"
       gradientTransform="rotate(-142.1,1925.8456,1863.0268)"
       gradientUnits="userSpaceOnUse">
      <stop
         offset="0.01"
         id="stop18644" />
      <stop
         offset="0.08"
         stop-opacity="0.69"
         id="stop18646" />
      <stop
         offset="0.21"
         stop-opacity="0.32"
         id="stop18648" />
      <stop
         offset="1"
         stop-opacity="0"
         id="stop18650" />
    </linearGradient>
    <linearGradient
       id="linear-gradient-5"
       x1="151.05"
       y1="89.309998"
       x2="160.05"
       y2="133.45"
       xlink:href="#linear-gradient-4-3"
       gradientTransform="matrix(0.13970233,0,0,0.14073213,-4.8889434,-3.3272586)" />
    <linearGradient
       id="linear-gradient-6"
       x1="2290.73"
       y1="-591.78003"
       x2="2325.28"
       y2="-589.91998"
       gradientTransform="matrix(-0.11455591,0.08162464,0.08102735,0.11540035,326.63446,-108.88761)"
       xlink:href="#linear-gradient-36" />
    <linearGradient
       id="linear-gradient-7"
       x1="169.8"
       y1="127.82"
       x2="168.28999"
       y2="306.51999"
       xlink:href="#linear-gradient-4-3"
       gradientTransform="matrix(0.13970233,0,0,0.14073213,-4.8889434,-3.3272586)" />
    <linearGradient
       id="linear-gradient-8"
       x1="163.48"
       y1="158.08"
       x2="90.669998"
       y2="199.84"
       xlink:href="#linear-gradient-4-3"
       gradientTransform="matrix(0.13970233,0,0,0.14073213,-4.8889434,-3.3272586)" />
    <linearGradient
       id="linear-gradient-9"
       x1="130.94"
       y1="144.46001"
       x2="3.3"
       y2="217.66"
       xlink:href="#linear-gradient-4-3" />
    <linearGradient
       id="linear-gradient-10"
       x1="287.37"
       y1="96.879997"
       x2="352.62"
       y2="250.07001"
       xlink:href="#linear-gradient-4-3"
       gradientTransform="matrix(0.13970233,0,0,0.14073213,-4.8889434,-3.3272586)" />
    <linearGradient
       id="linear-gradient-11"
       x1="169.38"
       y1="134.78"
       x2="406.73001"
       y2="301.17999"
       xlink:href="#linear-gradient-4-3"
       gradientTransform="matrix(0.13970233,0,0,0.14073213,-4.8889434,-3.3272586)" />
    <linearGradient
       id="linear-gradient-12"
       x1="199.17"
       y1="253.11"
       x2="243.94"
       y2="12.38"
       xlink:href="#linear-gradient-4-3"
       gradientTransform="matrix(0.13970233,0,0,0.14073213,-4.8889434,-3.3272586)" />
    <linearGradient
       id="linear-gradient-13"
       x1="171.77"
       y1="88.489998"
       x2="165.00999"
       y2="385.82001"
       xlink:href="#linear-gradient-4-3"
       gradientTransform="matrix(0.13970233,0,0,0.14073213,-4.8889434,-3.3272586)" />
    <linearGradient
       id="linear-gradient-14"
       x1="144.75999"
       y1="213.89"
       x2="232.33"
       y2="309.06"
       xlink:href="#linear-gradient-4-3"
       gradientTransform="matrix(0.13970233,0,0,0.14073213,-4.8889434,-3.3272586)" />
    <linearGradient
       id="linear-gradient-15"
       x1="163.53"
       y1="235.49001"
       x2="213.67"
       y2="305.67999"
       xlink:href="#linear-gradient-36"
       gradientTransform="matrix(0.13970233,0,0,0.14073213,-4.8889434,-3.3272586)" />
    <linearGradient
       inkscape:collect="always"
       xlink:href="#linear-gradient-36"
       id="linearGradient19603"
       gradientUnits="userSpaceOnUse"
       x1="183.83"
       y1="264.73001"
       x2="185.89999"
       y2="304.51999"
       gradientTransform="matrix(0.13970233,0,0,0.14073213,-4.8889434,-3.3272586)" />
    <linearGradient
       inkscape:collect="always"
       xlink:href="#linear-gradient-4-3"
       id="linearGradient19605"
       gradientUnits="userSpaceOnUse"
       gradientTransform="matrix(-0.11023689,-0.08644966,0.08581707,-0.11104948,316.57589,632.23734)"
       x1="4330.77"
       y1="2142.8401"
       x2="4507.3301"
       y2="2228.49" />
  </defs>
  <g
     inkscape:label="Layer 1"
     inkscape:groupmode="layer"
     id="layer1">
    <path
       d="m 48.24125,28.485239 c -0.357638,1.419988 -0.977917,2.83716 -1.521359,4.100935 -2.0648,4.772226 -5.548976,8.035804 -11.004352,7.368734 -2.629198,-0.322277 -5.202515,-1.211704 -7.849874,-1.125857 -2.532803,0.07881 -4.944066,1.04001 -7.34974,1.840776 C 16.045451,42.16018 11.095797,43.114344 6.6742185,41.473408 2.2526397,39.832471 -1.1854346,34.78441 0.3876136,30.309128 1.611406,26.816156 5.4378528,24.472966 5.8360045,20.791414 6.3598882,16.006521 0.73826645,11.878848 1.9243392,7.209356 2.4286646,5.2433281 4.0520057,3.779714 5.7717414,2.724223 9.7225233,0.29096446 14.579973,-0.512616 19.118902,0.31488892 23.435704,1.0959522 27.027451,4.7578023 31.377781,4.9266808 34.183004,5.0336372 36.882053,3.4278836 39.6761,3.69246 c 3.456236,0.3363498 5.990436,3.4197908 7.606792,6.517305 a 18.693569,18.831366 0 0 1 1.300628,3.021519 13.365322,13.463843 0 0 1 0.396755,6.580634 c -0.419107,2.251714 -0.368814,4.362696 -0.433077,6.67211 a 9.0890336,9.1560324 0 0 1 -0.305948,2.001211 z"
       fill="#68e1fd"
       opacity="0.18"
       style="isolation:isolate;stroke-width:0.140216;fill:#97aaf2;fill-opacity:1"
       id="path18668" />
    <path
       d="m 18.301643,37.603274 c -0.170436,0.05348 -0.361829,0.140732 -0.405136,0.311018 0.536457,0.343386 1.200043,0.422196 1.834291,0.405309 0.634249,-0.01689 1.2671,-0.129474 1.902746,-0.133696 0.838214,0 1.782602,0.150583 2.455967,-0.361681 a 2.0298749,2.0448378 0 0 0 -0.996078,-0.31524 c 0.124335,-0.7881 -4.294449,-0.06192 -4.79179,0.09429 z"
       fill="url(#linear-gradient)"
       id="path18670"
       style="fill:url(#linearGradient19603);stroke-width:0.140216" />
    <path
       d="m 7.5319908,28.215034 c -0.2263178,0 -0.539251,0.1154 -0.4833701,0.336349 l 10.3281933,0.844393 c 1.21541,0.09992 2.432218,0.198433 3.653216,0.198433 1.844071,0 3.679759,-0.227986 5.519639,-0.334943 1.732309,-0.09992 3.467412,-0.09288 5.201118,-0.08444 1.605179,0.0084 3.579173,0.299759 5.138251,-0.123844 0.2347,-0.06333 0.470797,-0.253318 0.45543,-0.496785 -0.007,-0.112586 -0.06566,-0.229393 -0.02235,-0.333535 a 0.27940466,0.28146426 0 0 1 0.114556,-0.12103 c 0.319918,-0.198432 0.727849,-0.04363 1.096663,0.038 a 2.6208157,2.6401348 0 0 0 1.7365,-0.222357 0.54344206,0.54744799 0 0 0 0.245876,-0.205469 0.21793563,0.21954212 0 0 0 -0.05309,-0.289908 0.31013917,0.31242533 0 0 0 -0.139702,-0.03237 L 37.161458,27.13984 a 0.72924616,0.73462172 0 0 0 -0.347859,0.03096 c -0.124335,0.05489 -0.11735,0.201247 -0.217936,0.261762 -0.163451,0.09711 -0.535059,0.04503 -0.722261,0.05629 -0.479179,0.02674 -0.958358,0.05348 -1.438934,0.0774 q -1.434742,0.06896 -2.875074,0.116807 c -1.955832,0.06614 -3.921444,0.105549 -5.881468,0.140732 -3.876739,0.06333 -7.754876,0.09711 -11.630219,0.247689 -2.172371,0.08162 -4.343345,0.0957 -6.5157162,0.143547 z"
       fill="url(#linear-gradient-2)"
       id="path18672"
       style="fill:url(#linear-gradient-2-7);stroke-width:0.140216" />
    <path
       d="m 15.474068,6.5324344 a 0.79490626,0.80076582 0 0 0 -0.558809,0.014073 0.87453659,0.88098313 0 0 0 -0.514105,0.4925625 0.10337972,0.10414178 0 0 1 -0.122938,0.095698 0.81865565,0.82469028 0 0 0 -0.550427,0.2125056 c -0.176025,0.1618419 -0.176025,0.3602742 -0.199774,0.5924822 a 0.20675945,0.20828355 0 0 0 -0.185804,0 0.57697062,0.5812237 0 0 0 -0.15507,0.1125857 0.63983667,0.64455316 0 0 0 -0.180216,0.232208 c -0.05588,0.1533981 0.007,0.3222766 0.0098,0.4855259 a 0.05029284,0.05066357 0 0 1 -0.01257,0.040812 0.04610177,0.0464416 0 0 1 -0.03632,0 c -0.04331,-0.00844 -0.08242,-0.030961 -0.125732,-0.035183 a 0.21793563,0.21954212 0 0 0 -0.212347,0.1801371 0.70689379,0.71210458 0 0 0 0.01537,0.3025741 0.52528076,0.52915281 0 0 1 -0.0084,0.2997594 0.6356456,0.64033119 0 0 1 -0.129923,0.1702859 0.90666812,0.91335152 0 0 0 -0.279405,0.5390042 0.42609211,0.429233 0 0 0 0.07544,0.281464 0.2877868,0.28990819 0 0 0 0.25845,0.118215 c 0.231906,-0.03096 0.312933,-0.358867 0.533663,-0.436269 0.220729,-0.0774 0.468002,-0.3391649 0.610499,-0.5460412 0.114556,-0.1660639 0.226317,-0.3588669 0.419107,-0.4221964 a 0.67336523,0.67832887 0 0 0 0.181613,-0.067551 0.34925583,0.35183033 0 0 0 0.0922,-0.109771 1.4193757,1.4298384 0 0 0 0.18301,-0.3856061 c 0.06985,-0.2702057 0,-0.5741871 0.129923,-0.8232829 a 0.56858848,0.57277977 0 0 1 0.364624,-0.2899082 c 0.06566,-0.016888 0.139702,-0.02111 0.199774,-0.039405 a 0.70968784,0.71491922 0 0 0 0.212347,-0.1027345 0.66498309,0.66988494 0 0 0 0.32411,-0.468638 C 15.824728,6.7773084 15.647309,6.599986 15.474078,6.5324345 Z"
       fill="#ff681c"
       id="path18674"
       style="stroke-width:0.140216" />
    <path
       d="M 16.045451,6.8659696 A 0.31433024,0.31664729 0 0 1 16.239637,7.2276511 0.47219388,0.4756746 0 0 1 16.13486,7.3866785 L 15.881999,7.6681427 15.777222,7.2769074 A 0.31433024,0.31664729 0 0 0 15.67524,7.086919 a 0.23749396,0.23924462 0 0 0 -0.236097,0 c -0.07404,0.037998 -0.139703,0.097105 -0.205363,0.1407321 -0.01816,0.011259 -0.04331,0.023924 -0.06287,0.012666 -0.01956,-0.011259 -0.02235,-0.052071 -0.01257,-0.080217 0.120144,-0.3349424 0.579765,-0.4278256 0.88711,-0.2941301 z"
       fill="#ff681c"
       id="path18676"
       style="stroke-width:0.140216" />
    <path
       d="m 16.217285,17.453248 a 0.71387891,0.71914118 0 0 0 0.125732,0.367311 c 0.113159,0.140732 0.301757,0.211098 0.458223,0.313832 a 0.12293805,0.12384427 0 0 1 0.06426,0.08303 0.08661544,0.08725392 0 0 1 -0.05728,0.0774 0.24867015,0.25050319 0 0 1 -0.101982,0.007 4.016442,4.0460487 0 0 0 -0.481973,-0.04644 c -0.08103,0 -0.174628,0.0084 -0.226318,-0.05489 a 0.24447908,0.24628123 0 0 1 -0.03213,-0.180137 2.4280265,2.4459244 0 0 0 -0.05588,-0.693809 0.44145936,0.44471353 0 0 1 -0.01816,-0.171693 0.15506959,0.15621266 0 0 1 0.252861,-0.08866 c 0.0922,0.08022 0.06147,0.27865 0.07265,0.387014 z"
       fill="#fcbdba"
       id="path18678"
       style="stroke-width:0.140216" />
    <path
       d="m 13.632792,18.32438 a 0.72645212,0.73180708 0 0 0 0.0475,0.385606 c 0.08243,0.167471 0.254259,0.267391 0.386976,0.399679 a 0.11734996,0.11821499 0 0 1 0.0461,0.09429 0.0838214,0.08443928 0 0 1 -0.07125,0.06333 0.22492075,0.22657873 0 0 1 -0.100585,-0.01267 4.2245985,4.2557396 0 0 0 -0.463812,-0.140732 c -0.07963,-0.01407 -0.173231,-0.02815 -0.210951,-0.09851 a 0.24867015,0.25050319 0 0 1 0,-0.182951 2.4266295,2.4445171 0 0 0 0.08382,-0.692402 0.43866532,0.44189889 0 0 1 0.01676,-0.171694 0.15506959,0.15621266 0 0 1 0.265435,-0.03518 c 0.07963,0.09429 0.0098,0.282872 0,0.391236 z"
       fill="#fcbdba"
       id="path18680"
       style="stroke-width:0.140216" />
    <path
       d="m 13.124275,11.991434 c 0,0 1.33276,1.992767 2.2059,2.588064 a 2.8122079,2.8329378 0 0 0 0.01257,0.598111 c 0.04471,0.322277 0.199774,0.605148 0.250067,0.921796 l 0.167643,1.065342 c 0.007,0.04785 0.02096,0.105549 0.06706,0.122437 a 0.13970233,0.14073213 0 0 0 0.08522,0 l 0.368814,-0.101327 a 17.005965,17.131322 0 0 1 0.04051,-1.919587 4.2008491,4.2318151 0 0 0 0.01956,-0.778248 C 16.280149,13.925093 15.821926,13.42268 15.503405,12.970929 15.312013,12.697909 15.10665,12.289786 14.838422,12.08291 14.614898,11.911216 14.299171,11.99284 14.018369,12.02099 a 1.9055398,1.9195863 0 0 1 -0.628661,-0.04503 0.27940466,0.28146426 0 0 0 -0.265434,0.01548 z"
       fill="#473f47"
       id="path18682"
       style="stroke-width:0.140216" />
    <path
       d="m 12.617156,11.978768 c 0,0 0.518295,2.346004 1.117618,3.221358 a 2.9547043,2.9764845 0 0 0 -0.205362,0.562929 2.7535329,2.7738303 0 0 0 -0.05728,0.482711 l -0.120144,1.958991 a 1.5548869,1.5663486 0 0 0 0.54903,-0.07037 l 0.681747,-1.726783 a 2.3749396,2.3924462 0 0 0 0.226318,-0.876761 c 0,-0.58826 -0.558809,-2.735833 -0.624469,-2.844197 -0.146688,-0.243466 -0.4694,-0.281464 -0.740423,-0.360274 a 1.8692172,1.8829959 0 0 1 -0.568588,-0.27302 c -0.08522,-0.05348 -0.162055,-0.105549 -0.258449,-0.07459 z"
       fill="#473f47"
       id="path18684"
       style="stroke-width:0.140216" />
    <path
       d="m 17.40196,10.152065 a 1.6652518,1.677527 0 0 0 0.909463,0.140732 0.64402774,0.64877512 0 0 1 0.279404,-0.01407 c -0.04051,0.0577 -0.07963,0.140732 -0.02235,0.189988 a 0.12154103,0.12243695 0 0 0 0.05868,0.0197 0.48476709,0.48834049 0 0 0 0.223524,-0.02393 0.22911182,0.23080069 0 0 1 0.108967,-0.02392 0.12992317,0.13088088 0 0 1 0.095,0.15762 0.27940466,0.28146426 0 0 1 -0.122938,0.160434 0.64821881,0.65299708 0 0 1 -0.653807,0.03659 c -0.05868,-0.03237 -0.113159,-0.07318 -0.173231,-0.105549 a 1.3970233,1.4073213 0 0 0 -0.363235,-0.10977 7.4433401,7.4982079 0 0 1 -1.079899,-0.312425 0.40373973,0.40671586 0 0 1 -0.255655,-0.191396 c -0.07125,-0.177322 0.06007,-0.4742668 0.269625,-0.3588665 0.243082,0.1421395 0.462415,0.3250915 0.726452,0.4348625 z"
       fill="#fcbdba"
       id="path18686"
       style="stroke-width:0.140216" />
    <path
       d="m 15.666857,9.1416081 a 3.9004891,3.9292411 0 0 0 1.363495,0.5629285 c 0.02096,0 0.0461,0.014073 0.05169,0.035183 a 0.05448391,0.05488553 0 0 1 -0.0098,0.040812 2.5048628,2.5233271 0 0 1 -0.373005,0.5558924 0.17323089,0.17450784 0 0 1 -0.06007,0.05066 0.17881898,0.18013713 0 0 1 -0.139703,-0.01689 Q 16.028686,10.180211 15.577448,9.9480032 A 1.9865671,2.0012109 0 0 1 14.878936,9.4315163 0.69851165,0.70366065 0 0 1 14.716882,9.0233931 c 0,-0.1660639 0.150878,-0.464416 0.359035,-0.3827914 0.0936,0.03659 0.176025,0.1533981 0.247273,0.2195422 a 3.6057171,3.6322963 0 0 0 0.343667,0.2814642 z"
       fill="#68e1fd"
       id="path18688"
       style="stroke-width:0.140216;fill:#97aaf2;fill-opacity:1" />
    <path
       d="m 15.666857,9.1416081 a 3.9004891,3.9292411 0 0 0 1.363495,0.5629285 c 0.02096,0 0.0461,0.014073 0.05169,0.035183 a 0.05448391,0.05488553 0 0 1 -0.0098,0.040812 2.5048628,2.5233271 0 0 1 -0.373005,0.5558924 0.17323089,0.17450784 0 0 1 -0.06007,0.05066 0.17881898,0.18013713 0 0 1 -0.139703,-0.01689 Q 16.028686,10.180211 15.577448,9.9480032 A 1.9865671,2.0012109 0 0 1 14.878936,9.4315163 0.69851165,0.70366065 0 0 1 14.716882,9.0233931 c 0,-0.1660639 0.150878,-0.464416 0.359035,-0.3827914 0.0936,0.03659 0.176025,0.1533981 0.247273,0.2195422 a 3.6057171,3.6322963 0 0 0 0.343667,0.2814642 z"
       fill="url(#linear-gradient-3)"
       id="path18690"
       style="fill:url(#linear-gradient-3-5);stroke-width:0.140216" />
    <path
       d="M 21.514797,8.3028446 A 0.59792597,0.60233352 0 0 1 20.955988,9.272489 c 0,0 -0.660792,0.015481 -0.511311,0.6431458 l 1.257321,1.6127902 -1.600989,1.266589 C 19.477937,12.945598 19.46257,12.279935 19.46257,12.279935 a 0.599323,0.60374084 0 1 0 -0.648219,0.515079 c 0.568588,0.188581 0.347859,0.745881 0.347859,0.745881 l -1.600989,1.266589 -3.253667,-4.161449 1.585621,-1.2665896 c 0.623073,-0.1505834 0.63844,0.5150796 0.63844,0.5150796 A 0.59792597,0.60233352 0 1 0 17.593353,9.6130608 0.60630811,0.61077744 0 0 0 17.174246,9.3850747 C 16.611245,9.197901 16.831975,8.6349725 16.831975,8.6349725 l 1.616356,-1.2848844 1.257321,1.6141975 c 0,0 0.558809,0.2223568 0.740422,-0.350423 a 0.599323,0.60374084 0 0 1 1.068723,-0.311018 z"
       fill="#68e1fd"
       id="path18692"
       style="stroke-width:0.140216;fill:#97aaf2;fill-opacity:1" />
    <path
       d="M 21.514797,8.3028446 A 0.59792597,0.60233352 0 0 1 20.955988,9.272489 c 0,0 -0.660792,0.015481 -0.511311,0.6431458 l 1.257321,1.6127902 -1.600989,1.266589 C 19.477937,12.945598 19.46257,12.279935 19.46257,12.279935 a 0.599323,0.60374084 0 1 0 -0.648219,0.515079 c 0.568588,0.188581 0.347859,0.745881 0.347859,0.745881 l -1.600989,1.266589 -3.253667,-4.161449 1.585621,-1.2665896 c 0.623073,-0.1505834 0.63844,0.5150796 0.63844,0.5150796 A 0.59792597,0.60233352 0 1 0 17.593353,9.6130608 0.60630811,0.61077744 0 0 0 17.174246,9.3850747 C 16.611245,9.197901 16.831975,8.6349725 16.831975,8.6349725 l 1.616356,-1.2848844 1.257321,1.6141975 c 0,0 0.558809,0.2223568 0.740422,-0.350423 a 0.599323,0.60374084 0 0 1 1.068723,-0.311018 z"
       fill="url(#linear-gradient-4)"
       id="path18694"
       style="fill:url(#linearGradient19605);stroke-width:0.140216" />
    <path
       d="m 16.22427,11.973139 c 0.34227,0.281464 0.698511,0.584038 1.117618,0.657219 a 0.62027835,0.62485066 0 0 0 0.473591,-0.08585 0.14948149,0.15058338 0 0 0 0.07265,-0.140732 c -0.01537,-0.06896 -0.09919,-0.09288 -0.167642,-0.105549 A 2.3120736,2.3291168 0 0 1 16.818005,11.971731 2.6124336,2.6316908 0 0 1 16.528821,11.732487 L 15.84847,11.121709 a 0.08801247,0.08866124 0 0 0 -0.06845,-0.03237 c -0.02794,0 -0.0447,0.03237 -0.05728,0.0577 a 1.2126162,1.2215549 0 0 0 -0.095,0.271613 c -0.02096,0.102734 0,0.116808 0.08801,0.175915 q 0.264038,0.180137 0.508517,0.37857 z"
       fill="url(#linear-gradient-5)"
       id="path18696"
       style="fill:url(#linear-gradient-5);stroke-width:0.140216" />
    <path
       d="m 16.539997,11.458059 a 1.6610607,1.673305 0 0 0 0.838214,0.39405 0.63424858,0.63892387 0 0 1 0.266831,0.06333 c -0.05728,0.04363 -0.118747,0.118215 -0.07544,0.175916 a 0.12154103,0.12243695 0 0 0 0.05169,0.03518 0.49594327,0.49959906 0 0 0 0.22073,0.0394 0.25006717,0.25191051 0 0 1 0.111762,0.0084 0.12852614,0.12947356 0 0 1 0.0461,0.177322 0.26683145,0.26879837 0 0 1 -0.162054,0.119622 0.64263072,0.6473678 0 0 1 -0.637043,-0.149176 c -0.0489,-0.04785 -0.08941,-0.102734 -0.139702,-0.149176 A 1.3648918,1.3749529 0 0 0 16.742565,11.966102 7.4545163,7.5094665 0 0 1 15.79259,11.360954 0.40513676,0.40812318 0 0 1 15.5998,11.106229 c -0.01956,-0.191396 0.188598,-0.440492 0.359035,-0.268799 0.198378,0.202655 0.359035,0.434863 0.581162,0.620629 z"
       fill="#fcbdba"
       id="path18698"
       style="stroke-width:0.140216" />
    <path
       d="m 12.617156,12.279935 a 0.25705229,0.25894712 0 0 0 0.0922,0.07037 3.3933696,3.4183834 0 0 0 0.437268,0.211098 1.7532642,1.7661882 0 0 0 1.208426,-0.0099 1.6121649,1.6240488 0 0 0 0.433077,-0.237838 0.41910699,0.42219639 0 0 0 0.122938,-0.130881 0.47219388,0.4756746 0 0 0 0.03353,-0.270205 c -0.03493,-0.474268 -0.08662,-0.964015 0,-1.424209 A 1.9558326,1.9702498 0 0 1 15.084299,10.029628 3.5316749,3.5577082 0 0 0 15.363703,9.4005552 0.93041752,0.93727599 0 0 0 15.169517,8.6349725 C 14.987904,8.4013571 14.655413,8.1944809 14.362038,8.30003 a 1.8482618,1.8618861 0 0 0 -0.845199,0.6501824 4.2162163,4.2472957 0 0 0 -0.54484,1.0766006 c -0.05588,0.150584 -0.110364,0.301167 -0.153672,0.455972 a 6.5757887,6.6242614 0 0 0 -0.178819,1.141338 c -0.01537,0.160435 -0.02934,0.320869 -0.0461,0.481304 a 0.25006717,0.25191051 0 0 0 0.02375,0.174508 z"
       fill="#68e1fd"
       id="path18700"
       style="stroke-width:0.140216;fill:#97aaf2;fill-opacity:1" />
    <path
       d="m 14.355053,12.551548 a 1.6121649,1.6240488 0 0 0 0.433077,-0.237838 0.41910699,0.42219639 0 0 0 0.122938,-0.130881 0.47219388,0.4756746 0 0 0 0.03353,-0.270205 c -0.03493,-0.474268 -0.08662,-0.964015 0,-1.424209 -0.05588,-0.05629 -0.118747,-0.106957 -0.180216,-0.15762 -0.139702,-0.115401 -0.340873,-0.3433868 -0.543442,-0.327906 0.0489,0.21532 0.08801,0.434862 0.11735,0.654404 0.02934,0.219542 0.01816,0.447528 0.05309,0.664256 a 3.9787224,4.0080511 0 0 1 -0.02654,1.152596 0.36881415,0.37153282 0 0 0 -0.0098,0.0774 z"
       fill="url(#linear-gradient-6)"
       id="path18702"
       style="fill:url(#linear-gradient-6);stroke-width:0.140216" />
    <path
       d="m 16.05523,10.719215 a 0.09220354,0.09288321 0 0 1 0.0461,0.05489 0.09080651,0.09147588 0 0 1 -0.02375,0.06333 1.7700285,1.7830761 0 0 1 -0.4694,0.45738 0.11874698,0.11962231 0 0 1 -0.06147,0.02533 0.11595293,0.11680767 0 0 1 -0.06845,-0.03237 c -0.279405,-0.215322 -0.55881,-0.422198 -0.83123,-0.64737 A 2.0731826,2.0884648 0 0 1 14.186013,10.187248 1.9390683,1.953362 0 0 1 13.970871,9.6820195 C 13.804625,9.154274 14.307554,8.9248806 14.644236,9.311894 c 0.444254,0.5122649 0.849391,1.011864 1.410994,1.407321 z"
       fill="#68e1fd"
       id="path18704"
       style="stroke-width:0.140216;fill:#97aaf2;fill-opacity:1" />
    <path
       d="m 15.986776,18.220238 a 0.10617377,0.10695642 0 0 1 0.01397,-0.106957 c 0.03073,-0.02955 0.08103,-0.01548 0.120144,0 a 1.4529042,1.4636142 0 0 0 0.269626,0.09992 0.39675462,0.39967925 0 0 0 0.279404,-0.02955 c 0.0475,-0.02815 0.0936,-0.07037 0.148085,-0.06614 a 0.19139219,0.19280302 0 0 1 0.07684,0.02955 0.9415937,0.94853456 0 0 0 0.266831,0.09148 0.25146419,0.25331783 0 0 1 0.110365,0.03659 0.05448391,0.05488553 0 0 1 0.02096,0.02955 c 0,0.02815 -0.02654,0.04926 -0.05309,0.05911 -0.290581,0.113993 -0.616088,0.07177 -0.926227,0.038 a 0.37579927,0.37856943 0 0 0 -0.104777,0 c -0.05169,0.0099 -0.114555,0.03659 -0.157863,0 a 0.36462308,0.36731086 0 0 1 -0.06426,-0.181544 z"
       fill="#473f47"
       id="path18706"
       style="stroke-width:0.140216" />
    <path
       d="m 13.227655,19.022411 a 0.11176186,0.1125857 0 0 1 0.02654,-0.104142 c 0.03493,-0.02533 0.08242,0 0.120144,0.01548 a 1.6442964,1.6564172 0 0 0 0.255655,0.133695 0.40094569,0.40390121 0 0 0 0.279405,0 c 0.05029,-0.02111 0.100586,-0.0577 0.15507,-0.04644 a 0.21234754,0.21391284 0 0 1 0.07264,0.038 0.90666812,0.91335152 0 0 0 0.252861,0.130881 0.24867015,0.25050319 0 0 1 0.106174,0.05066 0.04330772,0.04362696 0 0 1 0.01537,0.03096 c 0,0.02815 -0.03073,0.04503 -0.05867,0.05207 -0.303154,0.0774 -0.620278,0 -0.923432,-0.0774 a 0.38837248,0.39123532 0 0 0 -0.104777,-0.01548 c -0.05169,0 -0.11735,0.02252 -0.156467,-0.02533 a 0.38138736,0.38419871 0 0 1 -0.04051,-0.182952 z"
       fill="#473f47"
       id="path18708"
       style="stroke-width:0.140216" />
    <path
       d="m 15.814942,7.831392 c -0.02375,0.077403 -0.0475,0.1548053 -0.06706,0.2336153 a 2.395895,2.413556 0 0 1 -0.0922,0.3462011 0.41072485,0.41375246 0 0 1 -0.240288,0.2476885 0.23050884,0.23220801 0 0 1 -0.28639,-0.1407321 c -0.06706,0.015481 -0.09081,0.098513 -0.08941,0.1688785 A 0.29896299,0.30116676 0 0 1 15.003274,8.886883 C 14.940404,8.961471 14.81747,8.93051 14.735046,8.877033 A 0.75998068,0.76558279 0 0 1 14.415125,8.0889318 c 0.06845,-0.3138327 0.06566,-0.6895875 0.243082,-0.9612005 a 0.83821398,0.84439278 0 0 1 0.238891,-0.2293933 0.61608728,0.62062869 0 0 1 0.279404,-0.1139931 0.76975984,0.77543404 0 0 1 0.210951,0.016888 c 0.296169,0.050664 0.547633,0.09429 0.54903,0.4362696 A 1.9097309,1.9238082 0 0 1 15.814942,7.831392 Z"
       fill="#fcbdba"
       id="path18710"
       style="stroke-width:0.140216" />
    <path
       d="m 15.450319,7.2783147 c -0.0461,0 -0.09919,-0.011259 -0.139703,0.016888 -0.04051,0.028146 -0.04331,0.091476 -0.06845,0.1407321 -0.04889,0.091476 -0.173231,0.1041418 -0.266831,0.1519907 a 0.34925583,0.35183033 0 0 0 -0.184407,0.3166473 0.21234754,0.21391284 0 0 0 -0.02934,-0.118215 0.07404223,0.07458803 0 0 0 -0.106173,-0.018295 0.08940949,0.09006856 0 0 0 -0.02096,0.053478 0.23469991,0.23642998 0 0 0 0.0922,0.2110982 0.34925583,0.35183033 0 0 1 -0.319919,0.1984323 0.17881898,0.18013713 0 0 1 -0.115953,-0.039405 0.18720112,0.18858105 0 0 1 -0.0447,-0.075995 c -0.07963,-0.2251714 0.04191,-0.4658234 0.07125,-0.7036607 a 0.96254905,0.96964438 0 0 1 0.04051,-0.2476885 0.53925099,0.54322602 0 0 1 0.104776,-0.153398 1.0645318,1.0723788 0 0 1 0.497341,-0.3363498 c 0.187201,-0.052071 0.558809,-0.025332 0.705496,0.1238443 a 0.29477192,0.29694479 0 0 1 -0.215141,0.4798965 z"
       fill="#ff681c"
       id="path18712"
       style="stroke-width:0.140216" />
    <path
       d="m 15.367894,28.642859 v -2.633098 c 0.343668,-0.751509 1.021224,-0.239244 1.021224,-0.239244 a 0.76696579,0.77261939 0 1 0 0,-1.06675 c -0.639836,0.422196 -1.021224,-0.239245 -1.021224,-0.239245 v -2.634505 h 2.613831 c 0,0 0.662189,-0.384199 0.237494,-1.028752 a 0.76696579,0.77261939 0 1 1 1.058944,0 c 0,0 -0.508517,0.682551 0.237494,1.028752 h 2.61383 v 6.812842 z"
       fill="url(#linear-gradient-7)"
       id="path18714"
       style="fill:url(#linear-gradient-7);stroke-width:0.140216" />
    <path
       d="M 10.359566,28.502127 H 9.887372 L 14.721073,15.64484 a 0.22072968,0.22235677 0 0 1 0.205362,-0.140732 v 0 a 0.22072968,0.22235677 0 0 1 0.20676,0.301166 z"
       fill="#68e1fd"
       id="path18716"
       style="stroke-width:0.140216;fill:#97aaf2;fill-opacity:1" />
    <polygon
       points="94.44,202.52 91.06,202.52 126.04,110.14 129.42,110.14 "
       fill="#68e1fd"
       id="polygon18718"
       transform="matrix(0.13970233,0,0,0.14073213,-0.00215593,0.00105631)"
       style="fill:#97aaf2;fill-opacity:1" />
    <polygon
       points="120.58,124.57 102.7,124.57 103.6,122.19 121.48,122.19 "
       fill="#68e1fd"
       id="polygon18720"
       transform="matrix(0.13970233,0,0,0.14073213,-0.00215593,0.00105631)"
       style="fill:#97aaf2;fill-opacity:1" />
    <polygon
       points="115.08,139.08 97.2,139.08 98.11,136.7 115.99,136.7 "
       fill="#68e1fd"
       id="polygon18722"
       transform="matrix(0.13970233,0,0,0.14073213,-0.00215593,0.00105631)"
       style="fill:#97aaf2;fill-opacity:1" />
    <polygon
       points="109.59,153.59 91.71,153.59 92.61,151.2 110.49,151.2 "
       fill="#68e1fd"
       id="polygon18724"
       transform="matrix(0.13970233,0,0,0.14073213,-0.00215593,0.00105631)"
       style="fill:#97aaf2;fill-opacity:1" />
    <polygon
       points="104.1,168.09 86.22,168.09 87.12,165.71 105,165.71 "
       fill="#68e1fd"
       id="polygon18726"
       transform="matrix(0.13970233,0,0,0.14073213,-0.00215593,0.00105631)"
       style="fill:#97aaf2;fill-opacity:1" />
    <polygon
       points="98.6,182.6 80.72,182.6 81.63,180.22 99.5,180.22 "
       fill="#68e1fd"
       id="polygon18728"
       transform="matrix(0.13970233,0,0,0.14073213,-0.00215593,0.00105631)"
       style="fill:#97aaf2;fill-opacity:1" />
    <path
       d="m 14.483579,17.532058 -0.642631,1.70708 h 2.36516 l -0.125732,0.334943 h -2.360969 l -0.641234,1.705673 h 2.359573 l -0.125732,0.334943 H 12.94825 l -0.641234,1.707081 h 2.362367 l -0.125732,0.334942 h -2.362367 l -0.64263,1.707081 h 2.360969 l -0.127129,0.334942 h -2.359573 l -1.053355,2.803384 H 9.887372 L 14.721073,15.64484 a 0.22072968,0.22235677 0 0 1 0.419107,0.07881 0.22631777,0.22798605 0 0 1 -0.01397,0.07881 l -0.523883,1.394655 h 2.359572 l -0.125732,0.334943 z"
       fill="url(#linear-gradient-8)"
       id="path18730"
       style="fill:url(#linear-gradient-8);stroke-width:0.140216" />
    <polygon
       points="94.44,202.52 91.06,202.52 126.04,110.14 129.42,110.14 "
       fill="url(#linear-gradient-9)"
       id="polygon18732"
       style="fill:url(#linear-gradient-9)"
       transform="matrix(0.13970233,0,0,0.14073213,-0.00215593,0.00105631)" />
    <path
       d="m 36.618016,17.385696 a 0.54064802,0.54463334 0 0 1 -0.243082,0.118215 0.55880932,0.56292852 0 0 1 -0.240288,-0.04363 l -1.162324,-0.389828 a 0.44006234,0.44330621 0 0 0 -0.095,0.596705 0.85916933,0.8655026 0 0 0 0.426092,0.256132 l 0.7977,0.288501 a 1.3704799,1.3805822 0 0 0 1.174897,-0.007 c 0.237494,-0.08022 0.498737,-0.180137 0.613293,-0.405308 0.114556,-0.225172 0.03073,-0.523524 0.06426,-0.786693 a 3.3528559,3.3775711 0 0 0 0.0936,-0.50945 c 0,-0.147769 -0.120144,-0.370126 -0.294772,-0.339165 -0.150879,0.02674 -0.251464,0.291316 -0.331095,0.402494 a 3.7384344,3.7659918 0 0 1 -0.803288,0.819061 z"
       fill="#ffffff"
       id="path18734"
       style="stroke-width:0.140216" />
    <path
       d="m 34.827032,17.004312 a 0.24168503,0.24346658 0 0 0 -0.05448,-0.08444 0.08521842,0.0858466 0 0 0 -0.0922,-0.0197 0.09499758,0.09569785 0 0 0 -0.04471,0.09148 0.04749879,0.04784892 0 0 1 -0.0084,0.03659 c -0.0084,0.0084 -0.02375,0 -0.03632,0 -0.13132,-0.02533 -0.265434,-0.04504 -0.399549,-0.05911 a 0.08102735,0.08162464 0 0 0 -0.09081,0.111179 0.40234271,0.40530853 0 0 0 0.06566,0.123844 c 0.06845,0.112586 0.0936,0.260354 0.202568,0.333535 a 0.35484392,0.35745961 0 0 0 0.22073,0.04644 c 0.07684,0 0.152276,-0.0183 0.229112,-0.01407 a 0.24028801,0.24205926 0 0 0 0.150878,-0.01689 0.12992317,0.13088088 0 0 0 0.05169,-0.115401 0.43726829,0.44049157 0 0 0 -0.07125,-0.19421 c -0.04331,-0.076 -0.08382,-0.15762 -0.122938,-0.239245 z"
       fill="#fdb9a9"
       id="path18736"
       style="stroke-width:0.140216" />
    <path
       d="m 38.068126,25.818366 c -0.444253,-0.101328 -0.357638,0.533374 -0.474988,0.769804 a 1.2307775,1.2398501 0 0 1 -0.279405,0.318055 0.56998551,0.57418709 0 0 0 -0.199774,0.361681 0.12992317,0.13088088 0 0 0 0.01537,0.076 0.15227554,0.15339802 0 0 0 0.08941,0.05348 1.0240181,1.0315665 0 0 0 0.761378,-0.07599 0.59094086,0.59529691 0 0 0 0.261243,-0.243467 0.83821398,0.84439278 0 0 0 0.06706,-0.363089 c 0.01397,-0.264576 0.13132,-0.813432 -0.240288,-0.896463 z"
       fill="#fdb9a9"
       id="path18738"
       style="stroke-width:0.140216" />
    <path
       d="m 37.674165,27.127174 c 0,0 -1.265703,0.05489 -0.729246,0.454565 0.536457,0.399679 1.336952,-0.0971 1.415185,-0.188581 0.07823,-0.09148 0.01397,-0.247688 0.01397,-0.247688 z"
       fill="#68e1fd"
       id="path18740"
       style="stroke-width:0.140216;fill:#97aaf2;fill-opacity:1" />
    <path
       d="m 38.304223,27.303089 c -0.111762,0.140733 -0.706894,0.325092 -0.970931,0.305389 -0.264038,-0.0197 -0.500135,-0.140732 -0.473591,-0.313832 0.02654,-0.173101 0.490355,-0.571373 0.578368,-0.569966 0.08801,0.0014 0.156466,0.205469 0.332491,0.247689 a 0.46800281,0.47145264 0 0 0 0.428886,-0.154805 0.11734996,0.11821499 0 0 1 0.139703,-0.038 0.55880932,0.56292852 0 0 1 -0.03493,0.523523 z"
       fill="#ffffff"
       id="path18742"
       style="stroke-width:0.140216" />
    <path
       d="m 39.595073,26.068869 c -0.444254,-0.104142 -0.357638,0.531967 -0.474988,0.76699 a 1.2363656,1.2454794 0 0 1 -0.279405,0.319462 0.56719146,0.57137245 0 0 0 -0.199774,0.360274 0.13970233,0.14073213 0 0 0 0.01537,0.0774 0.15926066,0.16043463 0 0 0 0.08941,0.05348 1.0296062,1.0371958 0 0 0 0.761378,-0.07599 0.60211704,0.60655548 0 0 0 0.261243,-0.244874 0.83821398,0.84439278 0 0 0 0.06706,-0.361682 c 0.01397,-0.267391 0.13132,-0.814839 -0.240288,-0.895056 z"
       fill="#fdb9a9"
       id="path18744"
       style="stroke-width:0.140216" />
    <path
       d="m 39.201112,27.372048 c 0,0 -1.265703,0.05348 -0.729246,0.455972 0.536457,0.402494 1.336951,-0.09851 1.415184,-0.189988 0.07823,-0.09148 0.01397,-0.247689 0.01397,-0.247689 z"
       fill="#68e1fd"
       id="path18746"
       style="stroke-width:0.140216;fill:#97aaf2;fill-opacity:1" />
    <path
       d="m 39.831169,27.545149 c -0.111761,0.140732 -0.706893,0.326498 -0.970931,0.306796 -0.264037,-0.0197 -0.500134,-0.140732 -0.473591,-0.313833 0.02654,-0.1731 0.490356,-0.571372 0.578368,-0.562928 0.08801,0.0084 0.156467,0.205469 0.332492,0.246281 a 0.46660578,0.47004531 0 0 0 0.428886,-0.153398 0.11595293,0.11680767 0 0 1 0.139702,-0.038 0.55880932,0.56292852 0 0 1 -0.03493,0.51508 z"
       fill="#ffffff"
       id="path18748"
       style="stroke-width:0.140216" />
    <path
       d="m 38.448116,20.280556 0.595132,6.310429 0.857773,-0.106957 c 0.339476,-1.539609 0.255655,-6.145772 0.255655,-6.145772 z"
       fill="#473f47"
       id="path18750"
       style="stroke-width:0.140216" />
    <path
       d="M 39.043248,20.11027 38.448116,26.419292 37.58755,26.312335 C 37.097195,22.321172 37.50233,19.838657 37.50233,19.838657 Z"
       fill="#473f47"
       id="path18752"
       style="stroke-width:0.140216" />
    <path
       d="m 37.580565,17.829003 c -0.01118,-0.115401 -0.04191,-0.230801 -0.05309,-0.349016 a 2.6250068,2.6443567 0 0 1 0.01257,-0.714919 2.6878728,2.7076862 0 0 1 0.224921,-0.728993 c 0.09779,-0.199839 0.279405,-0.281464 0.477782,-0.385606 a 1.7183387,1.7310052 0 0 1 0.540648,-0.184359 1.3593037,1.3693236 0 0 1 0.398152,0.02252 c 0.405136,0.0774 0.937402,0.281464 1.214013,0.60937 0.208156,0.240652 0.231906,0.586853 0.238891,0.906315 0.0084,0.440492 0,0.880983 -0.02794,1.321475 0,0.06333 -0.007,0.126659 -0.01257,0.191396 a 6.9627641,7.0140894 0 0 1 -0.219332,1.450948 0.57138253,0.57559441 0 0 1 -0.222127,0.371533 c -0.317124,0.185766 -0.800495,0.08303 -1.142765,0.03518 -0.454033,-0.06474 -0.919242,-0.132288 -1.321584,-0.354645 a 0.37300522,0.37575479 0 0 1 -0.189995,-0.184359 0.49873732,0.5024137 0 0 1 0.03772,-0.308204 c 0.139703,-0.450343 0.03073,-0.92461 0.03073,-1.384804 0,-0.08303 0.0098,-0.167471 0.0098,-0.25191 0.0042,-0.0197 0.0042,-0.04081 0.0042,-0.06192 z"
       fill="#ffffff"
       id="path18754"
       style="stroke-width:0.140216" />
    <path
       d="m 39.005529,18.643842 a 1.0687228,1.0766008 0 0 0 0.350653,0.140732 c 0.370211,0.108363 0.750201,0.166064 1.117618,0.281464 a 0.13970233,0.14073213 0 0 1 0.06706,0.03378 0.12433507,0.1252516 0 0 1 0.01956,0.07881 0.97791631,0.98512491 0 0 1 -0.0475,0.319462 0.21095052,0.21250552 0 0 1 -0.08243,0.128066 0.24308205,0.24487391 0 0 1 -0.166245,0 l -1.38445,-0.295538 a 1.1693085,1.1779279 0 0 0 -0.303154,-0.03659 1.4249638,1.4354677 0 0 0 -0.353447,0.08866 3.3752083,3.4000883 0 0 1 -0.65241,0.140732 5.1256785,5.1634618 0 0 1 0.09639,-0.792322 1.0351943,1.0428251 0 0 1 0.08662,-0.222356 1.0687228,1.0766008 0 0 1 0.156466,-0.191396 c 0.223524,-0.235023 0.378594,-0.529153 0.604912,-0.764175 0.118746,-0.123845 0.266831,-0.202655 0.371608,-0.334943 0.04191,-0.05348 0.405136,-0.513672 0.370211,-0.562928 0.06985,0.08725 0.243082,0 0.305948,0.09007 0.03912,0.05629 0,0.132288 -0.03632,0.189988 a 4.4551073,4.4879476 0 0 0 -0.551824,1.463615 c -0.02794,0.119622 -0.06985,0.161842 0.03073,0.244874 z"
       fill="url(#linear-gradient-10)"
       id="path18756"
       style="fill:url(#linear-gradient-10);stroke-width:0.140216" />
    <path
       d="m 37.876734,12.866788 a 0.76696579,0.77261939 0 0 1 -0.262641,1.407321 c 0,0 -0.793509,0.301167 -0.347858,0.996383 l 2.204502,1.414358 -1.397023,2.220753 C 37.383585,19.354539 37.084622,18.55518 37.084622,18.55518 a 0.76556877,0.77121207 0 1 0 -0.568589,0.900686 c 0.768363,-0.01548 0.734834,0.754324 0.734834,0.754324 l -1.397023,2.220753 -5.705443,-3.659035 1.390038,-2.201051 c 0.69013,-0.447528 0.989093,0.350423 0.989093,0.350423 a 0.76696579,0.77261939 0 1 0 0.568588,-0.899278 c -0.768363,0.01548 -0.733437,-0.754324 -0.733437,-0.754324 l 1.416582,-2.24327 2.205899,1.415765 c 0,0 0.764172,0.03378 0.748805,-0.740251 a 0.77674495,0.78247064 0 0 1 0.09779,-0.600926 0.76836282,0.77402672 0 0 1 1.044975,-0.232208 z"
       fill="#68e1fd"
       id="path18758"
       style="stroke-width:0.140216;fill:#97aaf2;fill-opacity:1" />
    <path
       d="m 41.278486,17.416657 a 1.676428,1.6887856 0 0 1 0.139702,0.316648 1.4179786,1.4284311 0 0 1 0.01397,0.58826 1.0519585,1.0597129 0 0 1 -0.19698,0.529153 c -0.236097,0.281464 -0.657998,0.308203 -1.024018,0.27302 a 5.8856592,5.9290446 0 0 1 -1.223793,-0.247688 0.2640374,0.26598373 0 0 1 -0.101982,-0.04785 0.27940466,0.28146426 0 0 1 -0.06426,-0.129474 2.0103165,2.0251354 0 0 1 -0.06007,-0.356052 c 0.419107,-0.12103 0.882918,-0.02252 1.320187,-0.08725 a 0.18720112,0.18858105 0 0 0 0.176025,-0.250503 c -0.02096,-0.247689 -0.173231,-0.464416 -0.24448,-0.703661 a 1.1092365,1.1174131 0 0 1 0.01676,-0.703661 0.57417658,0.57840905 0 0 1 0.318521,-0.361681 c 0.174628,-0.0577 0.241685,0.08022 0.33808,0.209691 a 7.3595187,7.4137686 0 0 1 0.592338,0.971051 z"
       fill="#ffffff"
       id="path18760"
       style="stroke-width:0.140216" />
    <path
       d="m 38.586422,18.185055 a 0.11734996,0.11821499 0 0 0 -0.05728,-0.02533 0.09080651,0.09147588 0 0 0 -0.07404,0.05489 0.85078719,0.85705867 0 0 1 -0.04191,0.08866 0.20815647,0.20969087 0 0 1 -0.167643,0.06896 0.94438775,0.9513492 0 0 0 -0.188598,0 0.13970233,0.14073213 0 0 0 -0.06287,0.03096 0.12852614,0.12947356 0 0 0 -0.03493,0.06192 0.29337489,0.29553747 0 0 0 0.07544,0.270205 0.60630811,0.61077744 0 0 0 0.24448,0.151991 0.51969267,0.52352352 0 0 0 0.30036,0.03659 0.61608728,0.62062869 0 0 0 0.157863,-0.07177 l 0.203966,-0.113993 a 0.13970233,0.14073213 0 0 0 0.0447,-0.03378 c 0.04471,-0.05629 -0.01676,-0.225171 -0.05728,-0.281464 a 1.4277578,1.4382824 0 0 0 -0.34227,-0.237837 z"
       fill="#fdb9a9"
       id="path18762"
       style="stroke-width:0.140216" />
    <path
       d="m 38.449513,14.827186 c 0,-0.121029 0.0098,-0.243466 0.02235,-0.361681 0.01257,-0.118215 0.02794,-0.211099 0.0475,-0.31524 a 0.21234754,0.21391284 0 0 1 0.08103,-0.159028 0.99048952,0.9977908 0 0 1 0.53506,-0.140732 0.51410457,0.51789424 0 0 1 0.389769,0.140732 0.50851648,0.51226495 0 0 1 0.107571,0.281465 3.1991834,3.2227658 0 0 1 -0.07823,0.792321 3.3235184,3.3480174 0 0 0 -0.03213,0.616407 0.72086402,0.72617779 0 0 1 -0.331094,0.118215 0.53925099,0.54322602 0 0 1 -0.162055,-0.02674 0.12433507,0.1252516 0 0 1 -0.07265,-0.04785 0.12712912,0.12806624 0 0 1 0,-0.06896 0.49873732,0.5024137 0 0 0 0,-0.06474 v 0 a 2.0522272,2.067355 0 0 0 -0.007,-0.361682 0.03632261,0.03659035 0 0 0 -0.01118,-0.02815 0.03492558,0.03518303 0 0 0 -0.02375,0 h -0.03353 a 0.84939017,0.85565135 0 0 1 -0.178819,0 0.29616894,0.29835212 0 0 1 -0.187201,-0.09288 0.38837248,0.39123532 0 0 1 -0.06566,-0.281464 z"
       fill="#fdb9a9"
       id="path18764"
       style="stroke-width:0.140216" />
    <path
       d="m 38.698184,14.055974 c -0.04191,0 -0.07963,0.02252 -0.115953,0 a 0.52667778,0.53056013 0 0 1 -0.09919,-0.109771 0.46241471,0.46582335 0 0 1 -0.0922,-0.311018 0.27102252,0.27302033 0 0 1 0.0475,-0.140732 0.29477192,0.29694479 0 0 1 0.115953,-0.08585 0.54344206,0.54744799 0 0 1 0.279405,-0.05489 0.66218904,0.6670703 0 0 1 0.371608,0.17873 0.2039654,0.20546891 0 0 0 0.07684,0.05066 0.19698029,0.1984323 0 0 0 0.08103,0 0.68733546,0.69240208 0 0 1 0.490355,0.151991 c 0.07823,0.06896 0.139702,0.15762 0.22073,0.218135 0.08103,0.06051 0.160657,0.08303 0.202568,0.160434 a 0.21095052,0.21250552 0 0 1 -0.02375,0.225172 0.34925583,0.35183033 0 0 1 -0.202568,0.118215 0.18301005,0.18435909 0 0 1 -0.108968,0.239244 0.28638978,0.28850087 0 0 0 -0.0922,0.03096 c -0.01956,0.01548 -0.02794,0.03941 -0.0475,0.05489 -0.0461,0.038 -0.106174,0.05066 -0.125732,0.1154 a 0.32410941,0.32649854 0 0 0 -0.007,0.08303 0.18859815,0.18998838 0 0 1 -0.0475,0.111179 c -0.01816,0.0197 -0.05029,0.06896 -0.07684,0.07459 -0.02654,0.0056 -0.05029,-0.02674 -0.05868,-0.05489 a 0.54344206,0.54744799 0 0 1 0.02375,-0.360274 0.38278438,0.38560604 0 0 0 0.05868,-0.182952 c 0,-0.06474 -0.0922,-0.1154 -0.139702,-0.0774 -0.0475,0.038 -0.05029,0.129474 -0.100586,0.111179 a 0.39815164,0.40108657 0 0 0 -0.192789,-0.486933 0.93041752,0.93727599 0 0 0 -0.290581,-0.04081 0.71667295,0.72195583 0 0 0 -0.139702,-0.01548 z"
       fill="#473f47"
       id="path18766"
       style="stroke-width:0.140216" />
    <path
       d="m 38.881194,15.204348 a 2.1136963,2.1292771 0 0 0 0.405136,-0.121029 0.48197304,0.48552585 0 0 1 -0.331094,0.513672 v 0 a 2.0522272,2.067355 0 0 0 0,-0.361682 0.0419107,0.04221964 0 0 0 -0.01118,-0.02815 0.03492558,0.03518303 0 0 0 -0.02375,0 h -0.03213 z"
       fill="#de9f93"
       id="path18768"
       style="stroke-width:0.140216" />
    <path
       d="m 34.507114,16.216212 a 0.23469991,0.23642998 0 0 1 0.02934,0.212506 0.68733546,0.69240208 0 0 1 -0.104777,0.195617 l -0.219332,0.326499 c -0.05728,0.08444 -0.139703,0.180137 -0.236097,0.171693 -0.240288,-0.01689 -0.346462,-0.644553 -0.257052,-0.830319 0.103379,-0.232208 0.630057,-0.274428 0.787921,-0.076 z"
       fill="#fdb9a9"
       id="path18770"
       style="stroke-width:0.140216" />
    <path
       d="m 35.638703,21.830017 v 6.812842 H 28.87711 v -2.634505 c 0,0 0.381387,-0.66707 1.021224,-0.239245 a 0.76696579,0.77261939 0 1 0 0,-1.066749 c 0,0 -0.677557,0.512265 -1.021224,-0.239245 v -2.633098 h 2.61383 c 0.746011,-0.346201 0.237494,-1.028752 0.237494,-1.028752 a 0.76696579,0.77261939 0 1 1 1.058944,0 c -0.419107,0.644553 0.237494,1.028752 0.237494,1.028752 z"
       fill="#68e1fd"
       id="path18772"
       style="stroke-width:0.140216;fill:#97aaf2;fill-opacity:1" />
    <path
       d="m 35.638703,21.830017 v 6.812842 H 28.87711 v -2.634505 c 0,0 0.381387,-0.66707 1.021224,-0.239245 a 0.76696579,0.77261939 0 1 0 0,-1.066749 c 0,0 -0.677557,0.512265 -1.021224,-0.239245 v -2.633098 h 2.61383 c 0.746011,-0.346201 0.237494,-1.028752 0.237494,-1.028752 a 0.76696579,0.77261939 0 1 1 1.058944,0 c -0.419107,0.644553 0.237494,1.028752 0.237494,1.028752 z"
       fill="url(#linear-gradient-11)"
       id="path18774"
       style="fill:url(#linear-gradient-11);stroke-width:0.140216" />
    <path
       d="m 24.459722,18.422892 a 0.76836282,0.77402672 0 0 1 -1.322981,0.533375 c -0.639837,-0.422197 -1.021224,0.239244 -1.021224,0.239244 v 2.634506 h 6.761593 v -6.812842 h -6.761593 v 2.633098 c 0.343668,0.751509 1.021224,0.239244 1.021224,0.239244 a 0.76836282,0.77402672 0 0 1 1.322981,0.533375 z"
       fill="#68e1fd"
       id="path18776"
       style="stroke-width:0.140216;fill:#97aaf2;fill-opacity:1" />
    <path
       d="m 24.966842,22.858769 a 0.76696579,0.77261939 0 1 0 1.058943,0 c 0,0 -0.508516,-0.682551 0.237494,-1.028752 h -1.535328 c 0,0 0.663586,0.384199 0.238891,1.028752 z"
       fill="#68e1fd"
       id="path18778"
       style="stroke-width:0.140216;fill:#97aaf2;fill-opacity:1" />
    <path
       d="m 22.115517,15.017175 v 2.633098 c 0.343668,0.751509 1.021224,0.239244 1.021224,0.239244 a 0.76696579,0.77261939 0 1 1 0,1.06675 c -0.639837,-0.422197 -1.021224,0.239244 -1.021224,0.239244 v 2.634506 h 2.612434 c 0,0 0.662189,0.384199 0.237494,1.028752 a 0.76696579,0.77261939 0 1 0 1.058943,0 c 0,0 -0.508516,-0.682551 0.237494,-1.028752 h 2.615228 v -6.812842 z"
       fill="url(#linear-gradient-12)"
       id="path18780"
       style="fill:url(#linear-gradient-12);stroke-width:0.140216" />
    <path
       d="m 22.115517,21.830017 v 6.812842 h 6.761593 v -2.634505 c 0,0 0.381387,-0.66707 1.021224,-0.239245 a 0.76696579,0.77261939 0 1 0 0,-1.066749 c 0,0 -0.677557,0.512265 -1.021224,-0.239245 v -2.633098 h -2.612434 c -0.74601,0.346201 -0.237494,1.028752 -0.237494,1.028752 a 0.76696579,0.77261939 0 1 1 -1.058943,0 c 0.419107,-0.644553 -0.237494,-1.028752 -0.237494,-1.028752 z"
       fill="#68e1fd"
       id="path18782"
       style="stroke-width:0.140216;fill:#97aaf2;fill-opacity:1" />
    <path
       d="m 15.367894,28.642859 v -2.633098 c 0.343668,-0.751509 1.021224,-0.239244 1.021224,-0.239244 a 0.76696579,0.77261939 0 1 0 0,-1.06675 c -0.639836,0.422196 -1.021224,-0.239245 -1.021224,-0.239245 v -2.634505 h 2.613831 c 0,0 0.662189,-0.384199 0.237494,-1.028752 a 0.76696579,0.77261939 0 1 1 1.058944,0 c 0,0 -0.508517,0.682551 0.237494,1.028752 h 2.61383 v 6.812842 z"
       fill="#68e1fd"
       id="path18784"
       style="stroke-width:0.140216;fill:#97aaf2;fill-opacity:1" />
    <path
       d="m 15.367894,28.642859 v -2.633098 c 0.343668,-0.751509 1.021224,-0.239244 1.021224,-0.239244 a 0.76696579,0.77261939 0 1 0 0,-1.06675 c -0.639836,0.422196 -1.021224,-0.239245 -1.021224,-0.239245 v -2.634505 h 2.613831 c 0,0 0.662189,-0.384199 0.237494,-1.028752 a 0.76696579,0.77261939 0 1 1 1.058944,0 c 0,0 -0.508517,0.682551 0.237494,1.028752 h 2.61383 v 6.812842 z"
       fill="url(#linear-gradient-13)"
       id="path18786"
       style="fill:url(#linear-gradient-13);stroke-width:0.140216" />
    <path
       d="m 24.468104,18.424299 a 0.76836282,0.77402672 0 0 1 -1.322981,0.533375 c 0,0 -0.677556,-0.512265 -1.021224,0.239245 v 2.633098 h -2.61383 c -0.746011,-0.346201 -0.237494,-1.028752 -0.237494,-1.028752 a 0.76696579,0.77261939 0 1 0 -1.058944,0 c 0.419107,0.644553 -0.237494,1.028752 -0.237494,1.028752 h -2.608243 v -6.812842 h 2.588685 c 0.74601,0.346201 0.237494,1.028751 0.237494,1.028751 a 0.76696579,0.77261939 0 1 0 1.058943,0 c -0.419107,-0.644553 0.237494,-1.028751 0.237494,-1.028751 h 2.638977 v 2.634505 c 0,0 0.381388,0.66707 1.021224,0.239245 a 0.76836282,0.77402672 0 0 1 1.322981,0.533374 z"
       fill="#68e1fd"
       id="path18788"
       style="stroke-width:0.140216;fill:#97aaf2;fill-opacity:1" />
    <path
       d="m 26.124974,31.515202 a 0.76696579,0.77261939 0 0 1 -1.314599,0.553077 c 0,0 -0.684541,-0.502413 -1.017033,0.253318 l 0.03772,2.633098 -2.613831,0.038 c -0.751599,-0.334942 -0.252861,-1.02453 -0.252861,-1.02453 a 0.76556877,0.77121207 0 1 0 -1.058944,0.01548 C 20.3399,34.62116 19.683299,35.01521 19.683299,35.01521 l -2.61383,0.038 -0.09779,-6.812843 2.588684,-0.03659 c 0.751599,0.334943 0.252862,1.02453 0.252862,1.02453 a 0.76556877,0.77121207 0 1 0 1.058943,-0.01548 c -0.434474,-0.637516 0.222127,-1.031566 0.222127,-1.031566 l 2.638977,-0.038 0.03772,2.634506 c 0,0 0.391166,0.661441 1.024018,0.223764 a 0.77814198,0.78387796 0 0 1 0.558809,-0.247689 0.76556877,0.77121207 0 0 1 0.771157,0.761361 z"
       fill="#68e1fd"
       id="path18790"
       style="stroke-width:0.140216;fill:#97aaf2;fill-opacity:1" />
    <path
       d="m 17.918859,28.265697 c -0.0936,0.104142 -0.166246,0.333535 -0.01816,0.430641 a 0.39954866,0.40249389 0 0 0 0.171834,0.04785 l 0.790715,0.0971 c -0.02375,0 0.389769,4.693416 0.551824,5.691207 0.01956,0.118215 0.06845,0.265984 0.187201,0.281464 a 0.2277148,0.22939337 0 0 0 0.177422,-0.104142 1.2084252,1.2173329 0 0 0 0.188598,-0.600926 34.013326,34.264052 0 0 0 0.279405,-4.620236 c 0,-0.305388 -0.01118,-0.62485 -0.162055,-0.890834 a 1.2349686,1.244072 0 0 0 -0.828435,-0.55167 C 18.80597,27.943417 18.24716,27.896975 17.91886,28.265693 Z"
       fill="url(#linear-gradient-14)"
       id="path18792"
       style="fill:url(#linear-gradient-14);stroke-width:0.140216" />
    <path
       d="m 19.821605,38.007175 v 0.0183 c 0.03353,0.08585 0.139702,0.113994 0.229112,0.125252 a 1.9460535,1.9603986 0 0 0 0.254258,0.01126 0.3478588,0.350423 0 0 0 0.120144,-0.01689 0.44704746,0.45034282 0 0 0 0.09919,-0.06052 l 0.24448,-0.182952 a 1.0561496,1.0639349 0 0 0 0.187201,-0.166064 0.33528559,0.33775711 0 0 0 0.08103,-0.232208 0.2039654,0.20546891 0 0 0 -0.146687,-0.182951 0.63145453,0.63610923 0 0 0 -0.153673,0 0.29616894,0.29835212 0 0 1 -0.290581,-0.140733 0.21793563,0.21954212 0 0 0 -0.06985,-0.118215 0.17742196,0.17872981 0 0 0 -0.114556,-0.01407 0.88291873,0.88942706 0 0 0 -0.24867,0.04926 0.2877868,0.28990819 0 0 0 -0.174628,0.177323 0.4554296,0.45878674 0 0 0 -0.01118,0.1154 1.9474505,1.9618059 0 0 1 0,0.240652 2.6808877,2.7006496 0 0 0 -0.01676,0.301167 0.32830048,0.33072051 0 0 0 0.01118,0.07599 z"
       fill="#262836"
       id="path18794"
       style="stroke-width:0.140216" />
    <path
       d="m 22.192353,38.039544 a 4.1142336,4.1445612 0 0 1 -0.507119,0.19421 0.31852131,0.32086926 0 0 1 -0.217936,0.01267 0.21933266,0.22094944 0 0 1 -0.115953,-0.140732 0.66079202,0.66566297 0 0 1 -0.01816,-0.189989 1.5367256,1.5480534 0 0 1 0.06007,-0.291315 c 0.01537,-0.08866 0.02794,-0.177323 0.03912,-0.265984 0.01816,-0.128066 0.03493,-0.254725 0.05029,-0.381384 l 0.440063,0.09429 c 0.0461,0.0099 0.08941,0.188581 0.11735,0.226578 a 0.23050884,0.23220801 0 0 0 0.176025,0.09429 1.7853958,1.7985566 0 0 1 0.226317,-0.0183 0.22631777,0.22798605 0 0 1 0.174628,0.216727 0.35903499,0.36168157 0 0 1 -0.118747,0.265984 0.87313956,0.87957581 0 0 1 -0.251464,0.160435 z"
       fill="#262836"
       id="path18796"
       style="stroke-width:0.140216" />
    <path
       d="m 22.199338,37.544167 a 2.8247811,2.8456037 0 0 1 -0.359035,0.1731 h -0.01118 c -0.203965,0.08022 -0.43168,-0.242059 -0.43168,-0.242059 0,0 -0.287787,-1.790113 -0.279405,-2.533178 0.0098,-0.509451 -0.110364,-1.235629 -0.29058,-2.552881 -0.04471,1.345399 -0.271023,1.936474 -0.213745,2.419185 0.08801,0.733214 -0.01676,2.554288 -0.01676,2.554288 0,0 -0.19279,0.354645 -0.40374,0.306796 h -0.01257 a 2.6236098,2.6429494 0 0 1 -0.373006,-0.1154 c 0,0 -0.245876,-2.507847 -0.245876,-3.169288 0,-0.661441 0.02794,-1.253923 0.02794,-1.253923 l -0.128526,-2.094094 0.547633,-0.802173 0.04471,-0.01829 0.04191,-0.04222 0.607705,-0.448936 c 0,0 0,0.104142 -0.01118,0.281465 l 0.472194,0.254725 0.04471,0.03378 0.0461,0.01126 0.790715,0.140732 c 0,0 0.206759,3.212915 0.279404,3.870134 0.07265,0.657219 -0.125732,3.226988 -0.125732,3.226988 z"
       fill="#68e1fd"
       id="path18798"
       style="stroke-width:0.140216;fill:#97aaf2;fill-opacity:1" />
    <path
       d="m 22.199338,37.544167 a 2.8247811,2.8456037 0 0 1 -0.359035,0.1731 h -0.01118 c -0.203965,0.08022 -0.43168,-0.242059 -0.43168,-0.242059 0,0 -0.287787,-1.790113 -0.279405,-2.533178 0.0098,-0.509451 -0.110364,-1.235629 -0.29058,-2.552881 -0.04471,1.345399 -0.271023,1.936474 -0.213745,2.419185 0.08801,0.733214 -0.01676,2.554288 -0.01676,2.554288 0,0 -0.19279,0.354645 -0.40374,0.306796 h -0.01257 a 2.6236098,2.6429494 0 0 1 -0.373006,-0.1154 c 0,0 -0.245876,-2.507847 -0.245876,-3.169288 0,-0.661441 0.02794,-1.253923 0.02794,-1.253923 l -0.128526,-2.094094 0.547633,-0.802173 0.04471,-0.01829 0.04191,-0.04222 0.607705,-0.448936 c 0,0 0,0.104142 -0.01118,0.281465 l 0.472194,0.254725 0.04471,0.03378 0.0461,0.01126 0.790715,0.140732 c 0,0 0.206759,3.212915 0.279404,3.870134 0.07265,0.657219 -0.125732,3.226988 -0.125732,3.226988 z"
       fill="url(#linear-gradient-15)"
       id="path18800"
       style="fill:url(#linear-gradient-15);stroke-width:0.140216" />
    <path
       d="m 25.921008,26.344704 a 0.060072,0.06051482 0 0 1 0.03353,-0.01126 c 0.03213,0 0.03353,0.05207 0.02235,0.08303 a 0.86894849,0.87535385 0 0 1 -0.125732,0.240652 0.10477675,0.1055491 0 0 0 -0.02934,0.06755 c 0,0.02533 0.02235,0.04363 0.03912,0.06192 a 0.49873732,0.5024137 0 0 1 0.107571,0.443306 0.86894849,0.87535385 0 0 1 -0.230509,0.406716 0.33109452,0.33353515 0 0 1 -0.222126,0.125251 c -0.150879,0 -0.339477,-0.187173 -0.399549,-0.316647 a 0.39116652,0.39404996 0 0 1 0.07264,-0.382791 2.0005374,2.0152841 0 0 1 0.73204,-0.717734 z"
       fill="#a67c52"
       id="path18802"
       style="stroke-width:0.140216" />
    <path
       d="m 21.544134,24.867016 c 0.0489,0.05066 0.124336,0.102735 0.10338,0.168879 -0.01118,0.03518 -0.0489,0.05629 -0.07684,0.08162 a 0.37999034,0.38279139 0 0 0 -0.10338,0.27302 0.87593361,0.88239046 0 0 1 -0.04191,0.296945 0.21793563,0.21954212 0 0 1 -0.237493,0.140732 c -0.05728,-0.01548 -0.114556,-0.06614 -0.170437,-0.04222 -0.05588,0.02393 -0.05588,0.07037 -0.07823,0.109771 a 0.30455108,0.30679604 0 0 1 -0.29058,0.140732 0.91924133,0.92601742 0 0 1 -0.318522,-0.111178 0.24028801,0.24205926 0 0 1 -0.104777,-0.08163 0.17462791,0.17591516 0 0 1 -0.01118,-0.113993 0.90946217,0.91616617 0 0 1 0.166246,-0.313832 1.3369513,1.3468065 0 0 0 0.210951,-0.623444 c 0.01118,-0.154805 0,-0.325091 0.09919,-0.444713 0.139703,-0.16325 0.456827,-0.161842 0.623073,-0.04222 0.166245,0.119622 0.07684,0.402494 0.230508,0.561521 z"
       fill="#a67c52"
       id="path18804"
       style="stroke-width:0.140216" />
    <path
       d="m 21.345757,24.16617 a 0.23889098,0.24065194 0 0 1 -0.08522,0.09429 c -0.07404,0.04363 -0.139703,0.09429 -0.20676,0.140732 a 0.3115362,0.31383265 0 0 0 -0.132717,0.19421 c -0.02934,0.140732 0.0489,0.301167 0,0.443307 -0.01816,0.02955 -0.06426,0.01126 -0.08242,-0.01689 -0.01816,-0.02815 -0.02934,-0.06333 -0.05728,-0.08022 -0.0489,-0.02815 -0.107571,0.0197 -0.128526,0.07177 a 0.24727312,0.24909587 0 0 0 0.139702,0.31524 c -0.007,0.04503 -0.06426,0.06333 -0.110365,0.0577 a 0.50851648,0.51226495 0 0 0 -0.139702,-0.01829 c -0.104777,0.0197 -0.139703,0.170286 -0.24867,0.185766 A 0.23469991,0.23642998 0 0 1 20.113583,25.44824 l -0.12713,-0.140732 a 0.71387891,0.71914118 0 0 0 -0.06706,-0.0774 c -0.02934,-0.02252 -0.07684,-0.02392 -0.100585,-0.05066 -0.02375,-0.02674 0,-0.09007 -0.02515,-0.123845 a 0.09918865,0.09991981 0 0 0 -0.04331,-0.02674 0.17881898,0.18013713 0 0 1 -0.0922,-0.206876 0.04749879,0.04784892 0 0 0 0,-0.03096 c 0,-0.01407 -0.01956,-0.0197 -0.03353,-0.02674 a 0.19278922,0.19421034 0 0 1 -0.07125,-0.242059 0.40932783,0.41234514 0 0 1 0.08941,-0.129474 0.12852614,0.12947356 0 0 1 0.125732,-0.0577 l 0.02096,-0.184359 a 0.2095535,0.21109819 0 0 1 0.247273,-0.211098 l -0.04191,-0.151991 a 0.08102735,0.08162464 0 0 1 0,-0.06051 0.07543926,0.07599535 0 0 1 0.0447,-0.02533 0.68314439,0.68818012 0 0 1 0.149482,-0.02533 0.71806998,0.72336315 0 0 1 -0.04191,-0.132289 0.03632261,0.03659035 0 0 1 0.04471,-0.05066 0.18720112,0.18858105 0 0 0 0.05588,0 c 0,0 -0.02794,-0.129474 -0.02934,-0.140732 a 0.15926066,0.16043463 0 0 1 0.02096,-0.118215 0.13970233,0.14073213 0 0 1 0.124335,-0.04644 0.38557843,0.38842068 0 0 1 0.128526,0.04785 c 0,-0.04926 0.06007,-0.07459 0.108968,-0.07881 a 0.55880932,0.56292852 0 0 1 0.486164,0.235023 0.25984633,0.26176176 0 0 0 0.03073,0.038 0.23749396,0.23924462 0 0 0 0.07265,0.03096 0.29197787,0.29413015 0 0 1 0.163451,0.191396 0.86475742,0.87113188 0 0 1 0.02515,0.256133 0.69851165,0.70366065 0 0 1 -0.01816,0.197025 0.26683145,0.26879837 0 0 1 -0.01537,0.06051 z"
       fill="#2f3554"
       id="path18806"
       style="stroke-width:0.140216" />
    <path
       d="m 20.651437,25.762073 a 2.8261781,2.847011 0 0 1 0.338079,0.170286 0.25565526,0.2575398 0 0 1 0.08522,0.07459 0.11734996,0.11821499 0 0 1 0.01118,0.118215 c -0.02934,0.05207 -0.09919,0.03378 -0.152276,0.01407 a 2.0536243,2.0687623 0 0 0 -0.765568,-0.106957 0.09499758,0.09569785 0 0 1 -0.0922,-0.038 0.1257321,0.12665892 0 0 1 0.0098,-0.105549 c 0.132717,-0.268799 0.349256,-0.225172 0.565795,-0.126659 z"
       fill="#ffffff"
       id="path18808"
       style="stroke-width:0.140216" />
    <path
       d="m 25.433447,27.836464 a 1.0379883,1.0456397 0 0 1 -0.219332,0.339165 c -0.09081,0.102734 -0.184407,0.201247 -0.279405,0.296944 a 8.3304499,8.3918569 0 0 1 -0.725055,0.629073 1.4822417,1.4931679 0 0 1 -0.599323,0.323684 0.47219388,0.4756746 0 0 1 -0.271023,-0.01689 0.67476225,0.67973619 0 0 1 -0.188598,-0.140732 c -0.06426,-0.06474 -0.810273,-0.930239 -0.822846,-0.930239 a 0.19977433,0.20124695 0 0 0 -0.0922,0.105549 2.0675945,2.0828355 0 0 0 -0.19698,0.716326 2.0159046,2.0307646 0 0 0 0,0.333535 c 0.02934,0.37857 0.160657,0.768398 0.03073,1.125857 a 0.51131053,0.5150796 0 0 1 -0.125732,0.19984 0.59513193,0.59951887 0 0 1 -0.185804,0.111178 1.7365,1.7493004 0 0 1 -0.374402,0.106957 1.4794477,1.4903533 0 0 1 -0.222127,0.02392 c -0.279405,0.01126 -0.544839,-0.04222 -0.818656,-0.02955 -0.231905,0.01267 -0.462414,0.07318 -0.698511,0.06474 a 0.23469991,0.23642998 0 0 1 -0.279405,-0.223764 8.6615445,8.7253921 0 0 1 -0.139702,-1.518499 c 0,-0.177323 -0.0098,-0.356053 -0.02096,-0.533375 -0.0098,-0.150584 0.03073,-0.533375 -0.139702,-0.562929 -0.433077,-0.08444 -0.882919,0.02252 -1.320187,-0.0394 a 1.1176186,1.125857 0 0 1 0.339477,-0.76136 1.8985547,1.9125496 0 0 1 0.326903,-0.223765 1.8161303,1.8295177 0 0 0 0.357638,-0.340571 3.1223471,3.1453631 0 0 1 1.100855,-0.868318 0.97791631,0.98512491 0 0 1 0.213744,-0.076 h 0.01816 a 0.13970233,0.14073213 0 0 1 0.03213,0 0.97791631,0.98512491 0 0 1 0.279405,0.01689 16.132825,16.251746 0 0 1 1.846864,0.422196 0.64123369,0.64596048 0 0 1 0.223524,0.09851 0.6356456,0.64033119 0 0 1 0.120144,0.147769 c 0.170437,0.258947 0.336683,0.520708 0.508517,0.779656 0.148084,0.222356 0.293374,0.501006 0.51131,0.664255 a 6.0211704,6.0655548 0 0 0 1.33276,-0.757139 c 0.05728,-0.04363 0.131321,-0.09148 0.196981,-0.06192 a 0.16903982,0.17028588 0 0 1 0.05728,0.04222 c 0.160657,0.140732 0.301757,0.295537 0.223523,0.536189 z"
       fill="#ffffff"
       id="path18810"
       style="stroke-width:0.140216" />
  </g>
</svg>
