<?xml version="1.0" encoding="UTF-8" standalone="no"?>
<!-- Created with Inkscape (http://www.inkscape.org/) -->

<svg
   width="280"
   height="240"
   viewBox="0 0 74.083331 63.5"
   version="1.1"
   id="svg5"
   inkscape:version="1.2 (dc2aedaf03, 2022-05-15)"
   sodipodi:docname="virtual.svg"
   xmlns:inkscape="http://www.inkscape.org/namespaces/inkscape"
   xmlns:sodipodi="http://sodipodi.sourceforge.net/DTD/sodipodi-0.dtd"
   xmlns:xlink="http://www.w3.org/1999/xlink"
   xmlns="http://www.w3.org/2000/svg"
   xmlns:svg="http://www.w3.org/2000/svg">
  <sodipodi:namedview
     id="namedview7"
     pagecolor="#505050"
     bordercolor="#eeeeee"
     borderopacity="1"
     inkscape:showpageshadow="0"
     inkscape:pageopacity="0"
     inkscape:pagecheckerboard="0"
     inkscape:deskcolor="#505050"
     inkscape:document-units="px"
     showgrid="false"
     inkscape:zoom="1"
     inkscape:cx="399.5"
     inkscape:cy="157.5"
     inkscape:window-width="1366"
     inkscape:window-height="699"
     inkscape:window-x="0"
     inkscape:window-y="0"
     inkscape:window-maximized="1"
     inkscape:current-layer="layer1" />
  <defs
     id="defs2">
    <linearGradient
       id="linear-gradient"
       x1="104.12"
       y1="230.53999"
       x2="151.94"
       y2="193.21001"
       gradientUnits="userSpaceOnUse">
      <stop
         offset="0"
         stop-color="#fff"
         stop-opacity="0"
         id="stop6669" />
      <stop
         offset="0.98"
         stop-color="#0800bf"
         id="stop6671" />
    </linearGradient>
    <linearGradient
       id="linear-gradient-2"
       x1="83.230003"
       y1="179.7"
       x2="129.78999"
       y2="132.33"
       xlink:href="#linear-gradient" />
    <linearGradient
       id="linear-gradient-3"
       x1="175.78"
       y1="221.98"
       x2="199.13"
       y2="151.92"
       xlink:href="#linear-gradient" />
    <linearGradient
       id="linear-gradient-4"
       x1="253.03"
       y1="255.50999"
       x2="276.60001"
       y2="236.50999"
       xlink:href="#linear-gradient" />
    <linearGradient
       id="linear-gradient-36"
       x1="183.83"
       y1="264.73001"
       x2="185.89999"
       y2="304.51999"
       gradientUnits="userSpaceOnUse">
      <stop
         offset="0.01"
         id="stop18633" />
      <stop
         offset="0.08"
         stop-opacity="0.69"
         id="stop18635" />
      <stop
         offset="0.21"
         stop-opacity="0.32"
         id="stop18637" />
      <stop
         offset="1"
         stop-opacity="0"
         id="stop18639" />
    </linearGradient>
    <linearGradient
       id="linear-gradient-2-7"
       x1="198.78999"
       y1="115.83"
       x2="207.47"
       y2="258.13"
       xlink:href="#linear-gradient-36" />
    <linearGradient
       id="linear-gradient-3-5"
       x1="2316.74"
       y1="-609.72998"
       x2="2301.1799"
       y2="-592.25"
       gradientTransform="matrix(-0.82,0.58,0.58,0.82,2373.07,-750.08)"
       xlink:href="#linear-gradient-36" />
    <linearGradient
       id="linear-gradient-4-3"
       x1="4330.77"
       y1="2142.8401"
       x2="4507.3301"
       y2="2228.49"
       gradientTransform="rotate(-142.1,1925.8456,1863.0268)"
       gradientUnits="userSpaceOnUse">
      <stop
         offset="0.01"
         id="stop18644" />
      <stop
         offset="0.08"
         stop-opacity="0.69"
         id="stop18646" />
      <stop
         offset="0.21"
         stop-opacity="0.32"
         id="stop18648" />
      <stop
         offset="1"
         stop-opacity="0"
         id="stop18650" />
    </linearGradient>
    <linearGradient
       id="linear-gradient-5"
       x1="151.05"
       y1="89.309998"
       x2="160.05"
       y2="133.45"
       xlink:href="#linear-gradient-4-3" />
    <linearGradient
       id="linear-gradient-6"
       x1="2290.73"
       y1="-591.78003"
       x2="2325.28"
       y2="-589.91998"
       gradientTransform="matrix(-0.82,0.58,0.58,0.82,2373.07,-750.08)"
       xlink:href="#linear-gradient-36" />
    <linearGradient
       id="linear-gradient-7"
       x1="169.8"
       y1="127.82"
       x2="168.28999"
       y2="306.51999"
       xlink:href="#linear-gradient-4-3" />
    <linearGradient
       id="linear-gradient-8"
       x1="163.48"
       y1="158.08"
       x2="90.669998"
       y2="199.84"
       xlink:href="#linear-gradient-4-3" />
    <linearGradient
       id="linear-gradient-9"
       x1="130.94"
       y1="144.46001"
       x2="3.3"
       y2="217.66"
       xlink:href="#linear-gradient-4-3" />
    <linearGradient
       id="linear-gradient-10"
       x1="287.37"
       y1="96.879997"
       x2="352.62"
       y2="250.07001"
       xlink:href="#linear-gradient-4-3" />
    <linearGradient
       id="linear-gradient-11"
       x1="169.38"
       y1="134.78"
       x2="406.73001"
       y2="301.17999"
       xlink:href="#linear-gradient-4-3" />
    <linearGradient
       id="linear-gradient-12"
       x1="199.17"
       y1="253.11"
       x2="243.94"
       y2="12.38"
       xlink:href="#linear-gradient-4-3" />
    <linearGradient
       id="linear-gradient-13"
       x1="171.77"
       y1="88.489998"
       x2="165.00999"
       y2="385.82001"
       xlink:href="#linear-gradient-4-3" />
    <linearGradient
       id="linear-gradient-14"
       x1="144.75999"
       y1="213.89"
       x2="232.33"
       y2="309.06"
       xlink:href="#linear-gradient-4-3" />
    <linearGradient
       id="linear-gradient-15"
       x1="163.53"
       y1="235.49001"
       x2="213.67"
       y2="305.67999"
       xlink:href="#linear-gradient-36" />
    <linearGradient
       id="linear-gradient-56"
       x1="401.64999"
       y1="531.53998"
       x2="412.84"
       y2="766.45001"
       gradientUnits="userSpaceOnUse">
      <stop
         offset="0"
         stop-opacity="0"
         id="stop25096" />
      <stop
         offset="0.97"
         id="stop25098" />
    </linearGradient>
    <linearGradient
       id="linear-gradient-2-2"
       x1="343.73001"
       y1="-19.889999"
       x2="352.92999"
       y2="557.12"
       gradientUnits="userSpaceOnUse">
      <stop
         offset="0"
         stop-color="#fff"
         id="stop25101" />
      <stop
         offset="1"
         stop-color="#fff"
         stop-opacity="0"
         id="stop25103" />
    </linearGradient>
    <linearGradient
       id="linear-gradient-3-9"
       x1="347.72"
       y1="229.94"
       x2="317.85001"
       y2="238.37"
       gradientUnits="userSpaceOnUse">
      <stop
         offset="0"
         stop-color="#ecc4d7"
         id="stop25106" />
      <stop
         offset="0.42"
         stop-color="#efd4d1"
         id="stop25108" />
      <stop
         offset="1"
         stop-color="#f2eac9"
         id="stop25110" />
    </linearGradient>
    <linearGradient
       id="linear-gradient-4-1"
       x1="187.08"
       y1="72.580002"
       x2="175.47"
       y2="306.81"
       xlink:href="#linear-gradient-2-2" />
    <linearGradient
       id="linear-gradient-5-2"
       x1="254.98"
       y1="145.35001"
       x2="260.59"
       y2="145.35001"
       xlink:href="#linear-gradient-3-9" />
    <linearGradient
       id="linear-gradient-6-7"
       x1="211.53"
       y1="146.59"
       x2="219.07001"
       y2="146.59"
       xlink:href="#linear-gradient-3-9" />
    <linearGradient
       id="linear-gradient-7-0"
       x1="215.55"
       y1="147.28999"
       x2="214.69"
       y2="151.2"
       xlink:href="#linear-gradient-3-9" />
    <linearGradient
       id="linear-gradient-8-9"
       x1="1035.91"
       y1="145.99001"
       x2="1035.0601"
       y2="149.89999"
       gradientTransform="matrix(-1,0,0,1,1292.73,0)"
       xlink:href="#linear-gradient-3-9" />
    <linearGradient
       id="linear-gradient-9-3"
       x1="344.60999"
       y1="225.28999"
       x2="482.94"
       y2="225.28999"
       xlink:href="#linear-gradient-3-9" />
    <linearGradient
       id="linear-gradient-10-6"
       x1="410.39999"
       y1="309.41"
       x2="407.64001"
       y2="637.46997"
       xlink:href="#linear-gradient-56" />
    <linearGradient
       id="linear-gradient-11-0"
       x1="543.37"
       y1="340.22"
       x2="513.15002"
       y2="518.27002"
       xlink:href="#linear-gradient-56" />
    <linearGradient
       id="linear-gradient-12-6"
       x1="532.19"
       y1="250.07001"
       x2="645.19"
       y2="250.07001"
       xlink:href="#linear-gradient-3-9" />
    <linearGradient
       id="linear-gradient-13-2"
       x1="234"
       y1="169.8"
       x2="237.72"
       y2="186.95"
       xlink:href="#linear-gradient-3-9" />
    <linearGradient
       id="linear-gradient-14-6"
       x1="225.86"
       y1="118.14"
       x2="245.00999"
       y2="153.58"
       xlink:href="#linear-gradient-3-9" />
    <linearGradient
       id="linear-gradient-15-1"
       x1="485.39001"
       y1="284.89001"
       x2="396.04999"
       y2="582.01001"
       gradientUnits="userSpaceOnUse">
      <stop
         offset="0"
         stop-color="#fff"
         id="stop25124" />
      <stop
         offset="0.89"
         stop-color="#fff"
         stop-opacity="0"
         id="stop25126" />
    </linearGradient>
    <linearGradient
       id="linear-gradient-16"
       x1="344.73999"
       y1="399.82001"
       x2="343.79999"
       y2="636.59003"
       xlink:href="#linear-gradient-56" />
    <linearGradient
       id="linear-gradient-17"
       x1="349.95001"
       y1="295.39999"
       x2="344.35999"
       y2="551.75"
       gradientUnits="userSpaceOnUse">
      <stop
         offset="0"
         stop-color="#fff"
         id="stop25130" />
      <stop
         offset="0.6"
         stop-color="#fff"
         stop-opacity="0.48"
         id="stop25132" />
      <stop
         offset="0.87"
         stop-color="#fff"
         stop-opacity="0.13"
         id="stop25134" />
      <stop
         offset="1"
         stop-color="#fff"
         stop-opacity="0"
         id="stop25136" />
    </linearGradient>
    <linearGradient
       id="linear-gradient-18"
       x1="348.28"
       y1="399.82999"
       x2="347.35001"
       y2="636.60999"
       xlink:href="#linear-gradient-56" />
    <linearGradient
       id="linear-gradient-19"
       x1="353.64999"
       y1="306.57001"
       x2="348.04999"
       y2="562.92999"
       xlink:href="#linear-gradient-2-2" />
    <linearGradient
       id="linear-gradient-20"
       x1="359.04999"
       y1="455.76001"
       x2="348.79001"
       y2="798.79999"
       xlink:href="#linear-gradient-56" />
    <linearGradient
       id="linear-gradient-21"
       x1="1368"
       y1="235.8"
       x2="1338.13"
       y2="244.23"
       gradientTransform="matrix(-1,0,0,1,1841.96,0)"
       xlink:href="#linear-gradient-3-9" />
    <linearGradient
       id="linear-gradient-22"
       x1="394.51999"
       y1="313.84"
       x2="371.37"
       y2="464.32999"
       xlink:href="#linear-gradient-3-9" />
    <linearGradient
       id="linear-gradient-23"
       x1="593.46002"
       y1="245.74001"
       x2="660.04999"
       y2="341.20999"
       xlink:href="#linear-gradient-3-9" />
    <linearGradient
       inkscape:collect="always"
       xlink:href="#linear-gradient-56"
       id="linearGradient25953"
       gradientUnits="userSpaceOnUse"
       x1="401.64999"
       y1="531.53998"
       x2="412.84"
       y2="766.45001" />
    <linearGradient
       inkscape:collect="always"
       xlink:href="#linear-gradient-2-2"
       id="linearGradient25955"
       gradientUnits="userSpaceOnUse"
       x1="343.73001"
       y1="-19.889999"
       x2="352.92999"
       y2="557.12" />
    <linearGradient
       inkscape:collect="always"
       xlink:href="#linear-gradient-3-9"
       id="linearGradient25957"
       gradientUnits="userSpaceOnUse"
       x1="347.72"
       y1="229.94"
       x2="317.85001"
       y2="238.37" />
  </defs>
  <g
     inkscape:label="Layer 1"
     inkscape:groupmode="layer"
     id="layer1">
    <g
       id="g25740"
       transform="matrix(0.10601223,0,0,0.10623377,0.00194825,4.417323e-4)">
      <path
         d="m 107.31,474.59 c 0,0 -65.91,-32.68 -52.31,-117.04 C 68.6,273.19 202,199.63 254.37,144.46 306.74,89.29 361,-5.55 501.3,0.25 c 140.3,5.8 138.41,99.85 204.22,134.13 65.81,34.28 3.87,153.4 9.68,181.92 5.81,28.52 80.08,114.7 -9.32,174.22 -89.4,59.52 -598.57,-15.93 -598.57,-15.93 z"
         transform="translate(-53.17)"
         fill="#68e1fd"
         opacity="0.18"
         id="path25149" />
      <path
         d="m 55,557.91 v 25 c 0,0 3.18,15.65 32.34,14.79 29.16,-0.86 645.68,0 645.68,0 0,0 15.78,-2.57 18.93,-15.43 v -24.36 z"
         transform="translate(-53.17)"
         fill="#68e1fd"
         id="path25151" />
      <path
         d="m 55,557.91 v 25 c 0,0 3.18,15.65 32.34,14.79 29.16,-0.86 645.68,0 645.68,0 0,0 15.78,-2.57 18.93,-15.43 v -24.36 z"
         transform="translate(-53.17)"
         fill="url(#linear-gradient)"
         style="isolation:isolate;fill:url(#linearGradient25953)"
         id="path25153" />
      <path
         d="M 663.37,433.13 H 134.9 c -12.52,0 -22.67,-10.14 -22.67,-21.68 V 88.15 c 0,-13.5 10.15,-23.65 22.67,-23.65 H 663.37 A 22.67,22.67 0 0 1 686,87.17 v 323.3 a 22.66,22.66 0 0 1 -22.63,22.66 z"
         transform="translate(-53.17)"
         fill="#68e1fd"
         id="path25155" />
      <rect
         x="72.389999"
         y="77.830002"
         width="546.91998"
         height="335.25"
         rx="21.1"
         fill="#68e1fd"
         id="rect25157" />
      <rect
         x="74.5"
         y="77.830002"
         width="546.91998"
         height="335.25"
         rx="21.1"
         fill="url(#linear-gradient-2)"
         id="rect25159"
         style="fill:url(#linearGradient25955)" />
      <path
         d="m 346.14,221.93 c 0,0 -6.67,-8.31 -12.11,-1.45 -5.44,6.86 2.65,23.14 15.48,23.43 12.83,0.29 -3.37,-21.98 -3.37,-21.98 z"
         transform="translate(-53.17)"
         fill="url(#linear-gradient-3)"
         id="path25161"
         style="fill:url(#linearGradient25957)" />
      <rect
         x="107.51"
         y="104.87"
         width="150.06"
         height="118.76"
         fill="url(#linear-gradient-4)"
         id="rect25163"
         style="fill:url(#linear-gradient-4-1)" />
      <path
         d="m 260.5,142.5 a 4.24,4.24 0 0 1 -0.09,2.06 8,8 0 0 1 -1.59,3.34 4.43,4.43 0 0 1 -3.25,1.6 0.56,0.56 0 0 1 -0.47,-0.17 A 0.59,0.59 0 0 1 255,149 c -0.08,-1.86 -0.17,-4.68 1,-6.24 1.08,-1.34 3.86,-2.6 4.5,-0.26 z"
         transform="translate(-53.17)"
         fill="url(#linear-gradient-5)"
         id="path25165"
         style="fill:url(#linear-gradient-5-2)" />
      <path
         d="m 213,142.4 a 3,3 0 0 0 -1.47,2.67 4.74,4.74 0 0 0 1,3.09 8.49,8.49 0 0 0 2.14,1.77 6.44,6.44 0 0 0 3.28,1.29 1.08,1.08 0 0 0 0.9,-0.33 1.14,1.14 0 0 0 0.19,-0.7 c 0.12,-2.88 -1.36,-10.06 -6.04,-7.79 z"
         transform="translate(-53.17)"
         fill="url(#linear-gradient-6)"
         id="path25167"
         style="fill:url(#linear-gradient-6-7)" />
      <path
         d="m 217.26,147.44 a 2.06,2.06 0 0 1 -2,-0.85 c -0.74,-1.06 -1,-2.35 -2,-1.78 -1,0.57 -0.35,2.74 0.5,3.93 0.85,1.19 3.66,2.09 4.14,1.28 0.48,-0.81 -0.64,-2.58 -0.64,-2.58 z"
         transform="translate(-53.17)"
         fill="url(#linear-gradient-7)"
         id="path25169"
         style="fill:url(#linear-gradient-7-0)" />
      <path
         d="m 255.11,146.14 a 2,2 0 0 0 1.95,-0.85 c 0.75,-1.06 1,-2.35 2,-1.77 1,0.58 0.36,2.73 -0.5,3.92 -0.86,1.19 -3.65,2.1 -4.13,1.28 -0.48,-0.82 0.68,-2.58 0.68,-2.58 z"
         transform="translate(-53.17)"
         fill="url(#linear-gradient-8)"
         id="path25171"
         style="fill:url(#linear-gradient-8-9)" />
      <path
         d="m 258.86,413.08 h 1.82 c -1.05,2.04 -1.82,0 -1.82,0 z"
         transform="translate(-53.17)"
         fill="none"
         stroke="#6c62ff"
         stroke-miterlimit="10"
         stroke-width="0.74"
         id="path25173" />
      <path
         d="m 437.65,297 c 0,0 -1.93,10 9.77,18.53 -2.84,4.11 -10.5,12 -23.54,15.63 v 0 a 54.36,54.36 0 0 1 -17.8,1.78 c -10.24,-0.58 -19.26,-4.95 -26.47,-10.1 l -1.13,-0.83 a 84.14,84.14 0 0 1 -15,-14.56 c 8.62,-5.46 15.83,-12.69 8.26,-19.09 a 0.79,0.79 0 0 0 -0.15,-0.12 2.11,2.11 0 0 0 -0.23,-0.19 l -0.14,-0.12 c -28.8,-22.27 -26.53,-99 -26.53,-99 29.2,-111 101.07,-60.92 116.57,-55 15.5,5.92 26.56,42.6 19.57,83.22 C 472.7,264.16 437.65,297 437.65,297 Z"
         transform="translate(-53.17)"
         fill="url(#linear-gradient-9)"
         id="path25175"
         style="fill:url(#linear-gradient-9-3)" />
      <path
         d="m 565.73,413.08 h -305 c 1,-1.9 2.22,-7.36 3.32,-21.39 C 268.94,329.1 346.48,316 346.48,316 a 116.71,116.71 0 0 0 11.29,-5.23 l 11.94,14 c 3.36,3.93 12.2,6.92 12.2,6.92 45.64,22.28 65.57,-4.27 70.65,-13.05 17.19,8.88 60.75,22.54 84.7,40.65 26.3,19.85 28.47,53.79 28.47,53.79 z"
         transform="translate(-53.17)"
         fill="#68e1fd"
         id="path25177" />
      <polygon
         points="561.12,310.88 565.62,413.99 502.59,413.08 513.58,310.88 "
         fill="#68e1fd"
         id="polygon25179" />
      <path
         d="m 558.6,386.71 -2.83,26.37 H 260.68 c 1,-1.9 2.22,-7.36 3.32,-21.39 C 268.94,329.1 346.48,316 346.48,316 a 116.71,116.71 0 0 0 11.29,-5.23 l 11.94,14 c 3.36,3.93 12.2,6.92 12.2,6.92 45.64,22.28 65.57,-4.27 70.65,-13.05 17.19,8.88 60.75,22.54 84.7,40.65 a 69.73,69.73 0 0 1 21.34,27.42 z"
         transform="translate(-53.17)"
         fill="url(#linear-gradient-10)"
         style="isolation:isolate;fill:url(#linear-gradient-10-6)"
         id="path25181" />
      <polygon
         points="565.62,413.99 502.6,413.08 505.43,386.71 513.58,310.88 561.12,310.88 "
         fill="url(#linear-gradient-11)"
         style="isolation:isolate;fill:url(#linear-gradient-11-0)"
         id="polygon25183" />
      <path
         d="m 644.73,232.2 c -0.77,2.15 -5.27,9.45 -9.35,16.61 v 0 c -3.53,6.21 -6.72,12.3 -6.86,14.83 -0.29,5.42 -7.48,29.25 -15.43,36.51 -4.9,4.48 -2.66,10.72 -2.66,10.72 l -10.17,0.33 -31,1 c 0,0 2.52,-4.76 -1.1,-6.69 -3.62,-1.93 -36,-41.38 -36,-41.38 0,0 2.35,-11.57 16.28,-3.85 13.93,7.72 16.24,13.93 19.7,13.28 3.46,-0.65 3.77,-53.83 3.77,-53.83 0,0 0.73,-24.31 7.18,-28.77 6.45,-4.46 5.31,16.12 5.31,16.12 l 4.26,27.9 c 0,0 10.45,-44.31 13.6,-46.31 3.15,-2 9.35,-0.3 7.81,8.23 -0.36,2 -2.45,24.05 -2.45,24.05 l -1.72,14.46 c 0,0 16.38,-35.51 19.37,-36.66 2.99,-1.15 7.71,0.27 6.28,6.28 -1.43,6.01 -8.63,36.89 -8.85,37.86 0.6,-0.71 14.64,-17.6 18,-19.27 3.36,-1.67 5.46,4.58 4.03,8.58 z"
         transform="translate(-53.17)"
         fill="url(#linear-gradient-12)"
         id="path25185"
         style="fill:url(#linear-gradient-12-6)" />
      <path
         d="m 453.93,316 c 0,0 -5.54,25.09 -34.72,26.6 -45.45,2.36 -63.29,-34.05 -63.29,-34.05 l 5.41,-3.89 c 0,0 0.73,1.07 2.12,2.8 5.55,6.91 21.55,24.29 42.63,25.54 24.1,1.38 37.38,-11.7 41.34,-17.42 a 16,16 0 0 0 0.9,-1.44 z"
         transform="translate(-53.17)"
         fill="#ffffff"
         id="path25187" />
      <path
         d="m 178.9,223.63 c 0,0 -1.93,-31.58 24.44,-45 26.37,-13.42 88.69,-1.9 85.5,45 z"
         transform="translate(-53.17)"
         fill="#68e1fd"
         id="path25189" />
      <path
         d="m 224.85,156.46 v 9.31 a 8.93,8.93 0 0 1 -7.45,8.81 l -6.54,1.09 c 0,0 9.42,20.52 29.14,15.09 19.72,-5.43 20.59,-10.9 20.59,-10.9 l -4.69,-1.63 a 10,10 0 0 1 -6.71,-9.4 l -0.05,-12.37 z"
         transform="translate(-53.17)"
         fill="url(#linear-gradient-13)"
         id="path25191"
         style="fill:url(#linear-gradient-13-2)" />
      <path
         d="m 216,136.45 c 0,0 -0.67,13.43 7.32,24.34 8.66,11.83 20.66,14 28.68,0 2.32,-4 6.6,-25.48 4.87,-32.91 -1.73,-7.43 -30.31,-28.59 -40.87,8.57 z"
         transform="translate(-53.17)"
         fill="url(#linear-gradient-14)"
         id="path25193"
         style="fill:url(#linear-gradient-14-6)" />
      <path
         d="m 212.22,125.87 a 6.84,6.84 0 0 0 1.61,-1.36 5.12,5.12 0 0 0 0.55,-2.56 c 0.45,-6 5.75,-10.59 11.33,-12.85 10,-4.07 22.41,-2.34 30.42,5 2.9,2.64 5.42,6 9.18,7.13 a 4.64,4.64 0 0 1 2.12,0.9 c 1.21,1.18 0.31,3.28 -0.95,4.42 a 2.44,2.44 0 0 0 -0.72,0.88 c -0.37,1 0.94,1.84 2,2.18 a 12.28,12.28 0 0 1 -3.54,3.23 c 0.7,0.07 0.93,1.08 0.57,1.68 a 5,5 0 0 1 -1.61,1.33 c -1.75,1.24 -2.63,3.33 -3.75,5.16 -1.12,1.83 -2.88,3.61 -5,3.48 a 20.61,20.61 0 0 0 -1.55,-14.57 c -9.76,2.63 -20,-0.51 -29.77,-3.18 a 3,3 0 0 0 -2.25,0 c -1.25,0.72 -0.85,2.59 -0.28,3.91 -1.23,0 -1.84,1.49 -2.09,2.7 a 32.73,32.73 0 0 0 -0.62,5.49 c 0,1.1 0.8,4.75 0.29,5.53 -1,1.53 -2.46,-0.9 -3.34,-2.07 -2.82,-3.79 -7.45,-12.52 -2.6,-16.43 z"
         transform="translate(-53.17)"
         fill="#3f3d56"
         id="path25195" />
      <path
         d="M 134.9,433.13 57.34,549.67 a 13.67,13.67 0 0 0 11.38,21.24 h 669.57 a 13.67,13.67 0 0 0 11,-21.8 l -85.9,-116 z"
         transform="translate(-53.17)"
         fill="#68e1fd"
         id="path25197" />
      <path
         d="M 134.9,433.13 57.34,549.67 a 13.67,13.67 0 0 0 11.38,21.24 h 669.57 a 13.67,13.67 0 0 0 11,-21.8 l -85.9,-116 z"
         transform="translate(-53.17)"
         fill="url(#linear-gradient-15)"
         id="path25199"
         style="fill:url(#linear-gradient-15-1)" />
      <polygon
         points="97.19,444.86 589.57,444.86 596.45,454.04 92.6,454.04 "
         fill="url(#linear-gradient-16)"
         style="isolation:isolate;fill:url(#linear-gradient-16)"
         id="polygon25201" />
      <polygon
         points="92.6,454.04 596.45,454.04 606.51,467.48 85.88,467.48 "
         fill="url(#linear-gradient-17)"
         id="polygon25203"
         style="fill:url(#linear-gradient-17)" />
      <polygon
         points="85.88,467.48 606.51,467.48 617.14,481.69 78.78,481.69 "
         fill="url(#linear-gradient-18)"
         style="isolation:isolate;fill:url(#linear-gradient-18)"
         id="polygon25205" />
      <polygon
         points="78.78,481.69 617.14,481.69 626.71,494.47 72.39,494.47 "
         fill="url(#linear-gradient-19)"
         id="polygon25207"
         style="fill:url(#linear-gradient-19)" />
      <polygon
         points="466.95,545.55 245.78,545.55 258.64,503.34 441.22,503.34 "
         fill="url(#linear-gradient-20)"
         style="isolation:isolate;fill:url(#linear-gradient-20)"
         id="polygon25209" />
      <path
         d="m 339.41,121.42 c 0.09,1.78 0.52,3.59 0.1,5.33 A 12.87,12.87 0 0 1 337,131.1 c -10.86,14.65 -11.38,34.27 -11.46,52.5 0,4.6 0,9.29 1.32,13.69 1.31,4.25 3.82,8 6.3,11.7 1.19,1.78 10.85,12.71 13,12.94 2.88,0.31 -5.6,-47.86 51.92,-52.51 5.75,-0.47 11.45,0.25 17.22,0.44 3.41,0.11 6.82,-0.32 10.23,-0.19 5.75,0.23 11.29,2.08 16.73,3.91 9.85,3.31 20.33,7.08 26.42,15.49 l 5.5,-3 0.82,19.93 0.21,4.78 1.23,29 12.64,-19.07 c 7.88,-11.89 16.06,-26.57 10.26,-39.6 -2.74,-6.14 -8.27,-10.78 -10.62,-17.09 -3.27,-8.79 0.34,-18.63 -0.7,-27.95 -2,-18.16 -21.25,-29.89 -39.42,-31.83 -4.05,-0.43 -8.15,-0.52 -12.15,-1.27 a 84.8,84.8 0 0 1 -11.64,-3.43 c -7.83,-2.68 -16.86,-5 -24,-0.82 -2.79,1.63 -5,4.16 -8,5.49 -5.18,2.33 -11.15,0.53 -16.8,-0.07 -11.13,-1.14 -37.39,1.28 -36.6,17.28 z"
         transform="translate(-53.17)"
         fill="#3f3d56"
         id="path25211" />
      <path
         d="m 475.54,227.79 c 0,0 6.67,-8.31 12.1,-1.45 5.43,6.86 -2.65,23.14 -15.47,23.43 -12.82,0.29 3.37,-21.98 3.37,-21.98 z"
         transform="translate(-53.17)"
         fill="url(#linear-gradient-21)"
         id="path25213"
         style="fill:url(#linear-gradient-21)" />
      <path
         d="m 423.88,331.16 v 0 c 0,0 -19.37,9.91 -44.27,-8.32 l -1.13,-0.83 a 95.29,95.29 0 0 1 -15,-14.56 c 8.62,-5.46 15.83,-12.69 8.26,-19.09 3.74,3 26.39,20.41 41.5,16.29 16.31,-4.44 10.76,25.9 10.64,26.51 z"
         transform="translate(-53.17)"
         fill="url(#linear-gradient-22)"
         id="path25215"
         style="fill:url(#linear-gradient-22)" />
      <path
         d="m 635.38,248.82 c -3.53,6.21 -6.72,12.3 -6.86,14.83 -0.29,5.42 -7.48,29.25 -15.43,36.51 -4.9,4.48 -2.66,10.72 -2.66,10.72 l -10.17,0.33 -1,-0.1 c 0,0 3.72,-14.89 -5.71,-21.46 -9.43,-6.57 -20.55,-13.72 -19.14,-21.72 1.41,-8 8.87,-25.72 28,-16 19.13,9.72 32.97,-3.11 32.97,-3.11 z"
         transform="translate(-53.17)"
         fill="url(#linear-gradient-23)"
         id="path25217"
         style="fill:url(#linear-gradient-23)" />
      <circle
         cx="551.65997"
         cy="117.52"
         r="9.6800003"
         fill="#ffffff"
         id="circle25219" />
    </g>
  </g>
</svg>
