<?xml version="1.0" encoding="UTF-8" standalone="no"?>
<!-- Created with Inkscape (http://www.inkscape.org/) -->

<svg
   width="186"
   height="160"
   viewBox="0 0 49.212499 42.333333"
   version="1.1"
   id="svg5"
   inkscape:version="1.2 (dc2aedaf03, 2022-05-15)"
   sodipodi:docname="bgnd-code.svg"
   xmlns:inkscape="http://www.inkscape.org/namespaces/inkscape"
   xmlns:sodipodi="http://sodipodi.sourceforge.net/DTD/sodipodi-0.dtd"
   xmlns:xlink="http://www.w3.org/1999/xlink"
   xmlns="http://www.w3.org/2000/svg"
   xmlns:svg="http://www.w3.org/2000/svg">
  <sodipodi:namedview
     id="namedview7"
     pagecolor="#505050"
     bordercolor="#eeeeee"
     borderopacity="1"
     inkscape:showpageshadow="0"
     inkscape:pageopacity="0"
     inkscape:pagecheckerboard="0"
     inkscape:deskcolor="#505050"
     inkscape:document-units="px"
     showgrid="false"
     inkscape:zoom="4"
     inkscape:cx="92.25"
     inkscape:cy="89.375"
     inkscape:window-width="1366"
     inkscape:window-height="699"
     inkscape:window-x="0"
     inkscape:window-y="0"
     inkscape:window-maximized="1"
     inkscape:current-layer="layer1" />
  <defs
     id="defs2">
    <linearGradient
       id="linear-gradient"
       x1="104.12"
       y1="230.53999"
       x2="151.94"
       y2="193.21001"
       gradientUnits="userSpaceOnUse">
      <stop
         offset="0"
         stop-color="#fff"
         stop-opacity="0"
         id="stop6669" />
      <stop
         offset="0.98"
         stop-color="#0800bf"
         id="stop6671" />
    </linearGradient>
    <linearGradient
       id="linear-gradient-2"
       x1="83.230003"
       y1="179.7"
       x2="129.78999"
       y2="132.33"
       xlink:href="#linear-gradient"
       gradientTransform="matrix(0.14255432,0,0,0.15160783,-3.6425699,-1.8221068)" />
    <linearGradient
       id="linear-gradient-3"
       x1="175.78"
       y1="221.98"
       x2="199.13"
       y2="151.92"
       xlink:href="#linear-gradient"
       gradientTransform="matrix(0.14255432,0,0,0.15160783,-3.6425699,-1.8221068)" />
    <linearGradient
       id="linear-gradient-4"
       x1="253.03"
       y1="255.50999"
       x2="276.60001"
       y2="236.50999"
       xlink:href="#linear-gradient"
       gradientTransform="matrix(0.14255432,0,0,0.15160783,-3.6425699,-1.8221068)" />
    <linearGradient
       inkscape:collect="always"
       xlink:href="#linear-gradient"
       id="linearGradient7431"
       gradientUnits="userSpaceOnUse"
       x1="104.12"
       y1="230.53999"
       x2="151.94"
       y2="193.21001"
       gradientTransform="matrix(0.14255432,0,0,0.15160783,-3.6425699,-1.8221068)" />
  </defs>
  <g
     inkscape:label="Layer 1"
     inkscape:groupmode="layer"
     id="layer1">
    <path
       d="M 21.750631,11.166136 0.66827274,24.204409 a 1.3428617,1.4281458 0 0 0 0.0199576,2.481821 L 26.490562,42.045619 a 2.1254849,2.2604727 0 0 0 2.044229,0.01819 L 48.362672,30.72203 a 1.616566,1.7192328 0 0 0 0.04989,-2.997287 z"
       fill="#aaacf9"
       id="path6681"
       style="stroke-width:0.147011;fill:#97aaf2;fill-opacity:1" />
    <path
       d="m 18.708522,31.181402 c 1.18035,-1.288667 2.449083,-2.48182 3.572411,-3.820518 l -4.540355,-2.556108 -9.6323953,5.476075 c 1.8004611,1.003644 4.4362903,3.150411 7.0093963,5.010639 1.197456,-1.370535 2.36355,-2.769875 3.590943,-4.110088 z"
       opacity="0.32"
       fill="url(#linear-gradient)"
       id="path6683"
       style="fill:url(#linearGradient7431);stroke-width:0.147011" />
    <path
       d="m 11.385507,25.435465 c 1.98293,-1.560045 3.958733,-3.132218 6.027196,-4.557331 l -4.25097,-2.392372 -8.955262,5.879352 c 1.3585426,0.758039 2.5189348,1.763199 4.4434181,3.209537 0.9094966,-0.718621 1.8204189,-1.425113 2.7356179,-2.139186 z"
       opacity="0.32"
       fill="url(#linear-gradient-2)"
       id="path6685"
       style="fill:url(#linear-gradient-2);stroke-width:0.147011" />
    <path
       d="m 22.661553,34.60319 c 2.138315,-1.223475 6.725713,-5.974864 8.838368,-7.225629 l -8.05717,-4.53459 -9.622417,5.477591 c 2.233826,1.240152 5.752067,4.249567 8.841219,6.282628 z"
       opacity="0.32"
       fill="url(#linear-gradient-3)"
       id="path6687"
       style="fill:url(#linear-gradient-3);stroke-width:0.147011" />
    <path
       d="m 26.998056,21.04945 -2.708532,1.387212 a 0.62438792,0.6640423 0 0 0 -0.04419,1.170413 l 6.422072,3.982737 a 0.62438792,0.6640423 0 0 0 0.839645,-0.213767 l 1.56097,-2.577333"
       fill="#56403d"
       id="path6689"
       style="stroke-width:0.147011" />
    <path
       d="M 40.609142,13.661601 18.486137,0.10786088 A 0.7127716,0.75803915 0 0 0 17.407001,0.77038709 V 15.173131 a 0.5545363,0.58975446 0 0 0 0.277981,0.510918 l 23.547122,14.455807 a 0.26800212,0.28502272 0 0 0 0.402004,-0.247121 V 15.547602 a 2.0456545,2.1755724 0 0 0 -1.024966,-1.886001 z"
       fill="#68e1fd"
       id="path6691"
       style="stroke-width:0.147011;fill:#97e1fd;fill-opacity:1" />
    <path
       d="M 18.871034,1.3828827 39.826519,14.205873 a 1.469735,1.5630767 0 0 1 0.737006,1.353858 V 25.88574 a 0.53030207,0.56398113 0 0 1 -0.794028,0.489694 L 18.396328,13.338676 a 0.52317435,0.55640074 0 0 1 -0.2623,-0.482113 V 1.8361901 a 0.4918124,0.52304701 0 0 1 0.737006,-0.4533074 z"
       fill="#ffffff"
       id="path6693"
       style="stroke-width:0.147011" />
    <ellipse
       cx="23.762384"
       cy="25.998068"
       rx="0.22862071"
       ry="0.0015129343"
       transform="matrix(0.97966602,-0.2006352,0.17817276,0.98399922,0,0)"
       fill="#ab643c"
       id="ellipse6695"
       style="stroke-width:0.147031" />
    <ellipse
       cx="38.972618"
       cy="14.521217"
       rx="0.22808692"
       ry="0.26379761"
       fill="#659fe4"
       id="ellipse6697"
       style="stroke-width:0.147011" />
    <ellipse
       cx="38.24559"
       cy="14.137649"
       rx="0.22808692"
       ry="0.26379761"
       fill="#c5e9ff"
       id="ellipse6699"
       style="stroke-width:0.147011" />
    <polyline
       points="133.75 185.84 133.74 186.79 134.22 187.39"
       fill="#adcee1"
       id="polyline6701"
       transform="matrix(0.14255432,0,0,0.15160783,-3.6425699,-1.8221068)" />
    <path
       d="M 18.155411,24.609202 15.50105,26.34208 a 0.16393747,0.174349 0 0 0 0,0.303215 l 4.008627,2.434822 a 0.36779015,0.3911482 0 0 0 0.36779,0 l 2.645809,-1.641913 c 0.192448,-0.166768 0.179618,-0.482113 0,-0.495757 l -3.991521,-2.339309 a 0.37349232,0.39721251 0 0 0 -0.376344,0.0061 z"
       fill="#88d3d8"
       id="path6703"
       style="stroke-width:0.147011" />
    <path
       d="m 18.155411,24.489432 -2.654361,1.73591 a 0.16393747,0.174349 0 0 0 0,0.303215 l 4.012904,2.425726 a 0.36779015,0.3911482 0 0 0 0.36779,0 l 2.641532,-1.635849 a 0.20385268,0.2167992 0 0 0 0,-0.375987 l -3.991521,-2.459079 a 0.37349232,0.39721251 0 0 0 -0.376344,0.0061 z"
       fill="#ffffff"
       id="path6705"
       style="stroke-width:0.147011" />
    <path
       d="m 18.263752,24.25444 c 0,0 1.11335,-3.768971 1.107648,-3.768971 -0.0057,0 0.03421,-0.168284 0.230938,-0.07125 l 4.208203,2.659201 c 0,0 0.203853,0.08945 0.163938,0.291087 -0.03992,0.201638 -1.089115,3.688619 -1.089115,3.688619 a 0.1781929,0.18950979 0 0 1 -0.199577,0.07277 c -0.128298,-0.04245 -4.323672,-2.659201 -4.323672,-2.659201 a 0.16108638,0.17131685 0 0 1 -0.09836,-0.212251 z"
       fill="#053855"
       id="path6707"
       style="stroke-width:0.147011" />
    <polygon
       points="192.16,166.72 185.79,187.8 155.16,170.53 161.92,148.93 "
       fill="#68e1fd"
       id="polygon6709"
       transform="matrix(0.14255432,0,0,0.15160783,-3.6425699,-1.8221068)"
       style="fill:#97e1fd;fill-opacity:1" />
    <path
       d="m 17.991474,24.888161 -0.970795,0.636753 a 0.11689454,0.12431842 0 0 0 0,0.213767 L 20.4876,27.86119 a 0.34213037,0.36385879 0 0 0 0.34213,0 c 0.22381,-0.137963 0.608707,-0.385084 0.845347,-0.538208 a 0.14255432,0.15160783 0 0 0 0,-0.259249 l -3.488304,-2.177088 a 0.18959725,0.20163841 0 0 0 -0.195299,0.0015 z"
       fill="#68e1fd"
       id="path6711"
       style="stroke-width:0.147011;fill:#97e1fd;fill-opacity:1" />
    <path
       d="m 18.037091,26.628619 1.210286,0.730749 a 0.12117117,0.12886666 0 0 1 0,0.22438 l -0.712771,0.441179 a 0.16108638,0.17131685 0 0 1 -0.161087,0 l -1.238797,-0.758039 a 0.10121357,0.10764156 0 0 1 0,-0.187994 l 0.744134,-0.454824 a 0.16108638,0.17131685 0 0 1 0.158235,0.0045 z"
       fill="#68e1fd"
       id="path6713"
       style="stroke-width:0.147011;fill:#97e1fd;fill-opacity:1" />
    <path
       d="m 17.991474,24.888161 -0.970795,0.636753 a 0.11689454,0.12431842 0 0 0 0,0.213767 L 20.4876,27.86119 a 0.34213037,0.36385879 0 0 0 0.34213,0 c 0.22381,-0.137963 0.608707,-0.385084 0.845347,-0.538208 a 0.14255432,0.15160783 0 0 0 0,-0.259249 l -3.488304,-2.177088 a 0.18959725,0.20163841 0 0 0 -0.195299,0.0015 z"
       fill="#053855"
       opacity="0.1"
       id="path6715"
       style="stroke-width:0.147011" />
    <path
       d="m 18.037091,26.628619 1.210286,0.730749 a 0.12117117,0.12886666 0 0 1 0,0.22438 l -0.712771,0.441179 a 0.16108638,0.17131685 0 0 1 -0.161087,0 l -1.238797,-0.758039 a 0.10121357,0.10764156 0 0 1 0,-0.187994 l 0.744134,-0.454824 a 0.16108638,0.17131685 0 0 1 0.158235,0.0045 z"
       fill="#053855"
       opacity="0.1"
       id="path6717"
       style="stroke-width:0.147011" />
    <path
       d="m 13.357033,24.21199 a 4.2880339,4.5603635 0 0 0 -1.248776,1.946644 c -0.439067,1.287151 0.657175,3.392984 0.657175,3.392984 l 1.710652,-1.434211"
       fill="#ff8f6f"
       id="path6719"
       style="stroke-width:0.147011" />
    <path
       d="m 11.98566,31.2284 a 1.2915421,1.3735669 0 0 0 0.87956,1.297763 2.8510864,3.0321566 0 0 0 1.08769,0.151608 c 0.755538,-0.05155 1.41699,-0.427534 1.972952,-0.946033 -0.105491,-1.425113 -0.48326,-2.425725 -0.806858,-2.90329 l -2.064186,-1.061255 c -0.01,0.198607 -1.097669,1.53882 -1.072009,3.171636 q 0.0014,0.153124 0.0029,0.289571 z"
       fill="#3e2928"
       id="path6721"
       style="stroke-width:0.147011" />
    <path
       d="m 15.08194,26.37695 -2.188209,-0.113706 -0.377769,2.797164 c 0.651474,0.477565 2.372104,0.18951 2.762703,0.118254 C 15.163196,28.252338 15.1746,27.301757 15.08194,26.37695 Z"
       fill="#ff8f6f"
       id="path6723"
       style="stroke-width:0.147011" />
    <path
       d="m 18.310795,25.991866 -0.219533,0.20467 a 5.6522788,6.0112505 0 0 1 0.570217,-0.303215 c 0.132576,-0.06368 0.205278,0.163736 0.07413,0.227411 l -0.067,0.03335 q 0.10549,-0.04245 0.212406,-0.08187 a 0.11315836,0.12034496 0 0 1 0.07413,0.227412 5.8718124,6.2447265 0 0 0 -0.545983,0.23196 4.0129041,4.2677604 0 0 1 0.488961,-0.130383 c 0.142554,-0.02881 0.155384,0.212251 0.01426,0.23954 a 3.5724113,3.7992922 0 0 0 -0.553111,0.159188 0.54028087,0.57459368 0 0 1 0.169639,0.03032 c 0.06557,0.01819 0.23379,0.02881 0.263726,0.09855 a 0.11404346,0.12128626 0 0 1 -0.09266,0.169801 l -0.848199,0.09248 a 1.0135612,1.0779317 0 0 0 -0.228086,0.189509 3.9359248,4.1858922 0 0 0 -0.272279,-0.310796 3.2445363,3.4505942 0 0 0 -0.266577,-0.248636 q 0.125448,-0.127351 0.256598,-0.247121 c 0.01853,-0.02729 0.06415,-0.01365 0.115469,-0.05913 0.285109,-0.260766 0.352109,-0.278959 0.662878,-0.589755 0.229512,-0.242572 0.325023,-0.05761 0.191022,0.06671 z"
       fill="#ffb5a9"
       id="path6725"
       style="stroke-width:0.147011" />
    <path
       d="m 14.374871,24.71836 c 0,0 0.796878,0.228928 1.120477,0.777748 a 9.1134977,9.6922886 0 0 1 0.533153,1.171929 l 1.448352,-0.359311 c 0,0 0.420535,0.523047 0.704218,0.897518 0,0 -1.414139,1.061255 -2.15257,1.235604 -0.738432,0.174349 -1.52248,-1.16738 -1.52248,-1.16738 0,0 -0.162512,0.554885 -0.13115,-0.0379"
       fill="#ff8f6f"
       id="path6727"
       style="stroke-width:0.147011" />
    <path
       d="m 14.957918,26.501268 a 1.6151404,1.7177167 0 0 1 -0.504643,-0.758039 c -0.09551,-0.345666 0.02424,-0.650398 0.142555,-0.973322 a 2.9480233,3.1352499 0 0 0 0.208129,-1.000612 c 0.01,-0.338086 -0.02709,-0.674655 -0.04847,-1.011224 a 0.09123476,0.09702901 0 0 1 0,-0.04397 C 14.65,22.333569 14.430467,22.01216 13.999953,21.974258 c -1.113349,-0.100061 -1.176073,1.212863 -1.16752,1.74349 0.0086,0.530628 0.0613,0.89297 -0.307917,1.11735 -0.369216,0.22438 -0.635793,0.806554 -0.285109,1.27957 0.350684,0.473016 0.03564,0.303216 -0.198151,0.720137 -0.233789,0.416922 -0.173916,0.944517 0.307918,1.134027 0.481833,0.18951 2.722787,-0.166769 2.929491,-0.388116 a 0.42766296,0.45482349 0 0 0 0.10549,-0.321409 1.1746476,1.2492485 0 0 0 -0.426237,-0.758039 z"
       fill="#007f68"
       id="path6729"
       style="stroke-width:0.147011" />
    <path
       d="m 15.372751,29.553134 c 0.269428,-0.06216 2.881023,-0.283507 3.48973,0.682235 0.608707,0.965742 -2.708532,2.340825 -4.909571,2.451498 -2.201039,0.110674 0.238066,-2.863871 1.419841,-3.133733 z"
       fill="#3e2928"
       id="path6731"
       style="stroke-width:0.147011" />
    <polyline
       points="110.18 112.59 110.18 144.04 134.54 158.11 154.38 146.31 154.38 117.09"
       fill="#3aceb2"
       id="polyline6733"
       transform="matrix(0.14255432,0,0,0.15160783,-3.6425699,-1.8221068)" />
    <polygon
       points="134.54,127.07 154.38,115.45 154.38,146.31 134.54,158.11 "
       fill="#4be2c5"
       id="polygon6735"
       transform="matrix(0.14255432,0,0,0.15160783,-3.6425699,-1.8221068)" />
    <polygon
       points="110.18,112.59 134.54,127.07 154.38,115.45 130.24,100.71 "
       fill="#52efd1"
       id="polygon6737"
       transform="matrix(0.14255432,0,0,0.15160783,-3.6425699,-1.8221068)" />
    <polygon
       points="113.36,124.27 131.61,134.69 131.61,128.3 113.36,117.76 "
       fill="#7374b7"
       id="polygon6739"
       transform="matrix(0.14255432,0,0,0.15160783,-3.6425699,-1.8221068)" />
    <ellipse
       cx="9.271656"
       cy="21.676641"
       rx="0.070244454"
       ry="0.11766299"
       transform="matrix(0.95065174,-0.31026001,0.2772396,0.96080081,0,0)"
       fill="#f7931e"
       id="ellipse6741"
       style="stroke-width:0.147055" />
    <ellipse
       cx="9.0950899"
       cy="21.47567"
       rx="0.070244454"
       ry="0.11766299"
       transform="matrix(0.95065174,-0.31026001,0.2772396,0.96080081,0,0)"
       fill="#d9e021"
       id="ellipse6743"
       style="stroke-width:0.147055" />
    <line
       x1="14.356339"
       y1="17.70195"
       x2="12.748326"
       y2="16.719532"
       fill="none"
       stroke="#f2f2f2"
       stroke-miterlimit="10"
       stroke-width="0.0367528"
       id="line6745" />
    <polygon
       points="112.93,133.4 131.18,143.81 131.18,137.43 112.93,126.89 "
       fill="#7374b7"
       id="polygon6747"
       transform="matrix(0.14255432,0,0,0.15160783,-3.6425699,-1.8221068)" />
    <ellipse
       cx="8.8286285"
       cy="22.973347"
       rx="0.070244454"
       ry="0.11766299"
       transform="matrix(0.95065174,-0.31026001,0.2772396,0.96080081,0,0)"
       fill="#f7931e"
       id="ellipse6749"
       style="stroke-width:0.147055" />
    <ellipse
       cx="8.6530113"
       cy="22.774263"
       rx="0.070244454"
       ry="0.11766299"
       transform="matrix(0.95065174,-0.31026001,0.2772396,0.96080081,0,0)"
       fill="#d9e021"
       id="ellipse6751"
       style="stroke-width:0.147055" />
    <line
       x1="14.29504"
       y1="19.08613"
       x2="12.687028"
       y2="18.103708"
       fill="none"
       stroke="#f2f2f2"
       stroke-miterlimit="10"
       stroke-width="0.0367528"
       id="line6753" />
    <polygon
       points="112.93,142.51 131.18,152.92 131.18,146.54 112.93,136 "
       fill="#7374b7"
       id="polygon6755"
       transform="matrix(0.14255432,0,0,0.15160783,-3.6425699,-1.8221068)" />
    <ellipse
       cx="8.4440966"
       cy="24.288115"
       rx="0.070244454"
       ry="0.11766299"
       transform="matrix(0.95065174,-0.31026001,0.2772396,0.96080081,0,0)"
       fill="#f7931e"
       id="ellipse6757"
       style="stroke-width:0.147055" />
    <ellipse
       cx="8.2688999"
       cy="24.087587"
       rx="0.070244454"
       ry="0.11766299"
       transform="matrix(0.95065174,-0.31026001,0.2772396,0.96080081,0,0)"
       fill="#d9e021"
       id="ellipse6759"
       style="stroke-width:0.147055" />
    <line
       x1="14.29504"
       y1="20.467278"
       x2="12.687028"
       y2="19.484858"
       fill="none"
       stroke="#f2f2f2"
       stroke-miterlimit="10"
       stroke-width="0.0367528"
       id="line6761" />
    <polyline
       points="154.38 126.26 134.63 137.91 110.18 123.7"
       fill="none"
       stroke="#1b1464"
       stroke-miterlimit="10"
       stroke-width="0.25"
       id="polyline6763"
       transform="matrix(0.14255432,0,0,0.15160783,-3.6425699,-1.8221068)" />
    <polyline
       points="154.38 135.37 134.63 147.02 110.18 132.82"
       fill="none"
       stroke="#1b1464"
       stroke-miterlimit="10"
       stroke-width="0.25"
       id="polyline6765"
       transform="matrix(0.14255432,0,0,0.15160783,-3.6425699,-1.8221068)" />
    <path
       d="M 44.057531,13.393255 V 21.007 a 0.79687865,0.84748777 0 0 1 -1.206009,0.727718 L 36.047404,17.418443 A 0.79687865,0.84748777 0 0 1 35.658231,16.690725 V 9.2164593 a 0.79687865,0.84748777 0 0 1 1.197456,-0.7292337 l 6.804118,4.1783114 a 0.79687865,0.84748777 0 0 1 0.397726,0.727718 z"
       fill="#a5dd73"
       id="path6767"
       style="stroke-width:0.147011" />
    <path
       d="m 33.777939,37.87792 c 1.173222,-0.830811 2.366402,-1.631301 3.552454,-2.43937 L 35.645401,34.130174 29.120689,37.0274 c 0.788326,0.439662 1.853207,1.262893 2.973684,2.101284 0.555961,-0.424502 1.113349,-0.847488 1.683566,-1.250764 z"
       opacity="0.32"
       fill="url(#linear-gradient-4)"
       id="path6769"
       style="fill:url(#linear-gradient-4);stroke-width:0.147011" />
    <path
       d="M 37.970462,30.535552 A 0.29936407,0.31837644 0 0 0 37.917722,30.417298 0.66572867,0.70800857 0 0 0 37.75521,30.26569 c -0.828241,-0.595818 -1.975803,-0.758039 -2.851087,-0.177381 -0.199576,0.133415 -0.497514,0.435115 -0.379194,0.720137 0.06843,0.165253 0.276555,0.262282 0.427663,0.328989 a 6.353646,6.757161 0 0 0 1.498246,0.415406 c 0.18532,0.03335 0.373492,0.06671 0.560238,0.0849 a 0.77406996,0.82323052 0 0 0 0.682835,-0.310796 c 0.125448,-0.175865 0.335003,-0.532143 0.276556,-0.791393 z"
       fill="#754c24"
       id="path6771"
       style="stroke-width:0.147011" />
    <path
       d="m 34.50069,30.678064 c 0,0 0.755537,0.727717 2.061335,0.621592 1.305798,-0.106126 1.407011,-0.758039 1.407011,-0.758039 0,0 -0.337854,4.602813 -0.516047,4.681649 -0.178192,0.07884 -0.845347,0.42147 -1.167519,0.447244 -0.322173,0.02577 -1.340011,-0.407826 -1.365671,-0.527596 -0.02566,-0.11977 -0.419109,-4.46485 -0.419109,-4.46485 z"
       fill="#ff8f6f"
       id="path6773"
       style="stroke-width:0.147011" />
    <path
       d="m 34.738755,23.970933 c -0.03992,-0.08642 -0.163937,-0.01061 -0.122596,0.0758 0.893815,1.916323 1.067731,4.073703 1.228818,6.168923 0.0071,0.09551 0.149682,0.09703 0.142554,0 -0.162512,-2.124026 -0.34213,-4.304146 -1.248776,-6.244727 z"
       fill="#007f68"
       id="path6775"
       style="stroke-width:0.147011" />
    <path
       d="m 34.624712,23.989126 c 0,0 0.24947,0.994548 -0.0086,1.491821 -0.258024,0.497274 -0.47043,0.595819 -0.162512,1.212863 0.307917,0.617044 1.131881,0.700428 1.186052,1.173445 0.05417,0.473016 -0.39345,-3.033673 -1.014987,-3.878129 z"
       fill="#007f68"
       id="path6777"
       style="stroke-width:0.147011" />
    <path
       d="m 37.482926,25.784163 a 11.753604,12.500066 0 0 0 -1.140435,4.890869 c 0,0.118254 0.16964,0.116738 0.173917,0 a 11.5469,12.280234 0 0 1 1.110498,-4.799904 c 0.05417,-0.10461 -0.09551,-0.198607 -0.14398,-0.09097 z"
       fill="#007f68"
       id="path6779"
       style="stroke-width:0.147011" />
    <path
       d="m 37.605523,26.269308 c 0,-0.100061 -0.02138,-0.303216 -0.0114,-0.4715 l -0.09979,0.06671 c -0.339279,0.877809 -0.846772,2.939676 -0.99788,3.570365 0.206704,-0.473017 1.052051,-0.538208 1.300095,-1.212863 a 1.1675199,1.2416681 0 0 0 0.01426,-0.896002 3.1105353,3.3080829 0 0 1 -0.205278,-1.056707 z"
       fill="#007f68"
       id="path6781"
       style="stroke-width:0.147011" />
    <polyline
       points="300.54 94.7 285.07 106.07 298.94 125.54"
       fill="none"
       stroke="#006837"
       stroke-miterlimit="10"
       stroke-width="4"
       id="polyline6783"
       transform="matrix(0.14255432,0,0,0.15160783,-3.6425699,-1.8221068)" />
    <polyline
       points="314.23 102.91 325.61 125.15 309.6 132.62"
       fill="none"
       stroke="#006837"
       stroke-miterlimit="10"
       stroke-width="4"
       id="polyline6785"
       transform="matrix(0.14255432,0,0,0.15160783,-3.6425699,-1.8221068)" />
    <line
       x1="19.308676"
       y1="3.3992667"
       x2="32.161373"
       y2="11.166136"
       fill="none"
       stroke="#00a99d"
       stroke-miterlimit="10"
       stroke-width="0.588046"
       id="line6787" />
    <line
       x1="19.355719"
       y1="5.4308119"
       x2="21.435585"
       y2="6.6876407"
       fill="none"
       stroke="#d4145a"
       stroke-miterlimit="10"
       stroke-width="0.588046"
       id="line6789" />
    <line
       x1="22.052847"
       y1="7.1121426"
       x2="33.618279"
       y2="13.873852"
       fill="none"
       stroke="#29abe2"
       stroke-miterlimit="10"
       stroke-width="0.588046"
       id="line6791" />
    <line
       x1="19.308676"
       y1="7.2819433"
       x2="23.750669"
       y2="9.8880816"
       fill="none"
       stroke="#f7931e"
       stroke-miterlimit="10"
       stroke-width="0.588046"
       id="line6793" />
    <line
       x1="24.487675"
       y1="10.382323"
       x2="34.226986"
       y2="15.922073"
       fill="none"
       stroke="#00a99d"
       stroke-miterlimit="10"
       stroke-width="0.588046"
       id="line6795" />
  </g>
</svg>
