<?xml version="1.0" encoding="UTF-8" standalone="no"?>
<!-- Created with Inkscape (http://www.inkscape.org/) -->

<svg
   width="280"
   height="240"
   viewBox="0 0 74.083331 63.5"
   version="1.1"
   id="svg5"
   inkscape:version="1.2 (dc2aedaf03, 2022-05-15)"
   sodipodi:docname="robot.svg"
   xmlns:inkscape="http://www.inkscape.org/namespaces/inkscape"
   xmlns:sodipodi="http://sodipodi.sourceforge.net/DTD/sodipodi-0.dtd"
   xmlns="http://www.w3.org/2000/svg"
   xmlns:svg="http://www.w3.org/2000/svg">
  <sodipodi:namedview
     id="namedview7"
     pagecolor="#505050"
     bordercolor="#eeeeee"
     borderopacity="1"
     inkscape:showpageshadow="0"
     inkscape:pageopacity="0"
     inkscape:pagecheckerboard="0"
     inkscape:deskcolor="#505050"
     inkscape:document-units="px"
     showgrid="false"
     inkscape:zoom="0.47482464"
     inkscape:cx="399.09471"
     inkscape:cy="399.09471"
     inkscape:window-width="1366"
     inkscape:window-height="699"
     inkscape:window-x="0"
     inkscape:window-y="0"
     inkscape:window-maximized="1"
     inkscape:current-layer="layer1" />
  <defs
     id="defs2" />
  <g
     inkscape:label="Layer 1"
     inkscape:groupmode="layer"
     id="layer1">
    <g
       id="_464_artifical_inteligence_flatline"
       data-name="#464_artifical_inteligence_flatline"
       transform="matrix(0.2685404,0,0,0.26987318,-16.666414,-8.7316356)">
      <path
         d="m 208.29,267.15 h -64.94 c 0,0 -5.91,-46.31 10.51,-54.19 16.42,-7.88 48.14,-3.96 54.43,9.52 6.29,13.48 0,44.67 0,44.67 z"
         fill="#231f20"
         id="path2772" />
      <path
         d="M 208.29,267.65 H 143.35 A 0.5,0.5 0 0 1 142.86,267.21 159.26,159.26 0 0 1 142,243 c 0.77,-16.87 4.71,-27.13 11.69,-30.48 10.57,-5.07 28.26,-5.43 41.16,-0.84 7,2.51 11.86,6.17 13.94,10.6 6.32,13.46 0.3,43.69 0,45 a 0.5,0.5 0 0 1 -0.5,0.37 z m -64.49,-1 h 64.08 c 0.7,-3.69 5.75,-31.61 0,-43.95 -2,-4.18 -6.59,-7.67 -13.37,-10.09 -12.68,-4.51 -30,-4.17 -40.39,0.8 -15.12,7.23 -10.86,48.51 -10.32,53.24 z"
         fill="#231f20"
         id="path2774" />
      <path
         d="m 217.45,199.84 h 14 c 0,0 14.4,2.61 29.18,18.7 14.78,16.09 17.73,48.61 17.73,48.61 h -70 c 0,0 -13.36,-47.29 -30.98,-52.55 -17.62,-5.26 -22.34,3 -25.06,18.89 -2.72,15.89 0,33.66 0,33.66 h -30.64 c 0,0 2.87,-32.52 15.55,-50.58 12.68,-18.06 32.93,-16.73 32.93,-16.73 z"
         fill="#68e1fd"
         id="path2776" />
      <path
         d="m 278.32,267.65 h -70 a 0.5,0.5 0 0 1 -0.48,-0.37 c -0.13,-0.47 -13.42,-47.08 -30.57,-52.2 -7.15,-2.13 -12.4,-2.07 -16.06,0.2 -4.16,2.59 -6.59,7.89 -8.37,18.3 -2.68,15.66 0,33.31 0,33.49 a 0.5,0.5 0 0 1 -0.49,0.58 h -30.67 a 0.5,0.5 0 0 1 -0.37,-0.17 0.52,0.52 0 0 1 -0.13,-0.38 c 0,-0.33 3,-32.85 15.64,-50.81 12.64,-17.96 33.17,-17 33.38,-16.95 h 61.21 c 0.23,0 14.83,2.84 29.55,18.87 14.72,16.03 17.83,48.56 17.86,48.89 a 0.52,0.52 0 0 1 -0.13,0.38 0.5,0.5 0 0 1 -0.37,0.17 z m -69.65,-1 h 69.1 c -0.48,-4.33 -4.1,-33.12 -17.55,-47.77 -14.48,-15.76 -28.76,-18.52 -28.9,-18.55 h -61.16 c -0.23,0 -20.15,-1.09 -32.52,16.52 -11.57,16.47 -15,45.46 -15.41,49.79 h 29.51 c -0.43,-3.19 -2.35,-19 0.09,-33.24 1.34,-7.84 3.34,-15.57 8.82,-19 3.92,-2.43 9.44,-2.54 16.88,-0.32 7.44,2.22 15,11.82 22.37,28.52 a 207.84,207.84 0 0 1 8.77,24.05 z"
         fill="#231f20"
         id="path2778" />
      <rect
         x="182.19"
         y="141.39"
         width="24.139999"
         height="54.18"
         transform="rotate(180,194.26,168.48)"
         fill="#231f20"
         id="rect2780" />
      <path
         d="m 206.33,196.07 h -24.14 a 0.5,0.5 0 0 1 -0.5,-0.5 v -54.18 a 0.5,0.5 0 0 1 0.5,-0.5 h 24.14 a 0.5,0.5 0 0 1 0.5,0.5 v 54.18 a 0.5,0.5 0 0 1 -0.5,0.5 z m -23.64,-1 h 23.14 v -53.18 h -23.14 z"
         fill="#231f20"
         id="path2782" />
      <path
         d="m 217.36,35.48 h -40 c -15,0 -29.58,7.86 -35.08,21.22 -5.5,13.36 -4,36.07 -2.75,50.7 2.77,33.29 35.47,51.33 42,49.52 6.53,-1.81 39.3,-24 39.3,-24 z"
         fill="#231f20"
         id="path2784" />
      <path
         d="m 180.51,157.55 c -3.37,0 -9.35,-2.6 -15.28,-6.74 -7.21,-5 -24.18,-19.32 -26.18,-43.37 -1.51,-18.16 -2.36,-38.42 2.79,-50.93 C 147.14,43.64 161.42,35 177.38,35 h 40 a 0.5,0.5 0 0 1 0.5,0.48 l 3.54,97.47 a 0.49,0.49 0 0 1 -0.22,0.43 c -1.34,0.91 -32.87,22.23 -39.45,24 a 4.48,4.48 0 0 1 -1.24,0.17 z M 177.38,36 c -15.55,0 -29.47,8.41 -34.62,20.92 -5.75,14 -3.7,38.62 -2.72,50.46 C 142,131 158.71,145 165.8,150 c 7.09,5 13.44,7.06 15.67,6.45 6.13,-1.69 36,-21.77 38.92,-23.75 L 216.88,36 Z"
         fill="#231f20"
         id="path2786" />
      <path
         d="m 197.58,87.78 c -10.26,-8 -27.58,-0.25 -32.51,-12.07 -4.93,-11.82 0.5,-25.37 15.52,-28.57 15.02,-3.2 45.86,-2.22 58.13,9.11 12.27,11.33 5.51,28.33 -4.39,36.21 -9.9,7.88 -21.48,7.27 -36.75,-4.68 z"
         fill="#ffffff"
         id="path2788" />
      <path
         d="m 220.35,98.22 c -6.92,0 -14.49,-3.33 -23.07,-10 -4.44,-3.47 -10.24,-3.91 -15.85,-4.34 -7.18,-0.55 -14,-1.06 -16.82,-7.93 a 21.51,21.51 0 0 1 0.49,-18.31 c 2.91,-5.56 8.38,-9.45 15.39,-10.94 14.16,-3 45.84,-2.52 58.56,9.24 a 20.12,20.12 0 0 1 6.77,15.89 c -0.28,7.61 -4.67,15.89 -11.18,21.07 a 22.47,22.47 0 0 1 -14.29,5.32 z M 198.23,46.07 A 88.06,88.06 0 0 0 180.7,47.63 C 174,49.06 168.76,52.76 166,58.05 a 20.52,20.52 0 0 0 -0.44,17.47 c 2.62,6.3 8.8,6.77 16,7.31 5.76,0.44 11.71,0.9 16.38,4.55 v 0 c 14.45,11.32 25.93,12.8 36.13,4.69 6.29,-5 10.53,-13 10.8,-20.33 A 19.18,19.18 0 0 0 238.43,56.62 C 229.9,48.79 212.74,46.07 198.23,46.07 Z"
         fill="#231f20"
         id="path2790" />
      <circle
         cx="196.25"
         cy="138.06"
         r="18.860001"
         fill="#68e1fd"
         id="circle2792" />
      <path
         d="m 196.25,157.42 a 19.37,19.37 0 1 1 19.36,-19.36 19.39,19.39 0 0 1 -19.36,19.36 z m 0,-37.73 a 18.37,18.37 0 1 0 18.36,18.37 18.39,18.39 0 0 0 -18.36,-18.37 z"
         fill="#231f20"
         id="path2794" />
      <circle
         cx="196.25"
         cy="138.06"
         r="12.04"
         fill="#ffffff"
         id="circle2796" />
      <path
         d="m 196.25,150.6 a 12.54,12.54 0 1 1 12.54,-12.54 12.55,12.55 0 0 1 -12.54,12.54 z m 0,-24.08 a 11.54,11.54 0 1 0 11.54,11.54 11.54,11.54 0 0 0 -11.54,-11.54 z"
         fill="#231f20"
         id="path2798" />
      <line
         x1="208.28999"
         y1="138.06"
         x2="184.21001"
         y2="138.06"
         fill="#ffffff"
         id="line2800" />
      <path
         d="m 208.29,138.56 h -24.08 a 0.5,0.5 0 0 1 -0.5,-0.5 0.5,0.5 0 0 1 0.5,-0.5 h 24.08 a 0.5,0.5 0 0 1 0.5,0.5 0.5,0.5 0 0 1 -0.5,0.5 z"
         fill="#231f20"
         id="path2802" />
      <path
         d="m 254.48,106.5 c 0,0 6.73,-27.87 0.49,-43.84 C 244.87,36.8 217.29,32.85 217.29,32.85 v 9.61 l -9,0.74 1.12,52.71 c -2.47,1.47 -9.36,2 -9.86,6.15 -0.5,4.15 1.65,33.74 2.63,42.61 0.98,8.87 19,24.14 46.63,21.67 0,0 0.5,-11.94 0.5,-14.28 0,-2.34 4.92,-3.15 5.29,-4.53 a 15.08,15.08 0 0 0 0,-4.21 c 0,0 4.93,-1.73 4.68,-3.21 a 8.18,8.18 0 0 0 -1.85,-3.2 c 0,0 10.72,-0.12 11.7,-4.06 0.98,-3.94 -14.65,-26.35 -14.65,-26.35 z"
         fill="#68e1fd"
         id="path2804" />
      <path
         d="m 243,167.1 a 56.27,56.27 0 0 1 -27.76,-6.91 c -7.7,-4.4 -13,-10.47 -13.59,-15.46 -0.9,-8.15 -3.13,-38.39 -2.62,-42.73 0.38,-3.27 4.13,-4.45 7.15,-5.4 a 19.5,19.5 0 0 0 2.69,-1 l -1.11,-52.4 a 0.5,0.5 0 0 1 0.46,-0.51 l 8.54,-0.7 v -9.14 a 0.48,0.48 0 0 1 0.17,-0.37 0.49,0.49 0 0 1 0.4,-0.12 c 0.28,0 28,4.28 38.08,30.11 5.93,15.19 0.19,41.25 -0.43,43.92 2.12,3 15.6,22.63 14.61,26.58 -0.9,3.58 -8.29,4.27 -11.16,4.41 a 6.8,6.8 0 0 1 1.31,2.65 c 0.27,1.61 -3.1,3.05 -4.63,3.62 a 13.58,13.58 0 0 1 -0.06,4 c -0.21,0.79 -1.23,1.3 -2.4,1.9 -1.35,0.68 -2.87,1.44 -2.87,2.5 0,2.32 -0.48,13.82 -0.5,14.31 a 0.49,0.49 0 0 1 -0.45,0.47 C 246.91,167 245,167.1 243,167.1 Z m 5.78,-0.76 z m -40,-122.68 1.11,52.23 a 0.5,0.5 0 0 1 -0.25,0.44 16,16 0 0 1 -3.15,1.22 c -2.88,0.91 -6.15,1.94 -6.46,4.57 -0.48,4.06 1.61,33.33 2.63,42.5 1,8.8 19,23.46 45.65,21.26 0.09,-2.17 0.48,-11.77 0.48,-13.82 0,-1.67 1.81,-2.59 3.42,-3.39 0.8,-0.41 1.79,-0.91 1.89,-1.27 a 14.15,14.15 0 0 0 0,-4 0.51,0.51 0 0 1 0.34,-0.54 c 2.37,-0.83 4.44,-2.09 4.35,-2.64 a 7.8,7.8 0 0 0 -1.72,-2.95 0.49,0.49 0 0 1 -0.1,-0.53 0.51,0.51 0 0 1 0.46,-0.31 c 2.87,0 10.49,-0.76 11.22,-3.68 0.68,-2.73 -8.35,-17 -14.58,-25.95 a 0.51,0.51 0 0 1 -0.08,-0.4 c 0.07,-0.28 6.62,-27.9 0.51,-43.54 -9.07,-23.25 -32.73,-28.64 -36.71,-29.39 v 9 a 0.5,0.5 0 0 1 -0.46,0.5 z"
         fill="#231f20"
         id="path2806" />
      <path
         d="m 247.81,144 c -2,0 -4.24,-0.05 -6.56,-0.22 -7,-0.49 -9.19,-1.91 -9.28,-2 a 0.5,0.5 0 0 1 -0.14,-0.69 0.51,0.51 0 0 1 0.7,-0.14 c 0,0 2.12,1.34 8.79,1.81 a 103.9,103.9 0 0 0 13.24,0 0.51,0.51 0 0 1 0.54,0.46 0.5,0.5 0 0 1 -0.46,0.53 c 0,0 -2.89,0.25 -6.83,0.25 z"
         fill="#231f20"
         id="path2808" />
      <rect
         x="179.07001"
         y="161.91"
         width="32.799999"
         height="6.5700002"
         rx="3.28"
         transform="rotate(180,195.47,165.195)"
         fill="#68e1fd"
         id="rect2810" />
      <path
         d="m 208.59,169 h -26.24 a 3.79,3.79 0 0 1 0,-7.57 h 26.24 a 3.79,3.79 0 0 1 0,7.57 z m -26.24,-6.57 a 2.79,2.79 0 0 0 0,5.57 h 26.24 a 2.79,2.79 0 0 0 0,-5.57 z"
         fill="#231f20"
         id="path2812" />
      <rect
         x="179.07001"
         y="171.75999"
         width="32.799999"
         height="6.5700002"
         rx="3.28"
         transform="rotate(180,195.47,175.045)"
         fill="#68e1fd"
         id="rect2814" />
      <path
         d="m 208.59,178.83 h -26.24 a 3.79,3.79 0 0 1 0,-7.57 h 26.24 a 3.79,3.79 0 0 1 0,7.57 z m -26.24,-6.57 a 2.79,2.79 0 0 0 0,5.57 h 26.24 a 2.79,2.79 0 0 0 0,-5.57 z"
         fill="#231f20"
         id="path2816" />
      <rect
         x="179.07001"
         y="181.61"
         width="32.799999"
         height="6.5700002"
         rx="3.28"
         transform="rotate(180,195.47,184.9)"
         fill="#68e1fd"
         id="rect2818" />
      <path
         d="m 208.59,188.68 h -26.24 a 3.79,3.79 0 0 1 0,-7.57 h 26.24 a 3.79,3.79 0 0 1 0,7.57 z m -26.24,-6.57 a 2.79,2.79 0 0 0 0,5.57 h 26.24 a 2.79,2.79 0 0 0 0,-5.57 z"
         fill="#231f20"
         id="path2820" />
      <rect
         x="183.36"
         y="57.540001"
         width="15.24"
         height="15.24"
         transform="rotate(180,190.985,65.16)"
         fill="#68e1fd"
         id="rect2822" />
      <path
         d="m 200.53,77.11 h -19.09 a 2.4,2.4 0 0 1 -2.4,-2.4 v -19.1 a 2.4,2.4 0 0 1 2.4,-2.4 h 19.09 a 2.4,2.4 0 0 1 2.4,2.4 v 19.1 a 2.4,2.4 0 0 1 -2.4,2.4 z m -19.09,-22.9 a 1.4,1.4 0 0 0 -1.4,1.4 v 19.1 a 1.4,1.4 0 0 0 1.4,1.4 h 19.09 a 1.4,1.4 0 0 0 1.4,-1.4 v -19.1 a 1.4,1.4 0 0 0 -1.4,-1.4 z"
         fill="#d1d3d4"
         id="path2824" />
      <path
         d="m 196.05,60.53 h -3.88 a 0.5,0.5 0 0 1 0,-1 h 3.88 a 0.5,0.5 0 0 1 0,1 z"
         fill="#231f20"
         id="path2826" />
      <path
         d="m 207.19,81.75 h -10.94 a 0.5,0.5 0 0 1 -0.5,-0.5 v -4.64 a 0.5,0.5 0 0 1 0.5,-0.5 0.5,0.5 0 0 1 0.5,0.5 v 4.14 h 10.44 a 0.5,0.5 0 0 1 0,1 z"
         fill="#d1d3d4"
         id="path2828" />
      <path
         d="m 173.33,78.43 a 0.5,0.5 0 0 1 -0.5,-0.5 v -6.31 a 0.5,0.5 0 0 1 0.5,-0.5 h 6.21 a 0.5,0.5 0 0 1 0,1 h -5.71 v 5.81 a 0.51,0.51 0 0 1 -0.5,0.5 z"
         fill="#d1d3d4"
         id="path2830" />
      <path
         d="m 179.54,63.24 h -8.72 a 0.49,0.49 0 0 1 -0.39,-0.19 l -4.11,-5.2 a 0.5021205,0.5021205 0 0 1 0.79,-0.62 l 3.95,5 h 8.48 a 0.5,0.5 0 0 1 0.5,0.5 0.51,0.51 0 0 1 -0.5,0.51 z"
         fill="#d1d3d4"
         id="path2832" />
      <path
         d="m 187.4,54.21 a 0.5,0.5 0 0 1 -0.5,-0.5 v -4.6 a 0.5,0.5 0 0 1 0.5,-0.5 0.5,0.5 0 0 1 0.5,0.5 v 4.6 a 0.5,0.5 0 0 1 -0.5,0.5 z"
         fill="#d1d3d4"
         id="path2834" />
      <path
         d="m 194.11,53.55 a 0.5,0.5 0 0 1 -0.5,-0.5 v -3.94 a 0.51,0.51 0 0 1 0.3,-0.46 l 5.38,-2.3 a 0.5,0.5 0 0 1 0.65,0.26 0.5,0.5 0 0 1 -0.26,0.66 l -5.07,2.17 v 3.61 a 0.5,0.5 0 0 1 -0.5,0.5 z"
         fill="#d1d3d4"
         id="path2836" />
      <path
         d="m 207.19,65 h -4.76 a 0.5,0.5 0 0 1 -0.5,-0.5 0.51,0.51 0 0 1 0.5,-0.5 h 4.76 a 0.5,0.5 0 0 1 0.5,0.5 0.5,0.5 0 0 1 -0.5,0.5 z"
         fill="#d1d3d4"
         id="path2838" />
      <circle
         cx="166.72"
         cy="109.73"
         r="21.620001"
         fill="#68e1fd"
         id="circle2840" />
      <path
         d="m 166.72,131.85 a 22.12,22.12 0 1 1 22.12,-22.12 22.15,22.15 0 0 1 -22.12,22.12 z m 0,-43.24 a 21.12,21.12 0 1 0 21.12,21.12 21.15,21.15 0 0 0 -21.12,-21.12 z"
         fill="#231f20"
         id="path2842" />
      <circle
         cx="166.72"
         cy="109.73"
         r="14.4"
         fill="#68e1fd"
         id="circle2844" />
      <path
         d="m 166.72,124.63 a 14.9,14.9 0 1 1 14.89,-14.9 14.92,14.92 0 0 1 -14.89,14.9 z m 0,-28.8 a 13.9,13.9 0 1 0 13.89,13.9 13.92,13.92 0 0 0 -13.89,-13.9 z"
         fill="#231f20"
         id="path2846" />
      <circle
         cx="166.72"
         cy="109.73"
         r="7.3899999"
         fill="#ffffff"
         id="circle2848" />
      <path
         d="m 166.72,117.62 a 7.89,7.89 0 1 1 7.89,-7.89 7.9,7.9 0 0 1 -7.89,7.89 z m 0,-14.78 a 6.89,6.89 0 1 0 6.89,6.89 6.9,6.9 0 0 0 -6.89,-6.89 z"
         fill="#231f20"
         id="path2850" />
      <path
         d="m 173.13,113.9 a 0.52,0.52 0 0 1 -0.29,-0.09 l -12.18,-8.27 a 0.51,0.51 0 0 1 -0.13,-0.7 0.49,0.49 0 0 1 0.69,-0.13 l 12.19,8.29 a 0.51,0.51 0 0 1 0.13,0.7 0.5,0.5 0 0 1 -0.41,0.2 z"
         fill="#231f20"
         id="path2852" />
      <path
         d="m 171.48,115.88 a 0.49,0.49 0 0 1 -0.28,-0.09 l -11.81,-7.86 a 0.5,0.5 0 1 1 0.55,-0.83 l 11.81,7.9 a 0.49,0.49 0 0 1 0.14,0.69 0.48,0.48 0 0 1 -0.41,0.19 z"
         fill="#231f20"
         id="path2854" />
      <rect
         x="166.72"
         y="192.94"
         width="60.32"
         height="6.9000001"
         rx="3.45"
         transform="rotate(180,196.875,196.39)"
         fill="#68e1fd"
         id="rect2856" />
      <path
         d="m 223.58,200.34 h -53.42 a 4,4 0 0 1 0,-7.9 h 53.42 a 4,4 0 0 1 0,7.9 z m -53.42,-6.9 a 3,3 0 0 0 0,5.9 h 53.42 a 3,3 0 1 0 0,-5.9 z"
         fill="#231f20"
         id="path2858" />
      <circle
         cx="171.48"
         cy="235.85001"
         r="25.190001"
         fill="#ffffff"
         id="circle2860" />
      <path
         d="m 171.48,261.54 a 25.69,25.69 0 1 1 25.69,-25.69 25.72,25.72 0 0 1 -25.69,25.69 z m 0,-50.38 a 24.69,24.69 0 1 0 24.69,24.69 24.72,24.72 0 0 0 -24.69,-24.69 z"
         fill="#231f20"
         id="path2862" />
      <path
         d="m 171.48,254.16 a 18.31,18.31 0 1 1 18.31,-18.31 18.33,18.33 0 0 1 -18.31,18.31 z m 0,-35.62 a 17.31,17.31 0 1 0 17.31,17.31 17.32,17.32 0 0 0 -17.31,-17.31 z"
         fill="#d1d3d4"
         id="path2864" />
      <path
         d="m 188.14,242.64 a 0.53,0.53 0 0 1 -0.24,-0.06 l -31.07,-16.75 a 0.49,0.49 0 0 1 -0.21,-0.67 0.5,0.5 0 0 1 0.68,-0.21 l 31.08,16.75 a 0.5,0.5 0 0 1 0.2,0.68 0.49,0.49 0 0 1 -0.44,0.26 z"
         fill="#d1d3d4"
         id="path2866" />
      <path
         d="m 185.74,247 a 0.53,0.53 0 0 1 -0.24,-0.06 l -31.05,-16.59 a 0.50323951,0.50323951 0 0 1 0.47,-0.89 L 186,246.08 a 0.5,0.5 0 0 1 0.21,0.68 0.49,0.49 0 0 1 -0.47,0.24 z"
         fill="#d1d3d4"
         id="path2868" />
      <path
         d="M 254.11,228.4 H 227 a 0.5,0.5 0 0 1 -0.5,-0.5 0.51,0.51 0 0 1 0.5,-0.5 h 27.08 a 0.5,0.5 0 0 1 0.5,0.5 0.5,0.5 0 0 1 -0.47,0.5 z"
         fill="#231f20"
         id="path2870" />
      <ellipse
         cx="240.57001"
         cy="106.43"
         rx="3.3"
         ry="5.3499999"
         fill="#231f20"
         id="ellipse2872" />
    </g>
  </g>
</svg>
