<?xml version="1.0" encoding="UTF-8" standalone="no"?>
<!-- Created with Inkscape (http://www.inkscape.org/) -->

<svg
   width="186"
   height="160"
   viewBox="0 0 49.212498 42.333333"
   version="1.1"
   id="svg5"
   inkscape:version="1.2 (dc2aedaf03, 2022-05-15)"
   sodipodi:docname="bgnd-motorcycle.svg"
   xmlns:inkscape="http://www.inkscape.org/namespaces/inkscape"
   xmlns:sodipodi="http://sodipodi.sourceforge.net/DTD/sodipodi-0.dtd"
   xmlns:xlink="http://www.w3.org/1999/xlink"
   xmlns="http://www.w3.org/2000/svg"
   xmlns:svg="http://www.w3.org/2000/svg">
  <sodipodi:namedview
     id="namedview7"
     pagecolor="#505050"
     bordercolor="#eeeeee"
     borderopacity="1"
     inkscape:showpageshadow="0"
     inkscape:pageopacity="0"
     inkscape:pagecheckerboard="0"
     inkscape:deskcolor="#505050"
     inkscape:document-units="px"
     showgrid="false"
     inkscape:zoom="5.6568542"
     inkscape:cx="122.24108"
     inkscape:cy="69.915183"
     inkscape:window-width="1366"
     inkscape:window-height="699"
     inkscape:window-x="0"
     inkscape:window-y="0"
     inkscape:window-maximized="1"
     inkscape:current-layer="layer1" />
  <defs
     id="defs2">
    <linearGradient
       id="linear-gradient"
       x1="104.12"
       y1="230.53999"
       x2="151.94"
       y2="193.21001"
       gradientUnits="userSpaceOnUse">
      <stop
         offset="0"
         stop-color="#fff"
         stop-opacity="0"
         id="stop6669" />
      <stop
         offset="0.98"
         stop-color="#0800bf"
         id="stop6671" />
    </linearGradient>
    <linearGradient
       id="linear-gradient-2"
       x1="83.230003"
       y1="179.7"
       x2="129.78999"
       y2="132.33"
       xlink:href="#linear-gradient" />
    <linearGradient
       id="linear-gradient-3"
       x1="175.78"
       y1="221.98"
       x2="199.13"
       y2="151.92"
       xlink:href="#linear-gradient" />
    <linearGradient
       id="linear-gradient-4"
       x1="253.03"
       y1="255.50999"
       x2="276.60001"
       y2="236.50999"
       xlink:href="#linear-gradient" />
    <linearGradient
       id="linear-gradient-36"
       x1="183.83"
       y1="264.73001"
       x2="185.89999"
       y2="304.51999"
       gradientUnits="userSpaceOnUse">
      <stop
         offset="0.01"
         id="stop18633" />
      <stop
         offset="0.08"
         stop-opacity="0.69"
         id="stop18635" />
      <stop
         offset="0.21"
         stop-opacity="0.32"
         id="stop18637" />
      <stop
         offset="1"
         stop-opacity="0"
         id="stop18639" />
    </linearGradient>
    <linearGradient
       id="linear-gradient-2-7"
       x1="198.78999"
       y1="115.83"
       x2="207.47"
       y2="258.13"
       xlink:href="#linear-gradient-36" />
    <linearGradient
       id="linear-gradient-3-5"
       x1="2316.74"
       y1="-609.72998"
       x2="2301.1799"
       y2="-592.25"
       gradientTransform="matrix(-0.82,0.58,0.58,0.82,2373.07,-750.08)"
       xlink:href="#linear-gradient-36" />
    <linearGradient
       id="linear-gradient-4-3"
       x1="4330.77"
       y1="2142.8401"
       x2="4507.3301"
       y2="2228.49"
       gradientTransform="rotate(-142.1,1925.8456,1863.0268)"
       gradientUnits="userSpaceOnUse">
      <stop
         offset="0.01"
         id="stop18644" />
      <stop
         offset="0.08"
         stop-opacity="0.69"
         id="stop18646" />
      <stop
         offset="0.21"
         stop-opacity="0.32"
         id="stop18648" />
      <stop
         offset="1"
         stop-opacity="0"
         id="stop18650" />
    </linearGradient>
    <linearGradient
       id="linear-gradient-5"
       x1="151.05"
       y1="89.309998"
       x2="160.05"
       y2="133.45"
       xlink:href="#linear-gradient-4-3" />
    <linearGradient
       id="linear-gradient-6"
       x1="2290.73"
       y1="-591.78003"
       x2="2325.28"
       y2="-589.91998"
       gradientTransform="matrix(-0.82,0.58,0.58,0.82,2373.07,-750.08)"
       xlink:href="#linear-gradient-36" />
    <linearGradient
       id="linear-gradient-7"
       x1="169.8"
       y1="127.82"
       x2="168.28999"
       y2="306.51999"
       xlink:href="#linear-gradient-4-3" />
    <linearGradient
       id="linear-gradient-8"
       x1="163.48"
       y1="158.08"
       x2="90.669998"
       y2="199.84"
       xlink:href="#linear-gradient-4-3" />
    <linearGradient
       id="linear-gradient-9"
       x1="130.94"
       y1="144.46001"
       x2="3.3"
       y2="217.66"
       xlink:href="#linear-gradient-4-3" />
    <linearGradient
       id="linear-gradient-10"
       x1="287.37"
       y1="96.879997"
       x2="352.62"
       y2="250.07001"
       xlink:href="#linear-gradient-4-3" />
    <linearGradient
       id="linear-gradient-11"
       x1="169.38"
       y1="134.78"
       x2="406.73001"
       y2="301.17999"
       xlink:href="#linear-gradient-4-3" />
    <linearGradient
       id="linear-gradient-12"
       x1="199.17"
       y1="253.11"
       x2="243.94"
       y2="12.38"
       xlink:href="#linear-gradient-4-3" />
    <linearGradient
       id="linear-gradient-13"
       x1="171.77"
       y1="88.489998"
       x2="165.00999"
       y2="385.82001"
       xlink:href="#linear-gradient-4-3" />
    <linearGradient
       id="linear-gradient-14"
       x1="144.75999"
       y1="213.89"
       x2="232.33"
       y2="309.06"
       xlink:href="#linear-gradient-4-3" />
    <linearGradient
       id="linear-gradient-15"
       x1="163.53"
       y1="235.49001"
       x2="213.67"
       y2="305.67999"
       xlink:href="#linear-gradient-36" />
    <linearGradient
       id="linear-gradient-56"
       x1="401.64999"
       y1="531.53998"
       x2="412.84"
       y2="766.45001"
       gradientUnits="userSpaceOnUse">
      <stop
         offset="0"
         stop-opacity="0"
         id="stop25096" />
      <stop
         offset="0.97"
         id="stop25098" />
    </linearGradient>
    <linearGradient
       id="linear-gradient-2-2"
       x1="343.73001"
       y1="-19.889999"
       x2="352.92999"
       y2="557.12"
       gradientUnits="userSpaceOnUse">
      <stop
         offset="0"
         stop-color="#fff"
         id="stop25101" />
      <stop
         offset="1"
         stop-color="#fff"
         stop-opacity="0"
         id="stop25103" />
    </linearGradient>
    <linearGradient
       id="linear-gradient-3-9"
       x1="347.72"
       y1="229.94"
       x2="317.85001"
       y2="238.37"
       gradientUnits="userSpaceOnUse">
      <stop
         offset="0"
         stop-color="#ecc4d7"
         id="stop25106" />
      <stop
         offset="0.42"
         stop-color="#efd4d1"
         id="stop25108" />
      <stop
         offset="1"
         stop-color="#f2eac9"
         id="stop25110" />
    </linearGradient>
    <linearGradient
       id="linear-gradient-4-1"
       x1="187.08"
       y1="72.580002"
       x2="175.47"
       y2="306.81"
       xlink:href="#linear-gradient-2-2" />
    <linearGradient
       id="linear-gradient-5-2"
       x1="254.98"
       y1="145.35001"
       x2="260.59"
       y2="145.35001"
       xlink:href="#linear-gradient-3-9" />
    <linearGradient
       id="linear-gradient-6-7"
       x1="211.53"
       y1="146.59"
       x2="219.07001"
       y2="146.59"
       xlink:href="#linear-gradient-3-9" />
    <linearGradient
       id="linear-gradient-7-0"
       x1="215.55"
       y1="147.28999"
       x2="214.69"
       y2="151.2"
       xlink:href="#linear-gradient-3-9" />
    <linearGradient
       id="linear-gradient-8-9"
       x1="1035.91"
       y1="145.99001"
       x2="1035.0601"
       y2="149.89999"
       gradientTransform="matrix(-1,0,0,1,1292.73,0)"
       xlink:href="#linear-gradient-3-9" />
    <linearGradient
       id="linear-gradient-9-3"
       x1="344.60999"
       y1="225.28999"
       x2="482.94"
       y2="225.28999"
       xlink:href="#linear-gradient-3-9" />
    <linearGradient
       id="linear-gradient-10-6"
       x1="410.39999"
       y1="309.41"
       x2="407.64001"
       y2="637.46997"
       xlink:href="#linear-gradient-56" />
    <linearGradient
       id="linear-gradient-11-0"
       x1="543.37"
       y1="340.22"
       x2="513.15002"
       y2="518.27002"
       xlink:href="#linear-gradient-56" />
    <linearGradient
       id="linear-gradient-12-6"
       x1="532.19"
       y1="250.07001"
       x2="645.19"
       y2="250.07001"
       xlink:href="#linear-gradient-3-9" />
    <linearGradient
       id="linear-gradient-13-2"
       x1="234"
       y1="169.8"
       x2="237.72"
       y2="186.95"
       xlink:href="#linear-gradient-3-9" />
    <linearGradient
       id="linear-gradient-14-6"
       x1="225.86"
       y1="118.14"
       x2="245.00999"
       y2="153.58"
       xlink:href="#linear-gradient-3-9" />
    <linearGradient
       id="linear-gradient-15-1"
       x1="485.39001"
       y1="284.89001"
       x2="396.04999"
       y2="582.01001"
       gradientUnits="userSpaceOnUse">
      <stop
         offset="0"
         stop-color="#fff"
         id="stop25124" />
      <stop
         offset="0.89"
         stop-color="#fff"
         stop-opacity="0"
         id="stop25126" />
    </linearGradient>
    <linearGradient
       id="linear-gradient-16"
       x1="344.73999"
       y1="399.82001"
       x2="343.79999"
       y2="636.59003"
       xlink:href="#linear-gradient-56" />
    <linearGradient
       id="linear-gradient-17"
       x1="349.95001"
       y1="295.39999"
       x2="344.35999"
       y2="551.75"
       gradientUnits="userSpaceOnUse">
      <stop
         offset="0"
         stop-color="#fff"
         id="stop25130" />
      <stop
         offset="0.6"
         stop-color="#fff"
         stop-opacity="0.48"
         id="stop25132" />
      <stop
         offset="0.87"
         stop-color="#fff"
         stop-opacity="0.13"
         id="stop25134" />
      <stop
         offset="1"
         stop-color="#fff"
         stop-opacity="0"
         id="stop25136" />
    </linearGradient>
    <linearGradient
       id="linear-gradient-18"
       x1="348.28"
       y1="399.82999"
       x2="347.35001"
       y2="636.60999"
       xlink:href="#linear-gradient-56" />
    <linearGradient
       id="linear-gradient-19"
       x1="353.64999"
       y1="306.57001"
       x2="348.04999"
       y2="562.92999"
       xlink:href="#linear-gradient-2-2" />
    <linearGradient
       id="linear-gradient-20"
       x1="359.04999"
       y1="455.76001"
       x2="348.79001"
       y2="798.79999"
       xlink:href="#linear-gradient-56" />
    <linearGradient
       id="linear-gradient-21"
       x1="1368"
       y1="235.8"
       x2="1338.13"
       y2="244.23"
       gradientTransform="matrix(-1,0,0,1,1841.96,0)"
       xlink:href="#linear-gradient-3-9" />
    <linearGradient
       id="linear-gradient-22"
       x1="394.51999"
       y1="313.84"
       x2="371.37"
       y2="464.32999"
       xlink:href="#linear-gradient-3-9" />
    <linearGradient
       id="linear-gradient-23"
       x1="593.46002"
       y1="245.74001"
       x2="660.04999"
       y2="341.20999"
       xlink:href="#linear-gradient-3-9" />
  </defs>
  <g
     inkscape:label="Layer 1"
     inkscape:groupmode="layer"
     id="layer1">
    <path
       d="m 27.49978,6.3427295 c 0,0 0.416882,1.061081 0.247973,1.2277711 -0.168909,0.1666901 -0.564229,-0.053771 -0.564229,-0.053771"
       fill="#ffffff"
       id="path30112"
       style="stroke-width:0.179464" />
    <path
       d="m 27.569859,7.7228518 a 1.0098615,1.00731 0 0 1 -0.42946,-0.1254657 0.08984533,0.08961833 0 0 1 -0.03594,-0.1218809 0.08984533,0.08961833 0 0 1 0.122189,-0.034055 c 0.109611,0.059148 0.359381,0.1559359 0.458211,0.066318 0.06289,-0.077072 -0.06289,-0.6058199 -0.267739,-1.129191 a 0.08992655,0.08969935 0 0 1 0.167113,-0.066318 c 0.131174,0.3351725 0.418679,1.1363604 0.22641,1.3227665 a 0.32344319,0.32262599 0 0 1 -0.240786,0.087826 z"
       fill="#231f20"
       id="path30114"
       style="stroke-width:0.179464" />
    <path
       d="m 27.693846,4.2922621 c 0.411491,0.6147818 0.0557,1.61313 -0.09344,2.2870598 Q 27.391966,7.5041831 27.145789,8.41829 c -0.10422,0.3871512 -1.121269,0.1792367 -1.275803,0.023301 l -0.898454,2.269136 A 6.3951906,6.3790327 0 0 1 23.78198,9.9668948 C 23.043452,9.4148459 23.153063,8.774971 23.153063,8.774971 23.465725,7.538238 24.180893,6.2118868 24.701996,5.0414714 a 1.9514406,1.9465101 0 0 1 0.452821,-0.6900612 1.8921426,1.887362 0 0 1 0.60376,-0.3262107 c 0.499541,-0.1792367 1.078144,-0.3190413 1.550731,-0.069902 a 1.018846,1.0162719 0 0 1 0.384538,0.3369646 z"
       fill="#ffffff"
       id="path30116"
       style="stroke-width:0.179464" />
    <path
       d="m 24.971532,10.800345 a 0.11320512,0.1129191 0 0 1 -0.03414,0 6.6108194,6.5941167 0 0 1 -1.209318,-0.756378 C 22.955403,9.4650321 23.059624,8.7893099 23.063218,8.7660092 23.302206,7.8268091 23.756824,6.8589311 24.198863,5.9233157 24.344412,5.6114439 24.488164,5.3067416 24.619339,5.0110011 a 2.0161292,2.0110353 0 0 1 0.47618,-0.7169466 2.019723,2.0146201 0 0 1 0.634308,-0.3530962 c 0.436648,-0.1648978 1.078144,-0.3584733 1.617216,-0.066318 a 1.1302543,1.1273986 0 0 1 0.418679,0.3584733 v 0 c 0.368366,0.5520489 0.163519,1.3675757 0,2.0217896 -0.03055,0.1182962 -0.0593,0.2294229 -0.08086,0.3333801 -0.138362,0.6147822 -0.2911,1.2367334 -0.454618,1.8443457 A 0.37914729,0.37818935 0 0 1 26.930161,8.6889374 1.7969066,1.7923666 0 0 1 25.909518,8.5652641 L 25.052393,10.73582 a 0.10242368,0.1021649 0 0 1 -0.04852,0.05019 0.12398656,0.1236733 0 0 1 -0.03234,0.01434 z m 1.743,-6.8934417 a 2.654031,2.6473255 0 0 0 -0.925407,0.2025374 1.9119086,1.9070781 0 0 0 -0.57501,0.3082871 1.8292509,1.8246292 0 0 0 -0.429461,0.6613833 c -0.132971,0.2957405 -0.276724,0.6022351 -0.42407,0.9141069 -0.427664,0.9284459 -0.887672,1.8891544 -1.12127,2.8050538 0,0.016131 -0.08445,0.5861038 0.596573,1.0969283 a 7.2612996,7.2429534 0 0 0 1.078144,0.6936459 l 0.862516,-2.1795178 a 0.08804842,0.08782596 0 0 1 0.06649,-0.055563 0.09164224,0.0914107 0 0 1 0.08086,0.025093 1.5417459,1.5378505 0 0 0 0.954157,0.1451817 q 0.149144,-0.041225 0.179691,-0.1290504 c 0.163518,-0.6058199 0.316255,-1.2241864 0.45282,-1.8353834 0.02336,-0.1057497 0.05211,-0.2204611 0.08266,-0.3387573 0.154534,-0.6219512 0.3486,-1.3944612 0.02516,-1.8784002 v 0 A 0.93978215,0.93740773 0 0 0 27.258994,4.0341613 1.1697862,1.1668307 0 0 0 26.714532,3.9069033 Z"
       fill="#231f20"
       id="path30118"
       style="stroke-width:0.179464" />
    <path
       d="M 27.230244,7.9540671 A 0.74391933,0.74203977 0 0 1 26.511481,7.3159846"
       fill="#ffffff"
       id="path30120"
       style="stroke-width:0.179464" />
    <path
       d="m 27.228447,8.0436854 a 0.83915538,0.8370352 0 0 1 -0.813999,-0.7169466 0.08984533,0.08961833 0 0 1 0.06828,-0.107542 0.08804842,0.08782596 0 0 1 0.106017,0.06811 0.65048019,0.64883671 0 0 0 0.637902,0.5681802 0.08984535,0.08961835 0 0 1 0,0.1792367 z"
       fill="#231f20"
       id="path30122"
       style="stroke-width:0.179464" />
    <path
       d="M 25.869986,8.4397984 A 1.6962798,1.6919941 0 0 1 25.208724,7.7515297 c 0,0 -0.485165,1.2546566 0.264145,1.6902017 z"
       fill="#231f20"
       id="path30124"
       style="stroke-width:0.179464" />
    <path
       d="m 25.472869,9.5331421 a 0.0808608,0.0806565 0 0 1 -0.04492,-0.012547 C 24.622932,9.043826 25.104503,7.7748304 25.126066,7.7282289 a 0.08984533,0.08961833 0 0 1 0.167113,0 1.59745,1.5934139 0 0 0 0.616339,0.6344978 0.08984533,0.08961833 0 0 1 0.03953,0.1111267 l -0.398914,1.0019329 a 0.08804842,0.08782596 0 0 1 -0.0557,0.051979 0.07367317,0.07348703 0 0 1 -0.02156,0.00538 z M 25.232084,7.982745 c -0.08985,0.3297954 -0.203051,0.9929711 0.199456,1.3227665 l 0.327037,-0.826281 A 1.9298777,1.9250017 0 0 1 25.232084,7.982745 Z"
       fill="#231f20"
       id="path30126"
       style="stroke-width:0.179464" />
    <path
       d="m 28.019086,6.0111417 c 0.01797,-0.084241 -1.681905,-0.4355451 -1.681905,-0.4355451 0,0 -0.256957,0.2097069 0.06649,0.645252 0.323443,0.4355451 1.437525,0.6506291 1.615419,-0.2097069 z"
       fill="#231f20"
       id="path30128"
       style="stroke-width:0.179464" />
    <path
       d="M 27.271573,6.692241 A 1.230881,1.2277711 0 0 1 26.329994,6.2746196 C 25.961628,5.7763417 26.276087,5.509279 26.27968,5.5074867 a 0.08984533,0.08961833 0 0 1 0.07547,-0.019716 c 1.796907,0.3692276 1.773547,0.4427146 1.751984,0.53771 v 0 A 0.77626365,0.77430237 0 0 1 27.492592,6.6635631 0.981111,0.97863216 0 0 1 27.271573,6.692241 Z M 26.37312,5.6741768 c -0.03953,0.06094 -0.09703,0.2204611 0.106017,0.4946932 a 1.0637687,1.061081 0 0 0 0.979314,0.3244183 0.59118227,0.58968861 0 0 0 0.463602,-0.4427145 C 27.733378,5.9770867 27.02899,5.812189 26.369526,5.6741768 Z m 1.64956,0.3369649 z m -0.08805,-0.017924 z"
       fill="#231f20"
       id="path30130"
       style="stroke-width:0.179464" />
    <line
       x1="26.337183"
       y1="5.5755968"
       x2="25.711857"
       y2="5.4304147"
       fill="#231f20"
       id="line30132"
       style="stroke-width:0.179464" />
    <path
       d="m 26.337181,5.6652149 h -0.01977 L 25.692092,5.5200332 a 0.09219122,0.09195829 0 1 1 0.04133,-0.1792366 l 0.623526,0.1451817 a 0.09038745,0.09015908 0 0 1 -0.01977,0.1792366 z"
       fill="#231f20"
       id="path30134"
       style="stroke-width:0.179464" />
    <path
       d="M 27.82502,5.2368393 A 0.62891731,0.62732831 0 0 0 28.116119,4.8927049 0.6522771,0.65062908 0 0 0 28.042446,4.4320667 C 27.745956,3.8477552 27.018209,3.5771079 26.367729,3.6595567 A 1.6675293,1.6633162 0 0 0 25.562715,3.9696361 C 25.246459,4.2116056 24.82778,4.9643996 25.323726,5.2458012 a 1.3404923,1.3371055 0 0 0 0.578604,0.078864 c 0.294693,0.017924 0.585792,0.077072 0.880484,0.09858 A 1.7394056,1.7350109 0 0 0 27.82502,5.2368393 Z"
       fill="#ffffff"
       id="path30136"
       style="stroke-width:0.179464" />
    <path
       d="m 27.018209,5.5218256 c -0.08445,0 -0.165315,0 -0.242582,0 -0.14555,-0.010754 -0.291099,-0.03047 -0.431258,-0.048394 -0.140159,-0.017924 -0.298286,-0.041224 -0.44743,-0.050186 H 25.765765 A 1.0116584,1.0091024 0 0 1 25.278803,5.3372119 0.52289982,0.52157868 0 0 1 25.011064,4.8909126 c -0.02516,-0.376397 0.274927,-0.8191116 0.503134,-0.9911788 a 1.7429994,1.7385956 0 0 1 0.84814,-0.3297954 c 0.743919,-0.093203 1.471667,0.2437618 1.764562,0.8209039 a 0.73134099,0.72949321 0 0 1 0.08086,0.5251634 0.71876264,0.71694664 0 0 1 -0.330631,0.3979054 v 0 a 1.6172159,1.6131299 0 0 1 -0.85892,0.2079145 z M 26.608514,3.729459 A 1.999957,1.994904 0 0 0 26.37851,3.743798 1.5830747,1.579075 0 0 0 25.616622,4.0377462 c -0.194066,0.1487664 -0.451024,0.53771 -0.431258,0.8370352 a 0.33781844,0.33696492 0 0 0 0.179691,0.2903634 0.87689042,0.8746749 0 0 0 0.398913,0.062733 c 0.04852,0 0.09524,0 0.140159,0 0.154534,0 0.310865,0.028678 0.460008,0.050186 0.149143,0.021508 0.280317,0.035847 0.420476,0.046602 A 1.6711231,1.6669009 0 0 0 27.774707,5.1454286 0.53907198,0.53770998 0 0 0 28.026274,4.8532729 0.56243177,0.56101075 0 0 0 27.957991,4.4589522 1.4986201,1.4948337 0 0 0 26.608514,3.7330437 Z m 1.216506,1.5037956 z"
       fill="#231f20"
       id="path30138"
       style="stroke-width:0.179464" />
    <path
       d="m 24.87989,7.5991785 0.03594,-0.019716 C 25.4549,7.2657983 25.65256,6.5452669 25.690295,6.0165188 25.715452,5.6454989 25.835844,5.0540179 26.112568,4.7618622 26.452183,4.4033889 28.247293,5.1490134 28.247293,5.1490134 28.831288,2.5984757 25.03083,1.3850435 23.314784,2.8189368 a 3.4464669,3.4377591 0 0 0 -1.137441,2.8247697 c 0.04852,0.7760948 0.449226,2.0648064 1.37643,2.1329163 a 3.6908462,3.681521 0 0 0 0.821186,-0.032263 1.5758871,1.5719055 0 0 0 0.504931,-0.1451813 z"
       fill="#ffffff"
       id="path30140"
       style="stroke-width:0.179464" />
    <path
       d="m 23.821512,7.8787877 c -0.09164,0 -0.179691,0 -0.27313,-0.010754 -0.97572,-0.069902 -1.408774,-1.3621986 -1.460885,-2.2153651 a 3.559672,3.5506782 0 0 1 1.16799,-2.8982568 c 1.078144,-0.9051451 2.839112,-0.7617558 3.92624,-0.1003725 0.964939,0.5843115 1.385415,1.5002108 1.153615,2.5093132 a 0.08625152,0.0860336 0 0 1 -0.04672,0.059148 0.08625152,0.0860336 0 0 1 -0.07547,0 C 27.494389,4.9213828 26.382104,4.5951721 26.179054,4.8138408 c -0.237192,0.2527237 -0.37196,0.7868489 -0.400711,1.202678 -0.01797,0.2831939 -0.134768,1.236733 -0.815795,1.6346383 l -0.03953,0.021508 a 1.6585448,1.6543544 0 0 1 -0.539072,0.1577283 3.7411595,3.7317073 0 0 1 -0.562432,0.048394 z M 25.190755,2.2937734 A 2.7834083,2.7763759 0 0 0 23.372286,2.883462 3.3763875,3.3678568 0 0 0 22.267188,5.6347447 c 0.04672,0.7599634 0.440242,1.9859422 1.293773,2.048675 a 3.5165462,3.5076614 0 0 0 0.80142,-0.032263 1.4986201,1.4948337 0 0 0 0.47618,-0.1380122 v 0 l 0.03235,-0.017924 C 25.476463,7.1367479 25.589668,6.2638654 25.60045,6.0021799 25.6292,5.5863508 25.762171,4.9930775 26.046083,4.6901675 26.380307,4.3316942 27.722596,4.8299721 28.180808,5.0145859 28.342529,4.1184026 27.949007,3.3225918 27.088288,2.7992207 A 3.7735039,3.7639699 0 0 0 25.190755,2.2937734 Z"
       fill="#231f20"
       id="path30142"
       style="stroke-width:0.179464" />
    <path
       d="m 24.401913,7.1654258 a 0.09164224,0.0914107 0 0 1 -0.08266,-0.055563 C 24.290503,7.0435448 23.645413,5.4770169 24.57082,4.118403 a 1.4554943,1.4518169 0 0 1 1.538152,-0.6380825 c 0.700794,0.1200885 1.374634,0.6219512 1.464479,0.9589161 A 0.08984533,0.08961833 0 0 1 27.508761,4.548571 0.08984533,0.08961833 0 0 1 27.39915,4.485838 C 27.332668,4.2366988 26.736095,3.7688911 26.078427,3.6577644 a 1.288382,1.2851269 0 0 0 -1.358462,0.5610107 c -0.871499,1.2779574 -0.240785,2.8068461 -0.235394,2.821185 a 0.08984533,0.08961833 0 0 1 -0.04672,0.1182962 0.12758037,0.12725803 0 0 1 -0.03594,0.00717 z"
       fill="#d1d3d4"
       id="path30144"
       style="stroke-width:0.179464" />
    <path
       d="m 31.469147,15.510685 a 0.09164224,0.0914107 0 0 1 -0.07906,-0.04481 l -1.389009,-2.399979 a 0.08984533,0.08961833 0 1 1 0.154534,-0.08962 l 1.390806,2.399979 a 0.08804842,0.08782596 0 0 1 -0.03234,0.121881 0.08445461,0.08424123 0 0 1 -0.04492,0.01255 z"
       fill="#231f20"
       id="path30146"
       style="stroke-width:0.179464" />
    <path
       d="m 29.722553,13.892178 a 0.09703296,0.0967878 0 0 1 -0.06469,-0.02509 0.09164224,0.0914107 0 0 1 0,-0.127259 c 0.04313,-0.07528 0.379147,-1.087966 0.580401,-1.706333 a 0.08984533,0.08961833 0 1 1 0.170706,0.05556 c -0.555244,1.708125 -0.603761,1.758311 -0.623527,1.778028 a 0.09343914,0.09320306 0 0 1 -0.06289,0.02509 z"
       fill="#231f20"
       id="path30148"
       style="stroke-width:0.179464" />
    <path
       d="m 34.381932,15.268715 c 0,0 0.745716,0.415829 0.867906,1.218809 0.165316,1.07542 -0.407898,1.433894 -0.407898,1.433894 z"
       fill="#231f20"
       id="path30150"
       style="stroke-width:0.179464" />
    <path
       d="m 8.0392815,26.004991 c 0,0 -0.6630586,-0.233008 -0.9559543,-0.116504 -0.2928958,0.116504 -2.3144157,3.378611 -2.1257405,3.538132 0.1886752,0.159521 1.1356449,0 1.1356449,0 z"
       fill="#ffffff"
       id="path30152"
       style="stroke-width:0.179464" />
    <path
       d="m 7.2953622,25.856225 a 2.7726269,2.7656217 0 0 1 0.7439193,0.148766 l -1.9460499,3.421628 a 5.444627,5.4308708 0 0 1 -0.7582945,0.0717 0.66305854,0.66138328 0 0 1 -0.3773504,-0.0717 C 4.7689115,29.267098 6.7886345,26.004991 7.0833272,25.888487 a 0.57860393,0.57714205 0 0 1 0.212035,-0.03226 m 0,-0.179237 A 0.74751315,0.74562451 0 0 0 7.0168416,25.7218 C 6.625116,25.875941 4.8605537,28.835138 4.7707084,29.324454 a 0.23898858,0.23838476 0 0 0 0.070079,0.238385 0.75290387,0.75100161 0 0 0 0.4941494,0.114711 5.8147898,5.8000983 0 0 0 0.7888419,-0.07349 L 6.2082337,29.58972 6.2495627,29.51444 8.1956126,26.092812 8.30163,25.913575 8.0985796,25.841885 A 2.9792711,2.9717438 0 0 0 7.2953622,25.684157 Z"
       fill="#231f20"
       id="path30154"
       style="stroke-width:0.179464" />
    <ellipse
       cx="10.448933"
       cy="35.39341"
       fill="#231f20"
       id="circle30156"
       rx="4.7456303"
       ry="4.7336402"
       style="stroke-width:0.179464" />
    <path
       d="m 10.456121,40.216666 a 4.8354757,4.8232585 0 1 1 4.835476,-4.823259 4.8408664,4.8286356 0 0 1 -4.835476,4.823259 z m 0,-9.46728 a 4.655785,4.6440219 0 1 0 4.655785,4.644021 4.6611757,4.649399 0 0 0 -4.655785,-4.644021 z"
       fill="#231f20"
       id="path30158"
       style="stroke-width:0.179464" />
    <ellipse
       cx="10.448933"
       cy="35.39341"
       fill="#ffffff"
       id="circle30160"
       rx="3.3548245"
       ry="3.3463485"
       style="stroke-width:0.179464" />
    <path
       d="m 10.456121,32.047059 a 3.3566215,3.3481408 0 1 1 -3.3566217,3.346348 3.3548246,3.3463484 0 0 1 3.3566217,-3.346348 m 0,-0.179237 a 3.5363122,3.5273775 0 1 0 3.534515,3.525585 3.539906,3.5309622 0 0 0 -3.534515,-3.525585 z"
       fill="#231f20"
       id="path30162"
       style="stroke-width:0.179464" />
    <ellipse
       cx="10.448933"
       cy="35.39341"
       fill="#d1d3d4"
       id="circle30164"
       rx="1.3315078"
       ry="1.3281436"
       style="stroke-width:0.179464" />
    <path
       d="m 11.780441,31.247663 c -1.8184695,0.799396 -3.4913895,3.435967 -0.733138,4.145744 1.572293,0.405075 10.907223,0.179237 10.907223,0.179237 l -2.12035,-3.76397 c 0,0 -6.283782,-1.34069 -8.053735,-0.561011 z"
       fill="#231f20"
       id="path30166"
       style="stroke-width:0.179464" />
    <path
       d="m 16.745294,35.72858 c -2.433012,0 -4.957665,-0.05019 -5.719554,-0.247347 -1.1895519,-0.306494 -1.4842446,-0.937407 -1.5237765,-1.414177 -0.089845,-1.10589 1.0781435,-2.392809 2.2425395,-2.901841 v 0 c 1.775344,-0.783265 7.852482,0.510824 8.109439,0.566387 a 0.09164224,0.0914107 0 0 1 0.0593,0.04302 l 2.12035,3.76397 a 0.09882986,0.09858016 0 0 1 0,0.08962 0.09523605,0.09499543 0 0 1 -0.07727,0.04481 c -0.195863,-0.0018 -2.652234,0.05556 -5.211029,0.05556 z m -3.234432,-4.63506 c -0.718763,0 -1.318929,0.06632 -1.70167,0.2348 v 0 c -1.078144,0.474977 -2.2173832,1.709918 -2.1347255,2.724397 0.048516,0.598651 0.5282905,1.032403 1.3890085,1.254657 1.437526,0.369227 9.523605,0.209707 10.732923,0.179236 l -2.02691,-3.593695 C 19.365184,31.812259 15.868404,31.09352 13.510862,31.09352 Z m -1.737609,0.154143 z"
       fill="#231f20"
       id="path30168"
       style="stroke-width:0.179464" />
    <ellipse
       cx="39.614521"
       cy="35.39341"
       fill="#231f20"
       id="circle30170"
       rx="4.7456303"
       ry="4.7336402"
       style="stroke-width:0.179464" />
    <path
       d="M 39.614524,40.216666 A 4.8354757,4.8232585 0 1 1 44.45,35.393407 4.8408664,4.8286356 0 0 1 39.614524,40.216666 Z m 0,-9.46728 a 4.655785,4.6440219 0 1 0 4.655785,4.644021 4.6629726,4.6511913 0 0 0 -4.655785,-4.644021 z"
       fill="#231f20"
       id="path30172"
       style="stroke-width:0.179464" />
    <ellipse
       cx="39.614521"
       cy="35.39341"
       fill="#ffffff"
       id="circle30174"
       rx="3.3548245"
       ry="3.3463485"
       style="stroke-width:0.179464" />
    <path
       d="m 39.614524,32.047059 a 3.3566215,3.3481408 0 1 1 -3.354824,3.346348 3.3548246,3.3463484 0 0 1 3.354824,-3.346348 m 0,-0.179237 a 3.5363122,3.5273775 0 1 0 3.545297,3.525585 3.539906,3.5309622 0 0 0 -3.536312,-3.525585 z"
       fill="#231f20"
       id="path30176"
       style="stroke-width:0.179464" />
    <ellipse
       cx="39.614521"
       cy="35.39341"
       fill="#d1d3d4"
       id="circle30178"
       rx="1.3315078"
       ry="1.3281436"
       style="stroke-width:0.179464" />
    <path
       d="m 33.51762,18.815809 -2.672,1.493041 c 0,0 1.816673,8.637415 1.656748,9.544352 -0.159925,0.906938 -0.539072,1.493042 -1.229084,1.546813 -0.690012,0.05377 -5.667444,0 -6.736603,0 -1.069159,0 1.699874,-7.411436 1.699874,-7.411436 H 11.9206 c 0,0 -2.8858323,0.639875 -4.5964873,2.772791 -1.7106551,2.132916 -2.7420795,6.233851 -2.366526,6.556477 0.3755534,0.322626 14.6501793,0.138012 14.6501793,0.138012 l 1.507605,2.315738 h 11.442701 c 1.710655,0 3.581235,-4.744395 3.581235,-4.744395 h 8.278349 c 0,0 -1.033222,-2.364131 -3.331465,-2.950235 -2.298244,-0.586104 -3.297324,-0.516202 -3.297324,-0.516202 0,0 1.123067,-0.267062 1.123067,-1.33352 0,-1.066459 -3.629752,-6.398749 -5.394314,-7.411436 z"
       fill="#68e1fd"
       id="path30180"
       style="stroke-width:0.179464;fill:#97aaf2;fill-opacity:1" />
    <path
       d="m 11.480358,24.108667 c 0,0 -2.2820718,-1.826421 -1.024237,-2.306776 1.257834,-0.480354 14.761588,-0.586103 15.787621,0.426584 1.026034,1.012687 0.760092,2.012827 -0.17969,2.244043 -0.939783,0.231215 -14.583694,-0.363851 -14.583694,-0.363851 z"
       fill="#231f20"
       id="path30182"
       style="stroke-width:0.179464" />
    <path
       d="m 31.219377,20.549027 c -0.107815,-0.02689 -2.061052,-2.106031 -2.059255,-3.493322 0.0018,-1.387292 1.194943,-2.106031 2.361135,-1.971604 a 17.119129,17.075877 0 0 0 2.833722,-0.01255 l 0.539072,3.081078 -2.098787,0.324418 0.695403,0.801188 z"
       fill="#68e1fd"
       id="path30184"
       style="stroke-width:0.179464;fill:#97aaf2;fill-opacity:1" />
    <path
       d="m 23.600493,18.667042 c -0.179691,-0.03585 -6.458083,-0.858543 -6.458083,-0.858543 0,0 -2.231758,3.971884 -0.02156,4.839389 2.210196,0.867506 10.00877,0.695439 10.00877,0.695439 l -1.363852,6.784107 h 2.923567 c 0,0 2.813956,-7.038623 2.030505,-8.816651 -0.783452,-1.778028 -7.622478,-1.98415 -7.622478,-1.98415 z"
       fill="#231f20"
       id="path30186"
       style="stroke-width:0.179464" />
    <path
       d="m 16.500915,18.815809 c 0,0 1.958628,-5.617277 3.414122,-8.140929 0.663059,-1.147115 1.753781,-2.2332892 3.162556,-2.2619671 0.623526,-0.012547 1.151817,0.075279 1.629794,0.4893161 a 4.0556182,4.0453714 0 0 1 1.293773,2.118577 c 0.407898,1.729634 -2.132928,7.55841 -2.515669,8.540627 z"
       fill="#68e1fd"
       id="path30188"
       style="stroke-width:0.179464;fill:#97aaf2;fill-opacity:1" />
    <path
       d="m 27.584235,16.146975 c 0,0 2.458168,0.07169 2.815752,0.107542 0.357585,0.03585 1.033222,0.623743 0.943376,0.951746 -0.08985,0.328004 -1.017049,-0.02151 -1.282991,-0.152351 -0.265942,-0.130842 -2.616296,0.288571 -2.616296,0.288571 z"
       fill="#ffffff"
       id="path30190"
       style="stroke-width:0.179464" />
    <path
       d="m 27.584235,16.146975 c 0,0 2.458168,0.07169 2.815752,0.107542 0.357585,0.03585 1.033222,0.623743 0.943376,0.951746 -0.02695,0.09858 -0.131174,0.13622 -0.269536,0.13622 a 2.9666928,2.9591973 0 0 1 -1.013455,-0.288571 0.56243177,0.56101075 0 0 0 -0.210238,-0.02509 c -0.648683,0 -2.406058,0.313664 -2.406058,0.313664 l 0.140159,-1.195508 m -0.159925,-0.179237 -0.01977,0.163106 -0.140159,1.193716 -0.02875,0.240177 0.238988,-0.04123 c 0.01797,0 1.750187,-0.311871 2.375511,-0.311871 a 0.65048019,0.64883671 0 0 1 0.138362,0 3.0655227,3.0577774 0 0 0 1.078144,0.304702 c 0.321646,0 0.416882,-0.168483 0.443835,-0.268855 a 0.62172968,0.62015884 0 0 0 -0.134768,-0.50724 c -0.204847,-0.297533 -0.641495,-0.638082 -0.964938,-0.670345 -0.359382,-0.03585 -2.727705,-0.103957 -2.828331,-0.107542 h -0.165316 z"
       fill="#231f20"
       id="path30192"
       style="stroke-width:0.179464" />
    <path
       d="m 19.350809,32.769383 a 0.0826577,0.08244886 0 0 1 -0.05211,-0.01792 0.08984533,0.08961833 0 0 1 -0.01977,-0.125466 c 0.03055,-0.04122 3.018803,-4.152913 0.406101,-6.348562 -2.177848,-1.83001 -7.343954,-2.204615 -10.4885407,0.07527 -2.5138723,1.815668 -3.1499772,5.991882 -3.1571649,6.034899 a 0.09085077,0.09062123 0 1 1 -0.1796906,-0.02689 13.038354,13.005412 0 0 1 0.6432925,-2.367716 c 0.4384453,-1.188339 1.2452563,-2.810431 2.5893425,-3.785478 2.6216862,-1.901701 7.9854532,-2.353378 10.7077662,-0.06632 2.722314,2.28706 -0.346803,6.549308 -0.37735,6.590532 a 0.08804842,0.08782596 0 0 1 -0.07188,0.03764 z"
       fill="#231f20"
       id="path30194"
       style="stroke-width:0.179464" />
    <path
       d="m 24.32824,30.485908 h -3.512953 a 0.08984533,0.08961833 0 0 1 -0.08985,-0.08962 0.08984533,0.08961833 0 0 1 0.08985,-0.08962 h 3.512953 a 0.08984533,0.08961833 0 0 1 0.08985,0.08962 0.08984533,0.08961833 0 0 1 -0.08985,0.08962 z"
       fill="#231f20"
       id="path30196"
       style="stroke-width:0.179464" />
    <path
       d="M 31.806965,34.475716 H 21.702959 a 0.09164224,0.0914107 0 0 1 -0.08985,-0.08962 0.08984533,0.08961833 0 0 1 0.08985,-0.08962 h 10.104006 c 0.47618,0 1.367446,-0.896183 2.335979,-2.351585 1.491432,-2.260174 2.758251,-5.24088 2.294649,-6.321677 -0.402507,-0.935615 -1.078144,-1.394461 -1.746593,-1.838968 -0.668449,-0.444507 -1.274007,-0.853167 -1.617216,-1.68124 a 4.078978,4.0686722 0 0 1 -0.102423,-3.057777 0.08984533,0.08961833 0 1 1 0.163518,0.07349 3.981945,3.9718844 0 0 0 0.104221,2.914388 c 0.327037,0.779679 0.92361,1.179377 1.556121,1.604168 0.682824,0.457053 1.389009,0.93203 1.811282,1.914247 0.506727,1.179378 -0.812202,4.224608 -2.310822,6.491952 -0.495946,0.731286 -1.705265,2.432242 -2.488716,2.432242 z"
       fill="#231f20"
       id="path30198"
       style="stroke-width:0.179464" />
    <path
       d="m 32.171737,35.891685 c -0.179691,0 -0.40071,0 -0.65048,-0.01075 -0.337819,0 -0.758295,-0.01972 -1.257835,-0.01972 h -4.713286 a 0.08984533,0.08961833 0 0 1 -0.08984,-0.08962 0.09164224,0.0914107 0 0 1 0.08984,-0.08962 h 4.704302 c 0.508524,0 0.930797,0.01075 1.270413,0.01972 1.57409,0.03943 1.667529,0.04122 2.555201,-1.096928 1.09791,-1.407008 3.304511,-6.511668 3.327871,-6.563646 a 0.08984533,0.08961833 0 1 1 0.163518,0.07169 c -0.08984,0.209707 -2.238945,5.176355 -3.349433,6.601286 -0.794233,1.021649 -1.036816,1.177585 -2.050271,1.177585 z"
       fill="#231f20"
       id="path30200"
       style="stroke-width:0.179464" />
    <path
       d="m 25.765765,30.127434 c 0,0 -0.774467,1.598791 -0.319849,1.706333 0.454617,0.107542 6.231672,0.725909 5.773461,0.112919 -0.458212,-0.612989 -2.530045,-1.819252 -2.530045,-1.819252 z"
       fill="#ffffff"
       id="path30202"
       style="stroke-width:0.179464" />
    <path
       d="m 30.042403,32.294406 a 41.005409,40.901806 0 0 1 -4.61805,-0.374605 0.24797311,0.24734659 0 0 1 -0.179691,-0.139805 c -0.17969,-0.390736 0.368366,-1.559359 0.431258,-1.691994 a 0.09164224,0.0914107 0 0 1 0.08086,-0.05019 h 2.923567 a 0.0808608,0.0806565 0 0 1 0.04492,0.01255 c 0.08446,0.04839 2.0916,1.222394 2.556998,1.842552 a 0.17969066,0.17923666 0 0 1 0.01797,0.206123 c -0.08985,0.141597 -0.585791,0.195368 -1.257834,0.195368 z m -4.222731,-2.084523 c -0.224613,0.474977 -0.517509,1.254657 -0.407898,1.485872 a 0.07007936,0.0699023 0 0 0 0.05031,0.04302 c 0.62173,0.146974 5.453611,0.602235 5.6926,0.256308 -0.429461,-0.56101 -2.276681,-1.657939 -2.494106,-1.792366 z"
       fill="#231f20"
       id="path30204"
       style="stroke-width:0.179464" />
    <path
       d="m 24.028156,10.635448 -0.327037,4.839389 4.425781,0.179237 0.179691,2.238666 c 0,0 -6.021434,0.268855 -7.270284,-0.754586 -1.24885,-1.023442 -0.429461,-6.009806 0.247973,-6.715998 0.677434,-0.7061925 2.848097,-1.304843 2.743876,0.213292 z"
       fill="#68e1fd"
       id="path30206"
       style="stroke-width:0.179464;fill:#97aaf2;fill-opacity:1" />
    <path
       d="m 15.128078,28.43544 h -5.096027 a 0.08984533,0.08961833 0 1 1 0,-0.179236 h 5.096027 a 0.08984533,0.08961833 0 0 1 0,0.179236 z"
       fill="#231f20"
       id="path30208"
       style="stroke-width:0.179464" />
    <path
       d="M 14.684242,29.107578 H 9.588215 a 0.0898455,0.0896185 0 0 1 0,-0.179237 h 5.096027 a 0.0898455,0.0896185 0 1 1 0,0.179237 z"
       fill="#231f20"
       id="path30210"
       style="stroke-width:0.179464" />
    <path
       d="M 14.238609,29.779715 H 9.1425821 a 0.09164224,0.0914107 0 0 1 -0.089845,-0.08962 0.08984533,0.08961833 0 0 1 0.089845,-0.08962 h 5.0960269 a 0.08984533,0.08961833 0 0 1 0.08985,0.08962 0.08984533,0.08961833 0 0 1 -0.08985,0.08962 z"
       fill="#231f20"
       id="path30212"
       style="stroke-width:0.179464" />
    <path
       d="M 13.794773,30.451853 H 8.6987462 a 0.08984533,0.08961833 0 0 1 -0.089845,-0.08962 0.08984533,0.08961833 0 0 1 0.089845,-0.08962 h 5.0960268 a 0.08984533,0.08961833 0 0 1 0.08985,0.08962 0.08984533,0.08961833 0 0 1 -0.08985,0.08962 z"
       fill="#231f20"
       id="path30214"
       style="stroke-width:0.179464" />
    <path
       d="m 30.84562,20.398468 a 0.08804842,0.08782596 0 0 1 -0.07906,-0.0466 0.08984533,0.08961833 0 0 1 0.03414,-0.121881 l 2.673797,-1.493041 a 0.09164224,0.0914107 0 0 1 0.12219,0.03406 0.08984533,0.08961833 0 0 1 -0.03594,0.12188 l -2.672,1.493042 a 0.07906389,0.07886413 0 0 1 -0.04313,0.01255 z"
       fill="#231f20"
       id="path30216"
       style="stroke-width:0.179464" />
    <ellipse
       cx="30.32272"
       cy="17.208055"
       fill="#231f20"
       id="circle30218"
       rx="0.6019637"
       ry="0.60044277"
       style="stroke-width:0.179464" />
    <path
       d="m 26.996646,15.691714 v 0 l -3.295527,-0.132635 a 0.08625152,0.0860336 0 0 1 -0.06289,-0.02868 0.09523605,0.09499543 0 0 1 -0.02336,-0.06452 l 0.300083,-5.197864 a 0.09000695,0.08977954 0 1 1 0.179691,0.01075 l -0.294693,5.115414 3.203885,0.127258 a 0.09164224,0.0914107 0 0 1 0.08625,0.0932 0.08984533,0.08961833 0 0 1 -0.09344,0.07707 z"
       fill="#231f20"
       id="path30220"
       style="stroke-width:0.179464" />
    <path
       d="m 24.831374,18.014621 c -1.608232,0 -3.442873,-0.157728 -3.879522,-0.833451 -0.718762,-1.111267 -0.677433,-4.339319 -0.663058,-5.556336 0,-0.116504 0,-0.209707 0,-0.276025 a 0.08984533,0.08961833 0 1 1 0.17969,0 c 0,0.06632 0,0.161313 0,0.277817 -0.01258,1.086174 -0.05031,4.389506 0.636105,5.455964 0.300084,0.466016 1.482448,0.716947 3.414123,0.747417 1.482448,0.01792 2.891223,-0.111127 2.905598,-0.112919 a 0.09020855,0.08998062 0 1 1 0.01617,0.179237 c -0.09344,0.01075 -1.270413,0.118296 -2.609108,0.118296 z"
       fill="#231f20"
       id="path30222"
       style="stroke-width:0.179464" />
    <path
       d="m 26.107177,9.1155206 c 0,0 -3.103257,-1.5719055 -3.387169,-1.1560764 a 7.2864563,7.2680466 0 0 0 -0.55165,1.0180642 c 0,0 3.132008,1.5647356 3.640533,1.1381526 a 0.92360999,0.92127643 0 0 0 0.298286,-1.0001404 z"
       fill="#68e1fd"
       id="path30224"
       style="stroke-width:0.179464;fill:#97aaf2;fill-opacity:1" />
    <path
       d="m 25.609434,23.440115 c -1.744796,0 -6.109482,-0.03405 -7.694354,-0.358474 -1.730421,-0.358473 -1.710655,-0.865713 -1.699873,-1.109475 0,-0.02151 0,-0.04839 0,-0.05736 a 0.08984533,0.08961833 0 0 1 0.04133,-0.118297 0.09343914,0.09320306 0 0 1 0.12219,0.04302 0.30188031,0.30111759 0 0 1 0.01617,0.139805 c 0,0.179236 -0.02516,0.596858 1.556121,0.926653 1.940659,0.405075 8.321475,0.358474 8.386163,0.358474 a 0.08804842,0.08782596 0 0 1 0.08985,0.08962 0.08984533,0.08961833 0 0 1 -0.08985,0.08962 z"
       fill="#ffffff"
       id="path30226"
       style="stroke-width:0.179464" />
  </g>
</svg>
