<?xml version="1.0" encoding="UTF-8" standalone="no"?>
<!-- Created with Inkscape (http://www.inkscape.org/) -->

<svg
   width="186"
   height="159.99998"
   viewBox="0 0 49.212498 42.333329"
   version="1.1"
   id="svg5"
   inkscape:version="1.2 (dc2aedaf03, 2022-05-15)"
   sodipodi:docname="bgnd-virtual.svg"
   xmlns:inkscape="http://www.inkscape.org/namespaces/inkscape"
   xmlns:sodipodi="http://sodipodi.sourceforge.net/DTD/sodipodi-0.dtd"
   xmlns:xlink="http://www.w3.org/1999/xlink"
   xmlns="http://www.w3.org/2000/svg"
   xmlns:svg="http://www.w3.org/2000/svg">
  <sodipodi:namedview
     id="namedview7"
     pagecolor="#505050"
     bordercolor="#eeeeee"
     borderopacity="1"
     inkscape:showpageshadow="0"
     inkscape:pageopacity="0"
     inkscape:pagecheckerboard="0"
     inkscape:deskcolor="#505050"
     inkscape:document-units="px"
     showgrid="false"
     inkscape:zoom="2"
     inkscape:cx="124.5"
     inkscape:cy="76.25"
     inkscape:window-width="1366"
     inkscape:window-height="699"
     inkscape:window-x="0"
     inkscape:window-y="0"
     inkscape:window-maximized="1"
     inkscape:current-layer="layer1" />
  <defs
     id="defs2">
    <linearGradient
       id="linear-gradient"
       x1="104.12"
       y1="230.53999"
       x2="151.94"
       y2="193.21001"
       gradientUnits="userSpaceOnUse">
      <stop
         offset="0"
         stop-color="#fff"
         stop-opacity="0"
         id="stop6669" />
      <stop
         offset="0.98"
         stop-color="#0800bf"
         id="stop6671" />
    </linearGradient>
    <linearGradient
       id="linear-gradient-2"
       x1="83.230003"
       y1="179.7"
       x2="129.78999"
       y2="132.33"
       xlink:href="#linear-gradient" />
    <linearGradient
       id="linear-gradient-3"
       x1="175.78"
       y1="221.98"
       x2="199.13"
       y2="151.92"
       xlink:href="#linear-gradient" />
    <linearGradient
       id="linear-gradient-4"
       x1="253.03"
       y1="255.50999"
       x2="276.60001"
       y2="236.50999"
       xlink:href="#linear-gradient" />
    <linearGradient
       id="linear-gradient-36"
       x1="183.83"
       y1="264.73001"
       x2="185.89999"
       y2="304.51999"
       gradientUnits="userSpaceOnUse">
      <stop
         offset="0.01"
         id="stop18633" />
      <stop
         offset="0.08"
         stop-opacity="0.69"
         id="stop18635" />
      <stop
         offset="0.21"
         stop-opacity="0.32"
         id="stop18637" />
      <stop
         offset="1"
         stop-opacity="0"
         id="stop18639" />
    </linearGradient>
    <linearGradient
       id="linear-gradient-2-7"
       x1="198.78999"
       y1="115.83"
       x2="207.47"
       y2="258.13"
       xlink:href="#linear-gradient-36" />
    <linearGradient
       id="linear-gradient-3-5"
       x1="2316.74"
       y1="-609.72998"
       x2="2301.1799"
       y2="-592.25"
       gradientTransform="matrix(-0.82,0.58,0.58,0.82,2373.07,-750.08)"
       xlink:href="#linear-gradient-36" />
    <linearGradient
       id="linear-gradient-4-3"
       x1="4330.77"
       y1="2142.8401"
       x2="4507.3301"
       y2="2228.49"
       gradientTransform="rotate(-142.1,1925.8456,1863.0268)"
       gradientUnits="userSpaceOnUse">
      <stop
         offset="0.01"
         id="stop18644" />
      <stop
         offset="0.08"
         stop-opacity="0.69"
         id="stop18646" />
      <stop
         offset="0.21"
         stop-opacity="0.32"
         id="stop18648" />
      <stop
         offset="1"
         stop-opacity="0"
         id="stop18650" />
    </linearGradient>
    <linearGradient
       id="linear-gradient-5"
       x1="151.05"
       y1="89.309998"
       x2="160.05"
       y2="133.45"
       xlink:href="#linear-gradient-4-3" />
    <linearGradient
       id="linear-gradient-6"
       x1="2290.73"
       y1="-591.78003"
       x2="2325.28"
       y2="-589.91998"
       gradientTransform="matrix(-0.82,0.58,0.58,0.82,2373.07,-750.08)"
       xlink:href="#linear-gradient-36" />
    <linearGradient
       id="linear-gradient-7"
       x1="169.8"
       y1="127.82"
       x2="168.28999"
       y2="306.51999"
       xlink:href="#linear-gradient-4-3" />
    <linearGradient
       id="linear-gradient-8"
       x1="163.48"
       y1="158.08"
       x2="90.669998"
       y2="199.84"
       xlink:href="#linear-gradient-4-3" />
    <linearGradient
       id="linear-gradient-9"
       x1="130.94"
       y1="144.46001"
       x2="3.3"
       y2="217.66"
       xlink:href="#linear-gradient-4-3" />
    <linearGradient
       id="linear-gradient-10"
       x1="287.37"
       y1="96.879997"
       x2="352.62"
       y2="250.07001"
       xlink:href="#linear-gradient-4-3" />
    <linearGradient
       id="linear-gradient-11"
       x1="169.38"
       y1="134.78"
       x2="406.73001"
       y2="301.17999"
       xlink:href="#linear-gradient-4-3" />
    <linearGradient
       id="linear-gradient-12"
       x1="199.17"
       y1="253.11"
       x2="243.94"
       y2="12.38"
       xlink:href="#linear-gradient-4-3" />
    <linearGradient
       id="linear-gradient-13"
       x1="171.77"
       y1="88.489998"
       x2="165.00999"
       y2="385.82001"
       xlink:href="#linear-gradient-4-3" />
    <linearGradient
       id="linear-gradient-14"
       x1="144.75999"
       y1="213.89"
       x2="232.33"
       y2="309.06"
       xlink:href="#linear-gradient-4-3" />
    <linearGradient
       id="linear-gradient-15"
       x1="163.53"
       y1="235.49001"
       x2="213.67"
       y2="305.67999"
       xlink:href="#linear-gradient-36" />
    <linearGradient
       id="linear-gradient-56"
       x1="401.64999"
       y1="531.53998"
       x2="412.84"
       y2="766.45001"
       gradientUnits="userSpaceOnUse">
      <stop
         offset="0"
         stop-opacity="0"
         id="stop25096" />
      <stop
         offset="0.97"
         id="stop25098" />
    </linearGradient>
    <linearGradient
       id="linear-gradient-2-2"
       x1="343.73001"
       y1="-19.889999"
       x2="352.92999"
       y2="557.12"
       gradientUnits="userSpaceOnUse">
      <stop
         offset="0"
         stop-color="#fff"
         id="stop25101" />
      <stop
         offset="1"
         stop-color="#fff"
         stop-opacity="0"
         id="stop25103" />
    </linearGradient>
    <linearGradient
       id="linear-gradient-3-9"
       x1="347.72"
       y1="229.94"
       x2="317.85001"
       y2="238.37"
       gradientUnits="userSpaceOnUse">
      <stop
         offset="0"
         stop-color="#ecc4d7"
         id="stop25106" />
      <stop
         offset="0.42"
         stop-color="#efd4d1"
         id="stop25108" />
      <stop
         offset="1"
         stop-color="#f2eac9"
         id="stop25110" />
    </linearGradient>
    <linearGradient
       id="linear-gradient-4-1"
       x1="187.08"
       y1="72.580002"
       x2="175.47"
       y2="306.81"
       xlink:href="#linear-gradient-2-2"
       gradientTransform="matrix(0.07042241,0,0,0.07082251,0.0012942,2.944882e-4)" />
    <linearGradient
       id="linear-gradient-5-2"
       x1="254.98"
       y1="145.35001"
       x2="260.59"
       y2="145.35001"
       xlink:href="#linear-gradient-3-9"
       gradientTransform="matrix(0.07042241,0,0,0.07082251,-3.7430653,2.944882e-4)" />
    <linearGradient
       id="linear-gradient-6-7"
       x1="211.53"
       y1="146.59"
       x2="219.07001"
       y2="146.59"
       xlink:href="#linear-gradient-3-9"
       gradientTransform="matrix(0.07042241,0,0,0.07082251,-3.7430653,2.944882e-4)" />
    <linearGradient
       id="linear-gradient-7-0"
       x1="215.55"
       y1="147.28999"
       x2="214.69"
       y2="151.2"
       xlink:href="#linear-gradient-3-9"
       gradientTransform="matrix(0.07042241,0,0,0.07082251,-3.7430653,2.944882e-4)" />
    <linearGradient
       id="linear-gradient-8-9"
       x1="1035.91"
       y1="145.99001"
       x2="1035.0601"
       y2="149.89999"
       gradientTransform="matrix(-0.07042241,0,0,0.07082251,87.294097,2.944882e-4)"
       xlink:href="#linear-gradient-3-9" />
    <linearGradient
       id="linear-gradient-9-3"
       x1="344.60999"
       y1="225.28999"
       x2="482.94"
       y2="225.28999"
       xlink:href="#linear-gradient-3-9"
       gradientTransform="matrix(0.07042241,0,0,0.07082251,-3.7430653,2.944882e-4)" />
    <linearGradient
       id="linear-gradient-10-6"
       x1="410.39999"
       y1="309.41"
       x2="407.64001"
       y2="637.46997"
       xlink:href="#linear-gradient-56"
       gradientTransform="matrix(0.07042241,0,0,0.07082251,-3.7430653,2.944882e-4)" />
    <linearGradient
       id="linear-gradient-11-0"
       x1="543.37"
       y1="340.22"
       x2="513.15002"
       y2="518.27002"
       xlink:href="#linear-gradient-56" />
    <linearGradient
       id="linear-gradient-12-6"
       x1="532.19"
       y1="250.07001"
       x2="645.19"
       y2="250.07001"
       xlink:href="#linear-gradient-3-9"
       gradientTransform="matrix(0.07042241,0,0,0.07082251,-3.7430653,2.944882e-4)" />
    <linearGradient
       id="linear-gradient-13-2"
       x1="234"
       y1="169.8"
       x2="237.72"
       y2="186.95"
       xlink:href="#linear-gradient-3-9"
       gradientTransform="matrix(0.07042241,0,0,0.07082251,-3.7430653,2.944882e-4)" />
    <linearGradient
       id="linear-gradient-14-6"
       x1="225.86"
       y1="118.14"
       x2="245.00999"
       y2="153.58"
       xlink:href="#linear-gradient-3-9"
       gradientTransform="matrix(0.07042241,0,0,0.07082251,-3.7430653,2.944882e-4)" />
    <linearGradient
       id="linear-gradient-15-1"
       x1="485.39001"
       y1="284.89001"
       x2="396.04999"
       y2="582.01001"
       gradientUnits="userSpaceOnUse"
       gradientTransform="matrix(0.07042241,0,0,0.07082251,-3.7430653,2.944882e-4)">
      <stop
         offset="0"
         stop-color="#fff"
         id="stop25124" />
      <stop
         offset="0.89"
         stop-color="#fff"
         stop-opacity="0"
         id="stop25126" />
    </linearGradient>
    <linearGradient
       id="linear-gradient-16"
       x1="344.73999"
       y1="399.82001"
       x2="343.79999"
       y2="636.59003"
       xlink:href="#linear-gradient-56" />
    <linearGradient
       id="linear-gradient-17"
       x1="349.95001"
       y1="295.39999"
       x2="344.35999"
       y2="551.75"
       gradientUnits="userSpaceOnUse">
      <stop
         offset="0"
         stop-color="#fff"
         id="stop25130" />
      <stop
         offset="0.6"
         stop-color="#fff"
         stop-opacity="0.48"
         id="stop25132" />
      <stop
         offset="0.87"
         stop-color="#fff"
         stop-opacity="0.13"
         id="stop25134" />
      <stop
         offset="1"
         stop-color="#fff"
         stop-opacity="0"
         id="stop25136" />
    </linearGradient>
    <linearGradient
       id="linear-gradient-18"
       x1="348.28"
       y1="399.82999"
       x2="347.35001"
       y2="636.60999"
       xlink:href="#linear-gradient-56" />
    <linearGradient
       id="linear-gradient-19"
       x1="353.64999"
       y1="306.57001"
       x2="348.04999"
       y2="562.92999"
       xlink:href="#linear-gradient-2-2" />
    <linearGradient
       id="linear-gradient-20"
       x1="359.04999"
       y1="455.76001"
       x2="348.79001"
       y2="798.79999"
       xlink:href="#linear-gradient-56" />
    <linearGradient
       id="linear-gradient-21"
       x1="1368"
       y1="235.8"
       x2="1338.13"
       y2="244.23"
       gradientTransform="matrix(-0.07042241,0,0,0.07082251,125.9722,2.944882e-4)"
       xlink:href="#linear-gradient-3-9" />
    <linearGradient
       id="linear-gradient-22"
       x1="394.51999"
       y1="313.84"
       x2="371.37"
       y2="464.32999"
       xlink:href="#linear-gradient-3-9"
       gradientTransform="matrix(0.07042241,0,0,0.07082251,-3.7430653,2.944882e-4)" />
    <linearGradient
       id="linear-gradient-23"
       x1="593.46002"
       y1="245.74001"
       x2="660.04999"
       y2="341.20999"
       xlink:href="#linear-gradient-3-9"
       gradientTransform="matrix(0.07042241,0,0,0.07082251,-3.7430653,2.944882e-4)" />
    <linearGradient
       inkscape:collect="always"
       xlink:href="#linear-gradient-56"
       id="linearGradient25953"
       gradientUnits="userSpaceOnUse"
       x1="401.64999"
       y1="531.53998"
       x2="412.84"
       y2="766.45001"
       gradientTransform="matrix(0.07042241,0,0,0.07082251,-3.7430653,2.944882e-4)" />
    <linearGradient
       inkscape:collect="always"
       xlink:href="#linear-gradient-2-2"
       id="linearGradient25955"
       gradientUnits="userSpaceOnUse"
       x1="343.73001"
       y1="-19.889999"
       x2="352.92999"
       y2="557.12"
       gradientTransform="matrix(0.07042241,0,0,0.07082251,0.0012942,2.944882e-4)" />
    <linearGradient
       inkscape:collect="always"
       xlink:href="#linear-gradient-3-9"
       id="linearGradient25957"
       gradientUnits="userSpaceOnUse"
       x1="347.72"
       y1="229.94"
       x2="317.85001"
       y2="238.37"
       gradientTransform="matrix(0.07042241,0,0,0.07082251,-3.7430653,2.944882e-4)" />
  </defs>
  <g
     inkscape:label="Layer 1"
     inkscape:groupmode="layer"
     id="layer1">
    <path
       d="m 3.8139635,33.61195 c 0,0 -4.64154103,-2.31448 -3.68379625,-8.289067 C 1.087912,19.348296 10.482262,14.138592 14.170283,10.231314 17.858305,6.3240364 21.679425,-0.39277044 31.559689,0.01800012 c 9.880264,0.41077055 9.747166,7.07162758 14.381664,9.49942328 4.634499,2.4277956 0.272535,10.8641726 0.681689,12.8840306 0.409155,2.019858 5.639427,8.123342 -0.656337,12.338698 C 39.670942,38.955508 3.8139635,33.61195 3.8139635,33.61195 Z"
       fill="#68e1fd"
       opacity="0.18"
       id="path25149"
       style="stroke-width:0.0706222;fill:#97aaf2;fill-opacity:1" />
    <path
       d="m 0.13016725,39.512881 v 1.770563 c 0,0 0.22394326,1.108372 2.27746075,1.047465 2.0535175,-0.06091 45.470342,0 45.470342,0 0,0 1.111265,-0.182014 1.333096,-1.092792 v -1.725236 z"
       fill="#68e1fd"
       id="path25151"
       style="stroke-width:0.0706222;fill:#97aaf2;fill-opacity:1" />
    <path
       d="m 0.13016725,39.512881 v 1.770563 c 0,0 0.22394326,1.108372 2.27746075,1.047465 2.0535175,-0.06091 45.470342,0 45.470342,0 0,0 1.111265,-0.182014 1.333096,-1.092792 v -1.725236 z"
       fill="url(#linear-gradient)"
       style="isolation:isolate;fill:url(#linearGradient25953);stroke-width:0.0706222"
       id="path25153" />
    <path
       d="M 42.973049,30.675648 H 5.7569178 c -0.8816886,0 -1.596476,-0.71814 -1.596476,-1.535432 V 6.2432987 c 0,-0.9561038 0.7147874,-1.6749523 1.596476,-1.6749523 H 42.973049 a 1.596476,1.6055463 0 0 1 1.593659,1.6055463 V 29.07081 a 1.5957718,1.6048381 0 0 1 -1.593659,1.604838 z"
       fill="#68e1fd"
       id="path25155"
       style="stroke-width:0.0706222;fill:#97aaf2;fill-opacity:1" />
    <rect
       x="5.0991726"
       y="5.5124106"
       width="38.515423"
       height="23.743246"
       rx="1.4859129"
       fill="#68e1fd"
       id="rect25157"
       style="stroke-width:0.0706222;fill:#97aaf2;fill-opacity:1" />
    <rect
       x="5.2477636"
       y="5.5124106"
       width="38.515423"
       height="23.743246"
       rx="1.4859129"
       fill="url(#linear-gradient-2)"
       id="rect25159"
       style="fill:url(#linearGradient25955);stroke-width:0.0706222" />
    <path
       d="m 20.632948,15.717934 c 0,0 -0.469718,-0.588535 -0.852816,-0.102693 -0.383098,0.485843 0.18662,1.638833 1.090139,1.659372 0.90352,0.02054 -0.237323,-1.556679 -0.237323,-1.556679 z"
       fill="url(#linear-gradient-3)"
       id="path25161"
       style="fill:url(#linearGradient25957);stroke-width:0.0706222" />
    <rect
       x="7.5724077"
       y="7.4274511"
       width="10.567587"
       height="8.410881"
       fill="url(#linear-gradient-4)"
       id="rect25163"
       style="fill:url(#linear-gradient-4-1);stroke-width:0.0706222" />
    <path
       d="m 14.601973,10.092502 a 0.29859102,0.30028744 0 0 1 -0.0063,0.145895 0.56337928,0.56658008 0 0 1 -0.111971,0.236547 0.31197128,0.31374372 0 0 1 -0.228873,0.113316 0.03943655,0.03966061 0 0 1 -0.0331,-0.01204 0.04154922,0.04178528 0 0 1 -0.007,-0.02337 c -0.0056,-0.131729 -0.01197,-0.331449 0.07042,-0.441932 0.07606,-0.0949 0.27183,-0.1841385 0.316901,-0.01841 z"
       fill="url(#linear-gradient-5)"
       id="path25165"
       style="fill:url(#linear-gradient-5-2);stroke-width:0.0706222" />
    <path
       d="m 11.256908,10.08542 a 0.21126723,0.21246753 0 0 0 -0.103521,0.189096 0.33380222,0.3356987 0 0 0 0.07042,0.218842 0.59788626,0.60128311 0 0 0 0.150704,0.125355 0.45352032,0.45609696 0 0 0 0.230986,0.09136 0.0760562,0.07648831 0 0 0 0.06338,-0.02337 0.08028155,0.08073766 0 0 0 0.01338,-0.04958 c 0.0085,-0.203969 -0.09577,-0.7124742 -0.425351,-0.551707 z"
       fill="url(#linear-gradient-6)"
       id="path25167"
       style="fill:url(#linear-gradient-6-7);stroke-width:0.0706222" />
    <path
       d="m 11.556907,10.442365 a 0.14507016,0.14589437 0 0 1 -0.140844,-0.0602 c -0.05211,-0.07507 -0.07042,-0.166433 -0.140845,-0.126064 -0.07042,0.04037 -0.02465,0.194054 0.03521,0.278333 0.05986,0.08428 0.257746,0.148019 0.291549,0.09065 0.0338,-0.05737 -0.04507,-0.182722 -0.04507,-0.182722 z"
       fill="url(#linear-gradient-7)"
       id="path25169"
       style="fill:url(#linear-gradient-7-0);stroke-width:0.0706222" />
    <path
       d="m 14.222396,10.350296 a 0.14084482,0.14164502 0 0 0 0.137323,-0.0602 c 0.05282,-0.07507 0.07042,-0.166433 0.140845,-0.125356 0.07042,0.04108 0.02535,0.193346 -0.03521,0.277624 -0.06056,0.08428 -0.257042,0.148728 -0.290845,0.09065 -0.0338,-0.05807 0.04789,-0.182722 0.04789,-0.182722 z"
       fill="url(#linear-gradient-8)"
       id="path25171"
       style="fill:url(#linear-gradient-8-9);stroke-width:0.0706222" />
    <path
       d="m 14.48648,29.255657 h 0.128169 c -0.07394,0.144478 -0.128169,0 -0.128169,0 z"
       fill="none"
       stroke="#6c62ff"
       stroke-miterlimit="10"
       stroke-width="0.0522604"
       id="path25173" />
    <path
       d="m 27.077302,21.03458 c 0,0 -0.135915,0.708225 0.688027,1.312341 -0.199999,0.291081 -0.739435,0.84987 -1.657743,1.106956 v 0 a 3.8281622,3.8499116 0 0 1 -1.253519,0.126064 c -0.721126,-0.04108 -1.356336,-0.350571 -1.864081,-0.715307 l -0.07958,-0.05878 A 5.9253416,5.959006 0 0 1 21.85407,21.774678 c 0.607041,-0.386691 1.114787,-0.898737 0.581689,-1.352002 a 0.0556337,0.05594978 0 0 0 -0.01056,-0.0085 0.14859129,0.1494355 0 0 0 -0.0162,-0.01346 l -0.0099,-0.0085 c -2.028166,-1.577218 -1.868307,-7.011429 -1.868307,-7.011429 2.056335,-7.8612983 7.117593,-4.314507 8.209141,-3.8952377 1.091547,0.4192692 1.870419,3.0170387 1.378166,5.8938497 -0.572534,3.329366 -3.04084,5.655177 -3.04084,5.655177 z"
       fill="url(#linear-gradient-9)"
       id="path25175"
       style="fill:url(#linear-gradient-9-3);stroke-width:0.0706222" />
    <path
       d="M 36.097005,29.255657 H 14.61817 c 0.07042,-0.134563 0.156337,-0.521254 0.233802,-1.514894 0.344366,-4.43278 5.804919,-5.360555 5.804919,-5.360555 a 8.2189995,8.2656951 0 0 0 0.795069,-0.370402 l 0.840844,0.991515 c 0.236619,0.278333 0.859153,0.490092 0.859153,0.490092 3.214079,1.577925 4.617598,-0.302412 4.975344,-0.924234 1.210561,0.628904 4.278161,1.596339 5.964778,2.878935 1.852109,1.405827 2.004926,3.809543 2.004926,3.809543 z"
       fill="#68e1fd"
       id="path25177"
       style="stroke-width:0.0706222;fill:#97aaf2;fill-opacity:1" />
    <polygon
       points="502.59,413.08 513.58,310.88 561.12,310.88 565.62,413.99 "
       fill="#68e1fd"
       id="polygon25179"
       transform="matrix(0.07042241,0,0,0.07082251,0.0012942,2.944882e-4)"
       style="fill:#97aaf2;fill-opacity:1" />
    <path
       d="m 35.594893,27.388067 -0.199295,1.86759 H 14.614649 c 0.07042,-0.134563 0.156337,-0.521254 0.233802,-1.514894 0.347887,-4.43278 5.80844,-5.360555 5.80844,-5.360555 a 8.2189995,8.2656951 0 0 0 0.795069,-0.370402 l 0.840844,0.991515 c 0.236619,0.278333 0.859153,0.490092 0.859153,0.490092 3.214079,1.577925 4.617598,-0.302412 4.975344,-0.924234 1.210561,0.628904 4.278161,1.596339 5.964778,2.878935 a 4.9105546,4.9384536 0 0 1 1.502814,1.941953 z"
       fill="url(#linear-gradient-10)"
       style="isolation:isolate;fill:url(#linear-gradient-10-6);stroke-width:0.0706222"
       id="path25181" />
    <polygon
       points="502.6,413.08 505.43,386.71 513.58,310.88 561.12,310.88 565.62,413.99 "
       fill="url(#linear-gradient-11)"
       style="isolation:isolate;fill:url(#linear-gradient-11-0)"
       id="polygon25183"
       transform="matrix(0.07042241,0,0,0.07082251,0.0012942,2.944882e-4)" />
    <path
       d="m 41.660375,16.445281 c -0.05423,0.152269 -0.371126,0.669273 -0.658449,1.176362 v 0 c -0.248592,0.439808 -0.473239,0.871117 -0.483098,1.050298 -0.02042,0.383858 -0.52676,2.071558 -1.086618,2.58573 -0.34507,0.317285 -0.187324,0.759217 -0.187324,0.759217 l -0.716195,0.02337 -2.183095,0.07082 c 0,0 0.177464,-0.337115 -0.07747,-0.473802 -0.254929,-0.136688 -2.535207,-2.930636 -2.535207,-2.930636 0,0 0.165493,-0.819416 1.146477,-0.272667 0.980984,0.54675 1.14366,0.986558 1.387322,0.940523 0.243661,-0.04603 0.265492,-3.812375 0.265492,-3.812375 0,0 0.05141,-1.721696 0.505633,-2.037564 0.454225,-0.315868 0.373943,1.141659 0.373943,1.141659 l 0.3,1.975948 c 0,0 0.735914,-3.138146 0.957744,-3.279791 0.221831,-0.141645 0.65845,-0.02125 0.549999,0.58287 -0.02535,0.141645 -0.172535,1.703281 -0.172535,1.703281 l -0.121126,1.024094 c 0,0 1.153519,-2.514908 1.364082,-2.596354 0.210563,-0.08145 0.542957,0.01912 0.442253,0.444766 -0.100704,0.425643 -0.607746,2.612642 -0.623239,2.68134 0.04225,-0.05028 1.030984,-1.246476 1.267604,-1.36475 0.236619,-0.118273 0.384506,0.324367 0.283802,0.607657 z"
       fill="url(#linear-gradient-12)"
       id="path25185"
       style="fill:url(#linear-gradient-12-6);stroke-width:0.0706222" />
    <path
       d="m 28.223779,22.380208 c 0,0 -0.39014,1.776936 -2.445066,1.883878 -3.200698,0.167142 -4.457034,-2.411506 -4.457034,-2.411506 l 0.380985,-0.2755 c 0,0 0.05141,0.07578 0.149296,0.198303 0.390844,0.489384 1.517603,1.720279 3.002107,1.808807 1.69718,0.09774 2.63239,-0.828623 2.911262,-1.233728 a 1.1267586,1.1331602 0 0 0 0.06338,-0.101984 z"
       fill="#ffffff"
       id="path25187"
       style="stroke-width:0.0706222" />
    <path
       d="m 8.8555038,15.838332 c 0,0 -0.1359152,-2.236574 1.7211242,-3.187013 1.857039,-0.950438 6.245763,-0.134562 6.021116,3.187013 z"
       fill="#68e1fd"
       id="path25189"
       style="stroke-width:0.0706222;fill:#97aaf2;fill-opacity:1" />
    <path
       d="m 12.091414,11.081184 v 0.659358 a 0.62887212,0.63244501 0 0 1 -0.524647,0.623946 l -0.460563,0.0772 c 0,0 0.663379,1.453278 2.052109,1.068711 1.38873,-0.384566 1.449998,-0.771965 1.449998,-0.771965 L 14.278029,12.62299 a 0.7042241,0.7082251 0 0 1 -0.472534,-0.665731 l -0.0035,-0.876075 z"
       fill="url(#linear-gradient-13)"
       id="path25191"
       style="fill:url(#linear-gradient-13-2);stroke-width:0.0706222" />
    <path
       d="m 11.468175,9.664026 c 0,0 -0.04718,0.951146 0.515492,1.72382 0.609858,0.83783 1.454927,0.991515 2.019715,0 0.16338,-0.28329 0.464788,-1.8045577 0.342957,-2.3307689 C 14.224508,8.5308658 12.211836,7.0322615 11.468175,9.664026 Z"
       fill="url(#linear-gradient-14)"
       id="path25193"
       style="fill:url(#linear-gradient-14-6);stroke-width:0.0706222" />
    <path
       d="m 11.201979,8.9147238 a 0.48168928,0.48442597 0 0 0 0.11338,-0.096319 0.36056274,0.36261125 0 0 0 0.03873,-0.1813056 c 0.03169,-0.4249351 0.404929,-0.7500104 0.797886,-0.9100693 0.704224,-0.2882476 1.578166,-0.1657246 2.14225,0.3541126 0.204225,0.1869714 0.381689,0.424935 0.646477,0.5049645 A 0.32675998,0.32861645 0 0 1 15.09,8.6498476 c 0.08521,0.083571 0.02183,0.2322979 -0.0669,0.3130355 a 0.17183068,0.17280692 0 0 0 -0.05071,0.062324 c -0.02606,0.070823 0.0662,0.1303135 0.140845,0.1543931 A 0.86478719,0.86970042 0 0 1 14.86394,9.4083569 c 0.0493,0.00496 0.06549,0.076488 0.04014,0.1189818 a 0.35211205,0.35411255 0 0 1 -0.11338,0.094194 c -0.12324,0.08782 -0.185211,0.2358389 -0.264084,0.3654441 -0.07887,0.1296052 -0.202817,0.2556692 -0.352113,0.2464622 A 1.4514059,1.4596519 0 0 0 14.065354,9.201555 C 13.378031,9.3878182 12.656906,9.165435 11.968879,8.9763394 a 0.21126723,0.21246753 0 0 0 -0.158451,0 c -0.08803,0.050992 -0.05986,0.1834303 -0.01972,0.276916 -0.08662,0 -0.129577,0.1055256 -0.147183,0.1912208 a 2.3049255,2.3180208 0 0 0 -0.04366,0.3888156 c 0,0.077905 0.05634,0.3364072 0.02042,0.3916482 -0.07042,0.108359 -0.173239,-0.06374 -0.235211,-0.146602 C 11.186486,9.8099203 10.86043,9.1916398 11.201979,8.9147238 Z"
       fill="#3f3d56"
       id="path25195"
       style="stroke-width:0.0706222" />
    <path
       d="m 5.7569178,30.675648 -5.46196211,8.253656 a 0.96267434,0.96814371 0 0 0 0.80140701,1.50427 H 48.249096 a 0.96267434,0.96814371 0 0 0 0.774646,-1.543931 l -6.049285,-8.215411 z"
       fill="#68e1fd"
       id="path25197"
       style="stroke-width:0.0706222;fill:#97aaf2;fill-opacity:1" />
    <path
       d="m 5.7569178,30.675648 -5.46196211,8.253656 a 0.96267434,0.96814371 0 0 0 0.80140701,1.50427 H 48.249096 a 0.96267434,0.96814371 0 0 0 0.774646,-1.543931 l -6.049285,-8.215411 z"
       fill="url(#linear-gradient-15)"
       id="path25199"
       style="fill:url(#linear-gradient-15-1);stroke-width:0.0706222" />
    <polygon
       points="596.45,454.04 92.6,454.04 97.19,444.86 589.57,444.86 "
       fill="url(#linear-gradient-16)"
       style="isolation:isolate;fill:url(#linear-gradient-16)"
       id="polygon25201"
       transform="matrix(0.07042241,0,0,0.07082251,0.0012942,2.944882e-4)" />
    <polygon
       points="606.51,467.48 85.88,467.48 92.6,454.04 596.45,454.04 "
       fill="url(#linear-gradient-17)"
       id="polygon25203"
       style="fill:url(#linear-gradient-17)"
       transform="matrix(0.07042241,0,0,0.07082251,0.0012942,2.944882e-4)" />
    <polygon
       points="617.14,481.69 78.78,481.69 85.88,467.48 606.51,467.48 "
       fill="url(#linear-gradient-18)"
       style="isolation:isolate;fill:url(#linear-gradient-18)"
       id="polygon25205"
       transform="matrix(0.07042241,0,0,0.07082251,0.0012942,2.944882e-4)" />
    <polygon
       points="626.71,494.47 72.39,494.47 78.78,481.69 617.14,481.69 "
       fill="url(#linear-gradient-19)"
       id="polygon25207"
       style="fill:url(#linear-gradient-19)"
       transform="matrix(0.07042241,0,0,0.07082251,0.0012942,2.944882e-4)" />
    <polygon
       points="258.64,503.34 441.22,503.34 466.95,545.55 245.78,545.55 "
       fill="url(#linear-gradient-20)"
       style="isolation:isolate;fill:url(#linear-gradient-20)"
       id="polygon25209"
       transform="matrix(0.07042241,0,0,0.07082251,0.0012942,2.944882e-4)" />
    <path
       d="m 20.159005,8.5995637 c 0.0063,0.126064 0.03662,0.2542528 0.007,0.3774839 a 0.90633642,0.9114857 0 0 1 -0.17676,0.3080779 c -0.764788,1.0375495 -0.801407,2.4270875 -0.807041,3.7181815 0,0.325784 0,0.657941 0.09296,0.96956 0.09225,0.300996 0.269013,0.566581 0.443661,0.828624 0.0838,0.126064 0.764083,0.900154 0.915491,0.916443 0.202817,0.02196 -0.394365,-3.389565 3.656332,-3.71889 0.404929,-0.03329 0.806336,0.01771 1.212674,0.03116 0.24014,0.0078 0.48028,-0.02266 0.720421,-0.01346 0.404929,0.01629 0.795069,0.147311 1.178167,0.276916 0.69366,0.234422 1.431687,0.501423 1.86056,1.09704 l 0.387323,-0.212467 0.05775,1.411493 0.01479,0.338531 0.08662,2.053853 0.890139,-1.350585 c 0.554929,-0.84208 1.130984,-1.881754 0.722534,-2.804572 -0.192957,-0.43485 -0.582393,-0.763466 -0.747886,-1.210356 -0.230281,-0.62253 0.02394,-1.319424 -0.0493,-1.9794896 C 30.483634,8.3509766 29.128003,7.5202286 27.848428,7.3828329 27.563217,7.3523793 27.274485,7.3460052 26.992796,7.2928883 A 5.9718204,6.0057488 0 0 1 26.173079,7.0499671 c -0.551408,-0.1898043 -1.187322,-0.3541125 -1.690138,-0.058074 -0.196479,0.1154407 -0.352112,0.2946216 -0.563379,0.3888156 -0.364789,0.1650164 -0.78521,0.037536 -1.183097,-0.00496 -0.783801,-0.080738 -2.633094,0.090653 -2.57746,1.223813 z"
       fill="#3f3d56"
       id="path25211"
       style="stroke-width:0.0706222" />
    <path
       d="m 29.745608,16.132954 c 0,0 0.469717,-0.588535 0.852111,-0.102693 0.382393,0.485843 -0.18662,1.638833 -1.089435,1.659372 -0.902815,0.02054 0.237324,-1.556679 0.237324,-1.556679 z"
       fill="url(#linear-gradient-21)"
       id="path25213"
       style="fill:url(#linear-gradient-21);stroke-width:0.0706222" />
    <path
       d="m 26.107586,23.453877 v 0 c 0,0 -1.364082,0.701851 -3.1176,-0.589243 l -0.07958,-0.05878 A 6.7105514,6.748677 0 0 1 21.85407,21.774678 c 0.607041,-0.386691 1.114787,-0.898737 0.581689,-1.352002 0.26338,0.212468 1.858448,1.445488 2.92253,1.153699 1.14859,-0.314452 0.757746,1.834303 0.749295,1.877505 z"
       fill="url(#linear-gradient-22)"
       id="path25215"
       style="fill:url(#linear-gradient-22);stroke-width:0.0706222" />
    <path
       d="m 41.001926,17.622351 c -0.248592,0.439808 -0.473239,0.871117 -0.483098,1.050298 -0.02042,0.383858 -0.52676,2.071559 -1.086618,2.58573 -0.34507,0.317285 -0.187324,0.759217 -0.187324,0.759217 l -0.716195,0.02337 -0.07042,-0.0071 c 0,0 0.261971,-1.054548 -0.402112,-1.519851 -0.664083,-0.465304 -1.44718,-0.971685 -1.347885,-1.538265 0.0993,-0.56658 0.624647,-1.821555 1.971828,-1.133161 1.34718,0.688395 2.321827,-0.220258 2.321827,-0.220258 z"
       fill="url(#linear-gradient-23)"
       id="path25217"
       style="fill:url(#linear-gradient-23);stroke-width:0.0706222" />
    <ellipse
       cx="38.850517"
       cy="8.3233557"
       fill="#ffffff"
       id="circle25219"
       rx="0.68168896"
       ry="0.6855619"
       style="stroke-width:0.0706222" />
  </g>
</svg>
