<?xml version="1.0" encoding="UTF-8" standalone="no"?>
<!-- Created with Inkscape (http://www.inkscape.org/) -->

<svg
   width="186"
   height="160"
   viewBox="0 0 49.212498 42.333333"
   version="1.1"
   id="svg5"
   inkscape:version="1.2 (dc2aedaf03, 2022-05-15)"
   sodipodi:docname="bgnd-robot.svg"
   xmlns:inkscape="http://www.inkscape.org/namespaces/inkscape"
   xmlns:sodipodi="http://sodipodi.sourceforge.net/DTD/sodipodi-0.dtd"
   xmlns="http://www.w3.org/2000/svg"
   xmlns:svg="http://www.w3.org/2000/svg">
  <sodipodi:namedview
     id="namedview7"
     pagecolor="#505050"
     bordercolor="#eeeeee"
     borderopacity="1"
     inkscape:showpageshadow="0"
     inkscape:pageopacity="0"
     inkscape:pagecheckerboard="0"
     inkscape:deskcolor="#505050"
     inkscape:document-units="px"
     showgrid="false"
     inkscape:zoom="2.6860138"
     inkscape:cx="124.90628"
     inkscape:cy="83.581105"
     inkscape:window-width="1366"
     inkscape:window-height="699"
     inkscape:window-x="0"
     inkscape:window-y="0"
     inkscape:window-maximized="1"
     inkscape:current-layer="layer1" />
  <defs
     id="defs2" />
  <g
     inkscape:label="Layer 1"
     inkscape:groupmode="layer"
     id="layer1">
    <path
       d="M 26.081107,42.243322 H 14.527761 c 0,0 -1.051437,-8.331884 1.869813,-9.749618 2.92125,-1.417734 8.564492,-0.712465 9.683533,1.712795 1.119042,2.42526 0,8.036823 0,8.036823 z"
       fill="#231f20"
       id="path2772"
       style="stroke-width:0.178909" />
    <path
       d="M 26.081107,42.33328 H 14.527761 a 0.08895401,0.08995772 0 0 1 -0.08718,-0.07916 28.333631,28.653335 0 0 1 -0.153001,-4.355753 c 0.136989,-3.035174 0.837947,-4.881106 2.079745,-5.483823 1.880487,-0.912171 5.02768,-0.976941 7.322694,-0.151129 1.245356,0.451588 2.109989,1.110078 2.480037,1.907104 1.124379,2.421662 0.05337,7.860506 0,8.096195 a 0.08895401,0.08995772 0 0 1 -0.08895,0.06657 z M 14.607819,42.153364 h 11.400346 c 0.124536,-0.663888 1.022971,-5.687127 0,-7.907284 -0.355816,-0.752046 -1.172414,-1.379951 -2.37863,-1.815346 -2.255874,-0.811419 -5.337241,-0.750248 -7.185705,0.143932 -2.689969,1.300789 -1.932081,8.727698 -1.836011,9.578698 z"
       fill="#231f20"
       id="path2774"
       style="stroke-width:0.178909" />
    <path
       d="m 27.710745,30.133213 h 2.490712 c 0,0 2.561876,0.46958 5.191356,3.364419 2.629481,2.89484 3.154309,8.74569 3.154309,8.74569 H 26.093561 c 0,0 -2.376851,-8.508201 -5.51159,-9.454557 -3.13474,-0.946355 -3.974466,0.539747 -4.458375,3.398603 -0.48391,2.858857 0,6.055954 0,6.055954 h -5.451102 c 0,0 0.510596,-5.85085 2.76647,-9.100123 2.255873,-3.249273 5.858511,-3.009986 5.858511,-3.009986 z"
       fill="#68e1fd"
       id="path2776"
       style="stroke-width:0.178909;fill:#97aaf2;fill-opacity:1" />
    <path
       d="M 38.540006,42.33328 H 26.086445 a 0.08895401,0.08995772 0 0 1 -0.0854,-0.06657 c -0.02313,-0.08456 -2.387526,-8.470419 -5.438648,-9.391586 -1.272043,-0.38322 -2.20606,-0.372425 -2.857203,0.03598 -0.740097,0.465981 -1.172414,1.419533 -1.48909,3.292453 -0.476794,2.817475 0,5.992983 0,6.025368 a 0.08895401,0.08995772 0 0 1 -0.08717,0.104351 h -5.456439 a 0.08895401,0.08995772 0 0 1 -0.06583,-0.03059 0.09251217,0.09355603 0 0 1 -0.02313,-0.06837 c 0,-0.05937 0.533724,-5.910222 2.782481,-9.141504 2.248758,-3.231281 5.901209,-3.058562 5.93857,-3.049566 h 10.88975 c 0.04092,0 2.638376,0.510959 5.257182,3.395004 2.618806,2.884045 3.1721,8.736694 3.177437,8.796066 a 0.09251217,0.09355603 0 0 1 -0.02313,0.06837 0.08895401,0.08995772 0 0 1 -0.06583,0.03059 z M 26.148713,42.153364 h 12.293444 c -0.0854,-0.779033 -0.729423,-5.958799 -3.122286,-8.594561 -2.576108,-2.835467 -5.116635,-3.332034 -5.141542,-3.337431 H 19.297475 c -0.04092,0 -3.584847,-0.196108 -5.785569,2.972203 -2.058396,2.963207 -2.66862,8.178956 -2.741563,8.95799 h 5.250066 c -0.0765,-0.57393 -0.418084,-3.418393 0.01601,-5.980389 0.238396,-1.410537 0.594212,-2.801284 1.569148,-3.418394 0.6974,-0.437194 1.679452,-0.456985 3.003088,-0.05757 1.323635,0.399413 2.66862,2.126601 3.979802,5.131189 a 36.976403,37.393627 0 0 1 1.560254,4.326966 z"
       fill="#231f20"
       id="path2778"
       style="stroke-width:0.178909" />
    <rect
       x="-25.732407"
       y="-29.364975"
       width="4.2946997"
       height="9.7478189"
       transform="scale(-1)"
       fill="#231f20"
       id="rect2780"
       style="stroke-width:0.178909" />
    <path
       d="m 25.732408,29.454932 h -4.2947 a 0.08895401,0.08995772 0 0 1 -0.08895,-0.08996 v -9.747819 a 0.08895401,0.08995772 0 0 1 0.08895,-0.08996 h 4.2947 a 0.08895401,0.08995772 0 0 1 0.08895,0.08996 v 9.747819 a 0.08895401,0.08995772 0 0 1 -0.08895,0.08996 z m -4.205746,-0.179915 h 4.116792 v -9.567904 h -4.116792 z"
       fill="#231f20"
       id="path2782"
       style="stroke-width:0.178909" />
    <path
       d="m 27.694733,0.56230987 h -7.116321 c -2.66862,0 -5.262519,1.41413543 -6.241013,3.81780583 -0.978494,2.4036704 -0.711632,6.4895503 -0.489247,9.1217133 0.492805,5.989385 6.310398,9.23506 7.472137,8.909413 1.161739,-0.325647 6.991785,-4.317971 6.991785,-4.317971 z"
       fill="#231f20"
       id="path2784"
       style="stroke-width:0.178909" />
    <path
       d="m 21.138823,22.524589 c -0.59955,0 -1.66344,-0.46778 -2.718435,-1.21263 -1.282717,-0.899578 -4.301816,-3.475967 -4.657632,-7.802933 -0.268641,-3.267265 -0.419863,-6.9123519 0.496364,-9.1630942 0.942912,-2.3155119 3.483439,-3.86998135 6.322851,-3.86998135 h 7.11632 a 0.08895401,0.08995772 0 0 1 0.08895,0.0863594 L 28.41704,18.098669 a 0.08717493,0.08815857 0 0 1 -0.03914,0.07736 C 28.139503,18.339752 22.530063,22.17555 21.359429,22.494 a 0.79702793,0.80602122 0 0 1 -0.220606,0.03059 z M 20.581971,0.6558659 c -2.76647,0 -5.24295,1.5130889 -6.159176,3.7638312 -1.022971,2.5188163 -0.65826,6.9483349 -0.48391,9.0785339 0.3487,4.249603 3.321543,6.768419 4.582911,7.667996 1.261368,0.899577 2.391084,1.270203 2.787818,1.160455 1.090577,-0.304057 6.404689,-3.916759 6.924181,-4.272992 L 27.609337,0.6558659 Z"
       fill="#231f20"
       id="path2786"
       style="stroke-width:0.178909" />
    <path
       d="M 24.175713,9.9718879 C 22.350376,8.5325643 19.269009,9.926909 18.391923,7.8003084 17.514836,5.6737078 18.480877,3.2358535 21.153055,2.660124 c 2.672179,-0.5757294 8.158862,-0.3994123 10.341794,1.6390298 2.182931,2.038442 0.980273,5.0970047 -0.781017,6.5147382 -1.761289,1.417734 -3.821464,1.307986 -6.538119,-0.8420041 z"
       fill="#ffffff"
       id="path2788"
       style="stroke-width:0.178909" />
    <path
       d="m 28.226678,11.850205 c -1.231123,0 -2.577887,-0.599118 -4.104338,-1.799154 C 23.332429,9.4267441 22.300562,9.3475813 21.302498,9.2702176 20.025118,9.1712641 18.811786,9.0795073 18.310085,7.8434881 a 3.8268015,3.8699813 0 0 1 0.08717,-3.2942519 C 18.914967,3.5489063 19.888124,2.8490352 21.13526,2.5809612 23.654437,2.0412149 29.290563,2.1275743 31.553553,4.24338 A 3.5795094,3.6198989 0 0 1 32.75799,7.1022365 C 32.70818,8.471393 31.92716,9.961093 30.768979,10.893055 a 3.9975932,4.0427002 0 0 1 -2.542306,0.95715 z M 24.291353,2.4676145 a 15.66658,15.843355 0 0 0 -3.118728,0.2806681 c -1.191984,0.2572791 -2.124222,0.9229662 -2.615248,1.874719 a 3.6506726,3.691865 0 0 0 -0.07828,3.1431229 c 0.466119,1.1334673 1.56559,1.2180276 2.846528,1.3151819 1.02475,0.079163 2.083303,0.1619239 2.914133,0.8186153 v 0 c 2.570771,2.0366433 4.613155,2.3029173 6.427817,0.8438033 1.119042,-0.8995771 1.873372,-2.3389007 1.921407,-3.6576809 A 3.4122758,3.4507783 0 0 0 31.443255,4.3657225 C 29.9257,2.9569845 26.872798,2.4676145 24.291353,2.4676145 Z"
       fill="#231f20"
       id="path2790"
       style="stroke-width:0.178909" />
    <ellipse
       cx="23.939095"
       cy="19.018036"
       fill="#68e1fd"
       id="circle2792"
       rx="3.3553452"
       ry="3.3932054"
       style="stroke-width:0.178909;fill:#97aaf2;fill-opacity:1" />
    <path
       d="m 23.939095,22.5012 a 3.4460783,3.4849623 0 1 1 3.444299,-3.483163 3.4496365,3.4885606 0 0 1 -3.444299,3.483163 z m 0,-6.78821 a 3.2681703,3.3050468 0 1 0 3.266391,3.305047 3.2717285,3.3086451 0 0 0 -3.266391,-3.305047 z"
       fill="#231f20"
       id="path2794"
       style="stroke-width:0.178909" />
    <ellipse
       cx="23.939095"
       cy="19.018036"
       fill="#ffffff"
       id="circle2796"
       rx="2.1420126"
       ry="2.166182"
       style="stroke-width:0.178909" />
    <path
       d="m 23.939095,21.274176 a 2.2309666,2.2561397 0 1 1 2.230966,-2.256139 2.2327457,2.2579389 0 0 1 -2.230966,2.256139 z m 0,-4.332364 a 2.0530586,2.0762243 0 1 0 2.053058,2.076225 2.0530586,2.0762243 0 0 0 -2.053058,-2.076225 z"
       fill="#231f20"
       id="path2798"
       style="stroke-width:0.178909" />
    <line
       x1="26.081106"
       y1="19.018036"
       x2="21.797083"
       y2="19.018036"
       fill="#ffffff"
       id="line2800"
       style="stroke-width:0.178909" />
    <path
       d="m 26.081107,19.107994 h -4.284025 a 0.08895401,0.08995772 0 0 1 -0.08895,-0.08996 0.08895401,0.08995772 0 0 1 0.08895,-0.08996 h 4.284025 a 0.08895401,0.08995772 0 0 1 0.08895,0.08996 0.08895401,0.08995772 0 0 1 -0.08895,0.08996 z"
       fill="#231f20"
       id="path2802"
       style="stroke-width:0.178909" />
    <path
       d="m 34.298679,13.339905 c 0,0 1.197321,-5.0142435 0.08718,-7.8874932 C 32.588983,0.79979826 27.68228,0.08913223 27.68228,0.08913223 V 1.8181197 l -1.601173,0.1331374 0.199257,9.4833439 c -0.439432,0.264475 -1.665219,0.35983 -1.754173,1.10648 -0.08895,0.746649 0.293549,6.070347 0.467898,7.666197 0.17435,1.59585 3.380253,4.343159 8.295851,3.898768 0,0 0.08895,-2.148191 0.08895,-2.569193 0,-0.421002 0.875308,-0.566734 0.941134,-0.815017 a 2.6828529,2.713125 0 0 0 0,-0.757444 c 0,0 0.877086,-0.311254 0.832609,-0.577529 a 1.4552876,1.4717084 0 0 0 -0.329129,-0.575729 c 0,0 1.907174,-0.02159 2.081523,-0.730457 0.17435,-0.708867 -2.606352,-4.740772 -2.606352,-4.740772 z"
       fill="#68e1fd"
       id="path2804"
       style="stroke-width:0.178909;fill:#97aaf2;fill-opacity:1" />
    <path
       d="m 32.256295,24.242781 a 10.010884,10.123842 0 0 1 -4.938727,-1.243215 c -1.369892,-0.791628 -2.312804,-1.883715 -2.41777,-2.781493 -0.160117,-1.466311 -0.556852,-6.906954 -0.466119,-7.687787 0.0676,-0.588324 0.73476,-0.800624 1.272043,-0.971544 a 3.4692064,3.5083513 0 0 0 0.478572,-0.179915 L 25.986816,1.9512571 a 0.08895401,0.08995772 0 0 1 0.08184,-0.091757 L 27.587988,1.7335594 V 0.08913223 a 0.08539585,0.08635942 0 0 1 0.03025,-0.06656871 0.08717493,0.08815857 0 0 1 0.07116,-0.021589858 c 0.04981,0 4.981425,0.770038128 6.774737,5.417254238 1.054995,2.7329156 0.0338,7.4215121 -0.0765,7.9018861 0.377165,0.539747 2.775365,4.071487 2.599236,4.782153 -0.160117,0.644097 -1.474857,0.768239 -1.985453,0.793427 a 1.2097745,1.2234251 0 0 1 0.233059,0.476776 c 0.04803,0.289664 -0.551515,0.548742 -0.823714,0.651294 a 2.4159909,2.4432518 0 0 1 -0.01067,0.719662 c -0.03736,0.142133 -0.218827,0.23389 -0.42698,0.341839 -0.240176,0.122343 -0.510596,0.259078 -0.510596,0.449789 0,0.417404 -0.0854,2.486431 -0.08895,2.57459 a 0.08717493,0.08815857 0 0 1 -0.08006,0.08456 c -0.341584,0.03059 -0.681388,0.04858 -1.037204,0.04858 z m 1.028308,-0.136735 z M 26.168282,2.0340182 26.36576,11.431002 a 0.08895401,0.08995772 0 0 1 -0.04448,0.07916 2.8465283,2.8786472 0 0 1 -0.56041,0.219497 c -0.512375,0.163723 -1.094134,0.349036 -1.149286,0.822213 -0.0854,0.730457 0.286432,5.996582 0.467898,7.646407 0.177908,1.583256 3.380253,4.220817 8.121501,3.825003 0.01601,-0.390417 0.0854,-2.117605 0.0854,-2.486432 0,-0.300459 0.322014,-0.465981 0.608446,-0.609913 0.142326,-0.07377 0.318455,-0.163723 0.336246,-0.228493 a 2.5173985,2.5458036 0 0 0 0,-0.719662 0.09073309,0.09175688 0 0 1 0.06049,-0.09715 c 0.421642,-0.14933 0.789911,-0.376023 0.773899,-0.474977 a 1.3876826,1.4033405 0 0 0 -0.306001,-0.53075 0.08717493,0.08815857 0 0 1 -0.01779,-0.09536 0.09073309,0.09175688 0 0 1 0.08184,-0.05577 c 0.510596,0 1.866255,-0.136736 1.996128,-0.662089 0.120977,-0.491169 -1.485532,-3.058563 -2.593899,-4.668806 a 0.09073309,0.09175688 0 0 1 -0.01423,-0.07197 c 0.01245,-0.05038 1.177751,-5.0196415 0.09073,-7.8335191 C 32.688611,1.3053607 28.479308,0.3356164 27.771234,0.20067981 V 1.8199189 a 0.08895401,0.08995772 0 0 1 -0.08184,0.089958 z"
       fill="#231f20"
       id="path2806"
       style="stroke-width:0.178909" />
    <path
       d="m 33.112032,20.086734 c -0.355816,0 -0.75433,-0.009 -1.167076,-0.03958 -1.245356,-0.08816 -1.634975,-0.343638 -1.650987,-0.359831 a 0.08895401,0.08995772 0 0 1 -0.02491,-0.124141 0.09073309,0.09175688 0 0 1 0.124536,-0.02519 c 0,0 0.377165,0.241087 1.563811,0.325647 a 18.484643,18.693215 0 0 0 2.355503,0 0.09073309,0.09175688 0 0 1 0.09607,0.08276 0.08895401,0.08995772 0 0 1 -0.08184,0.09536 c 0,0 -0.514154,0.04498 -1.215112,0.04498 z"
       fill="#231f20"
       id="path2808"
       style="stroke-width:0.178909" />
    <rect
       x="-26.718016"
       y="-24.491064"
       width="5.8353829"
       height="1.1820445"
       rx="0.58353829"
       transform="scale(-1)"
       fill="#68e1fd"
       id="rect2810"
       style="stroke-width:0.178909;fill:#97aaf2;fill-opacity:1" />
    <path
       d="m 26.13448,24.584621 h -4.668307 a 0.6742714,0.68187956 0 0 1 0,-1.36196 h 4.668307 a 0.6742714,0.68187956 0 0 1 0,1.36196 z m -4.668307,-1.182045 a 0.49636338,0.50196411 0 0 0 0,1.002129 h 4.668307 a 0.49636338,0.50196411 0 0 0 0,-1.002129 z"
       fill="#231f20"
       id="path2812"
       style="stroke-width:0.178909" />
    <rect
       x="-26.718016"
       y="-26.263233"
       width="5.8353829"
       height="1.1820445"
       rx="0.58353829"
       transform="scale(-1)"
       fill="#68e1fd"
       id="rect2814"
       style="stroke-width:0.178909;fill:#97aaf2;fill-opacity:1" />
    <path
       d="m 26.13448,26.35319 h -4.668307 a 0.6742714,0.68187956 0 0 1 0,-1.36196 h 4.668307 a 0.6742714,0.68187956 0 0 1 0,1.36196 z m -4.668307,-1.182045 a 0.49636338,0.50196411 0 0 0 0,1.002129 h 4.668307 a 0.49636338,0.50196411 0 0 0 0,-1.002129 z"
       fill="#231f20"
       id="path2816"
       style="stroke-width:0.178909" />
    <rect
       x="-26.718016"
       y="-28.037197"
       width="5.8353829"
       height="1.1820445"
       rx="0.58353829"
       transform="scale(-1)"
       fill="#68e1fd"
       id="rect2818"
       style="stroke-width:0.178909;fill:#97aaf2;fill-opacity:1" />
    <path
       d="m 26.13448,28.125357 h -4.668307 a 0.6742714,0.68187956 0 0 1 0,-1.36196 h 4.668307 a 0.6742714,0.68187956 0 0 1 0,1.36196 z m -4.668307,-1.182045 a 0.49636338,0.50196411 0 0 0 0,1.002129 h 4.668307 a 0.49636338,0.50196411 0 0 0 0,-1.002129 z"
       fill="#231f20"
       id="path2820"
       style="stroke-width:0.178909" />
    <rect
       x="-24.358957"
       y="-7.2731557"
       width="2.7113183"
       height="2.7419114"
       transform="scale(-1)"
       fill="#68e1fd"
       id="rect2822"
       style="stroke-width:0.178909;fill:#97aaf2;fill-opacity:1" />
    <path
       d="M 24.700541,8.05219 H 21.304277 A 0.42697925,0.43179708 0 0 1 20.877298,7.620393 V 4.1840079 a 0.42697925,0.43179708 0 0 1 0.426979,-0.4317971 h 3.396264 A 0.42697925,0.43179708 0 0 1 25.12752,4.1840079 V 7.620393 A 0.42697925,0.43179708 0 0 1 24.700541,8.05219 Z M 21.304277,3.9321262 A 0.24907123,0.25188163 0 0 0 21.055206,4.1840079 V 7.620393 a 0.24907123,0.25188163 0 0 0 0.249071,0.2518816 h 3.396264 A 0.24907123,0.25188163 0 0 0 24.949612,7.620393 V 4.1840079 A 0.24907123,0.25188163 0 0 0 24.700541,3.9321262 Z"
       fill="#d1d3d4"
       id="path2824"
       style="stroke-width:0.178909" />
    <path
       d="M 23.903513,5.0691919 H 23.21323 a 0.08895404,0.08995775 0 0 1 0,-0.1799155 h 0.690283 a 0.08895404,0.08995775 0 0 1 0,0.1799155 z"
       fill="#231f20"
       id="path2826"
       style="stroke-width:0.178909" />
    <path
       d="M 25.885409,8.8869977 H 23.939095 A 0.08895401,0.08995772 0 0 1 23.850141,8.79704 V 7.9622323 a 0.08895401,0.08995772 0 0 1 0.08895,-0.089958 0.08895401,0.08995772 0 0 1 0.08895,0.089958 v 0.74485 h 1.85736 a 0.08895401,0.08995772 0 0 1 0,0.1799154 z"
       fill="#d1d3d4"
       id="path2828"
       style="stroke-width:0.178909" />
    <path
       d="m 19.861443,8.2896784 a 0.08895401,0.08995772 0 0 1 -0.08895,-0.089958 V 7.0644542 a 0.08895401,0.08995772 0 0 1 0.08895,-0.089958 h 1.104809 a 0.08895404,0.08995775 0 0 1 0,0.1799155 h -1.015855 v 1.0453087 a 0.09073309,0.09175688 0 0 1 -0.08895,0.089958 z"
       fill="#d1d3d4"
       id="path2830"
       style="stroke-width:0.178909" />
    <path
       d="M 20.966252,5.5567628 H 19.414894 A 0.08717493,0.08815857 0 0 1 19.34551,5.5225788 L 18.614308,4.5870185 a 0.08933126,0.09033924 0 0 1 0.140547,-0.1115476 l 0.702737,0.8995773 h 1.50866 a 0.08895401,0.08995772 0 0 1 0.08895,0.089958 0.09073309,0.09175688 0 0 1 -0.08895,0.091757 z"
       fill="#d1d3d4"
       id="path2832"
       style="stroke-width:0.178909" />
    <path
       d="m 22.364609,3.9321262 a 0.08895401,0.08995772 0 0 1 -0.08895,-0.089958 V 3.0145574 a 0.08895401,0.08995772 0 0 1 0.08895,-0.089958 0.08895401,0.08995772 0 0 1 0.08895,0.089958 v 0.8276111 a 0.08895401,0.08995772 0 0 1 -0.08895,0.089958 z"
       fill="#d1d3d4"
       id="path2834"
       style="stroke-width:0.178909" />
    <path
       d="M 23.558372,3.813382 A 0.08895401,0.08995772 0 0 1 23.469422,3.723424 V 3.0145574 a 0.09073309,0.09175688 0 0 1 0.05337,-0.082761 l 0.957145,-0.4138055 a 0.08895401,0.08995772 0 0 1 0.115641,0.046778 0.08895401,0.08995772 0 0 1 -0.04626,0.1187442 l -0.901993,0.3904165 v 0.6494948 a 0.08895401,0.08995772 0 0 1 -0.08895,0.089958 z"
       fill="#d1d3d4"
       id="path2836"
       style="stroke-width:0.178909" />
    <path
       d="m 25.885409,5.8734139 h -0.846843 a 0.08895401,0.08995772 0 0 1 -0.08895,-0.089958 0.09073309,0.09175688 0 0 1 0.08895,-0.089958 h 0.846843 a 0.08895401,0.08995772 0 0 1 0.08895,0.089958 0.08895401,0.08995772 0 0 1 -0.08895,0.089958 z"
       fill="#d1d3d4"
       id="path2838"
       style="stroke-width:0.178909" />
    <ellipse
       cx="18.685471"
       cy="13.921033"
       fill="#68e1fd"
       id="circle2840"
       rx="3.8463717"
       ry="3.8897722"
       style="stroke-width:0.178909;fill:#97aaf2;fill-opacity:1" />
    <path
       d="m 18.685471,17.900762 a 3.9353254,3.9797298 0 1 1 3.935325,-3.97973 3.9406626,3.9851272 0 0 1 -3.935325,3.97973 z m 0,-7.779544 a 3.7574174,3.7998143 0 1 0 3.757417,3.799814 3.7627546,3.8052118 0 0 0 -3.757417,-3.799814 z"
       fill="#231f20"
       id="path2842"
       style="stroke-width:0.178909" />
    <ellipse
       cx="18.685471"
       cy="13.921033"
       fill="#68e1fd"
       id="circle2844"
       rx="2.5618753"
       ry="2.5907824"
       style="stroke-width:0.178909;fill:#97aaf2;fill-opacity:1" />
    <path
       d="m 18.685471,16.601772 a 2.6508295,2.6807402 0 1 1 2.649051,-2.68074 2.6543877,2.6843385 0 0 1 -2.649051,2.68074 z m 0,-5.181565 a 2.4729215,2.5008248 0 1 0 2.471142,2.500825 2.4764796,2.5044231 0 0 0 -2.471142,-2.500825 z"
       fill="#231f20"
       id="path2846"
       style="stroke-width:0.178909" />
    <ellipse
       cx="18.685471"
       cy="13.921033"
       fill="#ffffff"
       id="circle2848"
       rx="1.3147403"
       ry="1.3295752"
       style="stroke-width:0.178909" />
    <path
       d="m 18.685471,15.340565 a 1.4036943,1.4195329 0 1 1 1.403694,-1.419533 1.4054734,1.4213321 0 0 1 -1.403694,1.419533 z m 0,-2.65915 a 1.2257863,1.2396175 0 1 0 1.225786,1.239617 1.2275653,1.2414166 0 0 0 -1.225786,-1.239617 z"
       fill="#231f20"
       id="path2850"
       style="stroke-width:0.178909" />
    <path
       d="m 19.825862,14.671279 a 0.09251217,0.09355603 0 0 1 -0.05159,-0.01619 l -2.16692,-1.487901 a 0.09073309,0.09175688 0 0 1 -0.02313,-0.125941 0.08717493,0.08815857 0 0 1 0.122757,-0.02339 l 2.168699,1.4915 a 0.09073309,0.09175688 0 0 1 0.02313,0.12594 0.08895401,0.08995772 0 0 1 -0.07294,0.03598 z"
       fill="#231f20"
       id="path2852"
       style="stroke-width:0.178909" />
    <path
       d="m 19.532313,15.027512 a 0.08717493,0.08815857 0 0 1 -0.04981,-0.01619 l -2.101094,-1.414136 a 0.08895401,0.08995772 0 1 1 0.09785,-0.14933 l 2.101093,1.421332 a 0.08717493,0.08815857 0 0 1 0.02491,0.124142 0.08539585,0.08635942 0 0 1 -0.07294,0.03418 z"
       fill="#231f20"
       id="path2854"
       style="stroke-width:0.178909" />
    <rect
       x="-29.415104"
       y="-30.133213"
       width="10.731412"
       height="1.2414166"
       rx="0.6137827"
       transform="scale(-1)"
       fill="#68e1fd"
       id="rect2856"
       style="stroke-width:0.178909;fill:#97aaf2;fill-opacity:1" />
    <path
       d="m 28.801321,30.223171 h -9.503846 a 0.71163208,0.7196618 0 0 1 0,-1.421332 h 9.503846 a 0.71163208,0.7196618 0 0 1 0,1.421332 z m -9.503846,-1.241417 a 0.53372406,0.53974635 0 0 0 0,1.061502 h 9.503846 a 0.53372406,0.53974635 0 1 0 0,-1.061502 z"
       fill="#231f20"
       id="path2858"
       style="stroke-width:0.178909" />
    <ellipse
       cx="19.532312"
       cy="36.611969"
       fill="#ffffff"
       id="circle2860"
       rx="4.481503"
       ry="4.5320702"
       style="stroke-width:0.178909" />
    <path
       d="m 19.532313,41.233996 a 4.570457,4.6220279 0 1 1 4.570457,-4.622027 4.5757943,4.6274254 0 0 1 -4.570457,4.622027 z m 0,-9.06414 a 4.392549,4.4421125 0 1 0 4.392549,4.442113 4.3978863,4.4475099 0 0 0 -4.392549,-4.442113 z"
       fill="#231f20"
       id="path2862"
       style="stroke-width:0.178909" />
    <path
       d="m 19.532313,39.90622 a 3.2574958,3.2942519 0 1 1 3.257496,-3.294251 3.261054,3.2978502 0 0 1 -3.257496,3.294251 z m 0,-6.408588 a 3.0795878,3.1143364 0 1 0 3.079588,3.114337 3.0813669,3.1161356 0 0 0 -3.079588,-3.114337 z"
       fill="#d1d3d4"
       id="path2864"
       style="stroke-width:0.178909" />
    <path
       d="m 22.496261,37.833594 a 0.09429125,0.09535519 0 0 1 -0.0427,-0.01079 L 16.925959,34.80922 a 0.08717493,0.08815857 0 0 1 -0.03736,-0.120544 0.08895401,0.08995772 0 0 1 0.120978,-0.03778 l 5.529381,3.013584 a 0.08895401,0.08995772 0 0 1 0.03558,0.122342 0.08717493,0.08815857 0 0 1 -0.07828,0.04678 z"
       fill="#d1d3d4"
       id="path2866"
       style="stroke-width:0.178909" />
    <path
       d="m 22.069282,38.618026 a 0.09429125,0.09535519 0 0 1 -0.0427,-0.0108 L 16.50254,35.622434 a 0.08953121,0.09054144 0 0 1 0.08362,-0.160125 l 5.529382,2.990195 a 0.08895401,0.08995772 0 0 1 0.03736,0.122342 0.08717493,0.08815857 0 0 1 -0.08362,0.04318 z"
       fill="#d1d3d4"
       id="path2868"
       style="stroke-width:0.178909" />
    <path
       d="m 34.232853,35.271598 h -4.823086 a 0.08895401,0.08995772 0 0 1 -0.08895,-0.08996 0.09073309,0.09175688 0 0 1 0.08895,-0.08996 h 4.817749 a 0.08895401,0.08995772 0 0 1 0.08895,0.08996 0.08895401,0.08995772 0 0 1 -0.08362,0.08996 z"
       fill="#231f20"
       id="path2870"
       style="stroke-width:0.178909" />
    <ellipse
       cx="31.82398"
       cy="13.327312"
       rx="0.58709645"
       ry="0.96254766"
       fill="#231f20"
       id="ellipse2872"
       style="stroke-width:0.178909" />
  </g>
</svg>
