<?xml version="1.0" encoding="UTF-8" standalone="no"?>
<!-- Created with Inkscape (http://www.inkscape.org/) -->

<svg
   width="280"
   height="240"
   viewBox="0 0 74.083331 63.5"
   version="1.1"
   id="svg5"
   inkscape:version="1.2 (dc2aedaf03, 2022-05-15)"
   sodipodi:docname="motorcycle.svg"
   xmlns:inkscape="http://www.inkscape.org/namespaces/inkscape"
   xmlns:sodipodi="http://sodipodi.sourceforge.net/DTD/sodipodi-0.dtd"
   xmlns:xlink="http://www.w3.org/1999/xlink"
   xmlns="http://www.w3.org/2000/svg"
   xmlns:svg="http://www.w3.org/2000/svg">
  <sodipodi:namedview
     id="namedview7"
     pagecolor="#505050"
     bordercolor="#eeeeee"
     borderopacity="1"
     inkscape:showpageshadow="0"
     inkscape:pageopacity="0"
     inkscape:pagecheckerboard="0"
     inkscape:deskcolor="#505050"
     inkscape:document-units="px"
     showgrid="false"
     inkscape:zoom="1"
     inkscape:cx="399.5"
     inkscape:cy="157.5"
     inkscape:window-width="1366"
     inkscape:window-height="699"
     inkscape:window-x="0"
     inkscape:window-y="0"
     inkscape:window-maximized="1"
     inkscape:current-layer="layer1" />
  <defs
     id="defs2">
    <linearGradient
       id="linear-gradient"
       x1="104.12"
       y1="230.53999"
       x2="151.94"
       y2="193.21001"
       gradientUnits="userSpaceOnUse">
      <stop
         offset="0"
         stop-color="#fff"
         stop-opacity="0"
         id="stop6669" />
      <stop
         offset="0.98"
         stop-color="#0800bf"
         id="stop6671" />
    </linearGradient>
    <linearGradient
       id="linear-gradient-2"
       x1="83.230003"
       y1="179.7"
       x2="129.78999"
       y2="132.33"
       xlink:href="#linear-gradient" />
    <linearGradient
       id="linear-gradient-3"
       x1="175.78"
       y1="221.98"
       x2="199.13"
       y2="151.92"
       xlink:href="#linear-gradient" />
    <linearGradient
       id="linear-gradient-4"
       x1="253.03"
       y1="255.50999"
       x2="276.60001"
       y2="236.50999"
       xlink:href="#linear-gradient" />
    <linearGradient
       id="linear-gradient-36"
       x1="183.83"
       y1="264.73001"
       x2="185.89999"
       y2="304.51999"
       gradientUnits="userSpaceOnUse">
      <stop
         offset="0.01"
         id="stop18633" />
      <stop
         offset="0.08"
         stop-opacity="0.69"
         id="stop18635" />
      <stop
         offset="0.21"
         stop-opacity="0.32"
         id="stop18637" />
      <stop
         offset="1"
         stop-opacity="0"
         id="stop18639" />
    </linearGradient>
    <linearGradient
       id="linear-gradient-2-7"
       x1="198.78999"
       y1="115.83"
       x2="207.47"
       y2="258.13"
       xlink:href="#linear-gradient-36" />
    <linearGradient
       id="linear-gradient-3-5"
       x1="2316.74"
       y1="-609.72998"
       x2="2301.1799"
       y2="-592.25"
       gradientTransform="matrix(-0.82,0.58,0.58,0.82,2373.07,-750.08)"
       xlink:href="#linear-gradient-36" />
    <linearGradient
       id="linear-gradient-4-3"
       x1="4330.77"
       y1="2142.8401"
       x2="4507.3301"
       y2="2228.49"
       gradientTransform="rotate(-142.1,1925.8456,1863.0268)"
       gradientUnits="userSpaceOnUse">
      <stop
         offset="0.01"
         id="stop18644" />
      <stop
         offset="0.08"
         stop-opacity="0.69"
         id="stop18646" />
      <stop
         offset="0.21"
         stop-opacity="0.32"
         id="stop18648" />
      <stop
         offset="1"
         stop-opacity="0"
         id="stop18650" />
    </linearGradient>
    <linearGradient
       id="linear-gradient-5"
       x1="151.05"
       y1="89.309998"
       x2="160.05"
       y2="133.45"
       xlink:href="#linear-gradient-4-3" />
    <linearGradient
       id="linear-gradient-6"
       x1="2290.73"
       y1="-591.78003"
       x2="2325.28"
       y2="-589.91998"
       gradientTransform="matrix(-0.82,0.58,0.58,0.82,2373.07,-750.08)"
       xlink:href="#linear-gradient-36" />
    <linearGradient
       id="linear-gradient-7"
       x1="169.8"
       y1="127.82"
       x2="168.28999"
       y2="306.51999"
       xlink:href="#linear-gradient-4-3" />
    <linearGradient
       id="linear-gradient-8"
       x1="163.48"
       y1="158.08"
       x2="90.669998"
       y2="199.84"
       xlink:href="#linear-gradient-4-3" />
    <linearGradient
       id="linear-gradient-9"
       x1="130.94"
       y1="144.46001"
       x2="3.3"
       y2="217.66"
       xlink:href="#linear-gradient-4-3" />
    <linearGradient
       id="linear-gradient-10"
       x1="287.37"
       y1="96.879997"
       x2="352.62"
       y2="250.07001"
       xlink:href="#linear-gradient-4-3" />
    <linearGradient
       id="linear-gradient-11"
       x1="169.38"
       y1="134.78"
       x2="406.73001"
       y2="301.17999"
       xlink:href="#linear-gradient-4-3" />
    <linearGradient
       id="linear-gradient-12"
       x1="199.17"
       y1="253.11"
       x2="243.94"
       y2="12.38"
       xlink:href="#linear-gradient-4-3" />
    <linearGradient
       id="linear-gradient-13"
       x1="171.77"
       y1="88.489998"
       x2="165.00999"
       y2="385.82001"
       xlink:href="#linear-gradient-4-3" />
    <linearGradient
       id="linear-gradient-14"
       x1="144.75999"
       y1="213.89"
       x2="232.33"
       y2="309.06"
       xlink:href="#linear-gradient-4-3" />
    <linearGradient
       id="linear-gradient-15"
       x1="163.53"
       y1="235.49001"
       x2="213.67"
       y2="305.67999"
       xlink:href="#linear-gradient-36" />
    <linearGradient
       id="linear-gradient-56"
       x1="401.64999"
       y1="531.53998"
       x2="412.84"
       y2="766.45001"
       gradientUnits="userSpaceOnUse">
      <stop
         offset="0"
         stop-opacity="0"
         id="stop25096" />
      <stop
         offset="0.97"
         id="stop25098" />
    </linearGradient>
    <linearGradient
       id="linear-gradient-2-2"
       x1="343.73001"
       y1="-19.889999"
       x2="352.92999"
       y2="557.12"
       gradientUnits="userSpaceOnUse">
      <stop
         offset="0"
         stop-color="#fff"
         id="stop25101" />
      <stop
         offset="1"
         stop-color="#fff"
         stop-opacity="0"
         id="stop25103" />
    </linearGradient>
    <linearGradient
       id="linear-gradient-3-9"
       x1="347.72"
       y1="229.94"
       x2="317.85001"
       y2="238.37"
       gradientUnits="userSpaceOnUse">
      <stop
         offset="0"
         stop-color="#ecc4d7"
         id="stop25106" />
      <stop
         offset="0.42"
         stop-color="#efd4d1"
         id="stop25108" />
      <stop
         offset="1"
         stop-color="#f2eac9"
         id="stop25110" />
    </linearGradient>
    <linearGradient
       id="linear-gradient-4-1"
       x1="187.08"
       y1="72.580002"
       x2="175.47"
       y2="306.81"
       xlink:href="#linear-gradient-2-2" />
    <linearGradient
       id="linear-gradient-5-2"
       x1="254.98"
       y1="145.35001"
       x2="260.59"
       y2="145.35001"
       xlink:href="#linear-gradient-3-9" />
    <linearGradient
       id="linear-gradient-6-7"
       x1="211.53"
       y1="146.59"
       x2="219.07001"
       y2="146.59"
       xlink:href="#linear-gradient-3-9" />
    <linearGradient
       id="linear-gradient-7-0"
       x1="215.55"
       y1="147.28999"
       x2="214.69"
       y2="151.2"
       xlink:href="#linear-gradient-3-9" />
    <linearGradient
       id="linear-gradient-8-9"
       x1="1035.91"
       y1="145.99001"
       x2="1035.0601"
       y2="149.89999"
       gradientTransform="matrix(-1,0,0,1,1292.73,0)"
       xlink:href="#linear-gradient-3-9" />
    <linearGradient
       id="linear-gradient-9-3"
       x1="344.60999"
       y1="225.28999"
       x2="482.94"
       y2="225.28999"
       xlink:href="#linear-gradient-3-9" />
    <linearGradient
       id="linear-gradient-10-6"
       x1="410.39999"
       y1="309.41"
       x2="407.64001"
       y2="637.46997"
       xlink:href="#linear-gradient-56" />
    <linearGradient
       id="linear-gradient-11-0"
       x1="543.37"
       y1="340.22"
       x2="513.15002"
       y2="518.27002"
       xlink:href="#linear-gradient-56" />
    <linearGradient
       id="linear-gradient-12-6"
       x1="532.19"
       y1="250.07001"
       x2="645.19"
       y2="250.07001"
       xlink:href="#linear-gradient-3-9" />
    <linearGradient
       id="linear-gradient-13-2"
       x1="234"
       y1="169.8"
       x2="237.72"
       y2="186.95"
       xlink:href="#linear-gradient-3-9" />
    <linearGradient
       id="linear-gradient-14-6"
       x1="225.86"
       y1="118.14"
       x2="245.00999"
       y2="153.58"
       xlink:href="#linear-gradient-3-9" />
    <linearGradient
       id="linear-gradient-15-1"
       x1="485.39001"
       y1="284.89001"
       x2="396.04999"
       y2="582.01001"
       gradientUnits="userSpaceOnUse">
      <stop
         offset="0"
         stop-color="#fff"
         id="stop25124" />
      <stop
         offset="0.89"
         stop-color="#fff"
         stop-opacity="0"
         id="stop25126" />
    </linearGradient>
    <linearGradient
       id="linear-gradient-16"
       x1="344.73999"
       y1="399.82001"
       x2="343.79999"
       y2="636.59003"
       xlink:href="#linear-gradient-56" />
    <linearGradient
       id="linear-gradient-17"
       x1="349.95001"
       y1="295.39999"
       x2="344.35999"
       y2="551.75"
       gradientUnits="userSpaceOnUse">
      <stop
         offset="0"
         stop-color="#fff"
         id="stop25130" />
      <stop
         offset="0.6"
         stop-color="#fff"
         stop-opacity="0.48"
         id="stop25132" />
      <stop
         offset="0.87"
         stop-color="#fff"
         stop-opacity="0.13"
         id="stop25134" />
      <stop
         offset="1"
         stop-color="#fff"
         stop-opacity="0"
         id="stop25136" />
    </linearGradient>
    <linearGradient
       id="linear-gradient-18"
       x1="348.28"
       y1="399.82999"
       x2="347.35001"
       y2="636.60999"
       xlink:href="#linear-gradient-56" />
    <linearGradient
       id="linear-gradient-19"
       x1="353.64999"
       y1="306.57001"
       x2="348.04999"
       y2="562.92999"
       xlink:href="#linear-gradient-2-2" />
    <linearGradient
       id="linear-gradient-20"
       x1="359.04999"
       y1="455.76001"
       x2="348.79001"
       y2="798.79999"
       xlink:href="#linear-gradient-56" />
    <linearGradient
       id="linear-gradient-21"
       x1="1368"
       y1="235.8"
       x2="1338.13"
       y2="244.23"
       gradientTransform="matrix(-1,0,0,1,1841.96,0)"
       xlink:href="#linear-gradient-3-9" />
    <linearGradient
       id="linear-gradient-22"
       x1="394.51999"
       y1="313.84"
       x2="371.37"
       y2="464.32999"
       xlink:href="#linear-gradient-3-9" />
    <linearGradient
       id="linear-gradient-23"
       x1="593.46002"
       y1="245.74001"
       x2="660.04999"
       y2="341.20999"
       xlink:href="#linear-gradient-3-9" />
  </defs>
  <g
     inkscape:label="Layer 1"
     inkscape:groupmode="layer"
     id="layer1">
    <g
       id="_222_motorcycle_flatline"
       data-name="#222_motorcycle_flatline"
       transform="matrix(0.27073392,0,0,0.26885499,-17.036666,-8.5798465)">
      <path
         d="m 215.85,67.3 c 0,0 2.32,5.92 1.38,6.85 -0.94,0.93 -3.14,-0.3 -3.14,-0.3"
         fill="#ffffff"
         id="path30112" />
      <path
         d="m 216.24,75 a 5.62,5.62 0 0 1 -2.39,-0.7 0.5,0.5 0 0 1 -0.2,-0.68 0.5,0.5 0 0 1 0.68,-0.19 c 0.61,0.33 2,0.87 2.55,0.37 0.35,-0.43 -0.35,-3.38 -1.49,-6.3 a 0.5004498,0.5004498 0 0 1 0.93,-0.37 c 0.73,1.87 2.33,6.34 1.26,7.38 A 1.8,1.8 0 0 1 216.24,75 Z"
         fill="#231f20"
         id="path30114" />
      <path
         d="m 216.93,55.86 c 2.29,3.43 0.31,9 -0.52,12.76 q -1.16,5.16 -2.53,10.26 c -0.58,2.16 -6.24,1 -7.1,0.13 l -5,12.66 a 35.59,35.59 0 0 1 -6.62,-4.15 c -4.11,-3.08 -3.5,-6.65 -3.5,-6.65 1.74,-6.9 5.72,-14.3 8.62,-20.83 a 10.86,10.86 0 0 1 2.52,-3.85 10.53,10.53 0 0 1 3.36,-1.82 c 2.78,-1 6,-1.78 8.63,-0.39 a 5.67,5.67 0 0 1 2.14,1.88 z"
         fill="#ffffff"
         id="path30116" />
      <path
         d="m 201.78,92.17 a 0.63,0.63 0 0 1 -0.19,0 36.79,36.79 0 0 1 -6.73,-4.22 c -4.3,-3.23 -3.72,-7 -3.7,-7.13 1.33,-5.24 3.86,-10.64 6.32,-15.86 0.81,-1.74 1.61,-3.44 2.34,-5.09 a 11.22,11.22 0 0 1 2.65,-4 11.24,11.24 0 0 1 3.53,-1.97 c 2.43,-0.92 6,-2 9,-0.37 a 6.29,6.29 0 0 1 2.33,2 v 0 c 2.05,3.08 0.91,7.63 0,11.28 -0.17,0.66 -0.33,1.28 -0.45,1.86 -0.77,3.43 -1.62,6.9 -2.53,10.29 A 2.11,2.11 0 0 1 212.68,80.39 10,10 0 0 1 207,79.7 l -4.77,12.11 a 0.57,0.57 0 0 1 -0.27,0.28 0.69,0.69 0 0 1 -0.18,0.08 z m 9.7,-38.46 a 14.77,14.77 0 0 0 -5.15,1.13 10.64,10.64 0 0 0 -3.2,1.72 10.18,10.18 0 0 0 -2.39,3.69 c -0.74,1.65 -1.54,3.36 -2.36,5.1 -2.38,5.18 -4.94,10.54 -6.24,15.65 0,0.09 -0.47,3.27 3.32,6.12 a 40.41,40.41 0 0 0 6,3.87 l 4.8,-12.16 a 0.49,0.49 0 0 1 0.37,-0.31 0.51,0.51 0 0 1 0.45,0.14 8.58,8.58 0 0 0 5.31,0.81 q 0.83,-0.23 1,-0.72 c 0.91,-3.38 1.76,-6.83 2.52,-10.24 0.13,-0.59 0.29,-1.23 0.46,-1.89 0.86,-3.47 1.94,-7.78 0.14,-10.48 v 0 a 5.23,5.23 0 0 0 -2,-1.72 6.51,6.51 0 0 0 -3.03,-0.71 z"
         fill="#231f20"
         id="path30118" />
      <path
         d="m 214.35,76.29 a 4.14,4.14 0 0 1 -4,-3.56"
         fill="#ffffff"
         id="path30120" />
      <path
         d="m 214.34,76.79 a 4.67,4.67 0 0 1 -4.53,-4 0.5,0.5 0 0 1 0.38,-0.6 0.49,0.49 0 0 1 0.59,0.38 3.62,3.62 0 0 0 3.55,3.17 0.5,0.5 0 0 1 0,1 z"
         fill="#231f20"
         id="path30122" />
      <path
         d="m 206.78,79 a 9.44,9.44 0 0 1 -3.68,-3.84 c 0,0 -2.7,7 1.47,9.43 z"
         fill="#231f20"
         id="path30124" />
      <path
         d="m 204.57,85.1 a 0.45,0.45 0 0 1 -0.25,-0.07 c -4.48,-2.66 -1.8,-9.74 -1.68,-10 a 0.5,0.5 0 0 1 0.93,0 8.89,8.89 0 0 0 3.43,3.54 0.5,0.5 0 0 1 0.22,0.62 L 205,84.78 a 0.49,0.49 0 0 1 -0.31,0.29 0.41,0.41 0 0 1 -0.12,0.03 z m -1.34,-8.65 c -0.5,1.84 -1.13,5.54 1.11,7.38 l 1.82,-4.61 a 10.74,10.74 0 0 1 -2.93,-2.77 z"
         fill="#231f20"
         id="path30126" />
      <path
         d="m 218.74,65.45 c 0.1,-0.47 -9.36,-2.43 -9.36,-2.43 0,0 -1.43,1.17 0.37,3.6 1.8,2.43 8,3.63 8.99,-1.17 z"
         fill="#231f20"
         id="path30128" />
      <path
         d="m 214.58,69.25 a 6.85,6.85 0 0 1 -5.24,-2.33 c -2.05,-2.78 -0.3,-4.27 -0.28,-4.28 a 0.5,0.5 0 0 1 0.42,-0.11 c 10,2.06 9.87,2.47 9.75,3 v 0 a 4.32,4.32 0 0 1 -3.42,3.56 5.46,5.46 0 0 1 -1.23,0.16 z m -5,-5.68 c -0.22,0.34 -0.54,1.23 0.59,2.76 a 5.92,5.92 0 0 0 5.45,1.81 3.29,3.29 0 0 0 2.58,-2.47 c -1.05,-0.41 -4.97,-1.33 -8.64,-2.1 z m 9.18,1.88 z m -0.49,-0.1 z"
         fill="#231f20"
         id="path30130" />
      <line
         x1="209.38"
         y1="63.02"
         x2="205.89999"
         y2="62.209999"
         fill="#231f20"
         id="line30132" />
      <path
         d="m 209.38,63.52 h -0.11 l -3.48,-0.81 a 0.51305458,0.51305458 0 1 1 0.23,-1 l 3.47,0.81 a 0.5030159,0.5030159 0 0 1 -0.11,1 z"
         fill="#231f20"
         id="path30134" />
      <path
         d="m 217.66,61.13 a 3.5,3.5 0 0 0 1.62,-1.92 3.63,3.63 0 0 0 -0.41,-2.57 c -1.65,-3.26 -5.7,-4.77 -9.32,-4.31 a 9.28,9.28 0 0 0 -4.48,1.73 c -1.76,1.35 -4.09,5.55 -1.33,7.12 a 7.46,7.46 0 0 0 3.22,0.44 c 1.64,0.1 3.26,0.43 4.9,0.55 a 9.68,9.68 0 0 0 5.8,-1.04 z"
         fill="#ffffff"
         id="path30136" />
      <path
         d="m 213.17,62.72 c -0.47,0 -0.92,0 -1.35,0 -0.81,-0.06 -1.62,-0.17 -2.4,-0.27 -0.78,-0.1 -1.66,-0.23 -2.49,-0.28 H 206.2 A 5.63,5.63 0 0 1 203.49,61.69 2.91,2.91 0 0 1 202,59.2 c -0.14,-2.1 1.53,-4.57 2.8,-5.53 a 9.7,9.7 0 0 1 4.72,-1.84 c 4.14,-0.52 8.19,1.36 9.82,4.58 a 4.07,4.07 0 0 1 0.45,2.93 4,4 0 0 1 -1.84,2.22 v 0 a 9,9 0 0 1 -4.78,1.16 z m -2.28,-10 a 11.13,11.13 0 0 0 -1.28,0.08 8.81,8.81 0 0 0 -4.24,1.64 c -1.08,0.83 -2.51,3 -2.4,4.67 a 1.88,1.88 0 0 0 1,1.62 4.88,4.88 0 0 0 2.22,0.35 c 0.27,0 0.53,0 0.78,0 0.86,0 1.73,0.16 2.56,0.28 0.83,0.12 1.56,0.2 2.34,0.26 a 9.3,9.3 0 0 0 5.51,-1 3,3 0 0 0 1.4,-1.63 3.13,3.13 0 0 0 -0.38,-2.2 8.34,8.34 0 0 0 -7.51,-4.05 z m 6.77,8.39 z"
         fill="#231f20"
         id="path30138" />
      <path
         d="m 201.27,74.31 0.2,-0.11 c 3,-1.75 4.1,-5.77 4.31,-8.72 0.14,-2.07 0.81,-5.37 2.35,-7 1.89,-2 11.88,2.16 11.88,2.16 3.25,-14.23 -17.9,-21 -27.45,-13 a 19.18,19.18 0 0 0 -6.33,15.76 c 0.27,4.33 2.5,11.52 7.66,11.9 a 20.54,20.54 0 0 0 4.57,-0.18 8.77,8.77 0 0 0 2.81,-0.81 z"
         fill="#ffffff"
         id="path30140" />
      <path
         d="m 195.38,75.87 c -0.51,0 -1,0 -1.52,-0.06 -5.43,-0.39 -7.84,-7.6 -8.13,-12.36 a 19.81,19.81 0 0 1 6.5,-16.17 c 6,-5.05 15.8,-4.25 21.85,-0.56 5.37,3.26 7.71,8.37 6.42,14 a 0.48,0.48 0 0 1 -0.26,0.33 0.48,0.48 0 0 1 -0.42,0 c -4,-1.68 -10.19,-3.5 -11.32,-2.28 -1.32,1.41 -2.07,4.39 -2.23,6.71 -0.1,1.58 -0.75,6.9 -4.54,9.12 l -0.22,0.12 a 9.23,9.23 0 0 1 -3,0.88 20.82,20.82 0 0 1 -3.13,0.27 z M 203,44.71 A 15.49,15.49 0 0 0 192.88,48 18.79,18.79 0 0 0 186.73,63.35 c 0.26,4.24 2.45,11.08 7.2,11.43 a 19.57,19.57 0 0 0 4.46,-0.18 8.34,8.34 0 0 0 2.65,-0.77 v 0 l 0.18,-0.1 c 3.37,-2 4,-6.87 4.06,-8.33 0.16,-2.32 0.9,-5.63 2.48,-7.32 1.86,-2 9.33,0.78 11.88,1.81 0.9,-5 -1.29,-9.44 -6.08,-12.36 A 21,21 0 0 0 203,44.71 Z"
         fill="#231f20"
         id="path30142" />
      <path
         d="m 198.61,71.89 a 0.51,0.51 0 0 1 -0.46,-0.31 c -0.16,-0.37 -3.75,-9.11 1.4,-16.69 a 8.1,8.1 0 0 1 8.56,-3.56 c 3.9,0.67 7.65,3.47 8.15,5.35 a 0.5,0.5 0 0 1 -0.36,0.61 0.5,0.5 0 0 1 -0.61,-0.35 c -0.37,-1.39 -3.69,-4 -7.35,-4.62 a 7.17,7.17 0 0 0 -7.56,3.13 c -4.85,7.13 -1.34,15.66 -1.31,15.74 a 0.5,0.5 0 0 1 -0.26,0.66 0.71,0.71 0 0 1 -0.2,0.04 z"
         fill="#d1d3d4"
         id="path30144" />
      <path
         d="m 237.94,118.45 a 0.51,0.51 0 0 1 -0.44,-0.25 l -7.73,-13.39 a 0.5,0.5 0 1 1 0.86,-0.5 l 7.74,13.39 a 0.49,0.49 0 0 1 -0.18,0.68 0.47,0.47 0 0 1 -0.25,0.07 z"
         fill="#231f20"
         id="path30146" />
      <path
         d="m 228.22,109.42 a 0.54,0.54 0 0 1 -0.36,-0.14 0.51,0.51 0 0 1 0,-0.71 c 0.24,-0.42 2.11,-6.07 3.23,-9.52 a 0.5,0.5 0 1 1 0.95,0.31 c -3.09,9.53 -3.36,9.81 -3.47,9.92 a 0.52,0.52 0 0 1 -0.35,0.14 z"
         fill="#231f20"
         id="path30148" />
      <path
         d="m 254.15,117.1 c 0,0 4.15,2.32 4.83,6.8 0.92,6 -2.27,8 -2.27,8 z"
         fill="#231f20"
         id="path30150" />
      <path
         d="m 107.55,177 c 0,0 -3.69,-1.3 -5.32,-0.65 -1.63,0.65 -12.88,18.85 -11.83,19.74 1.05,0.89 6.32,0 6.32,0 z"
         fill="#ffffff"
         id="path30152" />
      <path
         d="m 103.41,176.17 a 15.43,15.43 0 0 1 4.14,0.83 l -10.83,19.09 a 30.3,30.3 0 0 1 -4.22,0.4 3.69,3.69 0 0 1 -2.1,-0.4 C 89.35,195.2 100.59,177 102.23,176.35 a 3.22,3.22 0 0 1 1.18,-0.18 m 0,-1 a 4.16,4.16 0 0 0 -1.55,0.25 c -2.18,0.86 -12,17.37 -12.5,20.1 a 1.33,1.33 0 0 0 0.39,1.33 4.19,4.19 0 0 0 2.75,0.64 32.36,32.36 0 0 0 4.39,-0.41 l 0.47,-0.08 0.23,-0.42 10.83,-19.09 0.59,-1 -1.13,-0.4 a 16.58,16.58 0 0 0 -4.47,-0.88 z"
         fill="#231f20"
         id="path30154" />
      <circle
         cx="120.96"
         cy="229.38"
         r="26.41"
         fill="#231f20"
         id="circle30156" />
      <path
         d="M 121,256.29 A 26.91,26.91 0 1 1 147.91,229.38 26.94,26.94 0 0 1 121,256.29 Z m 0,-52.82 A 25.91,25.91 0 1 0 146.91,229.38 25.94,25.94 0 0 0 121,203.47 Z"
         fill="#231f20"
         id="path30158" />
      <circle
         cx="120.96"
         cy="229.38"
         r="18.67"
         fill="#ffffff"
         id="circle30160" />
      <path
         d="M 121,210.71 A 18.68,18.68 0 1 1 102.32,229.38 18.67,18.67 0 0 1 121,210.71 m 0,-1 A 19.68,19.68 0 1 0 140.67,229.38 19.7,19.7 0 0 0 121,209.71 Z"
         fill="#231f20"
         id="path30162" />
      <circle
         cx="120.96"
         cy="229.38"
         r="7.4099998"
         fill="#d1d3d4"
         id="circle30164" />
      <path
         d="m 128.37,206.25 c -10.12,4.46 -19.43,19.17 -4.08,23.13 8.75,2.26 60.7,1 60.7,1 l -11.8,-21 c 0,0 -34.97,-7.48 -44.82,-3.13 z"
         fill="#231f20"
         id="path30166" />
      <path
         d="m 156,231.25 c -13.54,0 -27.59,-0.28 -31.83,-1.38 -6.62,-1.71 -8.26,-5.23 -8.48,-7.89 -0.5,-6.17 6,-13.35 12.48,-16.19 v 0 c 9.88,-4.37 43.7,2.85 45.13,3.16 a 0.51,0.51 0 0 1 0.33,0.24 l 11.8,21 a 0.55,0.55 0 0 1 0,0.5 0.53,0.53 0 0 1 -0.43,0.25 c -1.09,-0.01 -14.76,0.31 -29,0.31 z m -18,-25.86 c -4,0 -7.34,0.37 -9.47,1.31 v 0 c -6,2.65 -12.34,9.54 -11.88,15.2 0.27,3.34 2.94,5.76 7.73,7 8,2.06 53,1.17 59.73,1 l -11.28,-20.05 c -2.25,-0.45 -21.71,-4.46 -34.83,-4.46 z m -9.67,0.86 z"
         fill="#231f20"
         id="path30168" />
      <circle
         cx="283.26999"
         cy="229.38"
         r="26.41"
         fill="#231f20"
         id="circle30170" />
      <path
         d="m 283.27,256.29 a 26.91,26.91 0 1 1 26.91,-26.91 26.94,26.94 0 0 1 -26.91,26.91 z m 0,-52.82 a 25.91,25.91 0 1 0 25.91,25.91 25.95,25.95 0 0 0 -25.91,-25.91 z"
         fill="#231f20"
         id="path30172" />
      <circle
         cx="283.26999"
         cy="229.38"
         r="18.67"
         fill="#ffffff"
         id="circle30174" />
      <path
         d="m 283.27,210.71 a 18.68,18.68 0 1 1 -18.67,18.67 18.67,18.67 0 0 1 18.67,-18.67 m 0,-1 A 19.68,19.68 0 1 0 303,229.38 19.7,19.7 0 0 0 283.32,209.71 Z"
         fill="#231f20"
         id="path30176" />
      <circle
         cx="283.26999"
         cy="229.38"
         r="7.4099998"
         fill="#d1d3d4"
         id="circle30178" />
      <path
         d="m 249.34,136.89 -14.87,8.33 c 0,0 10.11,48.19 9.22,53.25 -0.89,5.06 -3,8.33 -6.84,8.63 -3.84,0.3 -31.54,0 -37.49,0 -5.95,0 9.46,-41.35 9.46,-41.35 h -79.67 c 0,0 -16.06,3.57 -25.58,15.47 -9.52,11.9 -15.26,34.78 -13.17,36.58 2.09,1.8 81.53,0.77 81.53,0.77 l 8.39,12.92 H 244 c 9.52,0 19.93,-26.47 19.93,-26.47 H 310 c 0,0 -5.75,-13.19 -18.54,-16.46 -12.79,-3.27 -18.35,-2.88 -18.35,-2.88 0,0 6.25,-1.49 6.25,-7.44 0,-5.95 -20.2,-35.7 -30.02,-41.35 z"
         fill="#68e1fd"
         id="path30180" />
      <path
         d="m 126.7,166.42 c 0,0 -12.7,-10.19 -5.7,-12.87 7,-2.68 82.15,-3.27 87.86,2.38 5.71,5.65 4.23,11.23 -1,12.52 -5.23,1.29 -81.16,-2.03 -81.16,-2.03 z"
         fill="#231f20"
         id="path30182" />
      <path
         d="m 236.55,146.56 c -0.6,-0.15 -11.47,-11.75 -11.46,-19.49 0.01,-7.74 6.65,-11.75 13.14,-11 A 95.27,95.27 0 0 0 254,116 l 3,17.19 -11.68,1.81 3.87,4.47 z"
         fill="#68e1fd"
         id="path30184" />
      <path
         d="m 194.15,136.06 c -1,-0.2 -35.94,-4.79 -35.94,-4.79 0,0 -12.42,22.16 -0.12,27 12.3,4.84 55.7,3.88 55.7,3.88 L 206.2,200 h 16.27 c 0,0 15.66,-39.27 11.3,-49.19 -4.36,-9.92 -42.42,-11.07 -42.42,-11.07 z"
         fill="#231f20"
         id="path30186" />
      <path
         d="m 154.64,136.89 c 0,0 10.9,-31.34 19,-45.42 3.69,-6.4 9.76,-12.46 17.6,-12.62 3.47,-0.07 6.41,0.42 9.07,2.73 a 22.57,22.57 0 0 1 7.2,11.82 c 2.27,9.65 -11.87,42.17 -14,47.65 z"
         fill="#68e1fd"
         id="path30188" />
      <path
         d="m 216.32,122 c 0,0 13.68,0.4 15.67,0.6 1.99,0.2 5.75,3.48 5.25,5.31 -0.5,1.83 -5.66,-0.12 -7.14,-0.85 -1.48,-0.73 -14.56,1.61 -14.56,1.61 z"
         fill="#ffffff"
         id="path30190" />
      <path
         d="m 216.32,122 c 0,0 13.68,0.4 15.67,0.6 1.99,0.2 5.75,3.48 5.25,5.31 -0.15,0.55 -0.73,0.76 -1.5,0.76 a 16.51,16.51 0 0 1 -5.64,-1.61 3.13,3.13 0 0 0 -1.17,-0.14 c -3.61,0 -13.39,1.75 -13.39,1.75 l 0.78,-6.67 m -0.89,-1 -0.11,0.91 -0.78,6.66 -0.16,1.34 1.33,-0.23 c 0.1,0 9.74,-1.74 13.22,-1.74 a 3.62,3.62 0 0 1 0.77,0 17.06,17.06 0 0 0 6,1.7 c 1.79,0 2.32,-0.94 2.47,-1.5 a 3.46,3.46 0 0 0 -0.75,-2.83 c -1.14,-1.66 -3.57,-3.56 -5.37,-3.74 -2,-0.2 -15.18,-0.58 -15.74,-0.6 h -0.92 z"
         fill="#231f20"
         id="path30192" />
      <path
         d="m 170.5,214.74 a 0.46,0.46 0 0 1 -0.29,-0.1 0.5,0.5 0 0 1 -0.11,-0.7 c 0.17,-0.23 16.8,-23.17 2.26,-35.42 -12.12,-10.21 -40.87,-12.3 -58.37,0.42 -13.99,10.13 -17.53,33.43 -17.57,33.67 a 0.50559371,0.50559371 0 1 1 -1,-0.15 72.56,72.56 0 0 1 3.58,-13.21 c 2.44,-6.63 6.93,-15.68 14.41,-21.12 C 128,167.52 157.85,165 173,177.76 c 15.15,12.76 -1.93,36.54 -2.1,36.77 a 0.49,0.49 0 0 1 -0.4,0.21 z"
         fill="#231f20"
         id="path30194" />
      <path
         d="m 198.2,202 h -19.55 a 0.5,0.5 0 0 1 -0.5,-0.5 0.5,0.5 0 0 1 0.5,-0.5 h 19.55 a 0.5,0.5 0 0 1 0.5,0.5 0.5,0.5 0 0 1 -0.5,0.5 z"
         fill="#231f20"
         id="path30196" />
      <path
         d="m 239.82,224.26 h -56.23 a 0.51,0.51 0 0 1 -0.5,-0.5 0.5,0.5 0 0 1 0.5,-0.5 h 56.23 c 2.65,0 7.61,-5 13,-13.12 8.3,-12.61 15.35,-29.24 12.77,-35.27 -2.24,-5.22 -6,-7.78 -9.72,-10.26 -3.72,-2.48 -7.09,-4.76 -9,-9.38 a 22.7,22.7 0 0 1 -0.57,-17.06 0.5,0.5 0 1 1 0.91,0.41 22.16,22.16 0 0 0 0.58,16.26 c 1.82,4.35 5.14,6.58 8.66,8.95 3.8,2.55 7.73,5.2 10.08,10.68 2.82,6.58 -4.52,23.57 -12.86,36.22 -2.76,4.08 -9.49,13.57 -13.85,13.57 z"
         fill="#231f20"
         id="path30198" />
      <path
         d="m 241.85,232.16 c -1,0 -2.23,0 -3.62,-0.06 -1.88,0 -4.22,-0.11 -7,-0.11 H 205 a 0.5,0.5 0 0 1 -0.5,-0.5 0.51,0.51 0 0 1 0.5,-0.5 h 26.18 c 2.83,0 5.18,0.06 7.07,0.11 8.76,0.22 9.28,0.23 14.22,-6.12 6.11,-7.85 18.39,-36.33 18.52,-36.62 a 0.5,0.5 0 1 1 0.91,0.4 c -0.5,1.17 -12.46,28.88 -18.64,36.83 -4.42,5.7 -5.77,6.57 -11.41,6.57 z"
         fill="#231f20"
         id="path30200" />
      <path
         d="m 206.2,200 c 0,0 -4.31,8.92 -1.78,9.52 2.53,0.6 34.68,4.05 32.13,0.63 C 234,206.73 222.47,200 222.47,200 Z"
         fill="#ffffff"
         id="path30202" />
      <path
         d="m 230,212.09 a 228.2,228.2 0 0 1 -25.7,-2.09 1.38,1.38 0 0 1 -1,-0.78 c -1,-2.18 2.05,-8.7 2.4,-9.44 a 0.51,0.51 0 0 1 0.45,-0.28 h 16.27 a 0.45,0.45 0 0 1 0.25,0.07 c 0.47,0.27 11.64,6.82 14.23,10.28 A 1,1 0 0 1 237,211 c -0.5,0.79 -3.26,1.09 -7,1.09 z m -23.5,-11.63 c -1.25,2.65 -2.88,7 -2.27,8.29 a 0.39,0.39 0 0 0 0.28,0.24 c 3.46,0.82 30.35,3.36 31.68,1.43 -2.39,-3.13 -12.67,-9.25 -13.88,-10 z"
         fill="#231f20"
         id="path30204" />
      <path
         d="m 196.53,91.25 -1.82,27 24.63,1 1,12.49 c 0,0 -33.51,1.5 -40.46,-4.21 -6.95,-5.71 -2.39,-33.53 1.38,-37.47 3.77,-3.94 15.85,-7.28 15.27,1.19 z"
         fill="#68e1fd"
         id="path30206" />
      <path
         d="m 147,190.56 h -28.36 a 0.5,0.5 0 1 1 0,-1 H 147 a 0.5,0.5 0 0 1 0,1 z"
         fill="#231f20"
         id="path30208" />
      <path
         d="m 144.53,194.31 h -28.36 a 0.5,0.5 0 0 1 0,-1 h 28.36 a 0.5,0.5 0 1 1 0,1 z"
         fill="#231f20"
         id="path30210" />
      <path
         d="m 142.05,198.06 h -28.36 a 0.51,0.51 0 0 1 -0.5,-0.5 0.5,0.5 0 0 1 0.5,-0.5 h 28.36 a 0.5,0.5 0 0 1 0.5,0.5 0.5,0.5 0 0 1 -0.5,0.5 z"
         fill="#231f20"
         id="path30212" />
      <path
         d="m 139.58,201.81 h -28.36 a 0.5,0.5 0 0 1 -0.5,-0.5 0.5,0.5 0 0 1 0.5,-0.5 h 28.36 a 0.5,0.5 0 0 1 0.5,0.5 0.5,0.5 0 0 1 -0.5,0.5 z"
         fill="#231f20"
         id="path30214" />
      <path
         d="m 234.47,145.72 a 0.49,0.49 0 0 1 -0.44,-0.26 0.5,0.5 0 0 1 0.19,-0.68 l 14.88,-8.33 a 0.51,0.51 0 0 1 0.68,0.19 0.5,0.5 0 0 1 -0.2,0.68 l -14.87,8.33 a 0.44,0.44 0 0 1 -0.24,0.07 z"
         fill="#231f20"
         id="path30216" />
      <circle
         cx="231.56"
         cy="127.92"
         r="3.3499999"
         fill="#231f20"
         id="circle30218" />
      <path
         d="m 213.05,119.46 v 0 l -18.34,-0.74 a 0.48,0.48 0 0 1 -0.35,-0.16 0.53,0.53 0 0 1 -0.13,-0.36 l 1.67,-29 a 0.50089919,0.50089919 0 1 1 1,0.06 l -1.64,28.54 17.83,0.71 a 0.51,0.51 0 0 1 0.48,0.52 0.5,0.5 0 0 1 -0.52,0.43 z"
         fill="#231f20"
         id="path30220" />
      <path
         d="m 201,132.42 c -8.95,0 -19.16,-0.88 -21.59,-4.65 -4,-6.2 -3.77,-24.21 -3.69,-31 0,-0.65 0,-1.17 0,-1.54 a 0.5,0.5 0 1 1 1,0 c 0,0.37 0,0.9 0,1.55 -0.07,6.06 -0.28,24.49 3.54,30.44 1.67,2.6 8.25,4 19,4.17 8.25,0.1 16.09,-0.62 16.17,-0.63 a 0.50202092,0.50202092 0 1 1 0.09,1 c -0.52,0.06 -7.07,0.66 -14.52,0.66 z"
         fill="#231f20"
         id="path30222" />
      <path
         d="m 208.1,82.77 c 0,0 -17.27,-8.77 -18.85,-6.45 A 40.55,40.55 0 0 0 186.18,82 c 0,0 17.43,8.73 20.26,6.35 a 5.14,5.14 0 0 0 1.66,-5.58 z"
         fill="#68e1fd"
         id="path30224" />
      <path
         d="m 205.33,162.69 c -9.71,0 -34,-0.19 -42.82,-2 -9.63,-2 -9.52,-4.83 -9.46,-6.19 0,-0.12 0,-0.27 0,-0.32 a 0.5,0.5 0 0 1 0.23,-0.66 0.52,0.52 0 0 1 0.68,0.24 1.68,1.68 0 0 1 0.09,0.78 c 0,1 -0.14,3.33 8.66,5.17 10.8,2.26 46.31,2 46.67,2 a 0.49,0.49 0 0 1 0.5,0.5 0.5,0.5 0 0 1 -0.5,0.5 z"
         fill="#ffffff"
         id="path30226" />
    </g>
  </g>
</svg>
