<?xml version="1.0" encoding="UTF-8" standalone="no"?>
<!-- Created with Inkscape (http://www.inkscape.org/) -->

<svg
   width="186.00002"
   height="160"
   viewBox="0 0 49.212503 42.333333"
   version="1.1"
   id="svg5"
   inkscape:version="1.2 (dc2aedaf03, 2022-05-15)"
   sodipodi:docname="bgnd-calendar.svg"
   xmlns:inkscape="http://www.inkscape.org/namespaces/inkscape"
   xmlns:sodipodi="http://sodipodi.sourceforge.net/DTD/sodipodi-0.dtd"
   xmlns:xlink="http://www.w3.org/1999/xlink"
   xmlns="http://www.w3.org/2000/svg"
   xmlns:svg="http://www.w3.org/2000/svg">
  <sodipodi:namedview
     id="namedview7"
     pagecolor="#505050"
     bordercolor="#eeeeee"
     borderopacity="1"
     inkscape:showpageshadow="0"
     inkscape:pageopacity="0"
     inkscape:pagecheckerboard="0"
     inkscape:deskcolor="#505050"
     inkscape:document-units="px"
     showgrid="false"
     inkscape:zoom="2"
     inkscape:cx="74.25"
     inkscape:cy="87.75"
     inkscape:window-width="1366"
     inkscape:window-height="699"
     inkscape:window-x="0"
     inkscape:window-y="0"
     inkscape:window-maximized="1"
     inkscape:current-layer="layer1" />
  <defs
     id="defs2">
    <linearGradient
       id="linear-gradient"
       x1="104.12"
       y1="230.53999"
       x2="151.94"
       y2="193.21001"
       gradientUnits="userSpaceOnUse">
      <stop
         offset="0"
         stop-color="#fff"
         stop-opacity="0"
         id="stop6669" />
      <stop
         offset="0.98"
         stop-color="#0800bf"
         id="stop6671" />
    </linearGradient>
    <linearGradient
       id="linear-gradient-2"
       x1="83.230003"
       y1="179.7"
       x2="129.78999"
       y2="132.33"
       xlink:href="#linear-gradient" />
    <linearGradient
       id="linear-gradient-3"
       x1="175.78"
       y1="221.98"
       x2="199.13"
       y2="151.92"
       xlink:href="#linear-gradient" />
    <linearGradient
       id="linear-gradient-4"
       x1="253.03"
       y1="255.50999"
       x2="276.60001"
       y2="236.50999"
       xlink:href="#linear-gradient" />
    <linearGradient
       id="linear-gradient-36"
       x1="183.83"
       y1="264.73001"
       x2="185.89999"
       y2="304.51999"
       gradientUnits="userSpaceOnUse">
      <stop
         offset="0.01"
         id="stop18633" />
      <stop
         offset="0.08"
         stop-opacity="0.69"
         id="stop18635" />
      <stop
         offset="0.21"
         stop-opacity="0.32"
         id="stop18637" />
      <stop
         offset="1"
         stop-opacity="0"
         id="stop18639" />
    </linearGradient>
    <linearGradient
       id="linear-gradient-2-7"
       x1="198.78999"
       y1="115.83"
       x2="207.47"
       y2="258.13"
       xlink:href="#linear-gradient-36" />
    <linearGradient
       id="linear-gradient-3-5"
       x1="2316.74"
       y1="-609.72998"
       x2="2301.1799"
       y2="-592.25"
       gradientTransform="matrix(-0.82,0.58,0.58,0.82,2373.07,-750.08)"
       xlink:href="#linear-gradient-36" />
    <linearGradient
       id="linear-gradient-4-3"
       x1="4330.77"
       y1="2142.8401"
       x2="4507.3301"
       y2="2228.49"
       gradientTransform="rotate(-142.1,1925.8456,1863.0268)"
       gradientUnits="userSpaceOnUse">
      <stop
         offset="0.01"
         id="stop18644" />
      <stop
         offset="0.08"
         stop-opacity="0.69"
         id="stop18646" />
      <stop
         offset="0.21"
         stop-opacity="0.32"
         id="stop18648" />
      <stop
         offset="1"
         stop-opacity="0"
         id="stop18650" />
    </linearGradient>
    <linearGradient
       id="linear-gradient-5"
       x1="151.05"
       y1="89.309998"
       x2="160.05"
       y2="133.45"
       xlink:href="#linear-gradient-4-3" />
    <linearGradient
       id="linear-gradient-6"
       x1="2290.73"
       y1="-591.78003"
       x2="2325.28"
       y2="-589.91998"
       gradientTransform="matrix(-0.82,0.58,0.58,0.82,2373.07,-750.08)"
       xlink:href="#linear-gradient-36" />
    <linearGradient
       id="linear-gradient-7"
       x1="169.8"
       y1="127.82"
       x2="168.28999"
       y2="306.51999"
       xlink:href="#linear-gradient-4-3" />
    <linearGradient
       id="linear-gradient-8"
       x1="163.48"
       y1="158.08"
       x2="90.669998"
       y2="199.84"
       xlink:href="#linear-gradient-4-3" />
    <linearGradient
       id="linear-gradient-9"
       x1="130.94"
       y1="144.46001"
       x2="3.3"
       y2="217.66"
       xlink:href="#linear-gradient-4-3" />
    <linearGradient
       id="linear-gradient-10"
       x1="287.37"
       y1="96.879997"
       x2="352.62"
       y2="250.07001"
       xlink:href="#linear-gradient-4-3" />
    <linearGradient
       id="linear-gradient-11"
       x1="169.38"
       y1="134.78"
       x2="406.73001"
       y2="301.17999"
       xlink:href="#linear-gradient-4-3" />
    <linearGradient
       id="linear-gradient-12"
       x1="199.17"
       y1="253.11"
       x2="243.94"
       y2="12.38"
       xlink:href="#linear-gradient-4-3" />
    <linearGradient
       id="linear-gradient-13"
       x1="171.77"
       y1="88.489998"
       x2="165.00999"
       y2="385.82001"
       xlink:href="#linear-gradient-4-3" />
    <linearGradient
       id="linear-gradient-14"
       x1="144.75999"
       y1="213.89"
       x2="232.33"
       y2="309.06"
       xlink:href="#linear-gradient-4-3" />
    <linearGradient
       id="linear-gradient-15"
       x1="163.53"
       y1="235.49001"
       x2="213.67"
       y2="305.67999"
       xlink:href="#linear-gradient-36" />
    <linearGradient
       id="linear-gradient-56"
       x1="401.64999"
       y1="531.53998"
       x2="412.84"
       y2="766.45001"
       gradientUnits="userSpaceOnUse">
      <stop
         offset="0"
         stop-opacity="0"
         id="stop25096" />
      <stop
         offset="0.97"
         id="stop25098" />
    </linearGradient>
    <linearGradient
       id="linear-gradient-2-2"
       x1="343.73001"
       y1="-19.889999"
       x2="352.92999"
       y2="557.12"
       gradientUnits="userSpaceOnUse">
      <stop
         offset="0"
         stop-color="#fff"
         id="stop25101" />
      <stop
         offset="1"
         stop-color="#fff"
         stop-opacity="0"
         id="stop25103" />
    </linearGradient>
    <linearGradient
       id="linear-gradient-3-9"
       x1="347.72"
       y1="229.94"
       x2="317.85001"
       y2="238.37"
       gradientUnits="userSpaceOnUse">
      <stop
         offset="0"
         stop-color="#ecc4d7"
         id="stop25106" />
      <stop
         offset="0.42"
         stop-color="#efd4d1"
         id="stop25108" />
      <stop
         offset="1"
         stop-color="#f2eac9"
         id="stop25110" />
    </linearGradient>
    <linearGradient
       id="linear-gradient-4-1"
       x1="187.08"
       y1="72.580002"
       x2="175.47"
       y2="306.81"
       xlink:href="#linear-gradient-2-2" />
    <linearGradient
       id="linear-gradient-5-2"
       x1="254.98"
       y1="145.35001"
       x2="260.59"
       y2="145.35001"
       xlink:href="#linear-gradient-3-9" />
    <linearGradient
       id="linear-gradient-6-7"
       x1="211.53"
       y1="146.59"
       x2="219.07001"
       y2="146.59"
       xlink:href="#linear-gradient-3-9" />
    <linearGradient
       id="linear-gradient-7-0"
       x1="215.55"
       y1="147.28999"
       x2="214.69"
       y2="151.2"
       xlink:href="#linear-gradient-3-9" />
    <linearGradient
       id="linear-gradient-8-9"
       x1="1035.91"
       y1="145.99001"
       x2="1035.0601"
       y2="149.89999"
       gradientTransform="matrix(-1,0,0,1,1292.73,0)"
       xlink:href="#linear-gradient-3-9" />
    <linearGradient
       id="linear-gradient-9-3"
       x1="344.60999"
       y1="225.28999"
       x2="482.94"
       y2="225.28999"
       xlink:href="#linear-gradient-3-9" />
    <linearGradient
       id="linear-gradient-10-6"
       x1="410.39999"
       y1="309.41"
       x2="407.64001"
       y2="637.46997"
       xlink:href="#linear-gradient-56" />
    <linearGradient
       id="linear-gradient-11-0"
       x1="543.37"
       y1="340.22"
       x2="513.15002"
       y2="518.27002"
       xlink:href="#linear-gradient-56" />
    <linearGradient
       id="linear-gradient-12-6"
       x1="532.19"
       y1="250.07001"
       x2="645.19"
       y2="250.07001"
       xlink:href="#linear-gradient-3-9" />
    <linearGradient
       id="linear-gradient-13-2"
       x1="234"
       y1="169.8"
       x2="237.72"
       y2="186.95"
       xlink:href="#linear-gradient-3-9" />
    <linearGradient
       id="linear-gradient-14-6"
       x1="225.86"
       y1="118.14"
       x2="245.00999"
       y2="153.58"
       xlink:href="#linear-gradient-3-9" />
    <linearGradient
       id="linear-gradient-15-1"
       x1="485.39001"
       y1="284.89001"
       x2="396.04999"
       y2="582.01001"
       gradientUnits="userSpaceOnUse">
      <stop
         offset="0"
         stop-color="#fff"
         id="stop25124" />
      <stop
         offset="0.89"
         stop-color="#fff"
         stop-opacity="0"
         id="stop25126" />
    </linearGradient>
    <linearGradient
       id="linear-gradient-16"
       x1="344.73999"
       y1="399.82001"
       x2="343.79999"
       y2="636.59003"
       xlink:href="#linear-gradient-56" />
    <linearGradient
       id="linear-gradient-17"
       x1="349.95001"
       y1="295.39999"
       x2="344.35999"
       y2="551.75"
       gradientUnits="userSpaceOnUse">
      <stop
         offset="0"
         stop-color="#fff"
         id="stop25130" />
      <stop
         offset="0.6"
         stop-color="#fff"
         stop-opacity="0.48"
         id="stop25132" />
      <stop
         offset="0.87"
         stop-color="#fff"
         stop-opacity="0.13"
         id="stop25134" />
      <stop
         offset="1"
         stop-color="#fff"
         stop-opacity="0"
         id="stop25136" />
    </linearGradient>
    <linearGradient
       id="linear-gradient-18"
       x1="348.28"
       y1="399.82999"
       x2="347.35001"
       y2="636.60999"
       xlink:href="#linear-gradient-56" />
    <linearGradient
       id="linear-gradient-19"
       x1="353.64999"
       y1="306.57001"
       x2="348.04999"
       y2="562.92999"
       xlink:href="#linear-gradient-2-2" />
    <linearGradient
       id="linear-gradient-20"
       x1="359.04999"
       y1="455.76001"
       x2="348.79001"
       y2="798.79999"
       xlink:href="#linear-gradient-56" />
    <linearGradient
       id="linear-gradient-21"
       x1="1368"
       y1="235.8"
       x2="1338.13"
       y2="244.23"
       gradientTransform="matrix(-1,0,0,1,1841.96,0)"
       xlink:href="#linear-gradient-3-9" />
    <linearGradient
       id="linear-gradient-22"
       x1="394.51999"
       y1="313.84"
       x2="371.37"
       y2="464.32999"
       xlink:href="#linear-gradient-3-9" />
    <linearGradient
       id="linear-gradient-23"
       x1="593.46002"
       y1="245.74001"
       x2="660.04999"
       y2="341.20999"
       xlink:href="#linear-gradient-3-9" />
    <linearGradient
       id="linear-gradient-87"
       x1="637.47998"
       y1="453.45001"
       x2="466.5"
       y2="775.17999"
       gradientTransform="translate(0,-170)"
       gradientUnits="userSpaceOnUse">
      <stop
         offset="0"
         stop-opacity="0"
         id="stop36003" />
      <stop
         offset="0.91"
         stop-opacity="0.8"
         id="stop36005" />
      <stop
         offset="1"
         id="stop36007" />
    </linearGradient>
    <linearGradient
       id="linear-gradient-2-9"
       x1="405.79999"
       y1="100.59"
       x2="386.76001"
       y2="362.03"
       xlink:href="#linear-gradient-87"
       gradientTransform="matrix(0.06735709,0,0,0.07090506,-1.0382426e-4,1.864048e-4)" />
    <linearGradient
       id="linear-gradient-3-2"
       x1="357.57999"
       y1="579.03998"
       x2="362.09"
       y2="509.22"
       gradientTransform="matrix(1,0,0,-1,0,600)"
       gradientUnits="userSpaceOnUse">
      <stop
         offset="0.01"
         id="stop36011" />
      <stop
         offset="0.1"
         stop-opacity="0.77"
         id="stop36013" />
      <stop
         offset="0.99"
         stop-opacity="0"
         id="stop36015" />
    </linearGradient>
    <linearGradient
       id="linear-gradient-4-0"
       x1="307.07001"
       y1="511.95999"
       x2="-264.01001"
       y2="513.64001"
       xlink:href="#linear-gradient-87"
       gradientTransform="matrix(0.06735709,0,0,0.07090506,-1.0382426e-4,1.864048e-4)" />
    <linearGradient
       id="linear-gradient-5-23"
       x1="710.53003"
       y1="296.10001"
       x2="254.39999"
       y2="367.06"
       xlink:href="#linear-gradient-87"
       gradientTransform="matrix(0.06735709,0,0,0.07090506,-1.0382426e-4,1.864048e-4)" />
    <linearGradient
       id="linear-gradient-6-75"
       x1="432.31"
       y1="295.53"
       x2="434.19"
       y2="324.06"
       gradientTransform="translate(0,-170)"
       gradientUnits="userSpaceOnUse">
      <stop
         offset="0"
         stop-color="#183866"
         id="stop36020" />
      <stop
         offset="1"
         stop-color="#1a7fc1"
         id="stop36022" />
    </linearGradient>
    <linearGradient
       id="linear-gradient-7-9"
       x1="432.31"
       y1="369.39999"
       x2="434.19"
       y2="397.94"
       xlink:href="#linear-gradient-6-75"
       gradientTransform="matrix(0.06735709,0,0,0.07090506,-1.0382426e-4,1.864048e-4)" />
    <linearGradient
       id="linear-gradient-8-2"
       x1="446.06"
       y1="369.39999"
       x2="447.92999"
       y2="397.94"
       xlink:href="#linear-gradient-6-75"
       gradientTransform="matrix(0.06735709,0,0,0.07090506,-1.0382426e-4,1.864048e-4)" />
    <linearGradient
       id="linear-gradient-9-2"
       x1="459.89001"
       y1="369.39999"
       x2="461.76001"
       y2="397.94"
       xlink:href="#linear-gradient-6-75"
       gradientTransform="matrix(0.06735709,0,0,0.07090506,-1.0382426e-4,1.864048e-4)" />
    <linearGradient
       id="linear-gradient-10-8"
       x1="432.29999"
       y1="518.16998"
       x2="434.17999"
       y2="546.71002"
       xlink:href="#linear-gradient-6-75"
       gradientTransform="matrix(0.06735709,0,0,0.07090506,-1.0382426e-4,1.864048e-4)" />
    <linearGradient
       id="linear-gradient-11-9"
       x1="446.06"
       y1="518.16998"
       x2="447.92999"
       y2="546.71002"
       xlink:href="#linear-gradient-6-75"
       gradientTransform="matrix(0.06735709,0,0,0.07090506,-1.0382426e-4,1.864048e-4)" />
    <linearGradient
       id="linear-gradient-12-7"
       x1="459.89001"
       y1="518.16998"
       x2="461.76001"
       y2="546.71002"
       xlink:href="#linear-gradient-6-75"
       gradientTransform="matrix(0.06735709,0,0,0.07090506,-1.0382426e-4,1.864048e-4)" />
    <linearGradient
       id="linear-gradient-13-3"
       x1="703.15997"
       y1="402.81"
       x2="610.33002"
       y2="366.60999"
       gradientTransform="matrix(0.06735709,0,0,0.07090506,-1.0382426e-4,-12.053674)"
       gradientUnits="userSpaceOnUse">
      <stop
         offset="0"
         stop-color="#ecc4d7"
         id="stop36031" />
      <stop
         offset="0.16"
         stop-color="#edcbd5"
         id="stop36033" />
      <stop
         offset="0.42"
         stop-color="#efd4d1"
         id="stop36035" />
      <stop
         offset="0.7"
         stop-color="#f2eac9"
         id="stop36037" />
    </linearGradient>
    <linearGradient
       id="linear-gradient-14-61"
       x1="584"
       y1="430.92001"
       x2="600.92999"
       y2="430.92001"
       gradientTransform="translate(0,-170)"
       gradientUnits="userSpaceOnUse">
      <stop
         offset="0"
         stop-color="#ecc4d7"
         id="stop36040" />
      <stop
         offset="0.42"
         stop-color="#efd4d1"
         id="stop36042" />
      <stop
         offset="1"
         stop-color="#f2eac9"
         id="stop36044" />
    </linearGradient>
    <linearGradient
       id="linear-gradient-15-2"
       x1="590.35999"
       y1="488.73999"
       x2="604.48999"
       y2="488.73999"
       xlink:href="#linear-gradient-14-61"
       gradientTransform="matrix(0.06735709,0,0,0.07090506,-1.0382426e-4,1.864048e-4)" />
    <linearGradient
       id="linear-gradient-16-9"
       x1="638.95001"
       y1="418.78"
       x2="600.41998"
       y2="464.03"
       xlink:href="#linear-gradient-14-61"
       gradientTransform="matrix(0.06735709,0,0,0.07090506,-1.0382426e-4,1.864048e-4)" />
    <linearGradient
       id="linear-gradient-17-3"
       x1="140.39999"
       y1="49.02"
       x2="146.60001"
       y2="102.52"
       gradientTransform="matrix(1,0,0,-1,0,600)"
       gradientUnits="userSpaceOnUse">
      <stop
         offset="0.1"
         stop-opacity="0.77"
         id="stop36049" />
      <stop
         offset="0.99"
         stop-opacity="0"
         id="stop36051" />
    </linearGradient>
    <linearGradient
       id="linear-gradient-18-1"
       x1="163.84"
       y1="130.91"
       x2="132.02"
       y2="134.00999"
       xlink:href="#linear-gradient-17-3"
       gradientTransform="matrix(0.06735709,0,0,0.07090506,-1.0382426e-4,1.864048e-4)" />
    <linearGradient
       id="linear-gradient-19-9"
       x1="123.02"
       y1="129.86"
       x2="121.92"
       y2="58.459999"
       gradientTransform="matrix(0.06735709,0,0,-0.07090506,-1.0382426e-4,42.543222)"
       gradientUnits="userSpaceOnUse">
      <stop
         offset="0.36"
         stop-opacity="0.77"
         id="stop36055" />
      <stop
         offset="0.99"
         stop-opacity="0"
         id="stop36057" />
    </linearGradient>
    <linearGradient
       id="linear-gradient-20-4"
       x1="120.08"
       y1="69.760002"
       x2="121.21"
       y2="31.84"
       xlink:href="#linear-gradient-3-2" />
    <linearGradient
       id="linear-gradient-21-7"
       x1="158.89"
       y1="64.269997"
       x2="134.39"
       y2="18.379999"
       xlink:href="#linear-gradient-3-2" />
    <linearGradient
       id="linear-gradient-22-8"
       x1="160.25999"
       y1="97.540001"
       x2="145.91"
       y2="47.98"
       xlink:href="#linear-gradient-17-3"
       gradientTransform="matrix(0.06735709,0,0,0.07090506,-1.0382426e-4,1.864048e-4)" />
    <linearGradient
       inkscape:collect="always"
       xlink:href="#linear-gradient-87"
       id="linearGradient37041"
       gradientUnits="userSpaceOnUse"
       gradientTransform="matrix(0.06735709,0,0,0.07090506,-1.0382426e-4,-12.053674)"
       x1="637.47998"
       y1="453.45001"
       x2="466.5"
       y2="775.17999" />
    <linearGradient
       inkscape:collect="always"
       xlink:href="#linear-gradient-3-2"
       id="linearGradient37043"
       gradientUnits="userSpaceOnUse"
       gradientTransform="matrix(0.06735709,0,0,-0.07090506,-1.0382426e-4,42.543222)"
       x1="357.57999"
       y1="579.03998"
       x2="362.09"
       y2="509.22" />
    <linearGradient
       inkscape:collect="always"
       xlink:href="#linear-gradient-6-75"
       id="linearGradient37045"
       gradientUnits="userSpaceOnUse"
       gradientTransform="matrix(0.06735709,0,0,0.07090506,-1.0382426e-4,-12.053674)"
       x1="432.31"
       y1="295.53"
       x2="434.19"
       y2="324.06" />
    <linearGradient
       inkscape:collect="always"
       xlink:href="#linear-gradient-14-61"
       id="linearGradient37047"
       gradientUnits="userSpaceOnUse"
       gradientTransform="matrix(0.06735709,0,0,0.07090506,-1.0382426e-4,-12.053674)"
       x1="584"
       y1="430.92001"
       x2="600.92999"
       y2="430.92001" />
    <linearGradient
       inkscape:collect="always"
       xlink:href="#linear-gradient-17-3"
       id="linearGradient37049"
       gradientUnits="userSpaceOnUse"
       gradientTransform="matrix(0.06735709,0,0,-0.07090506,-1.0382426e-4,42.543222)"
       x1="140.39999"
       y1="49.02"
       x2="146.60001"
       y2="102.52" />
  </defs>
  <g
     inkscape:label="Layer 1"
     inkscape:groupmode="layer"
     id="layer1">
    <path
       d="M 10.686099,9.0441268 C 7.7782929,10.679197 4.7822496,12.391555 2.7554747,15.129908 c -1.2171426,1.646416 -2.02812195,3.606231 -2.4551659,5.645461 -0.731498,3.480729 -0.189947,7.515936 2.3265139,9.909691 0.8756422,0.83668 1.9466199,1.427319 3.0512762,1.881111 a 16.367773,17.22993 0 0 0 7.2011461,1.123846 c 2.011957,-0.165209 4.020545,-0.723232 6.022398,-0.457338 2.441694,0.323327 4.573546,1.826514 6.848195,2.816349 a 17.877245,18.818912 0 0 0 8.93896,1.283382 c 0.765176,-0.09785 1.539783,-0.25455 2.21268,-0.6502 0.798855,-0.4701 1.390924,-1.238002 2.020713,-1.939962 a 17.621288,18.549473 0 0 1 4.948051,-3.877798 c 0.971963,-0.511935 2.001853,-0.936656 2.845838,-1.657051 2.222783,-1.893165 2.603351,-5.281009 2.474025,-8.285257 C 49.06078,17.917895 48.41752,14.601665 46.133441,12.777278 45.623548,12.370283 45.049665,12.054756 44.555264,11.62578 42.906363,10.194916 42.413309,7.799743 41.357149,5.8420543 38.988874,1.4643759 33.70471,-0.45218788 28.947279,0.08952678 22.130068,0.86593719 16.546839,5.7491687 10.686099,9.0441268 Z"
       fill="#68e1fd"
       opacity="0.18"
       style="isolation:isolate;stroke-width:0.0691083;fill:#97aaf2;fill-opacity:1"
       id="path36067" />
    <path
       d="m 46.403543,20.952632 c -0.06197,0.602693 -0.768545,1.614508 -1.745896,2.751825 -1.601752,1.860549 -3.928939,4.05506 -5.32862,5.333479 v 0 c -0.722068,0.660126 -1.196935,1.076338 -1.196935,1.076338 V 18.660271 c 0,0 1.694704,-2.284561 2.925992,-2.431334 1.231288,-0.146774 3.716091,1.369176 3.716091,1.369176 0,0 1.836827,1.258565 1.629368,3.354519 z"
       fill="#68e1fd"
       id="path36069"
       style="stroke-width:0.0691083;fill:#97aaf2;fill-opacity:1" />
    <path
       d="m 44.657647,23.704457 c -1.601752,1.860549 -3.928939,4.05506 -5.32862,5.333479 -0.104403,-0.175136 -0.125284,-0.413377 -0.134714,-0.628928 -0.03705,-1.077048 -0.02829,-2.155514 -0.01886,-3.233271 0.0088,-1.046559 0.01751,-2.092408 0.08016,-3.13684 0.05927,-0.972817 0.172434,-1.967615 0.595437,-2.836202 a 1.0346049,1.0891017 0 0 1 0.232382,0.317654 c 0.532794,0.9636 0.86958,2.026467 1.206365,3.081534 q 0.249895,0.779956 0.49979,1.566293 a 3.58205,3.7707311 0 0 0 0.985434,-0.840225 c 0.255957,-0.29851 0.484298,-0.621128 0.719374,-0.937365 0.164351,-0.221224 0.484971,-0.85086 0.740928,-0.614038 0.41492,0.380761 0.448598,1.252184 0.422329,1.927909 z"
       fill="url(#linear-gradient)"
       id="path36071"
       style="fill:url(#linearGradient37041);stroke-width:0.0691083" />
    <rect
       x="11.787387"
       y="3.5794737"
       width="27.588791"
       height="33.635235"
       fill="#68e1fd"
       id="rect36073"
       style="stroke-width:0.0691083;fill:#97aaf2;fill-opacity:1" />
    <rect
       x="11.787387"
       y="3.5794737"
       width="27.588791"
       height="33.635235"
       fill="url(#linear-gradient-2)"
       id="rect36075"
       style="fill:url(#linear-gradient-2-9);stroke-width:0.0691083" />
    <path
       d="m 35.584647,5.2053269 -23.79726,2.2455632 c 0.107098,0 0,-3.1198226 0,-3.8714163 h 25.090516 v 0.2637669 a 1.2939297,1.3620862 0 0 1 -1.293256,1.3620862 z"
       fill="url(#linear-gradient-3)"
       id="path36077"
       style="fill:url(#linearGradient37043);stroke-width:0.0691083" />
    <rect
       x="11.787387"
       y="7.4508901"
       width="27.588791"
       height="33.635235"
       fill="#68e1fd"
       id="rect36079"
       style="stroke-width:0.0691083;fill:#97aaf2;fill-opacity:1" />
    <rect
       x="11.787387"
       y="7.4508901"
       width="3.9222033"
       height="33.635235"
       fill="url(#linear-gradient-4)"
       id="rect36081"
       style="fill:url(#linear-gradient-4-0);stroke-width:0.0691083" />
    <rect
       x="13.32717"
       y="13.737333"
       width="4.7655139"
       height="5.0165329"
       fill="#ffffff"
       id="rect36083"
       style="stroke-width:0.0691083" />
    <rect
       x="18.357399"
       y="13.737333"
       width="4.7655139"
       height="5.0165329"
       fill="#ffffff"
       id="rect36085"
       style="stroke-width:0.0691083" />
    <rect
       x="23.3883"
       y="13.737333"
       width="4.7655139"
       height="5.0165329"
       fill="#ffffff"
       id="rect36087"
       style="stroke-width:0.0691083" />
    <rect
       x="28.418526"
       y="13.737333"
       width="4.7655139"
       height="5.0165329"
       fill="#ffffff"
       id="rect36089"
       style="stroke-width:0.0691083" />
    <rect
       x="13.32717"
       y="18.97438"
       width="4.7655139"
       height="5.0165329"
       fill="#ffffff"
       id="rect36091"
       style="stroke-width:0.0691083" />
    <rect
       x="18.357399"
       y="18.97438"
       width="4.7655139"
       height="5.0165329"
       fill="#ffffff"
       id="rect36093"
       style="stroke-width:0.0691083" />
    <rect
       x="23.3883"
       y="18.97438"
       width="4.7655139"
       height="5.0165329"
       fill="#ffffff"
       id="rect36095"
       style="stroke-width:0.0691083" />
    <rect
       x="28.418526"
       y="18.97438"
       width="4.7655139"
       height="5.0165329"
       fill="#ffffff"
       id="rect36097"
       style="stroke-width:0.0691083" />
    <rect
       x="13.32717"
       y="24.211428"
       width="4.7655139"
       height="5.0165329"
       fill="#ffffff"
       id="rect36099"
       style="stroke-width:0.0691083" />
    <rect
       x="18.357399"
       y="24.211428"
       width="4.7655139"
       height="5.0165329"
       fill="#ffffff"
       id="rect36101"
       style="stroke-width:0.0691083" />
    <rect
       x="23.3883"
       y="24.211428"
       width="4.7655139"
       height="5.0165329"
       fill="#ffffff"
       id="rect36103"
       style="stroke-width:0.0691083" />
    <rect
       x="28.418526"
       y="24.211428"
       width="4.7655139"
       height="5.0165329"
       fill="#ffffff"
       id="rect36105"
       style="stroke-width:0.0691083" />
    <rect
       x="13.32717"
       y="29.448477"
       width="4.7655139"
       height="5.0165329"
       fill="#ffffff"
       id="rect36107"
       style="stroke-width:0.0691083" />
    <rect
       x="18.357399"
       y="29.448477"
       width="4.7655139"
       height="5.0165329"
       fill="#ffffff"
       id="rect36109"
       style="stroke-width:0.0691083" />
    <rect
       x="23.3883"
       y="29.448477"
       width="4.7655139"
       height="5.0165329"
       fill="#ffffff"
       id="rect36111"
       style="stroke-width:0.0691083" />
    <rect
       x="28.418526"
       y="29.448477"
       width="4.7655139"
       height="5.0165329"
       fill="#ffffff"
       id="rect36113"
       style="stroke-width:0.0691083" />
    <rect
       x="13.32717"
       y="34.685524"
       width="4.7655139"
       height="5.0165329"
       fill="#ffffff"
       id="rect36115"
       style="stroke-width:0.0691083" />
    <rect
       x="18.357399"
       y="34.685524"
       width="4.7655139"
       height="5.0165329"
       fill="#ffffff"
       id="rect36117"
       style="stroke-width:0.0691083" />
    <rect
       x="23.3883"
       y="34.685524"
       width="4.7655139"
       height="5.0165329"
       fill="#ffffff"
       id="rect36119"
       style="stroke-width:0.0691083" />
    <rect
       x="33.364555"
       y="13.737333"
       width="4.7655139"
       height="5.0165329"
       fill="#ffffff"
       id="rect36121"
       style="stroke-width:0.0691083" />
    <rect
       x="33.364555"
       y="8.5002851"
       width="4.7655139"
       height="5.0165329"
       fill="#ffffff"
       id="rect36123"
       style="stroke-width:0.0691083" />
    <rect
       x="28.418526"
       y="8.5002851"
       width="4.7655139"
       height="5.0165329"
       fill="#ffffff"
       id="rect36125"
       style="stroke-width:0.0691083" />
    <rect
       x="33.364555"
       y="18.97438"
       width="4.7655139"
       height="5.0165329"
       fill="#ffffff"
       id="rect36127"
       style="stroke-width:0.0691083" />
    <rect
       x="33.364555"
       y="24.211428"
       width="4.7655139"
       height="5.0165329"
       fill="#ffffff"
       id="rect36129"
       style="stroke-width:0.0691083" />
    <rect
       x="33.364555"
       y="29.448477"
       width="4.7655139"
       height="5.0165329"
       fill="#ffffff"
       id="rect36131"
       style="stroke-width:0.0691083" />
    <path
       d="m 13.924627,2.2195148 v 2.7199181 c 0,0.1467735 0.17715,0.265894 0.394713,0.265894 v 0 c 0.218237,0 0.394712,-0.1191205 0.394712,-0.265894 V 2.2195148 c 0,-0.1467735 -0.176475,-0.265894 -0.394712,-0.265894 v 0 c -0.217563,0 -0.394713,0.1191205 -0.394713,0.265894 z"
       fill="#68e1fd"
       id="path36133"
       style="stroke-width:0.0691083;fill:#97aaf2;fill-opacity:1" />
    <path
       d="m 17.697972,2.2195148 v 2.7199181 c 0,0.1467735 0.176475,0.265894 0.394712,0.265894 v 0 c 0.218237,0 0.394713,-0.1191205 0.394713,-0.265894 V 2.2195148 c 0,-0.1467735 -0.176476,-0.265894 -0.394713,-0.265894 v 0 c -0.218237,0 -0.394712,0.1191205 -0.394712,0.265894 z"
       fill="#68e1fd"
       id="path36135"
       style="stroke-width:0.0691083;fill:#97aaf2;fill-opacity:1" />
    <path
       d="m 21.471316,2.2195148 v 2.7199181 c 0,0.1467735 0.176475,0.265894 0.394712,0.265894 v 0 c 0.218237,0 0.394713,-0.1191205 0.394713,-0.265894 V 2.2195148 c 0,-0.1467735 -0.176476,-0.265894 -0.394713,-0.265894 v 0 c -0.218237,0 -0.394712,0.1191205 -0.394712,0.265894 z"
       fill="#68e1fd"
       id="path36137"
       style="stroke-width:0.0691083;fill:#97aaf2;fill-opacity:1" />
    <path
       d="m 25.24466,2.2195148 v 2.7199181 c 0,0.1467735 0.176476,0.265894 0.394712,0.265894 v 0 c 0.217564,0 0.394713,-0.1191205 0.394713,-0.265894 V 2.2195148 c 0,-0.1467735 -0.177149,-0.265894 -0.394713,-0.265894 v 0 c -0.218236,0 -0.394712,0.1191205 -0.394712,0.265894 z"
       fill="#68e1fd"
       id="path36139"
       style="stroke-width:0.0691083;fill:#97aaf2;fill-opacity:1" />
    <path
       d="m 29.017331,2.2195148 v 2.7199181 c 0,0.1467735 0.177149,0.265894 0.395386,0.265894 v 0 c 0.217563,0 0.394712,-0.1191205 0.394712,-0.265894 V 2.2195148 c 0,-0.1467735 -0.177149,-0.265894 -0.394712,-0.265894 v 0 c -0.218237,0 -0.395386,0.1191205 -0.395386,0.265894 z"
       fill="#68e1fd"
       id="path36141"
       style="stroke-width:0.0691083;fill:#97aaf2;fill-opacity:1" />
    <path
       d="m 32.790675,2.2195148 v 2.7199181 c 0,0.1467735 0.177149,0.265894 0.394712,0.265894 v 0 c 0.218237,0 0.395386,-0.1191205 0.395386,-0.265894 V 2.2195148 c 0,-0.1467735 -0.177149,-0.265894 -0.395386,-0.265894 v 0 c -0.217563,0 -0.394712,0.1191205 -0.394712,0.265894 z"
       fill="#68e1fd"
       id="path36143"
       style="stroke-width:0.0691083;fill:#97aaf2;fill-opacity:1" />
    <path
       d="m 36.48319,2.2195148 v 2.7199181 c 0,0.1467735 0.17715,0.265894 0.394713,0.265894 v 0 c 0.218237,0 0.394712,-0.1191205 0.394712,-0.265894 V 2.2195148 c 0,-0.1467735 -0.176475,-0.265894 -0.394712,-0.265894 v 0 c -0.217563,0 -0.394713,0.1191205 -0.394713,0.265894 z"
       fill="#68e1fd"
       id="path36145"
       style="stroke-width:0.0691083;fill:#97aaf2;fill-opacity:1" />
    <rect
       x="39.37685"
       y="3.5794737"
       width="0.62776804"
       height="37.506649"
       fill="#68e1fd"
       id="rect36147"
       style="stroke-width:0.0691083;fill:#97aaf2;fill-opacity:1" />
    <rect
       x="39.37685"
       y="3.5794737"
       width="0.62776804"
       height="37.506649"
       fill="url(#linear-gradient-5)"
       id="rect36149"
       style="fill:url(#linear-gradient-5-23);stroke-width:0.0691083" />
    <path
       d="M 29.519141,9.2355705 A 0.37922042,0.39919549 0 1 1 29.139247,8.837084 v 0 a 0.37989399,0.39990454 0 0 1 0.379894,0.3984865 z"
       fill="url(#linear-gradient-6)"
       id="path36151"
       style="fill:url(#linearGradient37045);stroke-width:0.0691083" />
    <path
       d="m 29.519141,14.473327 a 0.37922042,0.39919549 0 1 1 -0.379894,-0.398486 v 0 a 0.37989399,0.39990454 0 0 1 0.379894,0.398486 z"
       fill="url(#linear-gradient-7)"
       id="path36153"
       style="fill:url(#linear-gradient-7-9);stroke-width:0.0691083" />
    <path
       d="m 30.445301,14.473327 a 0.37922042,0.39919549 0 1 1 -0.379894,-0.398486 v 0 a 0.37989399,0.39990454 0 0 1 0.379894,0.398486 z"
       fill="url(#linear-gradient-8)"
       id="path36155"
       style="fill:url(#linear-gradient-8-2);stroke-width:0.0691083" />
    <path
       d="m 31.376849,14.473327 a 0.37922042,0.39919549 0 1 1 -0.379894,-0.398486 v 0 a 0.37989399,0.39990454 0 0 1 0.379894,0.398486 z"
       fill="url(#linear-gradient-9)"
       id="path36157"
       style="fill:url(#linear-gradient-9-2);stroke-width:0.0691083" />
    <path
       d="M 29.519141,25.022582 A 0.37922042,0.39919549 0 1 1 29.13992,24.623387 v 0 a 0.37854685,0.39848644 0 0 1 0.378547,0.398486 z"
       fill="url(#linear-gradient-10)"
       id="path36159"
       style="fill:url(#linear-gradient-10-8);stroke-width:0.0691083" />
    <ellipse
       cx="14.127373"
       cy="25.022581"
       fill="#ff2235"
       id="circle36161"
       rx="0.37854683"
       ry="0.39848644"
       style="stroke-width:0.0691083" />
    <path
       d="M 30.445301,25.022582 A 0.37922042,0.39919549 0 1 1 30.06608,24.623387 v 0 a 0.37854685,0.39848644 0 0 1 0.378547,0.398486 z"
       fill="url(#linear-gradient-11)"
       id="path36163"
       style="fill:url(#linear-gradient-11-9);stroke-width:0.0691083" />
    <path
       d="m 31.376849,25.022582 a 0.37922042,0.39919549 0 1 1 -0.37922,-0.399195 v 0 a 0.37854685,0.39848644 0 0 1 0.378547,0.398486 z"
       fill="url(#linear-gradient-12)"
       id="path36165"
       style="fill:url(#linear-gradient-12-7);stroke-width:0.0691083" />
    <path
       d="m 46.358413,14.301737 c -0.10575,0.45521 0.0357,1.086266 -0.165025,1.503896 -0.336785,0.70196 -1.321546,1.167807 -1.467037,1.938545 -0.0088,0.04467 -1.104656,0.600566 -1.669782,0.41054 -0.295698,-0.09856 -0.445904,-0.402032 -0.218237,-1.088393 0.0714,-0.212715 0.471499,-0.292129 0.579271,-0.489954 l -0.02223,-0.01773 c -0.54694,-0.434648 -0.606214,-1.355705 -0.493054,-1.970452 0.11316,-0.614746 0.372485,-1.205386 0.65067,-1.766954 0.214195,-0.432521 0.697819,-0.667216 1.161236,-0.659417 0.582639,0.01064 1.197609,0.255968 1.500716,0.779956 0.231708,0.399195 0.248547,0.904749 0.14347,1.359959 z"
       fill="url(#linear-gradient-13)"
       id="path36167"
       style="fill:url(#linear-gradient-13-3);stroke-width:0.0691083" />
    <path
       d="m 43.666824,10.990471 c -0.298392,0.165918 -0.615644,0.361616 -0.949735,0.308437 a 0.45061893,0.47435485 0 0 0 0.189947,0.439611 l -0.20746,0.04893 a 0.0579271,0.06097835 0 0 0 -0.04311,0.02553 0.05455924,0.0574331 0 0 0 0.0047,0.04822 0.68300089,0.71897731 0 0 0 0.241812,0.309855 c -0.03705,0.08367 -0.171087,0.06523 -0.21689,0.14181 a 0.16233059,0.17088119 0 0 0 0,0.14181 0.74968441,0.78917332 0 0 0 0.229014,0.338217 c -0.123937,0.14181 -0.04648,0.404159 0.124611,0.468683 a 0.35833972,0.37721492 0 0 0 0.435126,-0.240368 0.35968686,0.37863302 0 0 1 -0.05119,0.234695 c 0.565126,0.0936 1.169319,0.181517 1.689316,-0.0709 a 0.44051537,0.46371909 0 0 0 -0.03907,0.180099 0.81434722,0.85724218 0 0 0 0.387977,0.02553 2.2477061,2.3661019 0 0 1 -0.07342,0.869296 c -0.04648,0.175845 -0.11316,0.346017 -0.142797,0.525407 a 0.6735709,0.7090506 0 0 0 0.08554,0.530369 c 0.08958,-0.0085 0.1529,-0.09714 0.187252,-0.184353 a 0.9073,0.95509116 0 0 1 0.11114,-0.256676 c 0.134714,-0.165918 0.414919,-0.10494 0.523364,0.0787 0.108445,0.183644 0.06736,0.430393 -0.03637,0.615455 a 0.88911359,0.93594679 0 0 1 -0.581965,0.425431 c 0.01953,0.197825 0.03974,0.39565 0.05927,0.592766 0.354972,-0.354525 0.752379,-0.658708 1.071652,-1.046559 0.319272,-0.38785 0.561084,-0.884186 0.519996,-1.39612 -0.02492,-0.315528 -0.155594,-0.615456 -0.165698,-0.932402 -0.0047,-0.14181 0.01549,-0.287165 0.0101,-0.430393 A 1.1080241,1.1663882 0 0 0 46.299111,11.7513 c -0.17176,-0.06169 -0.361034,-0.07941 -0.513261,-0.183644 -0.189273,-0.129047 -0.287615,-0.369415 -0.475541,-0.501299 -0.202071,-0.14181 -0.515955,-0.199952 -0.751032,-0.270148 -0.305801,-0.08934 -0.623726,0.04609 -0.892481,0.19428 z"
       fill="#3f3d56"
       id="path36169"
       style="stroke-width:0.0691083" />
    <path
       d="m 39.42939,17.699507 a 0.20207127,0.21271518 0 0 0 -0.09295,0.141811 0.13471418,0.14181012 0 0 0 0.108445,0.126211 0.39605969,0.41692175 0 0 0 0.173107,-0.0085 l 0.342174,-0.0709 a 1.1740341,1.2358752 0 0 0 -0.443883,0.460883 0.12663133,0.13330151 0 0 0 0.0061,0.145355 c 0.0458,0.06098 0.123264,0.03687 0.185232,0.01134 l 0.297045,-0.124793 -0.202071,0.206334 a 0.92952784,0.97848983 0 0 0 -0.163004,0.202788 0.38797684,0.40841315 0 0 0 -0.04311,0.112739 0.09362636,0.09855803 0 0 0 0.06736,0.117703 0.08015494,0.08437702 0 0 0 0.04715,0 0.91672999,0.96501787 0 0 0 0.336786,-0.18719 2.2510739,2.3696471 0 0 1 -0.243159,0.302765 0.48227676,0.50768023 0 0 0 -0.140103,0.354525 0.06735709,0.07090506 0 0 0 0.0128,0.03971 0.05994781,0.0631055 0 0 0 0.03705,0.01844 c 0.109792,0.01914 0.209481,-0.06523 0.29233,-0.14181 l 0.305127,-0.291419 a 0.68367446,0.71968636 0 0 0 0.128652,-0.146774 0.19600913,0.20633372 0 0 0 0.03301,-0.107067 0.13471418,0.14181012 0 0 0 -0.145491,-0.129047 v 0 a 0.13875561,0.14606442 0 0 0 -0.06062,0.02198 c 0.0088,-0.06169 0.03166,-0.119121 0.0458,-0.17939 a 0.24181195,0.25454917 0 0 0 -0.01078,-0.180099 0.11652777,0.12266575 0 0 0 -0.148185,-0.05885 0.65538449,0.68990623 0 0 0 0.06736,-0.236114 0.21688983,0.22831429 0 0 0 -0.09901,-0.212715 0.1690663,0.1779717 0 0 1 -0.04984,-0.03332 c -0.02694,-0.03474 -0.0054,-0.08438 0.0061,-0.12763 a 0.19600913,0.20633372 0 0 0 -0.117201,-0.264475 v 0 a 0.20207127,0.21271518 0 0 0 -0.08487,-0.01134 c -0.173782,0.01914 -0.318599,0.13401 -0.447251,0.248876 z"
       fill="url(#linear-gradient-14)"
       id="path36171"
       style="fill:url(#linearGradient37047);stroke-width:0.0691083" />
    <path
       d="m 44.956039,20.363411 c 0.774606,-0.720396 1.733771,-0.174427 1.396986,0.854406 -0.72813,2.225709 -2.252421,7.325201 -3.699925,7.325201 -1.885999,0 -2.648481,-3.520436 -2.648481,-3.520436 l 0.870927,-1.855585 c 0,0 1.231961,2.84542 1.85232,2.075391 0.620359,-0.770029 0.986782,-3.687063 2.192473,-4.845652 z"
       fill="#68e1fd"
       id="path36173"
       style="stroke-width:0.0691083;fill:#97aaf2;fill-opacity:1" />
    <path
       d="m 40.589952,23.044331 a 4.236761,4.4599283 0 0 1 -0.0081,-0.496336 3.5530865,3.7402419 0 0 0 -0.583312,-2.031429 0.27885835,0.29354695 0 0 0 -0.04782,0.205624 l 0.0101,1.883239 a 2.0793134,2.1888392 0 0 1 -0.02964,0.466555 c -0.0229,0.11203 -0.06197,0.219097 -0.09228,0.329708 a 1.8348071,1.9314538 0 0 0 -0.06736,0.709051 0.81973579,0.86291458 0 0 0 0.09632,0.366579 0.38797684,0.40841315 0 0 0 0.290983,0.207043 c 0.03974,0 0.202071,-0.354525 0.225646,-0.402741 q 0.108445,-0.212715 0.202071,-0.428975 c 0.04648,-0.109194 0.145492,-0.270149 0.127979,-0.392814 -0.01953,-0.137556 -0.108445,-0.264476 -0.124611,-0.415504 z"
       fill="url(#linear-gradient-15)"
       id="path36175"
       style="fill:url(#linear-gradient-15-2);stroke-width:0.0691083" />
    <path
       d="m 44.189515,17.057108 c -0.163004,0.192861 -0.324661,0.386432 -0.487665,0.580003 a 1.9270863,2.0285938 0 0 1 -0.439168,0.42543 0.88709288,0.93381964 0 0 1 -0.206113,0.0936 c -0.295698,-0.09856 -0.445904,-0.402032 -0.218237,-1.088393 0.0714,-0.212715 0.471499,-0.292128 0.579271,-0.489954 l -0.02223,-0.01773 a 1.0278692,1.0820112 0 0 0 0.243159,0.08367 c 0.175129,0.02765 0.606214,-0.115575 0.659426,0.157409 0.01886,0.0943 -0.04446,0.182935 -0.108445,0.255968 z"
       fill="url(#linear-gradient-16)"
       id="path36177"
       style="fill:url(#linear-gradient-16-9);stroke-width:0.0691083" />
    <path
       d="m 24.604094,31.907463 0.678959,1.110374 a 0.21150126,0.22264189 0 0 0 0.291657,0.06665 0.23036125,0.24249531 0 0 0 0.04513,-0.04183 l 1.869833,-2.268962 a 0.21015412,0.22122379 0 0 0 -0.158289,-0.366579 h -0.01549 a 0.21015412,0.22122379 0 0 0 -0.161657,0.07941 l -1.462996,1.843532 a 0.21015412,0.22122379 0 0 1 -0.295024,0.02907 0.21419555,0.22547809 0 0 1 -0.04176,-0.04963 l -0.39808,-0.638145 a 0.21082769,0.22193284 0 0 0 -0.20746,-0.09714 v 0 a 0.20948055,0.22051474 0 0 0 -0.144818,0.330417 z"
       fill="#68e1fd"
       id="path36179"
       style="stroke-width:0.0691083;fill:#97aaf2;fill-opacity:1" />
    <path
       d="m 16.428964,37.522435 0.854761,0.885604 a 0.2128484,0.22405999 0 0 1 -0.149532,0.383597 h -0.03637 a 0.21486912,0.22618714 0 0 1 -0.15088,-0.06523 l -0.83186,-0.876387 a 0.21352198,0.22476904 0 0 0 -0.301086,0 l -0.83186,0.876387 a 0.21217483,0.22335094 0 0 1 -0.150207,0.06523 h -0.03705 a 0.2128484,0.22405999 0 0 1 -0.149533,-0.383597 l 0.855435,-0.885604 a 0.21150126,0.22264189 0 0 0 0,-0.314818 v 0 l -0.863518,-0.909003 a 0.2128484,0.22405999 0 0 1 0.150207,-0.382179 v 0 a 0.21150126,0.22264189 0 0 1 0.148859,0.06381 l 0.875642,0.909003 a 0.2128484,0.22405999 0 0 0 0.298392,0 l 0.875642,-0.909003 a 0.21150126,0.22264189 0 0 1 0.148859,-0.06381 v 0 a 0.2128484,0.22405999 0 0 1 0.15088,0.382179 l -0.863518,0.909003 a 0.21150126,0.22264189 0 0 0 0.004,0.314818 v 0 z"
       fill="#68e1fd"
       id="path36181"
       style="stroke-width:0.0691083;fill:#97aaf2;fill-opacity:1" />
    <polygon
       points="133.84,548.44 130.74,548.44 130.74,489.92 133.84,489.92 135.39,559.98 "
       fill="#68e1fd"
       id="polygon36183"
       transform="matrix(0.06735709,0,0,0.07090506,-1.0382426e-4,1.864048e-4)"
       style="fill:#97aaf2;fill-opacity:1" />
    <path
       d="M 8.8667835,36.928251"
       fill="#607c1c"
       id="path36185"
       style="stroke-width:0.0691083" />
    <path
       d="m 9.0149691,36.548909 v 0.0057 c 0,0.155282 -0.052539,0.310564 -0.1084449,0.496335 -0.3677697,0.11203 -0.6129495,0.20208 -0.9739835,-0.190734 -0.361034,-0.392814 -0.7335187,-1.152207 -0.6156438,-1.535804 0.3677697,-0.11203 1.0844491,0.295674 1.4461567,0.688488 0.1872527,0.200662 0.2505684,0.368707 0.2519155,0.536043 z"
       fill="#68e1fd"
       id="path36187"
       style="stroke-width:0.0691083;fill:#97aaf2;fill-opacity:1" />
    <path
       d="m 10.092009,36.863018 c -0.3313969,0.338217 -0.5644524,0.292838 -0.8682329,0.190735 v 1.833605 h -0.208807 v -4.149365 h 0.208807 v 1.319544 c 0.019533,-0.02269 0.040414,-0.04538 0.063316,-0.07091 0.3731583,-0.380052 1.0945519,-0.772866 1.4589539,-0.648073 0.107098,0.389269 -0.280879,1.143699 -0.654037,1.524459 z"
       fill="#68e1fd"
       id="path36189"
       style="stroke-width:0.0691083;fill:#97aaf2;fill-opacity:1" />
    <path
       d="m 10.092009,36.863018 c -0.3313969,0.338217 -0.5644524,0.292838 -0.8682329,0.190735 v 1.833605 h -0.208807 v -4.149365 h 0.208807 v 1.319544 c 0.019533,-0.02269 0.040414,-0.04538 0.063316,-0.07091 0.3731583,-0.380052 1.0945519,-0.772866 1.4589539,-0.648073 0.107098,0.389269 -0.280879,1.143699 -0.654037,1.524459 z"
       fill="url(#linear-gradient-17)"
       id="path36191"
       style="fill:url(#linearGradient37049);stroke-width:0.0691083" />
    <path
       d="M 9.0149691,33.736105 H 8.082747 c 0,0.696997 0.4169404,1.26211 0.9315485,1.26211 l 0.2195841,-0.619001 z"
       fill="#68e1fd"
       id="path36193"
       style="stroke-width:0.0691083;fill:#97aaf2;fill-opacity:1" />
    <path
       d="m 9.0311348,33.977891 -0.016166,0.01205 v -0.0709 z"
       fill="#68e1fd"
       id="path36195"
       style="stroke-width:0.0691083;fill:#97aaf2;fill-opacity:1" />
    <path
       d="m 7.2502133,32.314458 c -0.1178749,0.383597 0.2546098,1.143699 0.6163174,1.535804 0.3617076,0.392105 0.6062138,0.303474 0.97331,0.190735 C 8.9577156,33.6574 9.0580776,33.395761 8.6963701,33.002947 8.3346625,32.610133 7.6179831,32.202428 7.2502133,32.314458 Z"
       fill="#68e1fd"
       id="path36197"
       style="stroke-width:0.0691083;fill:#97aaf2;fill-opacity:1" />
    <path
       d="m 10.025325,33.855225 c -0.030984,0.03191 -0.061295,0.06027 -0.090932,0.0858 -0.072072,0.599856 -0.4566811,1.057194 -0.9194243,1.057194 v -1.00827 l 0.016166,-0.01205 -0.016166,-0.05956 v 0.0709 a 0.41761396,0.43961137 0 0 1 -0.067357,0.04113 c -0.3313969,-0.20208 -0.5994781,-0.845188 -0.5779238,-1.391866 0.021554,-0.546678 0.2828998,-1.354996 0.6277681,-1.530841 0.3313968,0.20208 0.5476131,1.028124 0.5280795,1.575511 v 0.04042 c 0.3819147,-0.275821 0.8756425,-0.487118 1.1565215,-0.391396 0.104404,0.388559 -0.284247,1.14228 -0.656732,1.52304 z"
       fill="#68e1fd"
       id="path36199"
       style="stroke-width:0.0691083;fill:#97aaf2;fill-opacity:1" />
    <path
       d="m 10.025325,33.855225 c -0.030984,0.03191 -0.061295,0.06027 -0.090932,0.0858 -0.072072,0.599856 -0.4566811,1.057194 -0.9194243,1.057194 v -1.00827 l 0.016166,-0.01205 -0.016166,-0.05956 v 0.0709 a 0.41761396,0.43961137 0 0 1 -0.067357,0.04113 c -0.3313969,-0.20208 -0.5994781,-0.845188 -0.5779238,-1.391866 0.021554,-0.546678 0.2828998,-1.354996 0.6277681,-1.530841 0.3313968,0.20208 0.5476131,1.028124 0.5280795,1.575511 v 0.04042 c 0.3819147,-0.275821 0.8756425,-0.487118 1.1565215,-0.391396 0.104404,0.388559 -0.284247,1.14228 -0.656732,1.52304 z"
       fill="url(#linear-gradient-18)"
       id="path36201"
       style="fill:url(#linear-gradient-18-1);stroke-width:0.0691083" />
    <path
       d="m 9.0311348,33.977891 -0.016166,0.01205 v -0.0709 z"
       fill="#68e1fd"
       id="path36203"
       style="stroke-width:0.0691083;fill:#97aaf2;fill-opacity:1" />
    <polygon
       points="143.16,556.51 133.94,538.41 106.49,539.51 111.37,578.95 133.94,578.95 "
       fill="#68e1fd"
       id="polygon36205"
       transform="matrix(0.06735709,0,0,0.07090506,-1.0382426e-4,1.864048e-4)"
       style="fill:#97aaf2;fill-opacity:1" />
    <polygon
       points="133.94,578.95 133.94,538.41 161.4,539.51 156.52,578.95 "
       fill="#68e1fd"
       id="polygon36207"
       transform="matrix(0.06735709,0,0,0.07090506,-1.0382426e-4,1.864048e-4)"
       style="fill:#97aaf2;fill-opacity:1" />
    <path
       d="m 9.6993171,38.195324 -0.016839,0.0085 -0.5159553,0.269439 -0.1407764,0.07516 H 6.9720286 A 0.2337291,0.24604056 0 0 1 6.7382995,38.302383 V 37.677 a 0.20948055,0.22051474 0 0 1 0.2074598,-0.222642 h 0.019534 l 2.0604533,0.0043 z"
       fill="#68e1fd"
       id="path36209"
       style="stroke-width:0.0691083;fill:#97aaf2;fill-opacity:1" />
    <path
       d="m 9.6993171,38.195324 -0.016839,0.0085 -0.5159553,0.269439 -0.1407764,0.07516 H 6.9720286 A 0.2337291,0.24604056 0 0 1 6.7382995,38.302383 V 37.677 a 0.20948055,0.22051474 0 0 1 0.2074598,-0.222642 h 0.019534 l 2.0604533,0.0043 z"
       fill="url(#linear-gradient-19)"
       id="path36211"
       style="fill:url(#linear-gradient-19-9);stroke-width:0.0691083" />
    <path
       d="M 11.072055,38.548431 H 9.0217048 v -1.117463 h 2.0503502 a 0.2337291,0.24604056 0 0 1 0.233729,0.24604 v 0.625383 a 0.2337291,0.24604056 0 0 1 -0.233729,0.24604 z"
       fill="#68e1fd"
       id="path36213"
       style="stroke-width:0.0691083;fill:#97aaf2;fill-opacity:1" />
    <polygon
       points="111.37,578.95 107,543.66 133.95,543.66 133.95,578.95 "
       fill="url(#linear-gradient-20)"
       id="polygon36215"
       style="fill:url(#linear-gradient-20-4)"
       transform="matrix(0.06735709,0,0,0.07090506,-1.0382426e-4,1.864048e-4)" />
    <polygon
       points="133.95,578.95 133.95,543.66 160.89,543.66 156.52,578.95 "
       fill="url(#linear-gradient-21)"
       id="polygon36217"
       style="fill:url(#linear-gradient-21-7)"
       transform="matrix(0.06735709,0,0,0.07090506,-1.0382426e-4,1.864048e-4)" />
    <path
       d="m 11.305784,37.70537 v 0.625383 a 0.2337291,0.24604056 0 0 1 -0.233729,0.24604 H 9.0257462 V 37.45933 h 2.0496758 a 0.2337291,0.24604056 0 0 1 0.230362,0.24604 z"
       fill="url(#linear-gradient-22)"
       id="path36219"
       style="fill:url(#linear-gradient-22-8);stroke-width:0.0691083" />
    <path
       d="m 7.6786044,41.054216 -3.8636026,0.779956 a 0.23709696,0.24958581 0 1 0 0.03772,0.496335 h 0.011451 43.6379642 a 0.23642339,0.24887676 0 0 0 0.03301,-0.496335 L 41.90342,41.088251 H 41.87109 L 7.7277751,41.052798 a 0.24046481,0.25313106 0 0 0 -0.049171,0.0014 z"
       fill="#1d2741"
       opacity="0.18"
       style="isolation:isolate;stroke-width:0.0691083"
       id="path36221" />
  </g>
</svg>
