<?xml version="1.0" encoding="UTF-8" standalone="no"?>
<svg
   viewBox="0 0 150 150"
   width="150"
   height="150"
   version="1.1"
   id="svg2799"
   sodipodi:docname="circuit-board.svg"
   inkscape:version="1.2 (dc2aedaf03, 2022-05-15)"
   xmlns:inkscape="http://www.inkscape.org/namespaces/inkscape"
   xmlns:sodipodi="http://sodipodi.sourceforge.net/DTD/sodipodi-0.dtd"
   xmlns="http://www.w3.org/2000/svg"
   xmlns:svg="http://www.w3.org/2000/svg">
  <defs
     id="defs2803" />
  <sodipodi:namedview
     id="namedview2801"
     pagecolor="#505050"
     bordercolor="#eeeeee"
     borderopacity="1"
     inkscape:showpageshadow="0"
     inkscape:pageopacity="0"
     inkscape:pagecheckerboard="0"
     inkscape:deskcolor="#505050"
     showgrid="false"
     inkscape:zoom="1.7532895"
     inkscape:cx="127.18949"
     inkscape:cy="112.07505"
     inkscape:window-width="1366"
     inkscape:window-height="699"
     inkscape:window-x="0"
     inkscape:window-y="0"
     inkscape:window-maximized="1"
     inkscape:current-layer="svg2799" />
  <path
     fill="#000"
     d="m 21.759868,110.52632 a 2.4671053,2.4671053 0 1 1 0,0.98684 H 0 v -0.98684 z m 78.947372,23.68421 a 2.4671053,2.4671053 0 1 1 0,0.98684 H 40.460526 v -0.98684 z m 28.51973,-22.69737 a 2.4671053,2.4671053 0 1 1 0,-0.98684 H 150 v 0.98684 z m 0,7.89473 a 2.4671053,2.4671053 0 1 1 0,-0.98684 H 150 v 0.98684 z m 3.05921,-56.249995 a 2.4671053,2.4671053 0 1 1 0,0.986842 H 89.753289 a 2.4671053,2.4671053 0 1 1 0,-0.986842 z M 5.9703947,39.473684 a 2.4671053,2.4671053 0 1 1 0,0.986842 H 0 V 39.473684 Z M 97.648026,56.25 a 2.4671053,2.4671053 0 1 1 0,-0.986842 h 42.532894 a 2.4671053,2.4671053 0 1 1 0,0.986842 z M 127.30263,5.9703947 a 2.4671053,2.4671053 0 1 1 -0.98684,0 V 0 h 0.98684 z M 95.723684,108.60197 a 2.4671053,2.4671053 0 1 1 -0.986842,0 V 81.858553 a 2.4671053,2.4671053 0 1 1 0.986842,0 z M 119.40789,10.805921 V 39.473684 H 150 v 0.986842 H 118.42105 V 10.805921 a 2.4671053,2.4671053 0 1 1 0.98684,0 z m 7.89474,7.894737 V 31.578947 H 150 v 0.986842 H 126.31579 V 18.700658 a 2.4671053,2.4671053 0 1 1 0.98684,0 z M 64.144737,66.069079 v 36.562501 h 7.894737 v 5.97039 a 2.4671053,2.4671053 0 1 1 -0.986842,0 v -4.98355 H 63.157895 V 66.069079 a 2.4671053,2.4671053 0 1 1 0.986842,0 z M 61.233553,55.263158 a 2.4671053,2.4671053 0 1 1 0,0.986842 H 56.25 V 79.934211 H 42.384868 a 2.4671053,2.4671053 0 1 1 0,-0.986843 h 12.87829 v -23.68421 z m -3.059211,64.144732 a 2.4671053,2.4671053 0 1 1 0,-0.98684 H 86.842105 V 81.858553 a 2.4671053,2.4671053 0 1 1 0.986842,0 V 119.40789 Z M 50.279605,87.828947 a 2.4671053,2.4671053 0 1 1 0,-0.986842 H 56.25 v 23.684215 h 4.983553 a 2.4671053,2.4671053 0 1 1 0,0.98684 H 55.263158 V 87.828947 Z M 32.565789,140.18092 a 2.4671053,2.4671053 0 1 1 -0.986842,0 v -4.98355 H 24.671053 V 150 h -0.986842 v -15.78947 h 8.881578 z M 116.49671,86.842105 a 2.4671053,2.4671053 0 1 1 0,0.986842 h -4.98355 v 46.381583 h 23.68421 V 150 h -0.98684 V 135.19737 H 110.52632 V 86.842105 Z m 12.73026,-14.802631 a 2.4671053,2.4671053 0 1 1 0,-0.986842 h 5.9704 V 92.8125 a 2.4671053,2.4671053 0 1 1 -0.98684,0 V 72.039474 Z M 97.648026,119.40789 a 2.4671053,2.4671053 0 1 1 0,-0.98684 h 4.983554 V 78.947368 h 7.89474 V 72.039474 H 89.753289 a 2.4671053,2.4671053 0 1 1 0,-0.986842 h 21.759871 v 8.881579 h -7.89474 V 119.40789 Z M 140.18092,15.789474 a 2.4671053,2.4671053 0 1 1 0,0.986842 h -5.97039 V 0 h 0.98684 V 15.789474 Z M 48.355263,50.279605 V 72.039474 H 26.595395 a 2.4671053,2.4671053 0 1 1 0,-0.986842 H 47.368421 V 50.279605 a 2.4671053,2.4671053 0 1 1 0.986842,0 z M 26.595395,16.776316 a 2.4671053,2.4671053 0 1 1 0,-0.986842 H 39.473684 V 0 h 0.986842 V 16.776316 Z M 56.25,18.700658 V 32.565789 H 40.460526 v 31.578948 h -5.970394 a 2.4671053,2.4671053 0 1 1 0,-0.986842 h 4.983552 V 31.578947 H 55.263158 V 18.700658 a 2.4671053,2.4671053 0 1 1 0.986842,0 z m -5.970395,21.759868 a 2.4671053,2.4671053 0 1 1 0,-0.986842 h 12.87829 V 18.700658 a 2.4671053,2.4671053 0 1 1 0.986842,0 V 40.460526 Z M 58.174342,8.8815789 a 2.4671053,2.4671053 0 1 1 0,-0.9868421 H 72.039474 V 29.654605 a 2.4671053,2.4671053 0 1 1 -0.986842,0 V 8.8815789 Z M 108.60197,142.10526 a 2.4671053,2.4671053 0 1 1 0,0.98685 H 48.355263 V 150 h -0.986842 v -7.89474 z m 10.80592,-68.141444 v 4.983552 h 7.89474 v 16.776316 h -7.89474 v 30.592106 h 23.68422 V 150 h -0.98685 V 127.30263 H 118.42105 V 94.736842 h 7.89474 V 79.934211 h -7.89474 v -5.970395 a 2.4671053,2.4671053 0 1 1 0.98684,0 z M 26.595395,8.8815789 a 2.4671053,2.4671053 0 1 1 0,-0.9868421 h 4.983552 V 0.98684211 H 23.684211 V 0 h 8.881578 V 8.8815789 Z M 81.858553,24.671053 a 2.4671053,2.4671053 0 1 1 0,-0.986842 H 94.736842 V 0 H 119.40789 V 0.98684211 H 95.723684 V 24.671053 Z M 58.174342,0.98684211 A 2.4675986,2.4675986 0 0 1 53.338816,0 h 1.021381 a 1.4802632,1.4802632 0 1 0 2.792764,0 h 30.675986 v 16.776316 h -8.881579 v -5.970395 a 2.4671053,2.4671053 0 1 1 0.986843,0 v 4.983553 h 6.907894 V 0.98684211 Z m 0,47.36842089 a 2.4671053,2.4671053 0 1 1 0,-0.986842 h 9.424342 L 83.388158,31.578947 H 102.63158 V 10.805921 a 2.4671053,2.4671053 0 1 1 0.98684,0 V 32.565789 H 83.797697 L 68.008224,48.355263 Z M 72.039474,92.8125 a 2.4671053,2.4671053 0 1 1 -0.986842,0 V 55.060855 L 86.639803,39.473684 H 110.52632 V 10.805921 a 2.4671053,2.4671053 0 1 1 0.98684,0 V 40.460526 H 87.044408 L 72.039474,55.465461 Z m 7.894737,15.78947 a 2.4671053,2.4671053 0 1 1 -0.986843,0 V 59.501645 L 91.080592,47.368421 H 148.07566 A 2.4671053,2.4671053 0 0 1 150,45.444079 v 1.021382 a 1.4802632,1.4802632 0 0 0 0,2.792763 v 1.021381 a 2.4671053,2.4671053 0 0 1 -1.92434,-1.924342 H 91.485197 L 79.934211,59.90625 Z M 8.8815789,77.023026 a 2.4671053,2.4671053 0 1 1 -0.9868421,0 V 75.291118 L 31.578947,51.606908 V 23.684211 H 47.368421 V 0 h 0.986842 V 24.671053 H 32.565789 v 27.34046 L 8.8815789,75.695724 Z M 24.671053,26.595395 v 21.46875 L 0.98684211,71.748355 V 102.63158 H 13.865132 a 2.4671053,2.4671053 0 1 1 0,0.98684 H 0 V 71.34375 L 23.684211,47.659539 V 26.595395 a 2.4671053,2.4671053 0 1 1 0.986842,0 z m -7.894737,7.894737 v 9.626644 L 0,60.893092 V 59.501645 L 15.789474,43.712171 v -9.222039 a 2.4671053,2.4671053 0 1 1 0.986842,0 z M 5.9703947,15.789474 a 2.4671053,2.4671053 0 1 1 0,0.986842 H 4.6430921 L 0,21.419408 V 20.032895 L 4.2384868,15.789474 Z M 137.12171,24.671053 a 2.4671053,2.4671053 0 1 1 0,-0.986842 h 9.22204 L 150,20.027961 v 1.391447 l -3.25164,3.251645 z m -7.89474,78.947367 a 2.4671053,2.4671053 0 1 1 0,-0.98684 h 12.87829 V 67.396382 L 150,59.501645 v 1.391447 l -6.90789,6.907895 V 103.61842 Z M 26.595395,119.40789 a 2.4671053,2.4671053 0 1 1 0,-0.98684 h 4.983552 V 107.27467 L 20.027961,95.723684 h -9.22204 a 2.4671053,2.4671053 0 1 1 0,-0.986842 h 9.626645 l 12.133223,12.133228 v 12.53782 z m 74.111845,6.9079 a 2.4671053,2.4671053 0 1 1 0,0.98684 H 47.368421 V 99.375 L 27.927632,79.934211 h -9.226974 a 2.4671053,2.4671053 0 1 1 0,-0.986843 h 9.62171 l 20.032895,20.032895 v 27.335527 z m -74.111845,0.98684 a 2.4671053,2.4671053 0 1 1 0,-0.98684 H 39.473684 V 103.3273 L 23.975329,87.828947 H 10.805921 a 2.4671053,2.4671053 0 1 1 0,-0.986842 H 24.379934 L 40.460526,102.9227 v 24.37993 z M 16.776316,19.638158 v 0.794408 L 4.6430921,32.565789 H 0 V 31.578947 H 4.2384868 L 15.789474,20.027961 V 0 h 0.986842 z M 0.98684211,148.07566 A 2.4671053,2.4671053 0 0 1 2.9111842,150 H 1.8898026 A 1.4802632,1.4802632 0 0 0 0,149.09704 V 126.31579 H 8.8815789 V 150 H 7.8947368 V 127.30263 H 0.98684211 Z M 16.776316,118.91447 V 150 H 15.789474 V 119.40789 H 0 v -0.98684 H 16.776316 Z M 8.3881579,8.8815789 H 0 V 7.8947368 H 7.8947368 V 0 H 8.8815789 V 8.8815789 Z M 143.09211,7.8947368 H 150 v 0.9868421 h -7.89474 V 0 h 0.98685 z M 127.30263,142.59868 V 150 h -0.98684 v -6.90789 h -6.9079 V 150 h -0.98684 v -7.89474 h 8.88158 z M 0,45.444079 A 2.4769737,2.4769737 0 0 1 2.9605263,47.861842 2.4671053,2.4671053 0 0 1 0,50.279605 v -1.021381 a 1.4802632,1.4802632 0 1 0 0,-2.792763 z m 39.473684,88.766451 h 0.986842 V 150 H 39.473684 Z M 58.174342,150 h -1.021381 a 1.4802632,1.4802632 0 0 0 -2.792764,0 h -1.021381 a 2.4671053,2.4671053 0 0 1 4.835526,0 z M 2.9111842,0 A 2.4769737,2.4769737 0 0 1 0,2.9111842 V 1.8898026 A 1.4802632,1.4802632 0 0 0 1.8898026,0 Z M 148.07566,0 h 1.02138 A 1.4802632,1.4802632 0 0 0 150,1.8898026 V 2.9111842 A 2.4671053,2.4671053 0 0 1 148.07566,0 Z M 150,148.07566 v 1.02138 A 1.4802632,1.4802632 0 0 0 149.09704,150 h -1.02138 A 2.4671053,2.4671053 0 0 1 150,148.07566 Z M 47.861842,49.342105 a 1.4802632,1.4802632 0 1 0 0,-2.960526 1.4802632,1.4802632 0 0 0 0,2.960526 z m 0,-7.894737 a 1.4802632,1.4802632 0 1 0 0,-2.960526 1.4802632,1.4802632 0 0 0 0,2.960526 z m 7.894737,7.894737 a 1.4802632,1.4802632 0 1 0 0,-2.960526 1.4802632,1.4802632 0 0 0 0,2.960526 z m 7.894737,7.894737 a 1.4802632,1.4802632 0 1 0 0,-2.960526 1.4802632,1.4802632 0 0 0 0,2.960526 z m 0,7.894737 a 1.4802632,1.4802632 0 1 0 0,-2.960526 1.4802632,1.4802632 0 0 0 0,2.960526 z M 39.967105,80.921053 a 1.4802635,1.4802635 0 1 0 0,-2.960527 1.4802635,1.4802635 0 0 0 0,2.960527 z m 7.894737,7.894736 a 1.4802632,1.4802632 0 1 0 0,-2.960526 1.4802632,1.4802632 0 0 0 0,2.960526 z M 63.651316,112.5 a 1.480265,1.480265 0 1 0 0,-2.96053 1.480265,1.480265 0 0 0 0,2.96053 z m -7.894737,7.89474 a 1.480265,1.480265 0 1 0 0,-2.96053 1.480265,1.480265 0 0 0 0,2.96053 z M 71.546053,112.5 a 1.480265,1.480265 0 1 0 0,-2.96053 1.480265,1.480265 0 0 0 0,2.96053 z m 0,-15.789474 a 1.4802632,1.4802632 0 1 0 0,-2.960526 1.4802632,1.4802632 0 0 0 0,2.960526 z M 79.440789,112.5 a 1.480265,1.480265 0 1 0 0,-2.96053 1.480265,1.480265 0 0 0 0,2.96053 z m 15.789474,7.89474 a 1.480265,1.480265 0 1 0 0,-2.96053 1.480265,1.480265 0 0 0 0,2.96053 z m 0,-7.89474 a 1.480265,1.480265 0 1 0 0,-2.96053 1.480265,1.480265 0 0 0 0,2.96053 z M 87.335526,80.921053 a 1.4802635,1.4802635 0 1 0 0,-2.960527 1.4802635,1.4802635 0 0 0 0,2.960527 z m 7.894737,0 a 1.4802635,1.4802635 0 1 0 0,-2.960527 1.4802635,1.4802635 0 0 0 0,2.960527 z M 103.125,128.28947 a 1.4802632,1.4802632 0 1 0 0,-2.96052 1.4802632,1.4802632 0 0 0 0,2.96052 z m 0,7.89474 a 1.480265,1.480265 0 1 0 0,-2.96053 1.480265,1.480265 0 0 0 0,2.96053 z m 7.89474,7.89474 a 1.480265,1.480265 0 1 0 0,-2.96053 1.480265,1.480265 0 0 0 0,2.96053 z m 7.89473,-71.052634 a 1.4802635,1.4802635 0 1 0 0,-2.960527 1.4802635,1.4802635 0 0 0 0,2.960527 z m 0,15.789473 a 1.4802632,1.4802632 0 1 0 0,-2.960526 1.4802632,1.4802632 0 0 0 0,2.960526 z m 7.89474,-15.789473 a 1.4802635,1.4802635 0 1 0 0,-2.960527 1.4802635,1.4802635 0 0 0 0,2.960527 z m 7.89474,-7.894737 a 1.4802632,1.4802632 0 1 0 0,-2.960526 1.4802632,1.4802632 0 0 0 0,2.960526 z m -47.368424,0 a 1.4802632,1.4802632 0 1 0 0,-2.960526 1.4802632,1.4802632 0 0 0 0,2.960526 z m 0,7.894737 a 1.4802635,1.4802635 0 1 0 0,-2.960527 1.4802635,1.4802635 0 0 0 0,2.960527 z m 7.894737,-15.789474 a 1.4802632,1.4802632 0 1 0 0,-2.960526 1.4802632,1.4802632 0 0 0 0,2.960526 z m 47.368417,0 a 1.4802632,1.4802632 0 1 0 0,-2.960526 1.4802632,1.4802632 0 0 0 0,2.960526 z m -7.89473,-31.578947 a 1.4802635,1.4802635 0 1 0 0,-2.960527 1.4802635,1.4802635 0 0 0 0,2.960527 z m 7.89473,-7.894737 a 1.4802632,1.4802632 0 1 0 0,-2.960526 1.4802632,1.4802632 0 0 0 0,2.960526 z m -15.78947,0 a 1.4802632,1.4802632 0 1 0 0,-2.960526 1.4802632,1.4802632 0 0 0 0,2.960526 z m 0,-7.8947369 a 1.4802632,1.4802632 0 1 0 0,-2.9605264 1.4802632,1.4802632 0 0 0 0,2.9605264 z m -7.89474,0 a 1.4802632,1.4802632 0 1 0 0,-2.9605264 1.4802632,1.4802632 0 0 0 0,2.9605264 z m -7.89473,0 a 1.4802632,1.4802632 0 1 0 0,-2.9605264 1.4802632,1.4802632 0 0 0 0,2.9605264 z m -7.89474,0 a 1.4802632,1.4802632 0 1 0 0,-2.9605264 1.4802632,1.4802632 0 0 0 0,2.9605264 z M 24.177632,17.763158 a 1.4802632,1.4802632 0 1 0 0,-2.960526 1.4802632,1.4802632 0 0 0 0,2.960526 z m -15.7894741,0 a 1.4802632,1.4802632 0 1 0 0,-2.960526 1.4802632,1.4802632 0 0 0 0,2.960526 z m 15.7894741,7.894737 a 1.4802635,1.4802635 0 1 0 0,-2.960527 1.4802635,1.4802635 0 0 0 0,2.960527 z m -7.894737,7.894737 a 1.4802635,1.4802635 0 1 0 0,-2.960527 1.4802635,1.4802635 0 0 0 0,2.960527 z M 24.177632,9.8684211 a 1.4802632,1.4802632 0 1 0 0,-2.9605264 1.4802632,1.4802632 0 0 0 0,2.9605264 z m 0,118.4210489 a 1.4802632,1.4802632 0 1 0 0,-2.96052 1.4802632,1.4802632 0 0 0 0,2.96052 z m 7.894736,15.78948 a 1.480265,1.480265 0 1 0 0,-2.96053 1.480265,1.480265 0 0 0 0,2.96053 z M 24.177632,112.5 a 1.480265,1.480265 0 1 0 0,-2.96053 1.480265,1.480265 0 0 0 0,2.96053 z m 0,7.89474 a 1.480265,1.480265 0 1 0 0,-2.96053 1.480265,1.480265 0 0 0 0,2.96053 z m -7.894737,-15.78948 a 1.4802632,1.4802632 0 1 0 0,-2.96052 1.4802632,1.4802632 0 0 0 0,2.96052 z M 55.756579,17.763158 a 1.4802632,1.4802632 0 1 0 0,-2.960526 1.4802632,1.4802632 0 0 0 0,2.960526 z m 7.894737,0 a 1.4802632,1.4802632 0 1 0 0,-2.960526 1.4802632,1.4802632 0 0 0 0,2.960526 z M 55.756579,9.8684211 a 1.4802632,1.4802632 0 1 0 0,-2.9605264 1.4802632,1.4802632 0 0 0 0,2.9605264 z M 71.546053,33.552632 a 1.4802635,1.4802635 0 1 0 0,-2.960527 1.4802635,1.4802635 0 0 0 0,2.960527 z m 7.894736,-7.894737 a 1.4802635,1.4802635 0 1 0 0,-2.960527 1.4802635,1.4802635 0 0 0 0,2.960527 z m 0,-15.7894739 a 1.4802632,1.4802632 0 1 0 0,-2.9605264 1.4802632,1.4802632 0 0 0 0,2.9605264 z M 134.70395,96.710526 a 1.4802632,1.4802632 0 1 0 0,-2.960526 1.4802632,1.4802632 0 0 0 0,2.960526 z m -7.89474,7.894734 a 1.4802632,1.4802632 0 1 0 0,-2.96052 1.4802632,1.4802632 0 0 0 0,2.96052 z m 0,7.89474 a 1.480265,1.480265 0 1 0 0,-2.96053 1.480265,1.480265 0 0 0 0,2.96053 z m 0,7.89474 a 1.480265,1.480265 0 1 0 0,-2.96053 1.480265,1.480265 0 0 0 0,2.96053 z M 8.3881579,88.815789 a 1.4802632,1.4802632 0 1 0 0,-2.960526 1.4802632,1.4802632 0 0 0 0,2.960526 z m 0,7.894737 a 1.4802632,1.4802632 0 1 0 0,-2.960526 1.4802632,1.4802632 0 0 0 0,2.960526 z m 0,-15.789473 a 1.4802635,1.4802635 0 1 0 0,-2.960527 1.4802635,1.4802635 0 0 0 0,2.960527 z m 7.8947371,0 a 1.4802635,1.4802635 0 1 0 0,-2.960527 1.4802635,1.4802635 0 0 0 0,2.960527 z M 8.3881579,41.447368 a 1.4802632,1.4802632 0 1 0 0,-2.960526 1.4802632,1.4802632 0 0 0 0,2.960526 z M 24.177632,73.026316 a 1.4802635,1.4802635 0 1 0 0,-2.960527 1.4802635,1.4802635 0 0 0 0,2.960527 z m 7.894736,-7.894737 a 1.4802632,1.4802632 0 1 0 0,-2.960526 1.4802632,1.4802632 0 0 0 0,2.960526 z"
     id="path2797"
     style="fill:#0f0f14;fill-opacity:1;stroke-width:0.493421" />
</svg>
