<?xml version="1.0" encoding="UTF-8" standalone="no"?>
<!-- Created with Inkscape (http://www.inkscape.org/) -->

<svg
   width="280"
   height="240"
   viewBox="0 0 74.083331 63.5"
   version="1.1"
   id="svg5"
   inkscape:version="1.2 (dc2aedaf03, 2022-05-15)"
   sodipodi:docname="code.svg"
   xmlns:inkscape="http://www.inkscape.org/namespaces/inkscape"
   xmlns:sodipodi="http://sodipodi.sourceforge.net/DTD/sodipodi-0.dtd"
   xmlns:xlink="http://www.w3.org/1999/xlink"
   xmlns="http://www.w3.org/2000/svg"
   xmlns:svg="http://www.w3.org/2000/svg">
  <sodipodi:namedview
     id="namedview7"
     pagecolor="#505050"
     bordercolor="#eeeeee"
     borderopacity="1"
     inkscape:showpageshadow="0"
     inkscape:pageopacity="0"
     inkscape:pagecheckerboard="0"
     inkscape:deskcolor="#505050"
     inkscape:document-units="px"
     showgrid="false"
     inkscape:zoom="1"
     inkscape:cx="399.5"
     inkscape:cy="157.5"
     inkscape:window-width="1366"
     inkscape:window-height="699"
     inkscape:window-x="0"
     inkscape:window-y="0"
     inkscape:window-maximized="1"
     inkscape:current-layer="layer1" />
  <defs
     id="defs2">
    <linearGradient
       id="linear-gradient"
       x1="104.12"
       y1="230.53999"
       x2="151.94"
       y2="193.21001"
       gradientUnits="userSpaceOnUse">
      <stop
         offset="0"
         stop-color="#fff"
         stop-opacity="0"
         id="stop6669" />
      <stop
         offset="0.98"
         stop-color="#0800bf"
         id="stop6671" />
    </linearGradient>
    <linearGradient
       id="linear-gradient-2"
       x1="83.230003"
       y1="179.7"
       x2="129.78999"
       y2="132.33"
       xlink:href="#linear-gradient" />
    <linearGradient
       id="linear-gradient-3"
       x1="175.78"
       y1="221.98"
       x2="199.13"
       y2="151.92"
       xlink:href="#linear-gradient" />
    <linearGradient
       id="linear-gradient-4"
       x1="253.03"
       y1="255.50999"
       x2="276.60001"
       y2="236.50999"
       xlink:href="#linear-gradient" />
    <linearGradient
       inkscape:collect="always"
       xlink:href="#linear-gradient"
       id="linearGradient7431"
       gradientUnits="userSpaceOnUse"
       x1="104.12"
       y1="230.53999"
       x2="151.94"
       y2="193.21001" />
  </defs>
  <g
     inkscape:label="Layer 1"
     inkscape:groupmode="layer"
     id="layer1">
    <g
       id="g7338"
       transform="matrix(0.2145979,0,0,0.22741174,-5.4834387,-2.7331602)">
      <path
         d="m 178.13,85.67 -147.89,86 a 9.42,9.42 0 0 0 0.14,16.37 l 181,101.31 a 14.91,14.91 0 0 0 14.34,0.12 l 139.09,-74.81 a 11.34,11.34 0 0 0 0.35,-19.77 z"
         fill="#aaacf9"
         id="path6681" />
      <path
         d="m 156.79,217.69 c 8.28,-8.5 17.18,-16.37 25.06,-25.2 L 150,175.63 82.43,211.75 c 12.63,6.62 31.12,20.78 49.17,33.05 8.4,-9.04 16.58,-18.27 25.19,-27.11 z"
         opacity="0.32"
         fill="url(#linear-gradient)"
         id="path6683"
         style="fill:url(#linearGradient7431)" />
      <path
         d="m 105.42,179.79 c 13.91,-10.29 27.77,-20.66 42.28,-30.06 l -29.82,-15.78 -62.82,38.78 c 9.53,5 17.67,11.63 31.17,21.17 6.38,-4.74 12.77,-9.4 19.19,-14.11 z"
         opacity="0.32"
         fill="url(#linear-gradient-2)"
         id="path6685"
         style="fill:url(#linear-gradient-2)" />
      <path
         d="m 184.52,240.26 c 15,-8.07 47.18,-39.41 62,-47.66 L 190,162.69 122.5,198.82 c 15.67,8.18 40.35,28.03 62.02,41.44 z"
         opacity="0.32"
         fill="url(#linear-gradient-3)"
         id="path6687"
         style="fill:url(#linear-gradient-3)" />
      <path
         d="m 214.94,150.86 -19,9.15 a 4.38,4.38 0 0 0 -0.31,7.72 L 240.68,194 a 4.38,4.38 0 0 0 5.89,-1.41 l 10.95,-17"
         fill="#56403d"
         id="path6689" />
      <path
         d="M 310.42,102.13 155.23,12.73 a 5,5 0 0 0 -7.57,4.37 v 95 a 3.89,3.89 0 0 0 1.95,3.37 l 165.18,95.35 a 1.88,1.88 0 0 0 2.82,-1.63 v -94.62 a 14.35,14.35 0 0 0 -7.19,-12.44 z"
         fill="#68e1fd"
         id="path6691" />
      <path
         d="m 157.93,21.14 147,84.58 a 10.31,10.31 0 0 1 5.17,8.93 v 68.11 a 3.72,3.72 0 0 1 -5.57,3.23 L 154.6,100 a 3.67,3.67 0 0 1 -1.84,-3.18 V 24.13 a 3.45,3.45 0 0 1 5.17,-2.99 z"
         fill="#ffffff"
         id="path6693" />
      <ellipse
         cx="221.35001"
         cy="149.28999"
         rx="1.6"
         ry="0.0099999998"
         transform="rotate(-10.9,221.4549,149.31788)"
         fill="#ab643c"
         id="ellipse6695" />
      <ellipse
         cx="298.94"
         cy="107.8"
         rx="1.6"
         ry="1.74"
         fill="#659fe4"
         id="ellipse6697" />
      <ellipse
         cx="293.84"
         cy="105.27"
         rx="1.6"
         ry="1.74"
         fill="#c5e9ff"
         id="ellipse6699" />
      <polyline
         points="133.75 185.84 133.74 186.79 134.22 187.39"
         fill="#adcee1"
         id="polyline6701" />
      <path
         d="m 152.91,174.34 -18.62,11.43 a 1.15,1.15 0 0 0 0,2 l 28.12,16.06 a 2.58,2.58 0 0 0 2.58,0 L 183.55,193 c 1.35,-1.1 1.26,-3.18 0,-3.27 l -28,-15.43 a 2.62,2.62 0 0 0 -2.64,0.04 z"
         fill="#88d3d8"
         id="path6703" />
      <path
         d="M 152.91,173.55 134.29,185 a 1.15,1.15 0 0 0 0,2 l 28.15,16 a 2.58,2.58 0 0 0 2.58,0 l 18.53,-10.79 a 1.43,1.43 0 0 0 0,-2.48 l -28,-16.22 a 2.62,2.62 0 0 0 -2.64,0.04 z"
         fill="#ffffff"
         id="path6705" />
      <path
         d="m 153.67,172 c 0,0 7.81,-24.86 7.77,-24.86 -0.04,0 0.24,-1.11 1.62,-0.47 l 29.52,17.54 c 0,0 1.43,0.59 1.15,1.92 -0.28,1.33 -7.64,24.33 -7.64,24.33 a 1.25,1.25 0 0 1 -1.4,0.48 c -0.9,-0.28 -30.33,-17.54 -30.33,-17.54 a 1.13,1.13 0 0 1 -0.69,-1.4 z"
         fill="#053855"
         id="path6707" />
      <polygon
         points="192.16,166.72 185.79,187.8 155.16,170.53 161.92,148.93 "
         fill="#68e1fd"
         id="polygon6709" />
      <path
         d="m 151.76,176.18 -6.81,4.2 a 0.82,0.82 0 0 0 0,1.41 l 24.32,14 a 2.4,2.4 0 0 0 2.4,0 c 1.57,-0.91 4.27,-2.54 5.93,-3.55 a 1,1 0 0 0 0,-1.71 l -24.47,-14.36 a 1.33,1.33 0 0 0 -1.37,0.01 z"
         fill="#68e1fd"
         id="path6711" />
      <path
         d="m 152.08,187.66 8.49,4.82 a 0.85,0.85 0 0 1 0,1.48 l -5,2.91 a 1.13,1.13 0 0 1 -1.13,0 l -8.69,-5 a 0.71,0.71 0 0 1 0,-1.24 l 5.22,-3 a 1.13,1.13 0 0 1 1.11,0.03 z"
         fill="#68e1fd"
         id="path6713" />
      <path
         d="m 151.76,176.18 -6.81,4.2 a 0.82,0.82 0 0 0 0,1.41 l 24.32,14 a 2.4,2.4 0 0 0 2.4,0 c 1.57,-0.91 4.27,-2.54 5.93,-3.55 a 1,1 0 0 0 0,-1.71 l -24.47,-14.36 a 1.33,1.33 0 0 0 -1.37,0.01 z"
         fill="#053855"
         opacity="0.1"
         id="path6715" />
      <path
         d="m 152.08,187.66 8.49,4.82 a 0.85,0.85 0 0 1 0,1.48 l -5,2.91 a 1.13,1.13 0 0 1 -1.13,0 l -8.69,-5 a 0.71,0.71 0 0 1 0,-1.24 l 5.22,-3 a 1.13,1.13 0 0 1 1.11,0.03 z"
         fill="#053855"
         opacity="0.1"
         id="path6717" />
      <path
         d="m 119.25,171.72 a 30.08,30.08 0 0 0 -8.76,12.84 c -3.08,8.49 4.61,22.38 4.61,22.38 l 12,-9.46"
         fill="#ff8f6f"
         id="path6719" />
      <path
         d="m 109.63,218 a 9.06,9.06 0 0 0 6.17,8.56 20,20 0 0 0 7.63,1 c 5.3,-0.34 9.94,-2.82 13.84,-6.24 -0.74,-9.4 -3.39,-16 -5.66,-19.15 l -14.48,-7 c -0.07,1.31 -7.7,10.15 -7.52,20.92 q 0.01,1.01 0.02,1.91 z"
         fill="#3e2928"
         id="path6721" />
      <path
         d="M 131.35,186 116,185.25 113.35,203.7 c 4.57,3.15 16.64,1.25 19.38,0.78 C 131.92,198.37 132,192.1 131.35,186 Z"
         fill="#ff8f6f"
         id="path6723" />
      <path
         d="m 154,183.46 -1.54,1.35 a 39.65,39.65 0 0 1 4,-2 c 0.93,-0.42 1.44,1.08 0.52,1.5 l -0.47,0.22 q 0.74,-0.28 1.49,-0.54 a 0.79378838,0.79378838 0 0 1 0.52,1.5 41.19,41.19 0 0 0 -3.83,1.53 28.15,28.15 0 0 1 3.43,-0.86 c 1,-0.19 1.09,1.4 0.1,1.58 a 25.06,25.06 0 0 0 -3.88,1.05 3.79,3.79 0 0 1 1.19,0.2 c 0.46,0.12 1.64,0.19 1.85,0.65 a 0.8,0.8 0 0 1 -0.65,1.12 l -5.95,0.61 a 7.11,7.11 0 0 0 -1.6,1.25 27.61,27.61 0 0 0 -1.91,-2.05 22.76,22.76 0 0 0 -1.87,-1.64 q 0.88,-0.84 1.8,-1.63 c 0.13,-0.18 0.45,-0.09 0.81,-0.39 2,-1.72 2.47,-1.84 4.65,-3.89 1.61,-1.6 2.28,-0.38 1.34,0.44 z"
         fill="#ffb5a9"
         id="path6725" />
      <path
         d="m 126.39,175.06 c 0,0 5.59,1.51 7.86,5.13 a 63.93,63.93 0 0 1 3.74,7.73 l 10.16,-2.37 c 0,0 2.95,3.45 4.94,5.92 0,0 -9.92,7 -15.1,8.15 -5.18,1.15 -10.68,-7.7 -10.68,-7.7 0,0 -1.14,3.66 -0.92,-0.25"
         fill="#ff8f6f"
         id="path6727" />
      <path
         d="m 130.48,186.82 a 11.33,11.33 0 0 1 -3.54,-5 c -0.67,-2.28 0.17,-4.29 1,-6.42 a 20.68,20.68 0 0 0 1.46,-6.6 c 0.07,-2.23 -0.19,-4.45 -0.34,-6.67 a 0.64,0.64 0 0 1 0,-0.29 c -0.74,-2.51 -2.28,-4.63 -5.3,-4.88 -7.81,-0.66 -8.25,8 -8.19,11.5 0.06,3.5 0.43,5.89 -2.16,7.37 -2.59,1.48 -4.46,5.32 -2,8.44 2.46,3.12 0.25,2 -1.39,4.75 -1.64,2.75 -1.22,6.23 2.16,7.48 3.38,1.25 19.1,-1.1 20.55,-2.56 a 3,3 0 0 0 0.74,-2.12 8.24,8.24 0 0 0 -2.99,-5 z"
         fill="#007f68"
         id="path6729" />
      <path
         d="m 133.39,206.95 c 1.89,-0.41 20.21,-1.87 24.48,4.5 4.27,6.37 -19,15.44 -34.44,16.17 -15.44,0.73 1.67,-18.89 9.96,-20.67 z"
         fill="#3e2928"
         id="path6731" />
      <polyline
         points="110.18 112.59 110.18 144.04 134.54 158.11 154.38 146.31 154.38 117.09"
         fill="#3aceb2"
         id="polyline6733" />
      <polygon
         points="134.54,127.07 154.38,115.45 154.38,146.31 134.54,158.11 "
         fill="#4be2c5"
         id="polygon6735" />
      <polygon
         points="110.18,112.59 134.54,127.07 154.38,115.45 130.24,100.71 "
         fill="#52efd1"
         id="polygon6737" />
      <polygon
         points="113.36,124.27 131.61,134.69 131.61,128.3 113.36,117.76 "
         fill="#7374b7"
         id="polygon6739" />
      <ellipse
         cx="129.53999"
         cy="130.41"
         rx="0.49000001"
         ry="0.77999997"
         transform="rotate(-17.06,129.56662,130.41822)"
         fill="#f7931e"
         id="ellipse6741" />
      <ellipse
         cx="127.98"
         cy="129.5"
         rx="0.49000001"
         ry="0.77999997"
         transform="rotate(-17.06,127.9948,129.53483)"
         fill="#d9e021"
         id="ellipse6743" />
      <line
         x1="126.26"
         y1="128.78"
         x2="114.98"
         y2="122.3"
         fill="none"
         stroke="#f2f2f2"
         stroke-miterlimit="10"
         stroke-width="0.25"
         id="line6745" />
      <polygon
         points="112.93,133.4 131.18,143.81 131.18,137.43 112.93,126.89 "
         fill="#7374b7"
         id="polygon6747" />
      <ellipse
         cx="129.11"
         cy="139.53999"
         rx="0.49000001"
         ry="0.77999997"
         transform="rotate(-17.06,129.1167,139.55404)"
         fill="#f7931e"
         id="ellipse6749" />
      <ellipse
         cx="127.55"
         cy="138.63"
         rx="0.49000001"
         ry="0.77999997"
         transform="rotate(-17.06,127.58322,138.64231)"
         fill="#d9e021"
         id="ellipse6751" />
      <line
         x1="125.83"
         y1="137.91"
         x2="114.55"
         y2="131.42999"
         fill="none"
         stroke="#f2f2f2"
         stroke-miterlimit="10"
         stroke-width="0.25"
         id="line6753" />
      <polygon
         points="112.93,142.51 131.18,152.92 131.18,146.54 112.93,136 "
         fill="#7374b7"
         id="polygon6755" />
      <ellipse
         cx="129.11"
         cy="148.64999"
         rx="0.49000001"
         ry="0.77999997"
         transform="rotate(-17.06,129.14349,148.69319)"
         fill="#f7931e"
         id="ellipse6757" />
      <ellipse
         cx="127.55"
         cy="147.74001"
         rx="0.49000001"
         ry="0.77999997"
         transform="rotate(-17.06,127.57667,147.77646)"
         fill="#d9e021"
         id="ellipse6759" />
      <line
         x1="125.83"
         y1="147.02"
         x2="114.55"
         y2="140.53999"
         fill="none"
         stroke="#f2f2f2"
         stroke-miterlimit="10"
         stroke-width="0.25"
         id="line6761" />
      <polyline
         points="154.38 126.26 134.63 137.91 110.18 123.7"
         fill="none"
         stroke="#1b1464"
         stroke-miterlimit="10"
         stroke-width="0.25"
         id="polyline6763" />
      <polyline
         points="154.38 135.37 134.63 147.02 110.18 132.82"
         fill="none"
         stroke="#1b1464"
         stroke-miterlimit="10"
         stroke-width="0.25"
         id="polyline6765" />
      <path
         d="m 334.61,100.36 v 50.22 a 5.59,5.59 0 0 1 -8.46,4.8 l -47.73,-28.47 a 5.59,5.59 0 0 1 -2.73,-4.8 v -49.3 a 5.59,5.59 0 0 1 8.4,-4.81 l 47.73,27.56 a 5.59,5.59 0 0 1 2.79,4.8 z"
         fill="#a5dd73"
         id="path6767" />
      <path
         d="m 262.5,261.86 c 8.23,-5.48 16.6,-10.76 24.92,-16.09 l -11.82,-8.63 -45.77,19.11 c 5.53,2.9 13,8.33 20.86,13.86 3.9,-2.8 7.81,-5.59 11.81,-8.25 z"
         opacity="0.32"
         fill="url(#linear-gradient-4)"
         id="path6769"
         style="fill:url(#linear-gradient-4)" />
      <path
         d="m 291.91,213.43 a 2.1,2.1 0 0 0 -0.37,-0.78 4.67,4.67 0 0 0 -1.14,-1 c -5.81,-3.93 -13.86,-5 -20,-1.17 -1.4,0.88 -3.49,2.87 -2.66,4.75 0.48,1.09 1.94,1.73 3,2.17 a 44.57,44.57 0 0 0 10.51,2.74 c 1.3,0.22 2.62,0.44 3.93,0.56 a 5.43,5.43 0 0 0 4.79,-2.05 c 0.88,-1.16 2.35,-3.51 1.94,-5.22 z"
         fill="#754c24"
         id="path6771" />
      <path
         d="m 267.57,214.37 c 0,0 5.3,4.8 14.46,4.1 9.16,-0.7 9.87,-5 9.87,-5 0,0 -2.37,30.36 -3.62,30.88 -1.25,0.52 -5.93,2.78 -8.19,2.95 -2.26,0.17 -9.4,-2.69 -9.58,-3.48 -0.18,-0.79 -2.94,-29.45 -2.94,-29.45 z"
         fill="#ff8f6f"
         id="path6773" />
      <path
         d="m 269.24,170.13 c -0.28,-0.57 -1.15,-0.07 -0.86,0.5 6.27,12.64 7.49,26.87 8.62,40.69 0.05,0.63 1.05,0.64 1,0 -1.14,-14.01 -2.4,-28.39 -8.76,-41.19 z"
         fill="#007f68"
         id="path6775" />
      <path
         d="m 268.44,170.25 c 0,0 1.75,6.56 -0.06,9.84 -1.81,3.28 -3.3,3.93 -1.14,8 2.16,4.07 7.94,4.62 8.32,7.74 0.38,3.12 -2.76,-20.01 -7.12,-25.58 z"
         fill="#007f68"
         id="path6777" />
      <path
         d="m 288.49,182.09 a 82.45,82.45 0 0 0 -8,32.26 c 0,0.78 1.19,0.77 1.22,0 a 81,81 0 0 1 7.79,-31.66 c 0.38,-0.69 -0.67,-1.31 -1.01,-0.6 z"
         fill="#007f68"
         id="path6779" />
      <path
         d="m 289.35,185.29 c 0,-0.66 -0.15,-2 -0.08,-3.11 l -0.7,0.44 c -2.38,5.79 -5.94,19.39 -7,23.55 1.45,-3.12 7.38,-3.55 9.12,-8 a 8.19,8.19 0 0 0 0.1,-5.91 21.82,21.82 0 0 1 -1.44,-6.97 z"
         fill="#007f68"
         id="path6781" />
      <polyline
         points="300.54 94.7 285.07 106.07 298.94 125.54"
         fill="none"
         stroke="#006837"
         stroke-miterlimit="10"
         stroke-width="4"
         id="polyline6783" />
      <polyline
         points="314.23 102.91 325.61 125.15 309.6 132.62"
         fill="none"
         stroke="#006837"
         stroke-miterlimit="10"
         stroke-width="4"
         id="polyline6785" />
      <line
         x1="161"
         y1="34.439999"
         x2="251.16"
         y2="85.669998"
         fill="none"
         stroke="#00a99d"
         stroke-miterlimit="10"
         stroke-width="4"
         id="line6787" />
      <line
         x1="161.33"
         y1="47.84"
         x2="175.92"
         y2="56.130001"
         fill="none"
         stroke="#d4145a"
         stroke-miterlimit="10"
         stroke-width="4"
         id="line6789" />
      <line
         x1="180.25"
         y1="58.93"
         x2="261.38"
         y2="103.53"
         fill="none"
         stroke="#29abe2"
         stroke-miterlimit="10"
         stroke-width="4"
         id="line6791" />
      <line
         x1="161"
         y1="60.049999"
         x2="192.16"
         y2="77.239998"
         fill="none"
         stroke="#f7931e"
         stroke-miterlimit="10"
         stroke-width="4"
         id="line6793" />
      <line
         x1="197.33"
         y1="80.5"
         x2="265.64999"
         y2="117.04"
         fill="none"
         stroke="#00a99d"
         stroke-miterlimit="10"
         stroke-width="4"
         id="line6795" />
    </g>
  </g>
</svg>
