<?xml version="1.0" encoding="UTF-8" standalone="no"?>
<svg
   width="33.599998"
   height="60"
   viewBox="0 0 33.599998 60"
   version="1.1"
   id="svg7"
   sodipodi:docname="hexagons.svg"
   inkscape:version="1.2 (dc2aedaf03, 2022-05-15)"
   xmlns:inkscape="http://www.inkscape.org/namespaces/inkscape"
   xmlns:sodipodi="http://sodipodi.sourceforge.net/DTD/sodipodi-0.dtd"
   xmlns="http://www.w3.org/2000/svg"
   xmlns:svg="http://www.w3.org/2000/svg">
  <defs
     id="defs11" />
  <sodipodi:namedview
     id="namedview9"
     pagecolor="#505050"
     bordercolor="#eeeeee"
     borderopacity="1"
     inkscape:showpageshadow="0"
     inkscape:pageopacity="0"
     inkscape:pagecheckerboard="0"
     inkscape:deskcolor="#505050"
     showgrid="false"
     inkscape:zoom="10.142857"
     inkscape:cx="9.1690142"
     inkscape:cy="24.992958"
     inkscape:window-width="1366"
     inkscape:window-height="699"
     inkscape:window-x="0"
     inkscape:window-y="0"
     inkscape:window-maximized="1"
     inkscape:current-layer="svg7" />
  <g
     fill-rule="evenodd"
     id="g5"
     style="fill:#121255;fill-opacity:1"
     transform="scale(1.2,1.2244898)">
    <g
       id="hexagons"
       fill="#000"
       fill-rule="nonzero"
       style="fill:#121255;fill-opacity:1">
      <path
         d="m 13.99,9.25 13,7.5 v 15 l -13,7.5 L 1,31.75 v -15 z M 3,17.9 v 12.7 l 10.99,6.34 11,-6.35 V 17.9 l -11,-6.34 z M 0,15 12.98,7.5 V 0 h -2 V 6.35 L 0,12.69 v 2.3 z M 0,33.5 12.98,41 v 8 h -2 V 42.15 L 0,35.81 v -2.3 z M 15,0 V 7.5 L 27.99,15 H 28 V 12.69 H 27.99 L 17,6.35 V 0 Z m 0,49 V 41 L 27.99,33.5 H 28 v 2.31 H 27.99 L 17,42.15 V 49 Z"
         id="path2"
         style="fill:#121255;fill-opacity:1" />
    </g>
  </g>
</svg>
