<?xml version="1.0" encoding="UTF-8" standalone="no"?>
<svg
   width="21.815109"
   height="26"
   version="1.1"
   id="svg3586"
   sodipodi:docname="icon-WhatsApp-darck.svg"
   inkscape:version="1.2 (dc2aedaf03, 2022-05-15)"
   xmlns:inkscape="http://www.inkscape.org/namespaces/inkscape"
   xmlns:sodipodi="http://sodipodi.sourceforge.net/DTD/sodipodi-0.dtd"
   xmlns="http://www.w3.org/2000/svg"
   xmlns:svg="http://www.w3.org/2000/svg">
  <defs
     id="defs3590" />
  <sodipodi:namedview
     id="namedview3588"
     pagecolor="#505050"
     bordercolor="#eeeeee"
     borderopacity="1"
     inkscape:showpageshadow="0"
     inkscape:pageopacity="0"
     inkscape:pagecheckerboard="0"
     inkscape:deskcolor="#505050"
     showgrid="false"
     inkscape:zoom="7.8518314"
     inkscape:cx="-14.582585"
     inkscape:cy="5.0306735"
     inkscape:window-width="1366"
     inkscape:window-height="699"
     inkscape:window-x="0"
     inkscape:window-y="0"
     inkscape:window-maximized="1"
     inkscape:current-layer="svg3586" />
  <path
     fill-rule="evenodd"
     clip-rule="evenodd"
     d="m 10.968665,2.5468864 c 2.64621,0.012823 5.200076,1.0518748 7.110389,2.8830836 1.956375,1.8755205 3.083743,4.3903271 3.182324,7.098572 0.09629,2.644787 -0.827038,5.242744 -2.578376,7.226802 -1.920707,2.176071 -4.592519,3.425872 -7.478229,3.508694 a 10.303433,10.303433 0 0 1 -0.296393,0.0043 c -1.5548361,0 -3.0953402,-0.35066 -4.4905464,-1.022006 l -5.42327436,1.206174 a 0.07965106,0.07965106 0 0 1 -0.0940925,-0.08873 L 1.816563,17.8801 C 1.0347135,16.451464 0.59827382,14.841922 0.5512272,13.204809 0.47201332,10.438356 1.4746542,7.8068086 3.3745726,5.7946342 5.3445139,3.7082804 8.0347067,2.546885 10.917352,2.546885 Z m -0.05766,1.7977282 c -0.08282,0 -0.165539,0.0012 -0.2488,0.00362 -4.7197627,0.1353382 -8.449358,4.0852898 -8.3139074,8.8049414 0.041358,1.44116 0.4472715,2.855842 1.1740872,4.09098 l 0.1577706,0.267729 -0.6787847,3.721063 3.6823297,-0.869271 0.2780127,0.144745 c 1.2133658,0.631302 2.5727948,0.96216 3.9464469,0.96216 0.08162,0 0.16335,-0.0011 0.244971,-0.0035 4.719762,-0.135284 8.449357,-4.085123 8.314016,-8.804888 C 19.33411,8.0257565 15.519826,4.34463 10.911005,4.34463 Z M 7.3291152,7.9027633 c 0.1731974,0.00529 0.3467228,0.010181 0.4979286,0.02134 0.1851231,0.013244 0.3898306,0.028225 0.5713432,0.4675129 0.2153204,0.5216702 0.6809728,1.8239858 0.7420238,1.9560448 0.060942,0.132063 0.099675,0.285343 0.00764,0.456463 -0.092006,0.170898 -0.1387248,0.27801 -0.2730809,0.425826 -0.1345756,0.148032 -0.2837022,0.330749 -0.4039446,0.44366 -0.1344656,0.125818 -0.2741823,0.262587 -0.1304176,0.52747 0.1436571,0.265102 0.6391779,1.132839 1.3908301,1.846306 0.9660962,0.916862 1.7408362,1.219384 2.0486062,1.36293 0.110944,0.05186 0.203286,0.07636 0.283921,0.07636 0.110615,0 0.199237,-0.04626 0.283702,-0.131952 0.161932,-0.164117 0.649137,-0.732725 0.854284,-0.994217 0.107323,-0.136871 0.204488,-0.185341 0.31007,-0.185341 0.08447,0 0.174291,0.03106 0.278997,0.07286 0.235671,0.0941 1.494443,0.762811 1.750465,0.900997 0.256021,0.137971 0.427249,0.208427 0.488957,0.318823 0.0617,0.110831 0.04553,0.631518 -0.18972,1.232403 -0.235342,0.600884 -1.31468,1.154284 -1.792696,1.182949 -0.139935,0.0083 -0.277575,0.02801 -0.456899,0.02801 -0.433049,0 -1.10855,-0.114106 -2.642818,-0.774848 C 8.337985,16.012298 6.7527321,13.250111 6.628004,13.072647 6.5036045,12.894855 5.6098269,11.629191 5.6492149,10.348974 5.6884937,9.06887 6.379532,8.4599979 6.6259252,8.2069312 6.8620336,7.9642579 7.1326063,7.9023314 7.3073353,7.9023314 Z"
     fill="#ffffff"
     id="path9416"
     style="fill:#59aaf5;fill-opacity:1;stroke:#59aaf5;stroke-width:1.09377;stroke-dasharray:none;stroke-opacity:1" />
</svg>
