<?xml version="1.0" encoding="UTF-8" standalone="no"?>
<svg
   width="45.100266"
   height="40.000191"
   version="1.1"
   id="svg3586"
   sodipodi:docname="icon-video-darck.svg"
   inkscape:version="1.2 (dc2aedaf03, 2022-05-15)"
   xmlns:inkscape="http://www.inkscape.org/namespaces/inkscape"
   xmlns:sodipodi="http://sodipodi.sourceforge.net/DTD/sodipodi-0.dtd"
   xmlns="http://www.w3.org/2000/svg"
   xmlns:svg="http://www.w3.org/2000/svg">
  <defs
     id="defs3590" />
  <sodipodi:namedview
     id="namedview3588"
     pagecolor="#505050"
     bordercolor="#eeeeee"
     borderopacity="1"
     inkscape:showpageshadow="0"
     inkscape:pageopacity="0"
     inkscape:pagecheckerboard="0"
     inkscape:deskcolor="#505050"
     showgrid="false"
     inkscape:zoom="7.9637901"
     inkscape:cx="30.324757"
     inkscape:cy="17.89349"
     inkscape:window-width="1366"
     inkscape:window-height="699"
     inkscape:window-x="0"
     inkscape:window-y="0"
     inkscape:window-maximized="1"
     inkscape:current-layer="svg3586" />
  <path
     id="path2"
     style="fill:#97aaf2;fill-opacity:1;stroke-width:0.096782"
     d="M 1.7910156,0 C 0.80209825,0 0,0.80219497 0,1.7910156 V 29.806641 c 0,0.988917 0.80209825,1.791015 1.7910156,1.791015 H 27.210938 l -1.966797,-2.28125 h -4.699219 v -2.865234 h 2.46289 l -0.01758,-0.02148 c -0.628115,-0.716863 -1.044188,-1.458786 -1.24414,-2.171876 H 4.296875 V 7.3378906 H 33.302734 V 24.257812 h -3.892578 c 0.590757,0.627631 1.209571,1.262949 1.728516,1.777344 0.363804,-0.340768 0.792625,-0.716494 1.273437,-1.09375 1.638034,-1.286037 3.231951,-2.072999 4.736329,-2.33789 0.151172,-0.02652 0.301064,-0.04624 0.451171,-0.0625 V 1.7910156 C 37.599416,0.80219497 36.797511,0 35.808594,0 Z m 2.640625,2.28125 H 8.9980469 V 5.1464844 H 4.4316406 Z m 8.0566404,0 h 4.566407 v 2.8652344 h -4.566407 z m 8.056641,0 h 4.566406 v 2.8652344 h -4.566406 z m 8.058594,0 h 4.564453 V 5.1464844 H 28.603516 Z M 16.427734,9.5664062 c -0.129807,0.00126 -0.260576,0.028957 -0.382812,0.085938 -0.325671,0.1519475 -0.533203,0.4784418 -0.533203,0.8378898 V 20.25 c 0,0.359545 0.207435,0.68604 0.533203,0.837891 0.124946,0.05846 0.25989,0.08789 0.392578,0.08789 0.213308,0 0.423898,-0.07452 0.59375,-0.216797 l 5.822266,-4.878906 c 0.209823,-0.175852 0.332031,-0.435382 0.332031,-0.708984 0,-0.273603 -0.122208,-0.533229 -0.332031,-0.708985 L 17.03125,9.78125 C 16.85916,9.6368635 16.644081,9.5643014 16.427734,9.5664062 Z m 8.240235,12.5781248 c -0.312196,-0.006 -0.619855,0.09282 -0.904297,0.34961 -1.224679,1.190513 0.568778,3.134982 0.615234,3.191406 l 7.197266,8.810547 c -0.02913,0.03891 -0.06245,0.07224 -0.09961,0.101562 -0.690345,0.542076 -2.704513,-0.454564 -3.517578,-0.992187 -0.743285,-0.491266 -1.993207,-0.486025 -2.625,0.0098 -0.252794,0.198693 -0.393079,0.468258 -0.394531,0.759766 -0.002,0.41984 0.271798,0.852269 0.814453,1.287109 0.0061,0.0049 0.01752,0.01575 0.0332,0.0293 0.801936,0.687152 2.977027,2.397604 5.84961,3.451172 1.841469,0.675441 3.634476,0.954232 5.332031,0.828125 2.105393,-0.156884 4.068375,-0.937607 5.832031,-2.322265 1.891699,-1.485989 2.62141,-3.473541 2.169922,-5.90625 -0.444712,-2.396901 -1.970064,-4.612745 -2.839844,-5.720704 -1.179867,-1.503023 -2.67774,-2.10743 -4.451171,-1.794922 -1.266489,0.223083 -2.643553,0.913789 -4.091797,2.050782 -1.023178,0.80358 -1.795079,1.606116 -2.136719,1.980468 -0.858843,-0.739801 -3.256242,-3.210244 -4.433594,-4.603515 -0.44343,-0.524727 -1.413022,-1.491791 -2.349609,-1.509766 z M 4.4316406,26.451172 h 4.5664063 v 2.865234 H 4.4316406 Z m 8.0566404,0 h 4.566407 v 2.865234 h -4.566407 z" />
</svg>
