<?xml version="1.0" encoding="UTF-8" standalone="no"?>
<svg
   width="41.992176"
   height="40.000004"
   version="1.1"
   id="svg46"
   sodipodi:docname="icon-book-darck.svg"
   inkscape:version="1.2 (dc2aedaf03, 2022-05-15)"
   xmlns:inkscape="http://www.inkscape.org/namespaces/inkscape"
   xmlns:sodipodi="http://sodipodi.sourceforge.net/DTD/sodipodi-0.dtd"
   xmlns="http://www.w3.org/2000/svg"
   xmlns:svg="http://www.w3.org/2000/svg">
  <defs
     id="defs50" />
  <sodipodi:namedview
     id="namedview48"
     pagecolor="#505050"
     bordercolor="#eeeeee"
     borderopacity="1"
     inkscape:showpageshadow="0"
     inkscape:pageopacity="0"
     inkscape:pagecheckerboard="0"
     inkscape:deskcolor="#505050"
     showgrid="false"
     inkscape:zoom="11.104167"
     inkscape:cx="11.932457"
     inkscape:cy="24.630393"
     inkscape:window-width="1366"
     inkscape:window-height="699"
     inkscape:window-x="0"
     inkscape:window-y="0"
     inkscape:window-maximized="1"
     inkscape:current-layer="svg46" />
  <path
     id="path2532"
     style="fill:#97aaf2;fill-opacity:1;stroke-width:0.0512099"
     d="M 12.501953 0 C 11.899081 -0.013333823 11.398525 0.50763353 11.460938 1.1269531 C 11.619687 2.6939758 12.485787 5.2849427 16.423828 5.7304688 C 17.074193 5.8021626 17.631502 5.2538813 17.554688 4.6035156 C 17.385696 3.077461 16.504757 0.56283242 12.623047 0.009765625 C 12.582079 0.0040045126 12.542145 0.00088892153 12.501953 0 z M 21.714844 1.4003906 C 21.56508 1.3872481 21.413808 1.4194427 21.283203 1.5058594 C 19.424284 2.7400176 18.302262 4.869502 18.271484 7.0664062 C 17.569909 6.759147 16.816765 6.5898438 16.033203 6.5898438 C 12.300054 6.5898438 9.2734375 10.385822 9.2734375 15.066406 C 9.2683675 19.49089 11.972282 23.121786 15.423828 23.505859 C 15.623495 23.526289 23.192859 23.526289 23.392578 23.505859 C 26.844125 23.121786 29.548828 19.49089 29.548828 15.066406 C 29.548828 10.385822 26.522264 6.5898438 22.789062 6.5898438 C 21.990188 6.5898438 21.221583 6.76453 20.509766 7.0820312 C 20.279321 7.184451 20.038777 7.2571218 19.792969 7.2929688 C 19.787869 7.1137341 19.79202 6.9240659 19.8125 6.7089844 C 19.930287 5.1880506 20.781463 3.6769944 22.056641 2.8320312 C 22.399747 2.6015868 22.547164 2.1499612 22.332031 1.78125 C 22.207239 1.5668086 21.96445 1.4222948 21.714844 1.4003906 z M 1.2792969 25.041016 C 0.57260041 25.041016 0 25.615568 0 26.322266 L 0 26.833984 C 0 27.540681 0.57260041 28.113281 1.2792969 28.113281 L 34.515625 28.113281 C 35.923897 28.113281 37.184286 28.780014 37.988281 29.814453 C 38.582368 30.57236 38.930164 31.530064 38.919922 32.564453 C 38.909682 33.563046 38.561833 34.478636 37.988281 35.210938 C 37.168923 36.255619 35.882568 36.927734 34.458984 36.927734 L 1.2792969 36.927734 C 0.57260041 36.927734 0 37.500335 0 38.207031 L 0 38.71875 C 0 39.425497 0.57260041 40 1.2792969 40 L 34.439453 40 C 38.572091 40 41.976825 36.675659 41.992188 32.542969 C 42.002427 28.410331 38.643142 25.041016 34.515625 25.041016 L 1.2792969 25.041016 z M 2.7753906 29.650391 L 2.7753906 35.390625 L 34.458984 35.390625 C 36.056733 35.390625 37.36745 34.115903 37.382812 32.548828 C 37.387912 31.78068 37.09556 31.053066 36.552734 30.5 C 36.00991 29.952054 35.283773 29.650391 34.515625 29.650391 L 2.7753906 29.650391 z " />
</svg>
