<?xml version="1.0" encoding="UTF-8" standalone="no"?>
<svg
   width="18.181406"
   height="18.26647"
   version="1.1"
   id="svg3586"
   sodipodi:docname="whatsapp.svg"
   inkscape:version="1.2 (dc2aedaf03, 2022-05-15)"
   xmlns:inkscape="http://www.inkscape.org/namespaces/inkscape"
   xmlns:sodipodi="http://sodipodi.sourceforge.net/DTD/sodipodi-0.dtd"
   xmlns="http://www.w3.org/2000/svg"
   xmlns:svg="http://www.w3.org/2000/svg">
  <defs
     id="defs3590" />
  <sodipodi:namedview
     id="namedview3588"
     pagecolor="#505050"
     bordercolor="#eeeeee"
     borderopacity="1"
     inkscape:showpageshadow="0"
     inkscape:pageopacity="0"
     inkscape:pagecheckerboard="0"
     inkscape:deskcolor="#505050"
     showgrid="false"
     inkscape:zoom="22.208333"
     inkscape:cx="8.6003752"
     inkscape:cy="9.1181989"
     inkscape:window-width="1366"
     inkscape:window-height="699"
     inkscape:window-x="0"
     inkscape:window-y="0"
     inkscape:window-maximized="1"
     inkscape:current-layer="svg3586" />
  <path
     id="path4487"
     style="fill:#008000;fill-opacity:1;stroke:#ffffff;stroke-width:0;stroke-dasharray:none;stroke-opacity:1"
     d="M 8.9541024,1.2168257 A 8,8 0 0 0 0.95410282,9.2168258 8,8 0 0 0 1.9462903,13.033232 c -0.07846,0.201828 -0.1210938,0.422121 -0.1210938,0.652344 v 0.953125 c 0,0.992046 0.7989692,1.791016 1.7910157,1.791016 0.4360121,0 0.8346196,-0.154949 1.1445312,-0.41211 A 8,8 0 0 0 8.9541024,17.216826 8,8 0 0 0 16.954102,9.2168258 8,8 0 0 0 8.9541024,1.2168257 Z" />
  <path
     fill-rule="evenodd"
     clip-rule="evenodd"
     d="M 15.491868,2.6955288 A 8.919,8.919 0 0 0 9.1418684,0.06252885 c -4.948,0 -8.97599998,4.02699995 -8.97799998,8.97699995 0,1.5820002 0.413,3.1260002 1.19799998,4.4880002 l -1.27299998,4.651 4.75899998,-1.249 a 8.981,8.981 0 0 0 4.29,1.093 h 0.004 c 4.9469996,0 8.9749996,-4.027 8.9769996,-8.9770002 a 8.926,8.926 0 0 0 -2.627,-6.35 M 9.1418684,16.507529 h -0.003 a 7.446,7.446 0 0 1 -3.798,-1.041 l -0.272,-0.162 -2.824,0.741 0.753,-2.753 -0.177,-0.282 a 7.448,7.448 0 0 1 -1.141,-3.9710002 c 0.002,-4.114 3.349,-7.461 7.465,-7.461 a 7.413,7.413 0 0 1 5.2749996,2.188 7.42,7.42 0 0 1 2.183,5.279 c -0.002,4.1140002 -3.349,7.4620002 -7.4609996,7.4620002 m 4.0929996,-5.589 c -0.225,-0.113 -1.327,-0.655 -1.533,-0.73 -0.205,-0.075 -0.354,-0.112 -0.504,0.112 -0.15,0.224 -0.58,0.729 -0.711,0.879 -0.131,0.15 -0.262,0.168 -0.486,0.056 -0.2239996,-0.112 -0.9469996,-0.349 -1.8039996,-1.113 -0.667,-0.5950002 -1.117,-1.3290002 -1.248,-1.5540002 -0.131,-0.225 -0.014,-0.346 0.099,-0.458 0.101,-0.1 0.224,-0.262 0.336,-0.393 0.112,-0.131 0.149,-0.224 0.224,-0.374 0.075,-0.15 0.038,-0.281 -0.019,-0.393 -0.056,-0.113 -0.505,-1.217 -0.692,-1.666 -0.181,-0.435 -0.366,-0.377 -0.504,-0.383 a 9.65,9.65 0 0 0 -0.429,-0.008 0.826,0.826 0 0 0 -0.599,0.28 c -0.206,0.225 -0.785,0.767 -0.785,1.871 0,1.104 0.804,2.171 0.916,2.321 0.112,0.15 1.582,2.4150002 3.832,3.3870002 0.536,0.231 0.9539996,0.369 1.2789996,0.473 0.537,0.171 1.026,0.146 1.413,0.089 0.431,-0.064 1.327,-0.542 1.514,-1.066 0.187,-0.524 0.187,-0.973 0.131,-1.067 -0.056,-0.094 -0.207,-0.151 -0.43,-0.263"
     id="path3584"
     style="fill:#ffffff;fill-opacity:1;stroke:#ffffff;stroke-width:0.125;stroke-dasharray:none;stroke-opacity:1" />
</svg>
