<?xml version="1.0" encoding="UTF-8" standalone="no"?>
<svg
   width="20.014149"
   height="14.012015"
   version="1.1"
   id="svg6404"
   sodipodi:docname="youtube.svg"
   inkscape:version="1.2 (dc2aedaf03, 2022-05-15)"
   xmlns:inkscape="http://www.inkscape.org/namespaces/inkscape"
   xmlns:sodipodi="http://sodipodi.sourceforge.net/DTD/sodipodi-0.dtd"
   xmlns="http://www.w3.org/2000/svg"
   xmlns:svg="http://www.w3.org/2000/svg">
  <defs
     id="defs6408" />
  <sodipodi:namedview
     id="namedview6406"
     pagecolor="#505050"
     bordercolor="#eeeeee"
     borderopacity="1"
     inkscape:showpageshadow="0"
     inkscape:pageopacity="0"
     inkscape:pagecheckerboard="0"
     inkscape:deskcolor="#505050"
     showgrid="false"
     inkscape:zoom="22.208333"
     inkscape:cx="9.7260788"
     inkscape:cy="7.0469043"
     inkscape:window-width="1366"
     inkscape:window-height="699"
     inkscape:window-x="0"
     inkscape:window-y="0"
     inkscape:window-maximized="1"
     inkscape:current-layer="svg6404" />
  <rect
     style="fill:#ffffff;stroke:#ffffff;stroke-width:0"
     id="rect6942"
     width="9.7230349"
     height="8.2920074"
     x="5.3411598"
     y="2.4435244"
     ry="1.7906994" />
  <path
     d="m 19.607001,2.2030076 a 2.506,2.506 0 0 0 -1.762,-1.766 c -1.566,-0.43 -7.831,-0.4370000041522 -7.831,-0.4370000041522 0,0 -6.2639995,-0.00699999585 -7.8309995,0.4040000041522 a 2.56,2.56 0 0 0 -1.76600003,1.778 c -0.413,1.566 -0.4170000048321,4.814 -0.4170000048321,4.814 0,0 -0.00399999517,3.2640004 0.4060000048321,4.8140004 0.23,0.857 0.90500003,1.534 1.76300003,1.765 1.582,0.43 7.83,0.437 7.83,0.437 0,0 6.2649995,0.007 7.8309995,-0.403 a 2.515,2.515 0 0 0 1.767,-1.763 c 0.414,-1.565 0.417,-4.8120004 0.417,-4.8120004 0,0 0.02,-3.265 -0.407,-4.831 z m -11.5969995,7.8020004 0.005,-6.0000004 5.2069995,3.005 z"
     id="path6402"
     style="fill:#ff0000" />
</svg>
